<svg width="26" height="26" viewBox="0 0 26 26" fill="none" xmlns="http://www.w3.org/2000/svg"><path d="M18.962 0H7.038A7.046 7.046 0 000 7.038v11.924A7.046 7.046 0 007.038 26h11.924A7.046 7.046 0 0026 18.962V7.038A7.046 7.046 0 0018.962 0zM13 20.11c-3.92 0-7.11-3.19-7.11-7.11 0-3.92 3.19-7.11 7.11-7.11 3.92 0 7.11 3.19 7.11 7.11 0 3.92-3.19 7.11-7.11 7.11zm7.28-12.543a2.103 2.103 0 01-2.102-2.1c0-1.159.943-2.101 2.101-2.101 1.159 0 2.101.942 2.101 2.1 0 1.16-.942 2.101-2.1 2.101z" fill="#fff"/><path d="M12.999 7.415A5.591 5.591 0 007.414 13 5.591 5.591 0 0013 18.585 5.591 5.591 0 0018.584 13a5.591 5.591 0 00-5.585-5.585zM20.28 4.89a.577.577 0 10.001 1.155.577.577 0 00-.001-1.155z" fill="#fff"/></svg>