<svg width="22" height="22" viewBox="0 0 22 22" fill="none" xmlns="http://www.w3.org/2000/svg"><g clip-path="url(#clip0_15_36)" fill="#FF4538"><path d="M17.387 13.628c-.45-.469-.994-.72-1.57-.72-.571 0-1.119.247-1.588.716l-1.467 1.462c-.12-.065-.242-.125-.358-.185-.167-.084-.325-.163-.46-.246-1.374-.873-2.623-2.011-3.82-3.483-.581-.734-.971-1.351-1.254-1.978.38-.348.733-.71 1.077-1.059l.39-.394c.975-.975.975-2.238 0-3.213L7.069 3.26a22.46 22.46 0 01-.432-.441 21.919 21.919 0 00-.872-.864c-.45-.446-.99-.682-1.556-.682-.566 0-1.114.236-1.579.682l-.009.01-1.579 1.592a3.397 3.397 0 00-1.007 2.16c-.112 1.355.288 2.618.594 3.445.752 2.029 1.876 3.91 3.552 5.924 2.034 2.429 4.48 4.346 7.276 5.698 1.068.506 2.494 1.105 4.086 1.207.098.005.2.01.293.01 1.072 0 1.973-.386 2.679-1.152.005-.01.014-.014.018-.024.242-.292.52-.557.813-.84.2-.19.404-.39.604-.599.46-.478.7-1.035.7-1.607 0-.575-.245-1.128-.714-1.592l-2.55-2.559zm1.662 4.89c-.005 0-.005.004 0 0-.181.195-.367.371-.567.566-.301.288-.608.59-.896.929-.469.501-1.021.738-1.746.738-.07 0-.144 0-.213-.005-1.38-.088-2.66-.626-3.622-1.086a20.626 20.626 0 01-6.853-5.368C3.568 12.384 2.51 10.62 1.808 8.725c-.431-1.156-.59-2.057-.52-2.907.047-.543.256-.993.641-1.379l1.584-1.583c.227-.214.468-.33.705-.33.293 0 .53.177.678.325l.014.014c.283.265.553.539.836.831.144.149.292.298.441.45l1.268 1.268c.492.493.492.948 0 1.44-.135.134-.265.27-.4.4-.39.398-.761.77-1.165 1.132-.01.01-.019.014-.023.023-.4.4-.325.79-.242 1.054l.014.042c.33.799.794 1.551 1.5 2.447l.005.005c1.281 1.579 2.632 2.809 4.123 3.752.19.12.385.218.57.31.168.084.326.163.46.247.02.009.038.023.056.032.158.08.307.116.46.116.385 0 .627-.241.706-.32l1.588-1.588c.158-.158.408-.348.7-.348.289 0 .525.18.67.339a.408.408 0 00.009.009l2.558 2.558c.479.474.479.962.005 1.454zM11.891 5.233a5.888 5.888 0 013.204 1.662 5.919 5.919 0 011.662 3.204c.051.307.316.52.618.52a.627.627 0 00.622-.734 7.161 7.161 0 00-2.01-3.876 7.162 7.162 0 00-3.878-2.01.63.63 0 00-.724.51.62.62 0 00.506.724zm10.083 4.472a11.782 11.782 0 00-3.31-6.385A11.782 11.782 0 0012.278.01a.624.624 0 00-.72.51.63.63 0 00.516.725 10.55 10.55 0 015.706 2.957 10.52 10.52 0 012.96 5.708c.05.306.316.52.617.52.038 0 .07-.005.107-.01a.615.615 0 00.511-.714z"/></g><defs><clipPath id="clip0_15_36"><path fill="#fff" d="M0 0h22v22H0z"/></clipPath></defs></svg>