<svg width="761" height="618" viewBox="0 0 761 618" fill="none" xmlns="http://www.w3.org/2000/svg"><path d="M22.32 151h3.2v13.04l1.72-.56L35.36 151h3.68l-8.08 12.16-1.6 1.28 2 1.64L40.28 179H36.2l-8.84-12.96h-1.84V179h-3.2v-13.44l-1.68.56L11.8 179H7.96l8.84-12.52 1.92-1.52-1.84-1.4L8.52 151h3.88l8.12 12.56h1.8V151zm43.227 9.04l.24-3.2h-.16l-1.72 3.28L50.387 179h-1.96v-28h3.32v19.2l-.28 3.16h.16l1.76-3.28L66.907 151h1.96v28h-3.32v-18.96zm29.746-6.08h-8.36c-.267 5.333-.627 9.773-1.08 13.32-.426 3.52-1.08 6.267-1.96 8.24-.587 1.28-1.28 2.213-2.08 2.8-.8.587-1.666.88-2.6.88-.48 0-.893-.04-1.24-.12a4.284 4.284 0 01-1-.28l.44-2.88c.267.08.547.12.84.12.454 0 .894-.147 1.32-.44.454-.293.894-.84 1.32-1.64.373-.72.72-1.68 1.04-2.88.347-1.2.64-2.72.88-4.56.267-1.84.48-4.027.64-6.56.16-2.56.28-5.547.36-8.96h14.8v28h-3.32v-25.04zM109.054 165c0-4.667.987-8.24 2.96-10.72 1.973-2.507 4.787-3.76 8.44-3.76 1.973 0 3.68.347 5.12 1.04a9.359 9.359 0 013.56 2.96c.96 1.253 1.667 2.773 2.12 4.56.453 1.76.68 3.733.68 5.92 0 4.667-1 8.253-3 10.76-1.973 2.48-4.8 3.72-8.48 3.72-1.947 0-3.64-.347-5.08-1.04a9.946 9.946 0 01-3.56-2.92c-.933-1.28-1.627-2.8-2.08-4.56-.453-1.787-.68-3.773-.68-5.96zm3.52 0c0 1.547.147 3.013.44 4.4.32 1.387.8 2.613 1.44 3.68a7.873 7.873 0 002.44 2.52c1.013.613 2.2.92 3.56.92 2.48 0 4.427-.933 5.84-2.8 1.413-1.893 2.12-4.8 2.12-8.72 0-1.52-.16-2.973-.48-4.36-.293-1.413-.773-2.64-1.44-3.68-.64-1.067-1.467-1.907-2.48-2.52-.987-.64-2.173-.96-3.56-.96-2.453 0-4.387.947-5.8 2.84-1.387 1.867-2.08 4.76-2.08 8.68zm46.904-4.96l.24-3.2h-.16l-1.72 3.28-13.52 18.88h-1.96v-28h3.32v19.2l-.28 3.16h.16l1.76-3.28 13.52-19.08h1.96v28h-3.32v-18.96zm-10.2-15.84c.106.987.48 1.747 1.12 2.28.64.533 1.493.8 2.56.8 1.066 0 1.906-.267 2.52-.8.64-.533 1.026-1.28 1.16-2.24l2.84.68c-.294 1.44-.974 2.587-2.04 3.44-1.04.827-2.547 1.24-4.52 1.24-1.894 0-3.454-.36-4.68-1.08-1.2-.747-1.907-1.92-2.12-3.52l3.16-.8zm45.77 21.84h-1.88V179h-3.32v-28h3.32v13.04l1.8-.56 9.4-12.48h3.84l-9.36 12.04-1.68 1.32 2.04 1.6 10.24 13.04h-4.2l-10.2-12.96zm22.073-1.04c0-4.667.987-8.24 2.96-10.72 1.974-2.507 4.787-3.76 8.44-3.76 1.974 0 3.68.347 5.12 1.04a9.359 9.359 0 013.56 2.96c.96 1.253 1.667 2.773 2.12 4.56.454 1.76.68 3.733.68 5.92 0 4.667-1 8.253-3 10.76-1.973 2.48-4.8 3.72-8.48 3.72-1.946 0-3.64-.347-5.08-1.04a9.946 9.946 0 01-3.56-2.92c-.933-1.28-1.626-2.8-2.08-4.56-.453-1.787-.68-3.773-.68-5.96zm3.52 0c0 1.547.147 3.013.44 4.4.32 1.387.8 2.613 1.44 3.68a7.883 7.883 0 002.44 2.52c1.014.613 2.2.92 3.56.92 2.48 0 4.427-.933 5.84-2.8 1.414-1.893 2.12-4.8 2.12-8.72 0-1.52-.16-2.973-.48-4.36-.293-1.413-.773-2.64-1.44-3.68-.64-1.067-1.466-1.907-2.48-2.52-.986-.64-2.173-.96-3.56-.96-2.453 0-4.386.947-5.8 2.84-1.386 1.867-2.08 4.76-2.08 8.68zm51.304-4.8l.4-4.2h-.2l-1.52 3.84-7.28 12.64h-1l-7.72-12.68-1.44-3.8h-.2l.56 4.16V179h-3.12v-28h2.48l8.76 14.32 1.32 3.12h.08l1.24-3.2 8.36-14.24h2.6v28h-3.32v-18.8zm31.161-6.24h-12.92V179h-3.32v-28h19.56v28h-3.32v-25.04zm29.767 0h-8.36c-.267 5.333-.627 9.773-1.08 13.32-.427 3.52-1.08 6.267-1.96 8.24-.587 1.28-1.28 2.213-2.08 2.8-.8.587-1.667.88-2.6.88-.48 0-.894-.04-1.24-.12a4.279 4.279 0 01-1-.28l.44-2.88c.266.08.546.12.84.12.453 0 .893-.147 1.32-.44.453-.293.893-.84 1.32-1.64.373-.72.72-1.68 1.04-2.88.346-1.2.64-2.72.88-4.56.266-1.84.48-4.027.64-6.56.16-2.56.28-5.547.36-8.96h14.8v28h-3.32v-25.04zm14.921-2.96h15.24v2.96h-11.92v9.16h10.92v2.96h-10.92v9.96h12.12V179h-15.44v-28zm31.445 15.04h-1.88V179h-3.32v-28h3.32v13.04l1.8-.56 9.4-12.48h3.84l-9.36 12.04-1.68 1.32 2.04 1.6 10.24 13.04h-4.2l-10.2-12.96zm41.153 11.8c-.8.613-1.813 1.04-3.04 1.28a20.4 20.4 0 01-3.92.36c-1.68 0-3.253-.28-4.72-.84a10.549 10.549 0 01-3.84-2.64c-1.093-1.173-1.96-2.667-2.6-4.48-.64-1.84-.96-4.013-.96-6.52 0-2.613.347-4.827 1.04-6.64.72-1.84 1.653-3.333 2.8-4.48 1.173-1.173 2.48-2.027 3.92-2.56 1.44-.533 2.907-.8 4.4-.8 1.6 0 2.907.093 3.92.28 1.013.16 1.88.387 2.6.68l-.8 2.92c-1.28-.613-3.107-.92-5.48-.92-1.093 0-2.173.2-3.24.6-1.067.4-2.027 1.053-2.88 1.96-.827.907-1.493 2.093-2 3.56-.507 1.467-.76 3.267-.76 5.4 0 1.92.24 3.6.72 5.04s1.133 2.64 1.96 3.6c.853.96 1.84 1.68 2.96 2.16 1.147.48 2.387.72 3.72.72 1.2 0 2.24-.12 3.12-.36.907-.24 1.667-.547 2.28-.92l.8 2.6zM16.6 388.04h-1.88V401H11.4v-28h3.32v13.04l1.8-.56 9.4-12.48h3.84l-9.36 12.04-1.68 1.32 2.04 1.6L31 401h-4.2l-10.2-12.96zM39.473 387c0-4.667.986-8.24 2.96-10.72 1.973-2.507 4.786-3.76 8.44-3.76 1.973 0 3.68.347 5.12 1.04a9.361 9.361 0 013.56 2.96c.96 1.253 1.666 2.773 2.12 4.56.453 1.76.68 3.733.68 5.92 0 4.667-1 8.253-3 10.76-1.974 2.48-4.8 3.72-8.48 3.72-1.947 0-3.64-.347-5.08-1.04a9.944 9.944 0 01-3.56-2.92c-.933-1.28-1.627-2.8-2.08-4.56-.453-1.787-.68-3.773-.68-5.96zm3.52 0c0 1.547.146 3.013.44 4.4.32 1.387.8 2.613 1.44 3.68a7.876 7.876 0 002.44 2.52c1.013.613 2.2.92 3.56.92 2.48 0 4.427-.933 5.84-2.8 1.413-1.893 2.12-4.8 2.12-8.72 0-1.52-.16-2.973-.48-4.36-.294-1.413-.773-2.64-1.44-3.68-.64-1.067-1.467-1.907-2.48-2.52-.987-.64-2.173-.96-3.56-.96-2.453 0-4.387.947-5.8 2.84-1.387 1.867-2.08 4.76-2.08 8.68zm52.104-4.8l.4-4.2h-.2l-1.52 3.84-7.28 12.64h-1l-7.72-12.68-1.44-3.8h-.2l.56 4.16V401h-3.12v-28h2.48l8.76 14.32 1.32 3.12h.08l1.24-3.2 8.36-14.24h2.6v28h-3.32v-18.8zm26.28 15.68c-.453.08-.986.133-1.6.16-.586.027-1.146.04-1.68.04a9.909 9.909 0 01-3.56-.64 7.607 7.607 0 01-2.88-2c-.8-.907-1.44-2.053-1.92-3.44-.453-1.413-.68-3.08-.68-5 0-1.813.227-3.427.68-4.84.48-1.44 1.147-2.653 2-3.64a8.637 8.637 0 013.12-2.24c1.2-.533 2.534-.8 4-.8.347 0 .774.013 1.28.04.534.027.947.067 1.24.12v-3.44h3.28v3.56a7.52 7.52 0 011.68-.24 41.97 41.97 0 011.64-.04c1.28 0 2.467.24 3.56.72a7.468 7.468 0 012.84 2.08c.827.907 1.467 2.067 1.92 3.48.454 1.387.68 3 .68 4.84 0 1.893-.266 3.56-.8 5-.506 1.44-1.2 2.64-2.08 3.6a8.502 8.502 0 01-3.08 2.16 9.83 9.83 0 01-3.76.72c-.293 0-.733-.013-1.32-.04-.56-.053-.986-.133-1.28-.24v4h-3.28v-3.92zm6.12-19.6c-.373 0-.853.013-1.44.04-.586.027-1.066.107-1.44.24v16.6a8.2 8.2 0 001.04.12h1.32c.907 0 1.747-.173 2.52-.52.8-.347 1.494-.88 2.08-1.6.614-.72 1.094-1.627 1.44-2.72.347-1.093.52-2.373.52-3.84 0-1.227-.146-2.347-.44-3.36-.266-1.04-.666-1.933-1.2-2.68-.506-.747-1.133-1.307-1.88-1.68-.746-.4-1.586-.6-2.52-.6zm-8.8 17h1.28c.267-.027.52-.053.76-.08.267-.053.494-.107.68-.16v-16.6c-.32-.053-.72-.093-1.2-.12a20.95 20.95 0 00-1.24-.04c-.906 0-1.76.187-2.56.56-.773.347-1.453.893-2.04 1.64-.586.72-1.053 1.627-1.4 2.72-.32 1.093-.48 2.36-.48 3.8 0 1.28.147 2.44.44 3.48.294 1.013.707 1.88 1.24 2.6.56.72 1.214 1.267 1.96 1.64.774.373 1.627.56 2.56.56zm27.771-8.28c0-4.667.987-8.24 2.96-10.72 1.973-2.507 4.787-3.76 8.44-3.76 1.973 0 3.68.347 5.12 1.04a9.359 9.359 0 013.56 2.96c.96 1.253 1.667 2.773 2.12 4.56.453 1.76.68 3.733.68 5.92 0 4.667-1 8.253-3 10.76-1.973 2.48-4.8 3.72-8.48 3.72-1.947 0-3.64-.347-5.08-1.04a9.946 9.946 0 01-3.56-2.92c-.933-1.28-1.627-2.8-2.08-4.56-.453-1.787-.68-3.773-.68-5.96zm3.52 0c0 1.547.147 3.013.44 4.4.32 1.387.8 2.613 1.44 3.68a7.873 7.873 0 002.44 2.52c1.013.613 2.2.92 3.56.92 2.48 0 4.427-.933 5.84-2.8 1.413-1.893 2.12-4.8 2.12-8.72 0-1.52-.16-2.973-.48-4.36-.293-1.413-.773-2.64-1.44-3.68-.64-1.067-1.467-1.907-2.48-2.52-.987-.64-2.173-.96-3.56-.96-2.453 0-4.387.947-5.8 2.84-1.387 1.867-2.08 4.76-2.08 8.68zm30.584-13.72c1.013-.24 2.107-.4 3.28-.48 1.173-.08 2.333-.12 3.48-.12 1.227 0 2.467.12 3.72.36 1.28.24 2.44.68 3.48 1.32s1.88 1.52 2.52 2.64c.667 1.12 1 2.547 1 4.28 0 1.707-.307 3.147-.92 4.32-.613 1.173-1.427 2.133-2.44 2.88-1.013.72-2.173 1.24-3.48 1.56-1.307.32-2.653.48-4.04.48h-1.64l-.96-.08a6.86 6.86 0 01-.68-.08V401h-3.32v-27.72zm6.84 2.28c-.693 0-1.36.013-2 .04-.64.027-1.147.093-1.52.2v11.6c.133.053.347.093.64.12.293 0 .6.013.92.04h1.56c.907 0 1.8-.08 2.68-.24a7.308 7.308 0 002.44-.96c.72-.453 1.293-1.093 1.72-1.92.453-.827.68-1.88.68-3.16 0-1.093-.213-2-.64-2.72a4.54 4.54 0 00-1.64-1.76 6.485 6.485 0 00-2.28-.96 11.927 11.927 0 00-2.56-.28zm38.559.4h-8.72V401h-3.32v-25.04h-8.72V373h20.76v2.96zm29.57 12.08h-1.88V401h-3.32v-28h3.32v13.04l1.8-.56 9.4-12.48h3.84l-9.36 12.04-1.68 1.32 2.04 1.6 10.24 13.04h-4.2l-10.2-12.96zm40.865-12.08h-8.36c-.267 5.333-.627 9.773-1.08 13.32-.427 3.52-1.08 6.267-1.96 8.24-.587 1.28-1.28 2.213-2.08 2.8-.8.587-1.667.88-2.6.88-.48 0-.894-.04-1.24-.12a4.279 4.279 0 01-1-.28l.44-2.88c.266.08.546.12.84.12.453 0 .893-.147 1.32-.44.453-.293.893-.84 1.32-1.64.373-.72.72-1.68 1.04-2.88.346-1.2.64-2.72.88-4.56.266-1.84.48-4.027.64-6.56.16-2.56.28-5.547.36-8.96h14.8v28h-3.32v-25.04zm29.041 17.28h-10.32l-2.8 7.76h-3.28l10.6-28.44h1.52l10.64 28.44h-3.48l-2.88-7.76zm-9.24-2.88h8.24l-3.12-8.52-1-4.24h-.04l-1 4.32-3.08 8.44zm41.822 9.48c-.8.613-1.813 1.04-3.04 1.28-1.226.24-2.533.36-3.92.36-1.68 0-3.253-.28-4.72-.84a10.565 10.565 0 01-3.84-2.64c-1.093-1.173-1.96-2.667-2.6-4.48-.64-1.84-.96-4.013-.96-6.52 0-2.613.347-4.827 1.04-6.64.72-1.84 1.654-3.333 2.8-4.48 1.174-1.173 2.48-2.027 3.92-2.56 1.44-.533 2.907-.8 4.4-.8 1.6 0 2.907.093 3.92.28 1.014.16 1.88.387 2.6.68l-.8 2.92c-1.28-.613-3.106-.92-5.48-.92-1.093 0-2.173.2-3.24.6-1.066.4-2.026 1.053-2.88 1.96-.826.907-1.493 2.093-2 3.56-.506 1.467-.76 3.267-.76 5.4 0 1.92.24 3.6.72 5.04s1.134 2.64 1.96 3.6c.854.96 1.84 1.68 2.96 2.16 1.147.48 2.387.72 3.72.72 1.2 0 2.24-.12 3.12-.36.907-.24 1.667-.547 2.28-.92l.8 2.6zm27.397 0c-.8.613-1.813 1.04-3.04 1.28-1.226.24-2.533.36-3.92.36-1.68 0-3.253-.28-4.72-.84a10.565 10.565 0 01-3.84-2.64c-1.093-1.173-1.96-2.667-2.6-4.48-.64-1.84-.96-4.013-.96-6.52 0-2.613.347-4.827 1.04-6.64.72-1.84 1.654-3.333 2.8-4.48 1.174-1.173 2.48-2.027 3.92-2.56 1.44-.533 2.907-.8 4.4-.8 1.6 0 2.907.093 3.92.28 1.014.16 1.88.387 2.6.68l-.8 2.92c-1.28-.613-3.106-.92-5.48-.92-1.093 0-2.173.2-3.24.6-1.066.4-2.026 1.053-2.88 1.96-.826.907-1.493 2.093-2 3.56-.506 1.467-.76 3.267-.76 5.4 0 1.92.24 3.6.72 5.04s1.134 2.64 1.96 3.6c.854.96 1.84 1.68 2.96 2.16 1.147.48 2.387.72 3.72.72 1.2 0 2.24-.12 3.12-.36.907-.24 1.667-.547 2.28-.92l.8 2.6zm22.719-6.6h-10.32l-2.8 7.76h-3.28l10.6-28.44h1.52l10.64 28.44h-3.48l-2.88-7.76zm-9.24-2.88h8.24l-3.12-8.52-1-4.24h-.04l-1 4.32-3.08 8.44zM34.95 288.15h-5.4V333H9V228h20.55v46.5l4.8-2.1L63.3 228h23.4l-30.6 44.1-8.1 5.7 8.4 5.85L91.35 333H66l-31.05-44.85zM102.018 228h62.25v18.3h-41.7v24.45h37.95v18.3h-37.95v25.65h42.45V333h-63V228zm78.369 1.05c2.3-.4 4.75-.75 7.35-1.05 2.7-.4 5.35-.7 7.95-.9 2.7-.2 5.3-.35 7.8-.45 2.5-.1 4.8-.15 6.9-.15 4.9 0 9.7.45 14.4 1.35 4.8.9 9.05 2.45 12.75 4.65 3.8 2.2 6.8 5.25 9 9.15 2.3 3.8 3.45 8.6 3.45 14.4 0 8.6-2 15.6-6 21s-9.35 9.15-16.05 11.25l7.35 4.65 24 40.05h-23.7l-23.85-41.1-10.8-1.95V333h-20.55V229.05zm31.5 15.75c-2.1 0-4.2.05-6.3.15-2 .1-3.55.3-4.65.6V276h8.7c5.7 0 10.25-1.3 13.65-3.9 3.4-2.6 5.1-6.9 5.1-12.9 0-4.5-1.4-8-4.2-10.5-2.8-2.6-6.9-3.9-12.3-3.9zm60.834-16.8h20.55v105h-20.55V228zm122.124 50.55l2.25-20.85h-.9l-6.45 16.8-22.35 39.15h-6.6l-23.55-39.3-6.6-16.65h-.75l3 20.7V333h-19.5V228h18.75l28.05 48 4.95 12h.6l4.5-12.3 26.55-47.7h18.6v105h-20.55v-54.45zm155.854-4.288c33.047-14.297 49.571-33.75 49.571-58.36 0-34.804-18.458-52.207-55.372-52.207s-55.371 17.403-55.371 52.207H463.16c0-52.382 27.246-78.574 81.738-78.574 54.493 0 81.739 26.192 81.739 78.574 0 36.563-22.383 64.453-67.149 83.672l-33.574 14.59c-24.258 9.961-36.387 30.117-36.387 60.469h137.11V401H463.16v-26.367c0-41.953 17.988-70.606 53.965-85.957l33.574-14.414z" fill="#fff"/></svg>