<svg width="46" height="46" viewBox="0 0 46 46" fill="none" xmlns="http://www.w3.org/2000/svg">
<circle r="22.5" transform="matrix(-1 0 0 1 23 23)" stroke="#FF4538"/>
<path d="M20.9089 17.4106C21.1433 17.1965 21.5235 17.1965 21.7583 17.4106C21.9928 17.6245 21.9928 17.9717 21.7583 18.1858L17.2092 22.3377H29.2959C29.6286 22.3377 29.8984 22.584 29.8984 22.8877C29.8984 23.1915 29.6286 23.4376 29.2959 23.4376H17.2153L21.7643 27.5896C21.8772 27.6922 21.9406 27.8319 21.9406 27.9773C21.9406 28.1228 21.8772 28.2621 21.7643 28.365C21.6515 28.4688 21.4969 28.5264 21.3365 28.5245C21.1767 28.5238 21.0232 28.4666 20.9089 28.365L15.3355 23.2783C15.2221 23.1746 15.1589 23.0339 15.1606 22.8877C15.1617 22.7418 15.2244 22.6023 15.3355 22.4974L20.9089 17.4106Z" fill="#FF4538"/>
</svg>
