<svg width="46" height="46" viewBox="0 0 46 46" fill="none" xmlns="http://www.w3.org/2000/svg">
<circle cx="23" cy="23" r="22.5" stroke="#FF4538"/>
<path d="M25.4094 16.2869C25.1367 16.0378 24.6942 16.0378 24.4211 16.2869C24.1481 16.5358 24.1481 16.9399 24.4211 17.189L29.7143 22.0201H15.6503C15.2632 22.0201 14.9492 22.3067 14.9492 22.6601C14.9492 23.0136 15.2632 23.3 15.6503 23.3H29.7072L24.414 28.1311C24.2827 28.2506 24.2089 28.4131 24.2089 28.5823C24.2089 28.7516 24.2827 28.9137 24.414 29.0334C24.5453 29.1542 24.7252 29.2212 24.9118 29.219C25.0978 29.2182 25.2763 29.1516 25.4094 29.0334L31.8945 23.1146C32.0265 22.994 32.1 22.8302 32.098 22.6601C32.0967 22.4903 32.0238 22.328 31.8945 22.2059L25.4094 16.2869Z" fill="#FF4538"/>
</svg>
