<svg width="58" height="58" viewBox="0 0 58 58" fill="none" xmlns="http://www.w3.org/2000/svg"><circle cx="29" cy="29" r="28.5" stroke="#0096FA"/><path fill-rule="evenodd" clip-rule="evenodd" d="M28.57 16.247c-.637.355-12.101 7.44-12.224 7.555a.76.76 0 00-.082.986c.238.302-.74.28 12.733.28 13.474 0 12.495.022 12.733-.28a.761.761 0 00-.08-.987c-.136-.126-11.903-7.393-12.301-7.596-.267-.136-.48-.125-.78.042zm1.283 4.404a.74.74 0 01.056 1.282c-.159.106-.226.114-.907.114-.644 0-.755-.013-.899-.1a.74.74 0 01.039-1.296c.192-.102.288-.115.855-.115.568 0 .663.013.856.115zm-11.925 6.48c.017.526.023.557.162.7.079.084.204.176.276.206.095.039 3.198.05 10.718.041l10.586-.013.19-.19.19-.189.016-.553.017-.553H17.911l.017.55zm1 6.095v3.627h3.02l-.012-3.613-.013-3.614-1.498-.013-1.498-.013v3.626zm5.689.001v3.626h3.02v-7.252h-3.02v3.626zm5.74 0v3.626h3.02v-7.252h-3.02v3.626zm5.723-3.592c-.018.018-.034 1.65-.034 3.626v3.592h3.021v-7.252H37.59c-.812 0-1.492.015-1.51.034zm-19.59 8.848c-.358.217-.378.304-.38 1.633-.003 1.342.023 1.455.39 1.66l.2.113h12.294c12.221 0 12.294 0 12.492-.101a.694.694 0 00.3-.3c.093-.183.101-.296.101-1.361 0-1.066-.008-1.18-.101-1.361a.694.694 0 00-.3-.3c-.198-.102-.27-.102-12.5-.102h-12.3l-.196.12z" fill="#0096FA"/></svg>