<svg width="58" height="58" viewBox="0 0 58 58" fill="none" xmlns="http://www.w3.org/2000/svg"><circle cx="29" cy="29" r="28.5" stroke="#0096FA"/><g clip-path="url(#clip0_29_638)"><path d="M44.641 29.808a.456.456 0 00-.227-.394c.555-.51.899-1.098.899-1.939 0-2.477-3.02-2.965-3.02-4.104 0 1.14-3.02 1.627-3.02 4.105 0 .84.344 1.429.898 1.938a.456.456 0 00.206.849v2.448a.456.456 0 000 .91V34.9h-5.66v-1.864h-.65v-1.284h-.054c1.145-1.115 1.847-2.411 1.847-4.221 0-5.108-5.651-6.494-6.695-8.641a2.33 2.33 0 002.385-.799 2.36 2.36 0 00.369-.637l.013-.036-.032.021a2.317 2.317 0 01-2.72-.144 2.314 2.314 0 01-.708-2.63l.014-.036-.032.02c-.207.135-.39.3-.547.493a2.327 2.327 0 00-.509 1.72 2.328 2.328 0 001.479 1.935c-.923 2.201-6.737 3.553-6.737 8.734 0 1.81.701 3.106 1.847 4.221h-.054v1.284h-.65v1.863h-5.66v-1.283a.457.457 0 000-.911v-2.448a.456.456 0 00.206-.849c.554-.509.898-1.097.898-1.938 0-2.477-3.02-2.965-3.02-4.105 0 1.14-3.02 1.628-3.02 4.105 0 .84.345 1.43.899 1.938a.456.456 0 00.206.85v2.447a.457.457 0 000 .91V34.9h-.003v8.472h3.762v-3.266c0-1.356 1.942-2.244 1.942-2.244s1.943.888 1.943 2.244v3.266h4.84v-4.663c0-1.9 2.724-3.146 2.724-3.146s2.724 1.245 2.724 3.146v4.663h4.84v-3.266c0-1.356 1.943-2.244 1.943-2.244s1.942.888 1.942 2.244v3.266h3.762V34.9h-.003v-1.278a.457.457 0 000-.911v-2.448a.457.457 0 00.433-.456z" fill="#0096FA"/></g><defs><clipPath id="clip0_29_638"><path fill="#fff" transform="translate(12.688 12.688)" d="M0 0h32.625v32.625H0z"/></clipPath></defs></svg>