<svg width="58" height="58" viewBox="0 0 58 58" fill="none" xmlns="http://www.w3.org/2000/svg"><circle cx="29" cy="29" r="28.5" stroke="#0096FA"/><path fill-rule="evenodd" clip-rule="evenodd" d="M28.424 16.192c-.078.087-.085.312-.085 2.582v2.488l-2.87 2.871c-2.626 2.628-2.87 2.886-2.87 3.037 0 .184.1.407.231.516.061.051.28.08.746.097l.66.025.013 1.65.013 1.648h-.506c-.779 0-.905.113-.905.813v.345h-1.158v-.315c0-.414-.074-.663-.226-.762-.144-.095-.828-.113-.99-.027-.154.083-.244.358-.244.75v.354h-1.108v-.345c0-.65-.137-.813-.68-.813-.437 0-.608.09-.68.355-.035.133-.05.786-.04 1.887l.016 1.683.14.14c.135.135.158.14.766.156l.627.016.014 3.147.014 3.147.14.122.142.121h6.033l.014-2.907.014-2.908.161-.34c.27-.569.745-.965 1.35-1.127.353-.094 2.768-.094 3.121 0a2.02 2.02 0 011.467 1.467c.053.196.068.874.068 3.034v2.781h2.943c1.752 0 2.993-.02 3.069-.048.285-.108.282-.075.282-3.419v-3.07l.634-.016c.623-.017.636-.02.755-.158l.122-.141v-1.859c0-1.846-.001-1.858-.11-1.96-.089-.082-.178-.103-.45-.103-.187 0-.4.023-.471.05-.182.07-.278.33-.278.754v.354H37.26l-.018-.458c-.017-.428-.027-.465-.159-.578-.12-.104-.194-.122-.489-.122-.599 0-.695.098-.716.73l-.013.403-.587.014-.586.014-.018-.459c-.016-.43-.026-.467-.159-.58-.13-.113-.182-.122-.692-.122h-.551v-3.323h.602c.36 0 .655-.024.734-.06.26-.118.36-.546.187-.797-.14-.203-5.56-5.493-5.688-5.551-.114-.052-.114-.057-.114-1.127v-1.074h1.968c1.722 0 1.985-.01 2.106-.082.262-.154.28-.226.297-1.211.014-.784.004-.942-.07-1.098-.156-.328-.152-.328-2.323-.33H29.02l-.076-.163c-.061-.132-.109-.165-.254-.177-.125-.01-.205.013-.265.08z" fill="#0096FA"/></svg>