<svg width="58" height="58" viewBox="0 0 58 58" fill="none" xmlns="http://www.w3.org/2000/svg"><circle cx="29" cy="29" r="28.5" stroke="#0096FA"/><g clip-path="url(#clip0_29_646)"><path d="M40.29 43.72l-1.348-19.195c-.027-.38-.301-.67-.632-.67h-3.617v-.924c0-3.03-2.112-5.494-4.744-5.494h-.084c-2.63 0-4.8 2.465-4.8 5.494v.923h-3.56c-.33 0-.605.292-.632.67l-1.351 19.25a.8.8 0 00.165.554c.12.15.29.234.466.234h19.51c.35 0 .634-.326.634-.729a.836.836 0 00-.008-.112zM26.331 22.931c0-2.225 1.6-4.035 3.534-4.035h.083c1.933 0 3.477 1.81 3.477 4.035v.923h-7.094v-.923z" fill="#0096FA"/></g><defs><clipPath id="clip0_29_646"><path fill="#fff" transform="translate(18.125 16.313)" d="M0 0h23.563v25.375H0z"/></clipPath></defs></svg>