<svg width="127" height="27" viewBox="0 0 127 27" fill="none" xmlns="http://www.w3.org/2000/svg">
<path fill-rule="evenodd" clip-rule="evenodd" d="M4 0C1.79086 0 0 1.79086 0 4V18C0 20.2091 1.79086 22 4 22H6.35139L9.23812 27L12.1248 22H123C125.209 22 127 20.2091 127 18V4C127 1.79086 125.209 0 123 0H4Z" fill="#9D8140"/>
<path d="M16.476 9.36L16.596 8.1H16.536L16.08 9.252L13.896 13.044H13.596L11.28 9.24L10.848 8.1H10.788L10.956 9.348V15H10.02V6.6H10.764L13.392 10.896L13.788 11.832H13.812L14.184 10.872L16.692 6.6H17.472V15H16.476V9.36ZM19.0802 12C19.0802 10.984 19.3042 10.208 19.7522 9.672C20.2082 9.128 20.8602 8.856 21.7082 8.856C22.1562 8.856 22.5442 8.932 22.8722 9.084C23.2082 9.228 23.4842 9.44 23.7002 9.72C23.9162 9.992 24.0762 10.324 24.1802 10.716C24.2842 11.1 24.3362 11.528 24.3362 12C24.3362 13.016 24.1082 13.796 23.6522 14.34C23.2042 14.876 22.5562 15.144 21.7082 15.144C21.2602 15.144 20.8682 15.072 20.5322 14.928C20.2042 14.776 19.9322 14.564 19.7162 14.292C19.5002 14.012 19.3402 13.68 19.2362 13.296C19.1322 12.904 19.0802 12.472 19.0802 12ZM20.0762 12C20.0762 12.304 20.1042 12.596 20.1602 12.876C20.2242 13.156 20.3202 13.4 20.4482 13.608C20.5762 13.816 20.7442 13.984 20.9522 14.112C21.1602 14.24 21.4122 14.304 21.7082 14.304C22.7962 14.312 23.3402 13.544 23.3402 12C23.3402 11.688 23.3082 11.392 23.2442 11.112C23.1882 10.832 23.0962 10.588 22.9682 10.38C22.8402 10.172 22.6722 10.008 22.4642 9.888C22.2562 9.76 22.0042 9.696 21.7082 9.696C20.6202 9.688 20.0762 10.456 20.0762 12ZM29.9418 14.604C29.7018 14.78 29.4178 14.912 29.0898 15C28.7618 15.096 28.4178 15.144 28.0578 15.144C27.5938 15.144 27.2018 15.072 26.8818 14.928C26.5618 14.776 26.2978 14.564 26.0898 14.292C25.8898 14.012 25.7418 13.68 25.6458 13.296C25.5578 12.904 25.5138 12.472 25.5138 12C25.5138 10.984 25.7378 10.208 26.1858 9.672C26.6338 9.128 27.2778 8.856 28.1178 8.856C28.5018 8.856 28.8258 8.888 29.0898 8.952C29.3618 9.008 29.6058 9.092 29.8218 9.204L29.5458 10.032C29.3618 9.928 29.1578 9.848 28.9338 9.792C28.7098 9.728 28.4698 9.696 28.2138 9.696C27.0778 9.696 26.5098 10.464 26.5098 12C26.5098 12.304 26.5378 12.596 26.5938 12.876C26.6578 13.148 26.7578 13.392 26.8938 13.608C27.0378 13.816 27.2218 13.984 27.4458 14.112C27.6778 14.24 27.9618 14.304 28.2978 14.304C28.5858 14.304 28.8418 14.26 29.0658 14.172C29.2978 14.084 29.4858 13.984 29.6298 13.872L29.9418 14.604ZM34.9043 9.84H33.0203V15H32.0603V9.84H30.1763V9H34.9043V9.84ZM42.3538 12.348H39.6418V15H38.6818V9H39.6418V11.508H42.3538V9H43.3138V15H42.3538V12.348ZM45.0663 9.444C45.3703 9.26 45.7223 9.124 46.1223 9.036C46.5303 8.948 46.9543 8.904 47.3943 8.904C47.8103 8.904 48.1423 8.96 48.3903 9.072C48.6463 9.184 48.8383 9.332 48.9663 9.516C49.1023 9.692 49.1903 9.888 49.2303 10.104C49.2783 10.32 49.3023 10.536 49.3023 10.752C49.3023 11.232 49.2903 11.7 49.2663 12.156C49.2423 12.612 49.2303 13.044 49.2303 13.452C49.2303 13.748 49.2423 14.028 49.2663 14.292C49.2903 14.556 49.3343 14.8 49.3983 15.024H48.6903L48.4383 14.184H48.3783C48.3063 14.296 48.2143 14.408 48.1023 14.52C47.9983 14.624 47.8703 14.72 47.7183 14.808C47.5663 14.888 47.3903 14.956 47.1903 15.012C46.9903 15.068 46.7623 15.096 46.5063 15.096C46.2503 15.096 46.0103 15.056 45.7863 14.976C45.5703 14.896 45.3823 14.784 45.2223 14.64C45.0623 14.488 44.9343 14.308 44.8383 14.1C44.7503 13.892 44.7063 13.656 44.7063 13.392C44.7063 13.04 44.7783 12.748 44.9223 12.516C45.0663 12.276 45.2663 12.088 45.5223 11.952C45.7863 11.808 46.0983 11.708 46.4583 11.652C46.8263 11.588 47.2303 11.556 47.6703 11.556C47.7823 11.556 47.8903 11.556 47.9943 11.556C48.1063 11.556 48.2183 11.564 48.3303 11.58C48.3543 11.34 48.3663 11.124 48.3663 10.932C48.3663 10.492 48.2783 10.184 48.1023 10.008C47.9263 9.832 47.6063 9.744 47.1423 9.744C47.0063 9.744 46.8583 9.756 46.6983 9.78C46.5463 9.796 46.3863 9.824 46.2183 9.864C46.0583 9.896 45.9023 9.94 45.7503 9.996C45.6063 10.044 45.4783 10.1 45.3663 10.164L45.0663 9.444ZM46.7703 14.256C46.9943 14.256 47.1943 14.228 47.3703 14.172C47.5463 14.108 47.6983 14.032 47.8263 13.944C47.9543 13.848 48.0583 13.744 48.1383 13.632C48.2263 13.52 48.2903 13.412 48.3303 13.308V12.312C48.2183 12.304 48.1023 12.3 47.9823 12.3C47.8703 12.292 47.7583 12.288 47.6463 12.288C47.3983 12.288 47.1543 12.304 46.9143 12.336C46.6823 12.36 46.4743 12.412 46.2903 12.492C46.1143 12.564 45.9703 12.668 45.8583 12.804C45.7543 12.932 45.7023 13.096 45.7023 13.296C45.7023 13.576 45.8023 13.808 46.0023 13.992C46.2023 14.168 46.4583 14.256 46.7703 14.256ZM57.9266 9.84H55.2746V15H54.3146V9H58.8866V15H57.9266V9.84ZM60.7365 9H61.3965L61.5765 9.72H61.6245C61.8085 9.44 62.0445 9.228 62.3325 9.084C62.6285 8.932 62.9645 8.856 63.3405 8.856C64.1405 8.856 64.7365 9.092 65.1285 9.564C65.5205 10.036 65.7165 10.808 65.7165 11.88C65.7165 12.384 65.6485 12.84 65.5125 13.248C65.3845 13.648 65.2005 13.988 64.9605 14.268C64.7205 14.548 64.4285 14.764 64.0845 14.916C63.7485 15.068 63.3725 15.144 62.9565 15.144C62.6605 15.144 62.4245 15.124 62.2485 15.084C62.0805 15.052 61.8965 14.992 61.6965 14.904V17.4H60.7365V9ZM63.1605 9.696C62.7525 9.696 62.4285 9.804 62.1885 10.02C61.9565 10.228 61.7925 10.548 61.6965 10.98V13.956C61.8405 14.068 62.0045 14.156 62.1885 14.22C62.3725 14.276 62.6165 14.304 62.9205 14.304C63.4725 14.304 63.9085 14.1 64.2285 13.692C64.5565 13.276 64.7205 12.668 64.7205 11.868C64.7205 11.54 64.6925 11.244 64.6365 10.98C64.5805 10.708 64.4885 10.48 64.3605 10.296C64.2405 10.104 64.0805 9.956 63.8805 9.852C63.6885 9.748 63.4485 9.696 63.1605 9.696ZM66.7521 14.448C66.7521 14.232 66.8121 14.064 66.9321 13.944C67.0601 13.816 67.2281 13.752 67.4361 13.752C67.6521 13.752 67.8241 13.816 67.9521 13.944C68.0801 14.064 68.1441 14.232 68.1441 14.448C68.1441 14.656 68.0801 14.824 67.9521 14.952C67.8241 15.08 67.6521 15.144 67.4361 15.144C67.2281 15.144 67.0601 15.08 66.9321 14.952C66.8121 14.824 66.7521 14.656 66.7521 14.448ZM74.0246 11.028L74.3366 12.096H74.3966L74.6366 10.992L76.2446 6.6H77.2646L75.1406 12.06C74.9246 12.628 74.7326 13.104 74.5646 13.488C74.4046 13.864 74.2406 14.172 74.0726 14.412C73.9046 14.644 73.7246 14.812 73.5326 14.916C73.3406 15.012 73.1046 15.06 72.8246 15.06C72.5606 15.06 72.3486 15.04 72.1886 15C72.0366 14.952 71.8926 14.884 71.7566 14.796L72.0566 13.968C72.2166 14.056 72.3646 14.112 72.5006 14.136C72.6366 14.16 72.7606 14.172 72.8726 14.172C73.0966 14.172 73.2846 14.06 73.4366 13.836C73.5886 13.604 73.7206 13.264 73.8326 12.816L70.7246 6.6H71.8766L74.0246 11.028ZM80.3473 9.84H78.6073C78.5833 10.176 78.5593 10.54 78.5353 10.932C78.5113 11.316 78.4753 11.704 78.4273 12.096C78.3793 12.48 78.3153 12.852 78.2353 13.212C78.1553 13.564 78.0513 13.876 77.9233 14.148C77.8033 14.42 77.6513 14.64 77.4673 14.808C77.2913 14.968 77.0793 15.048 76.8313 15.048C76.6793 15.048 76.5473 15.04 76.4353 15.024C76.3233 15.008 76.2233 14.98 76.1353 14.94L76.2793 14.136C76.3753 14.168 76.4793 14.184 76.5913 14.184C76.7513 14.184 76.8953 14.116 77.0233 13.98C77.1513 13.844 77.2633 13.588 77.3593 13.212C77.4553 12.828 77.5353 12.3 77.5993 11.628C77.6633 10.956 77.7073 10.08 77.7313 9H81.3073V15H80.3473V9.84ZM84.1145 14.16C84.4105 14.208 84.6945 14.232 84.9665 14.232C85.4705 14.232 85.8225 14.136 86.0225 13.944C86.2225 13.744 86.3225 13.464 86.3225 13.104C86.3225 12.784 86.2225 12.52 86.0225 12.312C85.8305 12.104 85.4905 12 85.0025 12C84.8665 12 84.7185 12.004 84.5585 12.012C84.3985 12.02 84.2505 12.044 84.1145 12.084V14.16ZM84.1145 11.292C84.3065 11.26 84.4905 11.24 84.6665 11.232C84.8425 11.216 85.0105 11.208 85.1705 11.208C85.5785 11.208 85.9185 11.256 86.1905 11.352C86.4705 11.44 86.6945 11.564 86.8625 11.724C87.0305 11.884 87.1465 12.076 87.2105 12.3C87.2825 12.516 87.3185 12.748 87.3185 12.996C87.3185 13.724 87.1145 14.252 86.7065 14.58C86.3065 14.908 85.6545 15.072 84.7505 15.072C84.2385 15.072 83.7065 15.048 83.1545 15V9H84.1145V11.292ZM88.2665 9H89.2265V15H88.2665V9ZM100.715 16.548H100.031L99.8514 15H93.9594L93.7794 16.548H93.0834V14.112H93.9354C93.9994 14.024 94.0954 13.82 94.2234 13.5C94.3594 13.172 94.4914 12.708 94.6194 12.108C94.7554 11.5 94.8754 10.744 94.9794 9.84C95.0834 8.928 95.1354 7.848 95.1354 6.6H99.6234V14.112H100.715V16.548ZM98.6274 14.112V7.488H96.0714C96.0474 8.368 95.9994 9.16 95.9274 9.864C95.8634 10.568 95.7834 11.192 95.6874 11.736C95.5914 12.272 95.4834 12.736 95.3634 13.128C95.2434 13.52 95.1194 13.848 94.9914 14.112H98.6274ZM101.879 9.444C102.183 9.26 102.535 9.124 102.935 9.036C103.343 8.948 103.767 8.904 104.207 8.904C104.623 8.904 104.955 8.96 105.203 9.072C105.459 9.184 105.651 9.332 105.779 9.516C105.915 9.692 106.003 9.888 106.043 10.104C106.091 10.32 106.115 10.536 106.115 10.752C106.115 11.232 106.103 11.7 106.079 12.156C106.055 12.612 106.043 13.044 106.043 13.452C106.043 13.748 106.055 14.028 106.079 14.292C106.103 14.556 106.147 14.8 106.211 15.024H105.503L105.251 14.184H105.191C105.119 14.296 105.027 14.408 104.915 14.52C104.811 14.624 104.683 14.72 104.531 14.808C104.379 14.888 104.203 14.956 104.003 15.012C103.803 15.068 103.575 15.096 103.319 15.096C103.063 15.096 102.823 15.056 102.599 14.976C102.383 14.896 102.195 14.784 102.035 14.64C101.875 14.488 101.747 14.308 101.651 14.1C101.563 13.892 101.519 13.656 101.519 13.392C101.519 13.04 101.591 12.748 101.735 12.516C101.879 12.276 102.079 12.088 102.335 11.952C102.599 11.808 102.911 11.708 103.271 11.652C103.639 11.588 104.043 11.556 104.483 11.556C104.595 11.556 104.703 11.556 104.807 11.556C104.919 11.556 105.031 11.564 105.143 11.58C105.167 11.34 105.179 11.124 105.179 10.932C105.179 10.492 105.091 10.184 104.915 10.008C104.739 9.832 104.419 9.744 103.955 9.744C103.819 9.744 103.671 9.756 103.511 9.78C103.359 9.796 103.199 9.824 103.031 9.864C102.871 9.896 102.715 9.94 102.563 9.996C102.419 10.044 102.291 10.1 102.179 10.164L101.879 9.444ZM103.583 14.256C103.807 14.256 104.007 14.228 104.183 14.172C104.359 14.108 104.511 14.032 104.639 13.944C104.767 13.848 104.871 13.744 104.951 13.632C105.039 13.52 105.103 13.412 105.143 13.308V12.312C105.031 12.304 104.915 12.3 104.795 12.3C104.683 12.292 104.571 12.288 104.459 12.288C104.211 12.288 103.967 12.304 103.727 12.336C103.495 12.36 103.287 12.412 103.103 12.492C102.927 12.564 102.783 12.668 102.671 12.804C102.567 12.932 102.515 13.096 102.515 13.296C102.515 13.576 102.615 13.808 102.815 13.992C103.015 14.168 103.271 14.256 103.583 14.256ZM111.156 9.84H109.416C109.392 10.176 109.368 10.54 109.344 10.932C109.32 11.316 109.284 11.704 109.236 12.096C109.188 12.48 109.124 12.852 109.044 13.212C108.964 13.564 108.86 13.876 108.732 14.148C108.612 14.42 108.46 14.64 108.276 14.808C108.1 14.968 107.888 15.048 107.64 15.048C107.488 15.048 107.356 15.04 107.244 15.024C107.132 15.008 107.032 14.98 106.944 14.94L107.088 14.136C107.184 14.168 107.288 14.184 107.4 14.184C107.56 14.184 107.704 14.116 107.832 13.98C107.96 13.844 108.072 13.588 108.168 13.212C108.264 12.828 108.344 12.3 108.408 11.628C108.472 10.956 108.516 10.08 108.54 9H112.116V15H111.156V9.84ZM113.867 9.444C114.171 9.26 114.523 9.124 114.923 9.036C115.331 8.948 115.755 8.904 116.195 8.904C116.611 8.904 116.943 8.96 117.191 9.072C117.447 9.184 117.639 9.332 117.767 9.516C117.903 9.692 117.991 9.888 118.031 10.104C118.079 10.32 118.103 10.536 118.103 10.752C118.103 11.232 118.091 11.7 118.067 12.156C118.043 12.612 118.031 13.044 118.031 13.452C118.031 13.748 118.043 14.028 118.067 14.292C118.091 14.556 118.135 14.8 118.199 15.024H117.491L117.239 14.184H117.179C117.107 14.296 117.015 14.408 116.903 14.52C116.799 14.624 116.671 14.72 116.519 14.808C116.367 14.888 116.191 14.956 115.991 15.012C115.791 15.068 115.563 15.096 115.307 15.096C115.051 15.096 114.811 15.056 114.587 14.976C114.371 14.896 114.183 14.784 114.023 14.64C113.863 14.488 113.735 14.308 113.639 14.1C113.551 13.892 113.507 13.656 113.507 13.392C113.507 13.04 113.579 12.748 113.723 12.516C113.867 12.276 114.067 12.088 114.323 11.952C114.587 11.808 114.899 11.708 115.259 11.652C115.627 11.588 116.031 11.556 116.471 11.556C116.583 11.556 116.691 11.556 116.795 11.556C116.907 11.556 117.019 11.564 117.131 11.58C117.155 11.34 117.167 11.124 117.167 10.932C117.167 10.492 117.079 10.184 116.903 10.008C116.727 9.832 116.407 9.744 115.943 9.744C115.807 9.744 115.659 9.756 115.499 9.78C115.347 9.796 115.187 9.824 115.019 9.864C114.859 9.896 114.703 9.94 114.551 9.996C114.407 10.044 114.279 10.1 114.167 10.164L113.867 9.444ZM115.571 14.256C115.795 14.256 115.995 14.228 116.171 14.172C116.347 14.108 116.499 14.032 116.627 13.944C116.755 13.848 116.859 13.744 116.939 13.632C117.027 13.52 117.091 13.412 117.131 13.308V12.312C117.019 12.304 116.903 12.3 116.783 12.3C116.671 12.292 116.559 12.288 116.447 12.288C116.199 12.288 115.955 12.304 115.715 12.336C115.483 12.36 115.275 12.412 115.091 12.492C114.915 12.564 114.771 12.668 114.659 12.804C114.555 12.932 114.503 13.096 114.503 13.296C114.503 13.576 114.603 13.808 114.803 13.992C115.003 14.168 115.259 14.256 115.571 14.256Z" fill="white"/>
</svg>
