<svg width="208" height="57" viewBox="0 0 208 57" fill="none" xmlns="http://www.w3.org/2000/svg">
<path fill-rule="evenodd" clip-rule="evenodd" d="M6 0C2.68629 0 0 2.68629 0 6V41C0 44.3137 2.68629 47 6 47H56.7318L62.1845 56.4445L67.6373 47H202C205.314 47 208 44.3137 208 41V6C208 2.68629 205.314 0 202 0H6Z" fill="#9D8140"/>
<path d="M32.214 20.54L32.394 18.65H32.304L31.62 20.378L28.344 26.066H27.894L24.42 20.36L23.772 18.65H23.682L23.934 20.522V29H22.53V16.4H23.646L27.588 22.844L28.182 24.248H28.218L28.776 22.808L32.538 16.4H33.708V29H32.214V20.54ZM36.1203 24.5C36.1203 22.976 36.4563 21.812 37.1283 21.008C37.8123 20.192 38.7903 19.784 40.0623 19.784C40.7343 19.784 41.3163 19.898 41.8083 20.126C42.3123 20.342 42.7263 20.66 43.0503 21.08C43.3743 21.488 43.6143 21.986 43.7703 22.574C43.9263 23.15 44.0043 23.792 44.0043 24.5C44.0043 26.024 43.6623 27.194 42.9783 28.01C42.3063 28.814 41.3343 29.216 40.0623 29.216C39.3903 29.216 38.8023 29.108 38.2983 28.892C37.8063 28.664 37.3983 28.346 37.0743 27.938C36.7503 27.518 36.5103 27.02 36.3543 26.444C36.1983 25.856 36.1203 25.208 36.1203 24.5ZM37.6143 24.5C37.6143 24.956 37.6563 25.394 37.7403 25.814C37.8363 26.234 37.9803 26.6 38.1723 26.912C38.3643 27.224 38.6163 27.476 38.9283 27.668C39.2403 27.86 39.6183 27.956 40.0623 27.956C41.6943 27.968 42.5103 26.816 42.5103 24.5C42.5103 24.032 42.4623 23.588 42.3663 23.168C42.2823 22.748 42.1443 22.382 41.9523 22.07C41.7603 21.758 41.5083 21.512 41.1963 21.332C40.8843 21.14 40.5063 21.044 40.0623 21.044C38.4303 21.032 37.6143 22.184 37.6143 24.5ZM52.4127 28.406C52.0527 28.67 51.6267 28.868 51.1347 29C50.6427 29.144 50.1267 29.216 49.5867 29.216C48.8907 29.216 48.3027 29.108 47.8227 28.892C47.3427 28.664 46.9467 28.346 46.6347 27.938C46.3347 27.518 46.1127 27.02 45.9687 26.444C45.8367 25.856 45.7707 25.208 45.7707 24.5C45.7707 22.976 46.1067 21.812 46.7787 21.008C47.4507 20.192 48.4167 19.784 49.6767 19.784C50.2527 19.784 50.7387 19.832 51.1347 19.928C51.5427 20.012 51.9087 20.138 52.2327 20.306L51.8187 21.548C51.5427 21.392 51.2367 21.272 50.9007 21.188C50.5647 21.092 50.2047 21.044 49.8207 21.044C48.1167 21.044 47.2647 22.196 47.2647 24.5C47.2647 24.956 47.3067 25.394 47.3907 25.814C47.4867 26.222 47.6367 26.588 47.8407 26.912C48.0567 27.224 48.3327 27.476 48.6687 27.668C49.0167 27.86 49.4427 27.956 49.9467 27.956C50.3787 27.956 50.7627 27.89 51.0987 27.758C51.4467 27.626 51.7287 27.476 51.9447 27.308L52.4127 28.406ZM59.8565 21.26H57.0305V29H55.5905V21.26H52.7645V20H59.8565V21.26ZM71.0307 25.022H66.9627V29H65.5227V20H66.9627V23.762H71.0307V20H72.4707V29H71.0307V25.022ZM75.0994 20.666C75.5554 20.39 76.0834 20.186 76.6834 20.054C77.2954 19.922 77.9314 19.856 78.5914 19.856C79.2154 19.856 79.7134 19.94 80.0854 20.108C80.4694 20.276 80.7574 20.498 80.9494 20.774C81.1534 21.038 81.2854 21.332 81.3454 21.656C81.4174 21.98 81.4534 22.304 81.4534 22.628C81.4534 23.348 81.4354 24.05 81.3994 24.734C81.3634 25.418 81.3454 26.066 81.3454 26.678C81.3454 27.122 81.3634 27.542 81.3994 27.938C81.4354 28.334 81.5014 28.7 81.5974 29.036H80.5354L80.1574 27.776H80.0674C79.9594 27.944 79.8214 28.112 79.6534 28.28C79.4974 28.436 79.3054 28.58 79.0774 28.712C78.8494 28.832 78.5854 28.934 78.2854 29.018C77.9854 29.102 77.6434 29.144 77.2594 29.144C76.8754 29.144 76.5154 29.084 76.1794 28.964C75.8554 28.844 75.5734 28.676 75.3334 28.46C75.0934 28.232 74.9014 27.962 74.7574 27.65C74.6254 27.338 74.5594 26.984 74.5594 26.588C74.5594 26.06 74.6674 25.622 74.8834 25.274C75.0994 24.914 75.3994 24.632 75.7834 24.428C76.1794 24.212 76.6474 24.062 77.1874 23.978C77.7394 23.882 78.3454 23.834 79.0054 23.834C79.1734 23.834 79.3354 23.834 79.4914 23.834C79.6594 23.834 79.8274 23.846 79.9954 23.87C80.0314 23.51 80.0494 23.186 80.0494 22.898C80.0494 22.238 79.9174 21.776 79.6534 21.512C79.3894 21.248 78.9094 21.116 78.2134 21.116C78.0094 21.116 77.7874 21.134 77.5474 21.17C77.3194 21.194 77.0794 21.236 76.8274 21.296C76.5874 21.344 76.3534 21.41 76.1254 21.494C75.9094 21.566 75.7174 21.65 75.5494 21.746L75.0994 20.666ZM77.6554 27.884C77.9914 27.884 78.2914 27.842 78.5554 27.758C78.8194 27.662 79.0474 27.548 79.2394 27.416C79.4314 27.272 79.5874 27.116 79.7074 26.948C79.8394 26.78 79.9354 26.618 79.9954 26.462V24.968C79.8274 24.956 79.6534 24.95 79.4734 24.95C79.3054 24.938 79.1374 24.932 78.9694 24.932C78.5974 24.932 78.2314 24.956 77.8714 25.004C77.5234 25.04 77.2114 25.118 76.9354 25.238C76.6714 25.346 76.4554 25.502 76.2874 25.706C76.1314 25.898 76.0534 26.144 76.0534 26.444C76.0534 26.864 76.2034 27.212 76.5034 27.488C76.8034 27.752 77.1874 27.884 77.6554 27.884ZM94.3899 21.26H90.4119V29H88.9719V20H95.8299V29H94.3899V21.26ZM98.6048 20H99.5947L99.8647 21.08H99.9368C100.213 20.66 100.567 20.342 100.999 20.126C101.443 19.898 101.947 19.784 102.511 19.784C103.711 19.784 104.605 20.138 105.193 20.846C105.781 21.554 106.075 22.712 106.075 24.32C106.075 25.076 105.973 25.76 105.769 26.372C105.577 26.972 105.301 27.482 104.941 27.902C104.581 28.322 104.143 28.646 103.627 28.874C103.123 29.102 102.559 29.216 101.935 29.216C101.491 29.216 101.137 29.186 100.873 29.126C100.621 29.078 100.345 28.988 100.045 28.856V32.6H98.6048V20ZM102.241 21.044C101.629 21.044 101.143 21.206 100.783 21.53C100.435 21.842 100.189 22.322 100.045 22.97V27.434C100.261 27.602 100.507 27.734 100.783 27.83C101.059 27.914 101.425 27.956 101.881 27.956C102.709 27.956 103.363 27.65 103.843 27.038C104.335 26.414 104.581 25.502 104.581 24.302C104.581 23.81 104.539 23.366 104.455 22.97C104.371 22.562 104.233 22.22 104.041 21.944C103.861 21.656 103.621 21.434 103.321 21.278C103.033 21.122 102.673 21.044 102.241 21.044ZM107.628 28.172C107.628 27.848 107.718 27.596 107.898 27.416C108.09 27.224 108.342 27.128 108.654 27.128C108.978 27.128 109.236 27.224 109.428 27.416C109.62 27.596 109.716 27.848 109.716 28.172C109.716 28.484 109.62 28.736 109.428 28.928C109.236 29.12 108.978 29.216 108.654 29.216C108.342 29.216 108.09 29.12 107.898 28.928C107.718 28.736 107.628 28.484 107.628 28.172ZM118.537 23.042L119.005 24.644H119.095L119.455 22.988L121.867 16.4H123.397L120.211 24.59C119.887 25.442 119.599 26.156 119.347 26.732C119.107 27.296 118.861 27.758 118.609 28.118C118.357 28.466 118.087 28.718 117.799 28.874C117.511 29.018 117.157 29.09 116.737 29.09C116.341 29.09 116.023 29.06 115.783 29C115.555 28.928 115.339 28.826 115.135 28.694L115.585 27.452C115.825 27.584 116.047 27.668 116.251 27.704C116.455 27.74 116.641 27.758 116.809 27.758C117.145 27.758 117.427 27.59 117.655 27.254C117.883 26.906 118.081 26.396 118.249 25.724L113.587 16.4H115.315L118.537 23.042ZM128.021 21.26H125.411C125.375 21.764 125.339 22.31 125.303 22.898C125.267 23.474 125.213 24.056 125.141 24.644C125.069 25.22 124.973 25.778 124.853 26.318C124.733 26.846 124.577 27.314 124.385 27.722C124.205 28.13 123.977 28.46 123.701 28.712C123.437 28.952 123.119 29.072 122.747 29.072C122.519 29.072 122.321 29.06 122.153 29.036C121.985 29.012 121.835 28.97 121.703 28.91L121.919 27.704C122.063 27.752 122.219 27.776 122.387 27.776C122.627 27.776 122.843 27.674 123.035 27.47C123.227 27.266 123.395 26.882 123.539 26.318C123.683 25.742 123.803 24.95 123.899 23.942C123.995 22.934 124.061 21.62 124.097 20H129.461V29H128.021V21.26ZM133.672 27.74C134.116 27.812 134.542 27.848 134.95 27.848C135.706 27.848 136.234 27.704 136.534 27.416C136.834 27.116 136.984 26.696 136.984 26.156C136.984 25.676 136.834 25.28 136.534 24.968C136.246 24.656 135.736 24.5 135.004 24.5C134.8 24.5 134.578 24.506 134.338 24.518C134.098 24.53 133.876 24.566 133.672 24.626V27.74ZM133.672 23.438C133.96 23.39 134.236 23.36 134.5 23.348C134.764 23.324 135.016 23.312 135.256 23.312C135.868 23.312 136.378 23.384 136.786 23.528C137.206 23.66 137.542 23.846 137.794 24.086C138.046 24.326 138.22 24.614 138.316 24.95C138.424 25.274 138.478 25.622 138.478 25.994C138.478 27.086 138.172 27.878 137.56 28.37C136.96 28.862 135.982 29.108 134.626 29.108C133.858 29.108 133.06 29.072 132.232 29V20H133.672V23.438ZM139.9 20H141.34V29H139.9V20ZM158.573 31.322H157.547L157.277 29H148.439L148.169 31.322H147.125V27.668H148.403C148.499 27.536 148.643 27.23 148.835 26.75C149.039 26.258 149.237 25.562 149.429 24.662C149.633 23.75 149.813 22.616 149.969 21.26C150.125 19.892 150.203 18.272 150.203 16.4H156.935V27.668H158.573V31.322ZM155.441 27.668V17.732H151.607C151.571 19.052 151.499 20.24 151.391 21.296C151.295 22.352 151.175 23.288 151.031 24.104C150.887 24.908 150.725 25.604 150.545 26.192C150.365 26.78 150.179 27.272 149.987 27.668H155.441ZM160.318 20.666C160.774 20.39 161.302 20.186 161.902 20.054C162.514 19.922 163.15 19.856 163.81 19.856C164.434 19.856 164.932 19.94 165.304 20.108C165.688 20.276 165.976 20.498 166.168 20.774C166.372 21.038 166.504 21.332 166.564 21.656C166.636 21.98 166.672 22.304 166.672 22.628C166.672 23.348 166.654 24.05 166.618 24.734C166.582 25.418 166.564 26.066 166.564 26.678C166.564 27.122 166.582 27.542 166.618 27.938C166.654 28.334 166.72 28.7 166.816 29.036H165.754L165.376 27.776H165.286C165.178 27.944 165.04 28.112 164.872 28.28C164.716 28.436 164.524 28.58 164.296 28.712C164.068 28.832 163.804 28.934 163.504 29.018C163.204 29.102 162.862 29.144 162.478 29.144C162.094 29.144 161.734 29.084 161.398 28.964C161.074 28.844 160.792 28.676 160.552 28.46C160.312 28.232 160.12 27.962 159.976 27.65C159.844 27.338 159.778 26.984 159.778 26.588C159.778 26.06 159.886 25.622 160.102 25.274C160.318 24.914 160.618 24.632 161.002 24.428C161.398 24.212 161.866 24.062 162.406 23.978C162.958 23.882 163.564 23.834 164.224 23.834C164.392 23.834 164.554 23.834 164.71 23.834C164.878 23.834 165.046 23.846 165.214 23.87C165.25 23.51 165.268 23.186 165.268 22.898C165.268 22.238 165.136 21.776 164.872 21.512C164.608 21.248 164.128 21.116 163.432 21.116C163.228 21.116 163.006 21.134 162.766 21.17C162.538 21.194 162.298 21.236 162.046 21.296C161.806 21.344 161.572 21.41 161.344 21.494C161.128 21.566 160.936 21.65 160.768 21.746L160.318 20.666ZM162.874 27.884C163.21 27.884 163.51 27.842 163.774 27.758C164.038 27.662 164.266 27.548 164.458 27.416C164.65 27.272 164.806 27.116 164.926 26.948C165.058 26.78 165.154 26.618 165.214 26.462V24.968C165.046 24.956 164.872 24.95 164.692 24.95C164.524 24.938 164.356 24.932 164.188 24.932C163.816 24.932 163.45 24.956 163.09 25.004C162.742 25.04 162.43 25.118 162.154 25.238C161.89 25.346 161.674 25.502 161.506 25.706C161.35 25.898 161.272 26.144 161.272 26.444C161.272 26.864 161.422 27.212 161.722 27.488C162.022 27.752 162.406 27.884 162.874 27.884ZM174.234 21.26H171.624C171.588 21.764 171.552 22.31 171.516 22.898C171.48 23.474 171.426 24.056 171.354 24.644C171.282 25.22 171.186 25.778 171.066 26.318C170.946 26.846 170.79 27.314 170.598 27.722C170.418 28.13 170.19 28.46 169.914 28.712C169.65 28.952 169.332 29.072 168.96 29.072C168.732 29.072 168.534 29.06 168.366 29.036C168.198 29.012 168.048 28.97 167.916 28.91L168.132 27.704C168.276 27.752 168.432 27.776 168.6 27.776C168.84 27.776 169.056 27.674 169.248 27.47C169.44 27.266 169.608 26.882 169.752 26.318C169.896 25.742 170.016 24.95 170.112 23.942C170.208 22.934 170.274 21.62 170.31 20H175.674V29H174.234V21.26ZM178.301 20.666C178.757 20.39 179.285 20.186 179.885 20.054C180.497 19.922 181.133 19.856 181.793 19.856C182.417 19.856 182.915 19.94 183.287 20.108C183.671 20.276 183.959 20.498 184.151 20.774C184.355 21.038 184.487 21.332 184.547 21.656C184.619 21.98 184.655 22.304 184.655 22.628C184.655 23.348 184.637 24.05 184.601 24.734C184.565 25.418 184.547 26.066 184.547 26.678C184.547 27.122 184.565 27.542 184.601 27.938C184.637 28.334 184.703 28.7 184.799 29.036H183.737L183.359 27.776H183.269C183.161 27.944 183.023 28.112 182.855 28.28C182.699 28.436 182.507 28.58 182.279 28.712C182.051 28.832 181.787 28.934 181.487 29.018C181.187 29.102 180.845 29.144 180.461 29.144C180.077 29.144 179.717 29.084 179.381 28.964C179.057 28.844 178.775 28.676 178.535 28.46C178.295 28.232 178.103 27.962 177.959 27.65C177.827 27.338 177.761 26.984 177.761 26.588C177.761 26.06 177.869 25.622 178.085 25.274C178.301 24.914 178.601 24.632 178.985 24.428C179.381 24.212 179.849 24.062 180.389 23.978C180.941 23.882 181.547 23.834 182.207 23.834C182.375 23.834 182.537 23.834 182.693 23.834C182.861 23.834 183.029 23.846 183.197 23.87C183.233 23.51 183.251 23.186 183.251 22.898C183.251 22.238 183.119 21.776 182.855 21.512C182.591 21.248 182.111 21.116 181.415 21.116C181.211 21.116 180.989 21.134 180.749 21.17C180.521 21.194 180.281 21.236 180.029 21.296C179.789 21.344 179.555 21.41 179.327 21.494C179.111 21.566 178.919 21.65 178.751 21.746L178.301 20.666ZM180.857 27.884C181.193 27.884 181.493 27.842 181.757 27.758C182.021 27.662 182.249 27.548 182.441 27.416C182.633 27.272 182.789 27.116 182.909 26.948C183.041 26.78 183.137 26.618 183.197 26.462V24.968C183.029 24.956 182.855 24.95 182.675 24.95C182.507 24.938 182.339 24.932 182.171 24.932C181.799 24.932 181.433 24.956 181.073 25.004C180.725 25.04 180.413 25.118 180.137 25.238C179.873 25.346 179.657 25.502 179.489 25.706C179.333 25.898 179.255 26.144 179.255 26.444C179.255 26.864 179.405 27.212 179.705 27.488C180.005 27.752 180.389 27.884 180.857 27.884Z" fill="white"/>
</svg>
