<svg width="214" height="57" viewBox="0 0 214 57" fill="none" xmlns="http://www.w3.org/2000/svg">
<path fill-rule="evenodd" clip-rule="evenodd" d="M6 0C2.68629 0 0 2.68629 0 6V41C0 44.3137 2.68629 47 6 47H26.7318L32.1845 56.4445L37.6373 47H208C211.314 47 214 44.3137 214 41V6C214 2.68629 211.314 0 208 0H6Z" fill="#00BFB2"/>
<path d="M24.87 23.168H24.024V29H22.53V16.4H24.024V22.268L24.834 22.016L29.064 16.4H30.792L26.58 21.818L25.824 22.412L26.742 23.132L31.35 29H29.46L24.87 23.168ZM33.2283 20.666C33.6843 20.39 34.2123 20.186 34.8123 20.054C35.4243 19.922 36.0603 19.856 36.7203 19.856C37.3443 19.856 37.8423 19.94 38.2143 20.108C38.5983 20.276 38.8863 20.498 39.0783 20.774C39.2823 21.038 39.4143 21.332 39.4743 21.656C39.5463 21.98 39.5823 22.304 39.5823 22.628C39.5823 23.348 39.5643 24.05 39.5283 24.734C39.4923 25.418 39.4743 26.066 39.4743 26.678C39.4743 27.122 39.4923 27.542 39.5283 27.938C39.5643 28.334 39.6303 28.7 39.7263 29.036H38.6643L38.2863 27.776H38.1963C38.0883 27.944 37.9503 28.112 37.7823 28.28C37.6263 28.436 37.4343 28.58 37.2063 28.712C36.9783 28.832 36.7143 28.934 36.4143 29.018C36.1143 29.102 35.7723 29.144 35.3883 29.144C35.0043 29.144 34.6443 29.084 34.3083 28.964C33.9843 28.844 33.7023 28.676 33.4623 28.46C33.2223 28.232 33.0303 27.962 32.8863 27.65C32.7543 27.338 32.6883 26.984 32.6883 26.588C32.6883 26.06 32.7963 25.622 33.0123 25.274C33.2283 24.914 33.5283 24.632 33.9123 24.428C34.3083 24.212 34.7763 24.062 35.3163 23.978C35.8683 23.882 36.4743 23.834 37.1343 23.834C37.3023 23.834 37.4643 23.834 37.6203 23.834C37.7883 23.834 37.9563 23.846 38.1243 23.87C38.1603 23.51 38.1783 23.186 38.1783 22.898C38.1783 22.238 38.0463 21.776 37.7823 21.512C37.5183 21.248 37.0383 21.116 36.3423 21.116C36.1383 21.116 35.9163 21.134 35.6763 21.17C35.4483 21.194 35.2083 21.236 34.9563 21.296C34.7163 21.344 34.4823 21.41 34.2543 21.494C34.0383 21.566 33.8463 21.65 33.6783 21.746L33.2283 20.666ZM35.7843 27.884C36.1203 27.884 36.4203 27.842 36.6843 27.758C36.9483 27.662 37.1763 27.548 37.3683 27.416C37.5603 27.272 37.7163 27.116 37.8363 26.948C37.9683 26.78 38.0643 26.618 38.1243 26.462V24.968C37.9563 24.956 37.7823 24.95 37.6023 24.95C37.4343 24.938 37.2663 24.932 37.0983 24.932C36.7263 24.932 36.3603 24.956 36.0003 25.004C35.6523 25.04 35.3403 25.118 35.0643 25.238C34.8003 25.346 34.5843 25.502 34.4163 25.706C34.2603 25.898 34.1823 26.144 34.1823 26.444C34.1823 26.864 34.3323 27.212 34.6323 27.488C34.9323 27.752 35.3163 27.884 35.7843 27.884ZM43.166 24.986V23.816H44.426C44.642 23.816 44.852 23.78 45.056 23.708C45.272 23.636 45.464 23.54 45.632 23.42C45.8 23.288 45.932 23.138 46.028 22.97C46.136 22.79 46.19 22.604 46.19 22.412C46.19 21.944 46.028 21.614 45.704 21.422C45.38 21.23 44.894 21.134 44.246 21.134C43.778 21.134 43.346 21.206 42.95 21.35C42.566 21.494 42.266 21.632 42.05 21.764L41.636 20.648C41.996 20.444 42.416 20.264 42.896 20.108C43.388 19.952 43.97 19.874 44.642 19.874C46.634 19.874 47.63 20.612 47.63 22.088C47.63 22.508 47.492 22.922 47.216 23.33C46.952 23.726 46.568 24.008 46.064 24.176V24.248C46.772 24.38 47.264 24.632 47.54 25.004C47.828 25.376 47.972 25.868 47.972 26.48C47.972 26.864 47.894 27.218 47.738 27.542C47.582 27.866 47.348 28.148 47.036 28.388C46.724 28.628 46.328 28.82 45.848 28.964C45.38 29.096 44.834 29.162 44.21 29.162C43.598 29.162 43.088 29.108 42.68 29C42.284 28.892 41.924 28.76 41.6 28.604L42.014 27.416C42.29 27.572 42.62 27.692 43.004 27.776C43.4 27.86 43.826 27.902 44.282 27.902C45.014 27.902 45.572 27.776 45.956 27.524C46.34 27.272 46.532 26.888 46.532 26.372C46.532 25.94 46.352 25.604 45.992 25.364C45.632 25.112 45.038 24.986 44.21 24.986H43.166ZM50.1033 20.666C50.5593 20.39 51.0873 20.186 51.6873 20.054C52.2993 19.922 52.9353 19.856 53.5953 19.856C54.2193 19.856 54.7173 19.94 55.0893 20.108C55.4733 20.276 55.7613 20.498 55.9533 20.774C56.1573 21.038 56.2893 21.332 56.3493 21.656C56.4213 21.98 56.4573 22.304 56.4573 22.628C56.4573 23.348 56.4393 24.05 56.4033 24.734C56.3673 25.418 56.3493 26.066 56.3493 26.678C56.3493 27.122 56.3673 27.542 56.4033 27.938C56.4393 28.334 56.5053 28.7 56.6013 29.036H55.5393L55.1613 27.776H55.0713C54.9633 27.944 54.8253 28.112 54.6573 28.28C54.5013 28.436 54.3093 28.58 54.0813 28.712C53.8533 28.832 53.5893 28.934 53.2893 29.018C52.9893 29.102 52.6473 29.144 52.2633 29.144C51.8793 29.144 51.5193 29.084 51.1833 28.964C50.8593 28.844 50.5773 28.676 50.3373 28.46C50.0973 28.232 49.9053 27.962 49.7613 27.65C49.6293 27.338 49.5633 26.984 49.5633 26.588C49.5633 26.06 49.6713 25.622 49.8873 25.274C50.1033 24.914 50.4033 24.632 50.7873 24.428C51.1833 24.212 51.6513 24.062 52.1913 23.978C52.7433 23.882 53.3493 23.834 54.0093 23.834C54.1773 23.834 54.3393 23.834 54.4953 23.834C54.6633 23.834 54.8313 23.846 54.9993 23.87C55.0353 23.51 55.0533 23.186 55.0533 22.898C55.0533 22.238 54.9213 21.776 54.6573 21.512C54.3933 21.248 53.9133 21.116 53.2173 21.116C53.0133 21.116 52.7913 21.134 52.5513 21.17C52.3233 21.194 52.0833 21.236 51.8313 21.296C51.5913 21.344 51.3573 21.41 51.1293 21.494C50.9133 21.566 50.7213 21.65 50.5533 21.746L50.1033 20.666ZM52.6593 27.884C52.9953 27.884 53.2953 27.842 53.5593 27.758C53.8233 27.662 54.0513 27.548 54.2433 27.416C54.4353 27.272 54.5913 27.116 54.7113 26.948C54.8433 26.78 54.9393 26.618 54.9993 26.462V24.968C54.8313 24.956 54.6573 24.95 54.4773 24.95C54.3093 24.938 54.1413 24.932 53.9733 24.932C53.6013 24.932 53.2353 24.956 52.8753 25.004C52.5273 25.04 52.2153 25.118 51.9393 25.238C51.6753 25.346 51.4593 25.502 51.2913 25.706C51.1353 25.898 51.0573 26.144 51.0573 26.444C51.0573 26.864 51.2073 27.212 51.5073 27.488C51.8073 27.752 52.1913 27.884 52.6593 27.884ZM61.535 24.392L58.511 20H60.275L61.985 22.484L62.489 23.51L63.011 22.484L64.757 20H66.377L63.335 24.32L66.557 29H64.847L62.939 26.264L62.399 25.184L61.841 26.264L59.897 29H58.295L61.535 24.392ZM74.1744 28.406C73.8144 28.67 73.3884 28.868 72.8964 29C72.4044 29.144 71.8884 29.216 71.3484 29.216C70.6524 29.216 70.0644 29.108 69.5844 28.892C69.1044 28.664 68.7084 28.346 68.3964 27.938C68.0964 27.518 67.8744 27.02 67.7304 26.444C67.5984 25.856 67.5324 25.208 67.5324 24.5C67.5324 22.976 67.8684 21.812 68.5404 21.008C69.2124 20.192 70.1784 19.784 71.4384 19.784C72.0144 19.784 72.5004 19.832 72.8964 19.928C73.3044 20.012 73.6704 20.138 73.9944 20.306L73.5804 21.548C73.3044 21.392 72.9984 21.272 72.6624 21.188C72.3264 21.092 71.9664 21.044 71.5824 21.044C69.8784 21.044 69.0264 22.196 69.0264 24.5C69.0264 24.956 69.0684 25.394 69.1524 25.814C69.2484 26.222 69.3984 26.588 69.6024 26.912C69.8184 27.224 70.0944 27.476 70.4304 27.668C70.7784 27.86 71.2044 27.956 71.7084 27.956C72.1404 27.956 72.5244 27.89 72.8604 27.758C73.2084 27.626 73.4904 27.476 73.7064 27.308L74.1744 28.406ZM78.4255 24.95H77.5975V29H76.1575V20H77.5975V24.068L78.3715 23.816L81.2515 20H82.8175L80.0275 23.618L79.2715 24.212L80.2075 24.932L83.2135 29H81.4315L78.4255 24.95ZM90.3692 23.672L90.4232 22.556H90.3692L89.6312 23.708L85.5812 29H84.7532V20H86.1932V25.49L86.1392 26.552H86.2112L86.9132 25.436L90.9632 20H91.8092V29H90.3692V23.672ZM100.195 23.672L100.249 22.556H100.195L99.4574 23.708L95.4074 29H94.5794V20H96.0194V25.49L95.9654 26.552H96.0374L96.7394 25.436L100.789 20H101.635V29H100.195V23.672ZM96.6494 16.364C96.7694 16.916 96.9734 17.3 97.2614 17.516C97.5614 17.732 97.9034 17.84 98.2874 17.84C98.6714 17.84 99.0134 17.726 99.3134 17.498C99.6134 17.27 99.8174 16.898 99.9254 16.382L101.005 16.724C100.897 17.42 100.585 17.954 100.069 18.326C99.5654 18.698 98.9594 18.884 98.2514 18.884C97.9274 18.884 97.6034 18.842 97.2794 18.758C96.9674 18.674 96.6854 18.548 96.4334 18.38C96.1814 18.212 95.9654 17.996 95.7854 17.732C95.6054 17.468 95.4854 17.156 95.4254 16.796L96.6494 16.364ZM117.16 31.286H116.188L115.918 29H109.15L108.88 31.286H107.908V27.74H108.97C109.066 27.608 109.192 27.374 109.348 27.038C109.504 26.69 109.654 26.21 109.798 25.598C109.954 24.974 110.086 24.206 110.194 23.294C110.314 22.37 110.386 21.272 110.41 20H115.846V27.74H117.16V31.286ZM114.406 27.74V21.26H111.706C111.682 21.764 111.64 22.316 111.58 22.916C111.52 23.504 111.436 24.098 111.328 24.698C111.232 25.286 111.106 25.844 110.95 26.372C110.794 26.9 110.614 27.356 110.41 27.74H114.406ZM118.943 20H119.933L120.203 21.08H120.275C120.551 20.66 120.905 20.342 121.337 20.126C121.781 19.898 122.285 19.784 122.849 19.784C124.049 19.784 124.943 20.138 125.531 20.846C126.119 21.554 126.413 22.712 126.413 24.32C126.413 25.076 126.311 25.76 126.107 26.372C125.915 26.972 125.639 27.482 125.279 27.902C124.919 28.322 124.481 28.646 123.965 28.874C123.461 29.102 122.897 29.216 122.273 29.216C121.829 29.216 121.475 29.186 121.211 29.126C120.959 29.078 120.683 28.988 120.383 28.856V32.6H118.943V20ZM122.579 21.044C121.967 21.044 121.481 21.206 121.121 21.53C120.773 21.842 120.527 22.322 120.383 22.97V27.434C120.599 27.602 120.845 27.734 121.121 27.83C121.397 27.914 121.763 27.956 122.219 27.956C123.047 27.956 123.701 27.65 124.181 27.038C124.673 26.414 124.919 25.502 124.919 24.302C124.919 23.81 124.877 23.366 124.793 22.97C124.709 22.562 124.571 22.22 124.379 21.944C124.199 21.656 123.959 21.434 123.659 21.278C123.371 21.122 123.011 21.044 122.579 21.044ZM128.537 20.666C128.993 20.39 129.521 20.186 130.121 20.054C130.733 19.922 131.369 19.856 132.029 19.856C132.653 19.856 133.151 19.94 133.523 20.108C133.907 20.276 134.195 20.498 134.387 20.774C134.591 21.038 134.723 21.332 134.783 21.656C134.855 21.98 134.891 22.304 134.891 22.628C134.891 23.348 134.873 24.05 134.837 24.734C134.801 25.418 134.783 26.066 134.783 26.678C134.783 27.122 134.801 27.542 134.837 27.938C134.873 28.334 134.939 28.7 135.035 29.036H133.973L133.595 27.776H133.505C133.397 27.944 133.259 28.112 133.091 28.28C132.935 28.436 132.743 28.58 132.515 28.712C132.287 28.832 132.023 28.934 131.723 29.018C131.423 29.102 131.081 29.144 130.697 29.144C130.313 29.144 129.953 29.084 129.617 28.964C129.293 28.844 129.011 28.676 128.771 28.46C128.531 28.232 128.339 27.962 128.195 27.65C128.063 27.338 127.997 26.984 127.997 26.588C127.997 26.06 128.105 25.622 128.321 25.274C128.537 24.914 128.837 24.632 129.221 24.428C129.617 24.212 130.085 24.062 130.625 23.978C131.177 23.882 131.783 23.834 132.443 23.834C132.611 23.834 132.773 23.834 132.929 23.834C133.097 23.834 133.265 23.846 133.433 23.87C133.469 23.51 133.487 23.186 133.487 22.898C133.487 22.238 133.355 21.776 133.091 21.512C132.827 21.248 132.347 21.116 131.651 21.116C131.447 21.116 131.225 21.134 130.985 21.17C130.757 21.194 130.517 21.236 130.265 21.296C130.025 21.344 129.791 21.41 129.563 21.494C129.347 21.566 129.155 21.65 128.987 21.746L128.537 20.666ZM131.093 27.884C131.429 27.884 131.729 27.842 131.993 27.758C132.257 27.662 132.485 27.548 132.677 27.416C132.869 27.272 133.025 27.116 133.145 26.948C133.277 26.78 133.373 26.618 133.433 26.462V24.968C133.265 24.956 133.091 24.95 132.911 24.95C132.743 24.938 132.575 24.932 132.407 24.932C132.035 24.932 131.669 24.956 131.309 25.004C130.961 25.04 130.649 25.118 130.373 25.238C130.109 25.346 129.893 25.502 129.725 25.706C129.569 25.898 129.491 26.144 129.491 26.444C129.491 26.864 129.641 27.212 129.941 27.488C130.241 27.752 130.625 27.884 131.093 27.884ZM145.045 23.654L145.153 21.944H145.063L144.415 23.33L142.237 26.858H141.733L139.465 23.33L138.871 21.944H138.799L138.943 23.636V29H137.611V20H139.033L141.553 24.032L142.075 25.076H142.111L142.651 23.996L145.009 20H146.449V29H145.045V23.654ZM154.954 21.26H152.128V29H150.688V21.26H147.862V20H154.954V21.26ZM162.673 28.28C162.313 28.568 161.857 28.796 161.305 28.964C160.765 29.132 160.189 29.216 159.577 29.216C158.893 29.216 158.299 29.108 157.795 28.892C157.291 28.664 156.877 28.346 156.553 27.938C156.229 27.518 155.989 27.02 155.833 26.444C155.677 25.868 155.599 25.22 155.599 24.5C155.599 22.964 155.941 21.794 156.625 20.99C157.309 20.186 158.287 19.784 159.559 19.784C159.967 19.784 160.375 19.832 160.783 19.928C161.191 20.012 161.557 20.18 161.881 20.432C162.205 20.684 162.469 21.044 162.673 21.512C162.877 21.968 162.979 22.574 162.979 23.33C162.979 23.726 162.943 24.164 162.871 24.644H157.093C157.093 25.172 157.147 25.64 157.255 26.048C157.363 26.456 157.531 26.804 157.759 27.092C157.987 27.368 158.281 27.584 158.641 27.74C159.013 27.884 159.463 27.956 159.991 27.956C160.399 27.956 160.807 27.884 161.215 27.74C161.623 27.596 161.929 27.428 162.133 27.236L162.673 28.28ZM159.577 21.044C158.869 21.044 158.299 21.23 157.867 21.602C157.447 21.974 157.195 22.61 157.111 23.51H161.575C161.575 22.598 161.401 21.962 161.053 21.602C160.705 21.23 160.213 21.044 159.577 21.044ZM165.099 20.666C165.555 20.39 166.083 20.186 166.683 20.054C167.295 19.922 167.931 19.856 168.591 19.856C169.215 19.856 169.713 19.94 170.085 20.108C170.469 20.276 170.757 20.498 170.949 20.774C171.153 21.038 171.285 21.332 171.345 21.656C171.417 21.98 171.453 22.304 171.453 22.628C171.453 23.348 171.435 24.05 171.399 24.734C171.363 25.418 171.345 26.066 171.345 26.678C171.345 27.122 171.363 27.542 171.399 27.938C171.435 28.334 171.501 28.7 171.597 29.036H170.535L170.157 27.776H170.067C169.959 27.944 169.821 28.112 169.653 28.28C169.497 28.436 169.305 28.58 169.077 28.712C168.849 28.832 168.585 28.934 168.285 29.018C167.985 29.102 167.643 29.144 167.259 29.144C166.875 29.144 166.515 29.084 166.179 28.964C165.855 28.844 165.573 28.676 165.333 28.46C165.093 28.232 164.901 27.962 164.757 27.65C164.625 27.338 164.559 26.984 164.559 26.588C164.559 26.06 164.667 25.622 164.883 25.274C165.099 24.914 165.399 24.632 165.783 24.428C166.179 24.212 166.647 24.062 167.187 23.978C167.739 23.882 168.345 23.834 169.005 23.834C169.173 23.834 169.335 23.834 169.491 23.834C169.659 23.834 169.827 23.846 169.995 23.87C170.031 23.51 170.049 23.186 170.049 22.898C170.049 22.238 169.917 21.776 169.653 21.512C169.389 21.248 168.909 21.116 168.213 21.116C168.009 21.116 167.787 21.134 167.547 21.17C167.319 21.194 167.079 21.236 166.827 21.296C166.587 21.344 166.353 21.41 166.125 21.494C165.909 21.566 165.717 21.65 165.549 21.746L165.099 20.666ZM167.655 27.884C167.991 27.884 168.291 27.842 168.555 27.758C168.819 27.662 169.047 27.548 169.239 27.416C169.431 27.272 169.587 27.116 169.707 26.948C169.839 26.78 169.935 26.618 169.995 26.462V24.968C169.827 24.956 169.653 24.95 169.473 24.95C169.305 24.938 169.137 24.932 168.969 24.932C168.597 24.932 168.231 24.956 167.871 25.004C167.523 25.04 167.211 25.118 166.935 25.238C166.671 25.346 166.455 25.502 166.287 25.706C166.131 25.898 166.053 26.144 166.053 26.444C166.053 26.864 166.203 27.212 166.503 27.488C166.803 27.752 167.187 27.884 167.655 27.884ZM174.173 20H175.163L175.433 21.08H175.505C175.781 20.66 176.135 20.342 176.567 20.126C177.011 19.898 177.515 19.784 178.079 19.784C179.279 19.784 180.173 20.138 180.761 20.846C181.349 21.554 181.643 22.712 181.643 24.32C181.643 25.076 181.541 25.76 181.337 26.372C181.145 26.972 180.869 27.482 180.509 27.902C180.149 28.322 179.711 28.646 179.195 28.874C178.691 29.102 178.127 29.216 177.503 29.216C177.059 29.216 176.705 29.186 176.441 29.126C176.189 29.078 175.913 28.988 175.613 28.856V32.6H174.173V20ZM177.809 21.044C177.197 21.044 176.711 21.206 176.351 21.53C176.003 21.842 175.757 22.322 175.613 22.97V27.434C175.829 27.602 176.075 27.734 176.351 27.83C176.627 27.914 176.993 27.956 177.449 27.956C178.277 27.956 178.931 27.65 179.411 27.038C179.903 26.414 180.149 25.502 180.149 24.302C180.149 23.81 180.107 23.366 180.023 22.97C179.939 22.562 179.801 22.22 179.609 21.944C179.429 21.656 179.189 21.434 178.889 21.278C178.601 21.122 178.241 21.044 177.809 21.044ZM189.372 21.26H186.546V29H185.106V21.26H182.28V20H189.372V21.26Z" fill="white"/>
</svg>
