<svg width="128" height="27" viewBox="0 0 128 27" fill="none" xmlns="http://www.w3.org/2000/svg">
<path fill-rule="evenodd" clip-rule="evenodd" d="M4 0C1.79086 0 0 1.79086 0 4V18C0 20.2091 1.79086 22 4 22H9.65579L12.5428 27.0004L15.4298 22H124C126.209 22 128 20.2091 128 18V4C128 1.79086 126.209 0 124 0H4Z" fill="#00BFB2"/>
<path d="M10.58 11.112H10.016V15H9.02V6.6H10.016V10.512L10.556 10.344L13.376 6.6H14.528L11.72 10.212L11.216 10.608L11.828 11.088L14.9 15H13.64L10.58 11.112ZM16.1522 9.444C16.4562 9.26 16.8082 9.124 17.2082 9.036C17.6162 8.948 18.0402 8.904 18.4802 8.904C18.8962 8.904 19.2282 8.96 19.4762 9.072C19.7322 9.184 19.9242 9.332 20.0522 9.516C20.1882 9.692 20.2762 9.888 20.3162 10.104C20.3642 10.32 20.3882 10.536 20.3882 10.752C20.3882 11.232 20.3762 11.7 20.3522 12.156C20.3282 12.612 20.3162 13.044 20.3162 13.452C20.3162 13.748 20.3282 14.028 20.3522 14.292C20.3762 14.556 20.4202 14.8 20.4842 15.024H19.7762L19.5242 14.184H19.4642C19.3922 14.296 19.3002 14.408 19.1882 14.52C19.0842 14.624 18.9562 14.72 18.8042 14.808C18.6522 14.888 18.4762 14.956 18.2762 15.012C18.0762 15.068 17.8482 15.096 17.5922 15.096C17.3362 15.096 17.0962 15.056 16.8722 14.976C16.6562 14.896 16.4682 14.784 16.3082 14.64C16.1482 14.488 16.0202 14.308 15.9242 14.1C15.8362 13.892 15.7922 13.656 15.7922 13.392C15.7922 13.04 15.8642 12.748 16.0082 12.516C16.1522 12.276 16.3522 12.088 16.6082 11.952C16.8722 11.808 17.1842 11.708 17.5442 11.652C17.9122 11.588 18.3162 11.556 18.7562 11.556C18.8682 11.556 18.9762 11.556 19.0802 11.556C19.1922 11.556 19.3042 11.564 19.4162 11.58C19.4402 11.34 19.4522 11.124 19.4522 10.932C19.4522 10.492 19.3642 10.184 19.1882 10.008C19.0122 9.832 18.6922 9.744 18.2282 9.744C18.0922 9.744 17.9442 9.756 17.7842 9.78C17.6322 9.796 17.4722 9.824 17.3042 9.864C17.1442 9.896 16.9882 9.94 16.8362 9.996C16.6922 10.044 16.5642 10.1 16.4522 10.164L16.1522 9.444ZM17.8562 14.256C18.0802 14.256 18.2802 14.228 18.4562 14.172C18.6322 14.108 18.7842 14.032 18.9122 13.944C19.0402 13.848 19.1442 13.744 19.2242 13.632C19.3122 13.52 19.3762 13.412 19.4162 13.308V12.312C19.3042 12.304 19.1882 12.3 19.0682 12.3C18.9562 12.292 18.8442 12.288 18.7322 12.288C18.4842 12.288 18.2402 12.304 18.0002 12.336C17.7682 12.36 17.5602 12.412 17.3762 12.492C17.2002 12.564 17.0562 12.668 16.9442 12.804C16.8402 12.932 16.7882 13.096 16.7882 13.296C16.7882 13.576 16.8882 13.808 17.0882 13.992C17.2882 14.168 17.5442 14.256 17.8562 14.256ZM22.7773 12.324V11.544H23.6173C23.7613 11.544 23.9013 11.52 24.0373 11.472C24.1813 11.424 24.3093 11.36 24.4213 11.28C24.5333 11.192 24.6213 11.092 24.6853 10.98C24.7573 10.86 24.7933 10.736 24.7933 10.608C24.7933 10.296 24.6853 10.076 24.4693 9.948C24.2533 9.82 23.9293 9.756 23.4973 9.756C23.1853 9.756 22.8973 9.804 22.6333 9.9C22.3773 9.996 22.1773 10.088 22.0333 10.176L21.7573 9.432C21.9973 9.296 22.2773 9.176 22.5973 9.072C22.9253 8.968 23.3133 8.916 23.7613 8.916C25.0893 8.916 25.7533 9.408 25.7533 10.392C25.7533 10.672 25.6613 10.948 25.4773 11.22C25.3013 11.484 25.0453 11.672 24.7093 11.784V11.832C25.1813 11.92 25.5093 12.088 25.6933 12.336C25.8853 12.584 25.9813 12.912 25.9813 13.32C25.9813 13.576 25.9293 13.812 25.8253 14.028C25.7213 14.244 25.5653 14.432 25.3573 14.592C25.1493 14.752 24.8853 14.88 24.5653 14.976C24.2533 15.064 23.8893 15.108 23.4733 15.108C23.0653 15.108 22.7253 15.072 22.4533 15C22.1893 14.928 21.9493 14.84 21.7333 14.736L22.0093 13.944C22.1933 14.048 22.4133 14.128 22.6693 14.184C22.9333 14.24 23.2173 14.268 23.5213 14.268C24.0093 14.268 24.3813 14.184 24.6373 14.016C24.8933 13.848 25.0213 13.592 25.0213 13.248C25.0213 12.96 24.9013 12.736 24.6613 12.576C24.4213 12.408 24.0253 12.324 23.4733 12.324H22.7773ZM27.4022 9.444C27.7062 9.26 28.0582 9.124 28.4582 9.036C28.8662 8.948 29.2902 8.904 29.7302 8.904C30.1462 8.904 30.4782 8.96 30.7262 9.072C30.9822 9.184 31.1742 9.332 31.3022 9.516C31.4382 9.692 31.5262 9.888 31.5662 10.104C31.6142 10.32 31.6382 10.536 31.6382 10.752C31.6382 11.232 31.6262 11.7 31.6022 12.156C31.5782 12.612 31.5662 13.044 31.5662 13.452C31.5662 13.748 31.5782 14.028 31.6022 14.292C31.6262 14.556 31.6702 14.8 31.7342 15.024H31.0262L30.7742 14.184H30.7142C30.6422 14.296 30.5502 14.408 30.4382 14.52C30.3342 14.624 30.2062 14.72 30.0542 14.808C29.9022 14.888 29.7262 14.956 29.5262 15.012C29.3262 15.068 29.0982 15.096 28.8422 15.096C28.5862 15.096 28.3462 15.056 28.1222 14.976C27.9062 14.896 27.7182 14.784 27.5582 14.64C27.3982 14.488 27.2702 14.308 27.1742 14.1C27.0862 13.892 27.0422 13.656 27.0422 13.392C27.0422 13.04 27.1142 12.748 27.2582 12.516C27.4022 12.276 27.6022 12.088 27.8582 11.952C28.1222 11.808 28.4342 11.708 28.7942 11.652C29.1622 11.588 29.5662 11.556 30.0062 11.556C30.1182 11.556 30.2262 11.556 30.3302 11.556C30.4422 11.556 30.5542 11.564 30.6662 11.58C30.6902 11.34 30.7022 11.124 30.7022 10.932C30.7022 10.492 30.6142 10.184 30.4382 10.008C30.2622 9.832 29.9422 9.744 29.4782 9.744C29.3422 9.744 29.1942 9.756 29.0342 9.78C28.8822 9.796 28.7222 9.824 28.5542 9.864C28.3942 9.896 28.2382 9.94 28.0862 9.996C27.9422 10.044 27.8142 10.1 27.7022 10.164L27.4022 9.444ZM29.1062 14.256C29.3302 14.256 29.5302 14.228 29.7062 14.172C29.8822 14.108 30.0342 14.032 30.1622 13.944C30.2902 13.848 30.3942 13.744 30.4742 13.632C30.5622 13.52 30.6262 13.412 30.6662 13.308V12.312C30.5542 12.304 30.4382 12.3 30.3182 12.3C30.2062 12.292 30.0942 12.288 29.9822 12.288C29.7342 12.288 29.4902 12.304 29.2502 12.336C29.0182 12.36 28.8102 12.412 28.6262 12.492C28.4502 12.564 28.3062 12.668 28.1942 12.804C28.0902 12.932 28.0382 13.096 28.0382 13.296C28.0382 13.576 28.1382 13.808 28.3382 13.992C28.5382 14.168 28.7942 14.256 29.1062 14.256ZM35.0233 11.928L33.0073 9H34.1833L35.3233 10.656L35.6593 11.34L36.0073 10.656L37.1713 9H38.2513L36.2233 11.88L38.3713 15H37.2313L35.9593 13.176L35.5993 12.456L35.2273 13.176L33.9313 15H32.8633L35.0233 11.928ZM43.4496 14.604C43.2096 14.78 42.9256 14.912 42.5976 15C42.2696 15.096 41.9256 15.144 41.5656 15.144C41.1016 15.144 40.7096 15.072 40.3896 14.928C40.0696 14.776 39.8056 14.564 39.5976 14.292C39.3976 14.012 39.2496 13.68 39.1536 13.296C39.0656 12.904 39.0216 12.472 39.0216 12C39.0216 10.984 39.2456 10.208 39.6936 9.672C40.1416 9.128 40.7856 8.856 41.6256 8.856C42.0096 8.856 42.3336 8.888 42.5976 8.952C42.8696 9.008 43.1136 9.092 43.3296 9.204L43.0536 10.032C42.8696 9.928 42.6656 9.848 42.4416 9.792C42.2176 9.728 41.9776 9.696 41.7216 9.696C40.5856 9.696 40.0176 10.464 40.0176 12C40.0176 12.304 40.0456 12.596 40.1016 12.876C40.1656 13.148 40.2656 13.392 40.4016 13.608C40.5456 13.816 40.7296 13.984 40.9536 14.112C41.1856 14.24 41.4696 14.304 41.8056 14.304C42.0936 14.304 42.3496 14.26 42.5736 14.172C42.8056 14.084 42.9936 13.984 43.1376 13.872L43.4496 14.604ZM46.2837 12.3H45.7317V15H44.7717V9H45.7317V11.712L46.2477 11.544L48.1677 9H49.2117L47.3517 11.412L46.8477 11.808L47.4717 12.288L49.4757 15H48.2877L46.2837 12.3ZM54.2461 11.448L54.2821 10.704H54.2461L53.7541 11.472L51.0541 15H50.5021V9H51.4621V12.66L51.4261 13.368H51.4741L51.9421 12.624L54.6421 9H55.2061V15H54.2461V11.448ZM60.7969 11.448L60.8329 10.704H60.7969L60.3049 11.472L57.6049 15H57.0529V9H58.0129V12.66L57.9769 13.368H58.0249L58.4929 12.624L61.1929 9H61.7569V15H60.7969V11.448ZM58.4329 6.576C58.5129 6.944 58.6489 7.2 58.8409 7.344C59.0409 7.488 59.2689 7.56 59.5249 7.56C59.7809 7.56 60.0089 7.484 60.2089 7.332C60.4089 7.18 60.5449 6.932 60.6169 6.588L61.3369 6.816C61.2649 7.28 61.0569 7.636 60.7129 7.884C60.3769 8.132 59.9729 8.256 59.5009 8.256C59.2849 8.256 59.0689 8.228 58.8529 8.172C58.6449 8.116 58.4569 8.032 58.2889 7.92C58.1209 7.808 57.9769 7.664 57.8569 7.488C57.7369 7.312 57.6569 7.104 57.6169 6.864L58.4329 6.576ZM72.1069 16.524H71.4589L71.2789 15H66.7669L66.5869 16.524H65.9389V14.16H66.6469C66.7109 14.072 66.7949 13.916 66.8989 13.692C67.0029 13.46 67.1029 13.14 67.1989 12.732C67.3029 12.316 67.3909 11.804 67.4629 11.196C67.5429 10.58 67.5909 9.848 67.6069 9H71.2309V14.16H72.1069V16.524ZM70.2709 14.16V9.84H68.4709C68.4549 10.176 68.4269 10.544 68.3869 10.944C68.3469 11.336 68.2909 11.732 68.2189 12.132C68.1549 12.524 68.0709 12.896 67.9669 13.248C67.8629 13.6 67.7429 13.904 67.6069 14.16H70.2709ZM73.2951 9H73.9551L74.1351 9.72H74.1831C74.3671 9.44 74.6031 9.228 74.8911 9.084C75.1871 8.932 75.5231 8.856 75.8991 8.856C76.6991 8.856 77.2951 9.092 77.6871 9.564C78.0791 10.036 78.2751 10.808 78.2751 11.88C78.2751 12.384 78.2071 12.84 78.0711 13.248C77.9431 13.648 77.7591 13.988 77.5191 14.268C77.2791 14.548 76.9871 14.764 76.6431 14.916C76.3071 15.068 75.9311 15.144 75.5151 15.144C75.2191 15.144 74.9831 15.124 74.8071 15.084C74.6391 15.052 74.4551 14.992 74.2551 14.904V17.4H73.2951V9ZM75.7191 9.696C75.3111 9.696 74.9871 9.804 74.7471 10.02C74.5151 10.228 74.3511 10.548 74.2551 10.98V13.956C74.3991 14.068 74.5631 14.156 74.7471 14.22C74.9311 14.276 75.1751 14.304 75.4791 14.304C76.0311 14.304 76.4671 14.1 76.7871 13.692C77.1151 13.276 77.2791 12.668 77.2791 11.868C77.2791 11.54 77.2511 11.244 77.1951 10.98C77.1391 10.708 77.0471 10.48 76.9191 10.296C76.7991 10.104 76.6391 9.956 76.4391 9.852C76.2471 9.748 76.0071 9.696 75.7191 9.696ZM79.6913 9.444C79.9953 9.26 80.3473 9.124 80.7473 9.036C81.1553 8.948 81.5793 8.904 82.0193 8.904C82.4353 8.904 82.7673 8.96 83.0153 9.072C83.2713 9.184 83.4633 9.332 83.5913 9.516C83.7273 9.692 83.8153 9.888 83.8553 10.104C83.9033 10.32 83.9273 10.536 83.9273 10.752C83.9273 11.232 83.9153 11.7 83.8913 12.156C83.8673 12.612 83.8553 13.044 83.8553 13.452C83.8553 13.748 83.8673 14.028 83.8913 14.292C83.9153 14.556 83.9593 14.8 84.0233 15.024H83.3153L83.0633 14.184H83.0033C82.9313 14.296 82.8393 14.408 82.7273 14.52C82.6233 14.624 82.4953 14.72 82.3433 14.808C82.1913 14.888 82.0153 14.956 81.8153 15.012C81.6153 15.068 81.3873 15.096 81.1313 15.096C80.8753 15.096 80.6353 15.056 80.4113 14.976C80.1953 14.896 80.0073 14.784 79.8473 14.64C79.6873 14.488 79.5593 14.308 79.4633 14.1C79.3753 13.892 79.3313 13.656 79.3313 13.392C79.3313 13.04 79.4033 12.748 79.5473 12.516C79.6913 12.276 79.8913 12.088 80.1473 11.952C80.4113 11.808 80.7233 11.708 81.0833 11.652C81.4513 11.588 81.8553 11.556 82.2953 11.556C82.4073 11.556 82.5153 11.556 82.6193 11.556C82.7313 11.556 82.8433 11.564 82.9553 11.58C82.9793 11.34 82.9913 11.124 82.9913 10.932C82.9913 10.492 82.9033 10.184 82.7273 10.008C82.5513 9.832 82.2313 9.744 81.7673 9.744C81.6313 9.744 81.4833 9.756 81.3233 9.78C81.1713 9.796 81.0113 9.824 80.8433 9.864C80.6833 9.896 80.5273 9.94 80.3753 9.996C80.2313 10.044 80.1033 10.1 79.9913 10.164L79.6913 9.444ZM81.3953 14.256C81.6193 14.256 81.8193 14.228 81.9953 14.172C82.1713 14.108 82.3233 14.032 82.4513 13.944C82.5793 13.848 82.6833 13.744 82.7633 13.632C82.8513 13.52 82.9153 13.412 82.9553 13.308V12.312C82.8433 12.304 82.7273 12.3 82.6073 12.3C82.4953 12.292 82.3833 12.288 82.2713 12.288C82.0233 12.288 81.7793 12.304 81.5393 12.336C81.3073 12.36 81.0993 12.412 80.9153 12.492C80.7393 12.564 80.5953 12.668 80.4833 12.804C80.3793 12.932 80.3273 13.096 80.3273 13.296C80.3273 13.576 80.4273 13.808 80.6273 13.992C80.8273 14.168 81.0833 14.256 81.3953 14.256ZM90.6964 11.436L90.7684 10.296H90.7084L90.2764 11.22L88.8244 13.572H88.4884L86.9764 11.22L86.5804 10.296H86.5324L86.6284 11.424V15H85.7404V9H86.6884L88.3684 11.688L88.7164 12.384H88.7404L89.1004 11.664L90.6724 9H91.6324V15H90.6964V11.436ZM97.3028 9.84H95.4188V15H94.4588V9.84H92.5748V9H97.3028V9.84ZM102.449 14.52C102.209 14.712 101.905 14.864 101.537 14.976C101.177 15.088 100.793 15.144 100.385 15.144C99.9285 15.144 99.5325 15.072 99.1965 14.928C98.8605 14.776 98.5845 14.564 98.3685 14.292C98.1525 14.012 97.9925 13.68 97.8885 13.296C97.7845 12.912 97.7325 12.48 97.7325 12C97.7325 10.976 97.9605 10.196 98.4165 9.66C98.8725 9.124 99.5245 8.856 100.373 8.856C100.645 8.856 100.917 8.888 101.189 8.952C101.461 9.008 101.705 9.12 101.921 9.288C102.137 9.456 102.313 9.696 102.449 10.008C102.585 10.312 102.653 10.716 102.653 11.22C102.653 11.484 102.629 11.776 102.581 12.096H98.7285C98.7285 12.448 98.7645 12.76 98.8365 13.032C98.9085 13.304 99.0205 13.536 99.1725 13.728C99.3245 13.912 99.5205 14.056 99.7605 14.16C100.009 14.256 100.309 14.304 100.661 14.304C100.933 14.304 101.205 14.256 101.477 14.16C101.749 14.064 101.953 13.952 102.089 13.824L102.449 14.52ZM100.385 9.696C99.9125 9.696 99.5325 9.82 99.2445 10.068C98.9645 10.316 98.7965 10.74 98.7405 11.34H101.717C101.717 10.732 101.601 10.308 101.369 10.068C101.137 9.82 100.809 9.696 100.385 9.696ZM104.066 9.444C104.37 9.26 104.722 9.124 105.122 9.036C105.53 8.948 105.954 8.904 106.394 8.904C106.81 8.904 107.142 8.96 107.39 9.072C107.646 9.184 107.838 9.332 107.966 9.516C108.102 9.692 108.19 9.888 108.23 10.104C108.278 10.32 108.302 10.536 108.302 10.752C108.302 11.232 108.29 11.7 108.266 12.156C108.242 12.612 108.23 13.044 108.23 13.452C108.23 13.748 108.242 14.028 108.266 14.292C108.29 14.556 108.334 14.8 108.398 15.024H107.69L107.438 14.184H107.378C107.306 14.296 107.214 14.408 107.102 14.52C106.998 14.624 106.87 14.72 106.718 14.808C106.566 14.888 106.39 14.956 106.19 15.012C105.99 15.068 105.762 15.096 105.506 15.096C105.25 15.096 105.01 15.056 104.786 14.976C104.57 14.896 104.382 14.784 104.222 14.64C104.062 14.488 103.934 14.308 103.838 14.1C103.75 13.892 103.706 13.656 103.706 13.392C103.706 13.04 103.778 12.748 103.922 12.516C104.066 12.276 104.266 12.088 104.522 11.952C104.786 11.808 105.098 11.708 105.458 11.652C105.826 11.588 106.23 11.556 106.67 11.556C106.782 11.556 106.89 11.556 106.994 11.556C107.106 11.556 107.218 11.564 107.33 11.58C107.354 11.34 107.366 11.124 107.366 10.932C107.366 10.492 107.278 10.184 107.102 10.008C106.926 9.832 106.606 9.744 106.142 9.744C106.006 9.744 105.858 9.756 105.698 9.78C105.546 9.796 105.386 9.824 105.218 9.864C105.058 9.896 104.902 9.94 104.75 9.996C104.606 10.044 104.478 10.1 104.366 10.164L104.066 9.444ZM105.77 14.256C105.994 14.256 106.194 14.228 106.37 14.172C106.546 14.108 106.698 14.032 106.826 13.944C106.954 13.848 107.058 13.744 107.138 13.632C107.226 13.52 107.29 13.412 107.33 13.308V12.312C107.218 12.304 107.102 12.3 106.982 12.3C106.87 12.292 106.758 12.288 106.646 12.288C106.398 12.288 106.154 12.304 105.914 12.336C105.682 12.36 105.474 12.412 105.29 12.492C105.114 12.564 104.97 12.668 104.858 12.804C104.754 12.932 104.702 13.096 104.702 13.296C104.702 13.576 104.802 13.808 105.002 13.992C105.202 14.168 105.458 14.256 105.77 14.256ZM110.115 9H110.775L110.955 9.72H111.003C111.187 9.44 111.423 9.228 111.711 9.084C112.007 8.932 112.343 8.856 112.719 8.856C113.519 8.856 114.115 9.092 114.507 9.564C114.899 10.036 115.095 10.808 115.095 11.88C115.095 12.384 115.027 12.84 114.891 13.248C114.763 13.648 114.579 13.988 114.339 14.268C114.099 14.548 113.807 14.764 113.463 14.916C113.127 15.068 112.751 15.144 112.335 15.144C112.039 15.144 111.803 15.124 111.627 15.084C111.459 15.052 111.275 14.992 111.075 14.904V17.4H110.115V9ZM112.539 9.696C112.131 9.696 111.807 9.804 111.567 10.02C111.335 10.228 111.171 10.548 111.075 10.98V13.956C111.219 14.068 111.383 14.156 111.567 14.22C111.751 14.276 111.995 14.304 112.299 14.304C112.851 14.304 113.287 14.1 113.607 13.692C113.935 13.276 114.099 12.668 114.099 11.868C114.099 11.54 114.071 11.244 114.015 10.98C113.959 10.708 113.867 10.48 113.739 10.296C113.619 10.104 113.459 9.956 113.259 9.852C113.067 9.748 112.827 9.696 112.539 9.696ZM120.248 9.84H118.364V15H117.404V9.84H115.52V9H120.248V9.84Z" fill="white"/>
</svg>
