<svg width="94" height="57" viewBox="0 0 94 57" fill="none" xmlns="http://www.w3.org/2000/svg">
<path fill-rule="evenodd" clip-rule="evenodd" d="M6 0C2.68629 0 0 2.68629 0 6V41C0 44.3137 2.68629 47 6 47H21.7318L27.1845 56.4445L32.6373 47H88C91.3137 47 94 44.3137 94 41V6C94 2.68629 91.3137 0 88 0H6Z" fill="#EA0967"/>
<path d="M31.538 31.322H30.512L30.242 29H21.404L21.134 31.322H20.09V27.668H21.368C21.464 27.536 21.608 27.23 21.8 26.75C22.004 26.258 22.202 25.562 22.394 24.662C22.598 23.75 22.778 22.616 22.934 21.26C23.09 19.892 23.168 18.272 23.168 16.4H29.9V27.668H31.538V31.322ZM28.406 27.668V17.732H24.572C24.536 19.052 24.464 20.24 24.356 21.296C24.26 22.352 24.14 23.288 23.996 24.104C23.852 24.908 23.69 25.604 23.51 26.192C23.33 26.78 23.144 27.272 22.952 27.668H28.406ZM39.997 28.28C39.637 28.568 39.181 28.796 38.629 28.964C38.089 29.132 37.513 29.216 36.901 29.216C36.217 29.216 35.623 29.108 35.119 28.892C34.615 28.664 34.201 28.346 33.877 27.938C33.553 27.518 33.313 27.02 33.157 26.444C33.001 25.868 32.923 25.22 32.923 24.5C32.923 22.964 33.265 21.794 33.949 20.99C34.633 20.186 35.611 19.784 36.883 19.784C37.291 19.784 37.699 19.832 38.107 19.928C38.515 20.012 38.881 20.18 39.205 20.432C39.529 20.684 39.793 21.044 39.997 21.512C40.201 21.968 40.303 22.574 40.303 23.33C40.303 23.726 40.267 24.164 40.195 24.644H34.417C34.417 25.172 34.471 25.64 34.579 26.048C34.687 26.456 34.855 26.804 35.083 27.092C35.311 27.368 35.605 27.584 35.965 27.74C36.337 27.884 36.787 27.956 37.315 27.956C37.723 27.956 38.131 27.884 38.539 27.74C38.947 27.596 39.253 27.428 39.457 27.236L39.997 28.28ZM36.901 21.044C36.193 21.044 35.623 21.23 35.191 21.602C34.771 21.974 34.519 22.61 34.435 23.51H38.899C38.899 22.598 38.725 21.962 38.377 21.602C38.029 21.23 37.537 21.044 36.901 21.044ZM48.3096 21.26H45.4836V29H44.0436V21.26H41.2176V20H48.3096V21.26ZM55.5963 28.406C55.2363 28.67 54.8103 28.868 54.3183 29C53.8263 29.144 53.3103 29.216 52.7703 29.216C52.0743 29.216 51.4863 29.108 51.0063 28.892C50.5263 28.664 50.1303 28.346 49.8183 27.938C49.5183 27.518 49.2963 27.02 49.1523 26.444C49.0203 25.856 48.9543 25.208 48.9543 24.5C48.9543 22.976 49.2903 21.812 49.9623 21.008C50.6343 20.192 51.6003 19.784 52.8603 19.784C53.4363 19.784 53.9223 19.832 54.3183 19.928C54.7263 20.012 55.0923 20.138 55.4163 20.306L55.0023 21.548C54.7263 21.392 54.4203 21.272 54.0843 21.188C53.7483 21.092 53.3883 21.044 53.0043 21.044C51.3003 21.044 50.4483 22.196 50.4483 24.5C50.4483 24.956 50.4903 25.394 50.5743 25.814C50.6703 26.222 50.8203 26.588 51.0243 26.912C51.2403 27.224 51.5163 27.476 51.8523 27.668C52.2003 27.86 52.6263 27.956 53.1303 27.956C53.5623 27.956 53.9463 27.89 54.2823 27.758C54.6303 27.626 54.9123 27.476 55.1283 27.308L55.5963 28.406ZM57.4354 20.666C57.8914 20.39 58.4194 20.186 59.0194 20.054C59.6314 19.922 60.2674 19.856 60.9274 19.856C61.5514 19.856 62.0494 19.94 62.4214 20.108C62.8054 20.276 63.0934 20.498 63.2854 20.774C63.4894 21.038 63.6214 21.332 63.6814 21.656C63.7534 21.98 63.7894 22.304 63.7894 22.628C63.7894 23.348 63.7714 24.05 63.7354 24.734C63.6994 25.418 63.6814 26.066 63.6814 26.678C63.6814 27.122 63.6994 27.542 63.7354 27.938C63.7714 28.334 63.8374 28.7 63.9334 29.036H62.8714L62.4934 27.776H62.4034C62.2954 27.944 62.1574 28.112 61.9894 28.28C61.8334 28.436 61.6414 28.58 61.4134 28.712C61.1854 28.832 60.9214 28.934 60.6214 29.018C60.3214 29.102 59.9794 29.144 59.5954 29.144C59.2114 29.144 58.8514 29.084 58.5154 28.964C58.1914 28.844 57.9094 28.676 57.6694 28.46C57.4294 28.232 57.2374 27.962 57.0934 27.65C56.9614 27.338 56.8954 26.984 56.8954 26.588C56.8954 26.06 57.0034 25.622 57.2194 25.274C57.4354 24.914 57.7354 24.632 58.1194 24.428C58.5154 24.212 58.9834 24.062 59.5234 23.978C60.0754 23.882 60.6814 23.834 61.3414 23.834C61.5094 23.834 61.6714 23.834 61.8274 23.834C61.9954 23.834 62.1634 23.846 62.3314 23.87C62.3674 23.51 62.3854 23.186 62.3854 22.898C62.3854 22.238 62.2534 21.776 61.9894 21.512C61.7254 21.248 61.2454 21.116 60.5494 21.116C60.3454 21.116 60.1234 21.134 59.8834 21.17C59.6554 21.194 59.4154 21.236 59.1634 21.296C58.9234 21.344 58.6894 21.41 58.4614 21.494C58.2454 21.566 58.0534 21.65 57.8854 21.746L57.4354 20.666ZM59.9914 27.884C60.3274 27.884 60.6274 27.842 60.8914 27.758C61.1554 27.662 61.3834 27.548 61.5754 27.416C61.7674 27.272 61.9234 27.116 62.0434 26.948C62.1754 26.78 62.2714 26.618 62.3314 26.462V24.968C62.1634 24.956 61.9894 24.95 61.8094 24.95C61.6414 24.938 61.4734 24.932 61.3054 24.932C60.9334 24.932 60.5674 24.956 60.2074 25.004C59.8594 25.04 59.5474 25.118 59.2714 25.238C59.0074 25.346 58.7914 25.502 58.6234 25.706C58.4674 25.898 58.3894 26.144 58.3894 26.444C58.3894 26.864 58.5394 27.212 58.8394 27.488C59.1394 27.752 59.5234 27.884 59.9914 27.884ZM74.465 31.286H73.493L73.223 29H66.455L66.185 31.286H65.213V27.74H66.275C66.371 27.608 66.497 27.374 66.653 27.038C66.809 26.69 66.959 26.21 67.103 25.598C67.259 24.974 67.391 24.206 67.499 23.294C67.619 22.37 67.691 21.272 67.715 20H73.151V27.74H74.465V31.286ZM71.711 27.74V21.26H69.011C68.987 21.764 68.945 22.316 68.885 22.916C68.825 23.504 68.741 24.098 68.633 24.698C68.537 25.286 68.411 25.844 68.255 26.372C68.099 26.9 67.919 27.356 67.715 27.74H71.711Z" fill="white"/>
</svg>
