<svg width="51" height="26" viewBox="0 0 51 26" fill="none" xmlns="http://www.w3.org/2000/svg">
<path fill-rule="evenodd" clip-rule="evenodd" d="M4 0C1.79086 0 0 1.79086 0 4V18C0 20.2091 1.79086 22 4 22H8.28811L10.5975 26L12.9069 22H47C49.2091 22 51 20.2091 51 18V4C51 1.79086 49.2091 0 47 0H4Z" fill="#EA0967"/>
<path d="M14.692 16.548H14.008L13.828 15H7.936L7.756 16.548H7.06V14.112H7.912C7.976 14.024 8.072 13.82 8.2 13.5C8.336 13.172 8.468 12.708 8.596 12.108C8.732 11.5 8.852 10.744 8.956 9.84C9.06 8.928 9.112 7.848 9.112 6.6H13.6V14.112H14.692V16.548ZM12.604 14.112V7.488H10.048C10.024 8.368 9.976 9.16 9.904 9.864C9.84 10.568 9.76 11.192 9.664 11.736C9.568 12.272 9.46 12.736 9.34 13.128C9.22 13.52 9.096 13.848 8.968 14.112H12.604ZM20.3313 14.52C20.0913 14.712 19.7873 14.864 19.4193 14.976C19.0593 15.088 18.6753 15.144 18.2673 15.144C17.8113 15.144 17.4153 15.072 17.0793 14.928C16.7433 14.776 16.4673 14.564 16.2513 14.292C16.0353 14.012 15.8753 13.68 15.7713 13.296C15.6673 12.912 15.6153 12.48 15.6153 12C15.6153 10.976 15.8433 10.196 16.2993 9.66C16.7553 9.124 17.4073 8.856 18.2553 8.856C18.5273 8.856 18.7993 8.888 19.0713 8.952C19.3433 9.008 19.5873 9.12 19.8033 9.288C20.0193 9.456 20.1953 9.696 20.3313 10.008C20.4673 10.312 20.5353 10.716 20.5353 11.22C20.5353 11.484 20.5113 11.776 20.4633 12.096H16.6113C16.6113 12.448 16.6473 12.76 16.7193 13.032C16.7913 13.304 16.9033 13.536 17.0553 13.728C17.2073 13.912 17.4033 14.056 17.6433 14.16C17.8913 14.256 18.1913 14.304 18.5433 14.304C18.8153 14.304 19.0873 14.256 19.3593 14.16C19.6313 14.064 19.8353 13.952 19.9713 13.824L20.3313 14.52ZM18.2673 9.696C17.7953 9.696 17.4153 9.82 17.1273 10.068C16.8473 10.316 16.6793 10.74 16.6233 11.34H19.5993C19.5993 10.732 19.4833 10.308 19.2513 10.068C19.0193 9.82 18.6913 9.696 18.2673 9.696ZM25.8731 9.84H23.9891V15H23.0291V9.84H21.1451V9H25.8731V9.84ZM30.7308 14.604C30.4908 14.78 30.2068 14.912 29.8788 15C29.5508 15.096 29.2068 15.144 28.8468 15.144C28.3828 15.144 27.9908 15.072 27.6708 14.928C27.3508 14.776 27.0868 14.564 26.8788 14.292C26.6788 14.012 26.5308 13.68 26.4348 13.296C26.3468 12.904 26.3028 12.472 26.3028 12C26.3028 10.984 26.5268 10.208 26.9748 9.672C27.4228 9.128 28.0668 8.856 28.9068 8.856C29.2908 8.856 29.6148 8.888 29.8788 8.952C30.1508 9.008 30.3948 9.092 30.6108 9.204L30.3348 10.032C30.1508 9.928 29.9468 9.848 29.7228 9.792C29.4988 9.728 29.2588 9.696 29.0028 9.696C27.8668 9.696 27.2988 10.464 27.2988 12C27.2988 12.304 27.3268 12.596 27.3828 12.876C27.4468 13.148 27.5468 13.392 27.6828 13.608C27.8268 13.816 28.0108 13.984 28.2348 14.112C28.4668 14.24 28.7508 14.304 29.0868 14.304C29.3748 14.304 29.6308 14.26 29.8548 14.172C30.0868 14.084 30.2748 13.984 30.4188 13.872L30.7308 14.604ZM31.9569 9.444C32.2609 9.26 32.6129 9.124 33.0129 9.036C33.4209 8.948 33.8449 8.904 34.2849 8.904C34.7009 8.904 35.0329 8.96 35.2809 9.072C35.5369 9.184 35.7289 9.332 35.8569 9.516C35.9929 9.692 36.0809 9.888 36.1209 10.104C36.1689 10.32 36.1929 10.536 36.1929 10.752C36.1929 11.232 36.1809 11.7 36.1569 12.156C36.1329 12.612 36.1209 13.044 36.1209 13.452C36.1209 13.748 36.1329 14.028 36.1569 14.292C36.1809 14.556 36.2249 14.8 36.2889 15.024H35.5809L35.3289 14.184H35.2689C35.1969 14.296 35.1049 14.408 34.9929 14.52C34.8889 14.624 34.7609 14.72 34.6089 14.808C34.4569 14.888 34.2809 14.956 34.0809 15.012C33.8809 15.068 33.6529 15.096 33.3969 15.096C33.1409 15.096 32.9009 15.056 32.6769 14.976C32.4609 14.896 32.2729 14.784 32.1129 14.64C31.9529 14.488 31.8249 14.308 31.7289 14.1C31.6409 13.892 31.5969 13.656 31.5969 13.392C31.5969 13.04 31.6689 12.748 31.8129 12.516C31.9569 12.276 32.1569 12.088 32.4129 11.952C32.6769 11.808 32.9889 11.708 33.3489 11.652C33.7169 11.588 34.1209 11.556 34.5609 11.556C34.6729 11.556 34.7809 11.556 34.8849 11.556C34.9969 11.556 35.1089 11.564 35.2209 11.58C35.2449 11.34 35.2569 11.124 35.2569 10.932C35.2569 10.492 35.1689 10.184 34.9929 10.008C34.8169 9.832 34.4969 9.744 34.0329 9.744C33.8969 9.744 33.7489 9.756 33.5889 9.78C33.4369 9.796 33.2769 9.824 33.1089 9.864C32.9489 9.896 32.7929 9.94 32.6409 9.996C32.4969 10.044 32.3689 10.1 32.2569 10.164L31.9569 9.444ZM33.6609 14.256C33.8849 14.256 34.0849 14.228 34.2609 14.172C34.4369 14.108 34.5889 14.032 34.7169 13.944C34.8449 13.848 34.9489 13.744 35.0289 13.632C35.1169 13.52 35.1809 13.412 35.2209 13.308V12.312C35.1089 12.304 34.9929 12.3 34.8729 12.3C34.7609 12.292 34.6489 12.288 34.5369 12.288C34.2889 12.288 34.0449 12.304 33.8049 12.336C33.5729 12.36 33.3649 12.412 33.1809 12.492C33.0049 12.564 32.8609 12.668 32.7489 12.804C32.6449 12.932 32.5929 13.096 32.5929 13.296C32.5929 13.576 32.6929 13.808 32.8929 13.992C33.0929 14.168 33.3489 14.256 33.6609 14.256ZM43.31 16.524H42.662L42.482 15H37.97L37.79 16.524H37.142V14.16H37.85C37.914 14.072 37.998 13.916 38.102 13.692C38.206 13.46 38.306 13.14 38.402 12.732C38.506 12.316 38.594 11.804 38.666 11.196C38.746 10.58 38.794 9.848 38.81 9H42.434V14.16H43.31V16.524ZM41.474 14.16V9.84H39.674C39.658 10.176 39.63 10.544 39.59 10.944C39.55 11.336 39.494 11.732 39.422 12.132C39.358 12.524 39.274 12.896 39.17 13.248C39.066 13.6 38.946 13.904 38.81 14.16H41.474Z" fill="white"/>
</svg>
