<svg width="114" height="27" viewBox="0 0 114 27" fill="none" xmlns="http://www.w3.org/2000/svg">
<path fill-rule="evenodd" clip-rule="evenodd" d="M4 0C1.79086 0 0 1.79086 0 4V18C0 20.2091 1.79086 22 4 22H21.3505L24.2373 27L27.124 22H110C112.209 22 114 20.2091 114 18V4C114 1.79086 112.209 0 110 0H4Z" fill="#488A35"/>
<path d="M11.892 7.488H8.016V15H7.02V6.6H12.888V15H11.892V7.488ZM14.7382 9.444C15.0422 9.26 15.3942 9.124 15.7942 9.036C16.2022 8.948 16.6262 8.904 17.0662 8.904C17.4822 8.904 17.8142 8.96 18.0622 9.072C18.3182 9.184 18.5102 9.332 18.6382 9.516C18.7742 9.692 18.8622 9.888 18.9022 10.104C18.9502 10.32 18.9742 10.536 18.9742 10.752C18.9742 11.232 18.9622 11.7 18.9382 12.156C18.9142 12.612 18.9022 13.044 18.9022 13.452C18.9022 13.748 18.9142 14.028 18.9382 14.292C18.9622 14.556 19.0062 14.8 19.0702 15.024H18.3622L18.1102 14.184H18.0502C17.9782 14.296 17.8862 14.408 17.7742 14.52C17.6702 14.624 17.5422 14.72 17.3902 14.808C17.2382 14.888 17.0622 14.956 16.8622 15.012C16.6622 15.068 16.4342 15.096 16.1782 15.096C15.9222 15.096 15.6822 15.056 15.4582 14.976C15.2422 14.896 15.0542 14.784 14.8942 14.64C14.7342 14.488 14.6062 14.308 14.5102 14.1C14.4222 13.892 14.3782 13.656 14.3782 13.392C14.3782 13.04 14.4502 12.748 14.5942 12.516C14.7382 12.276 14.9382 12.088 15.1942 11.952C15.4582 11.808 15.7702 11.708 16.1302 11.652C16.4982 11.588 16.9022 11.556 17.3422 11.556C17.4542 11.556 17.5622 11.556 17.6662 11.556C17.7782 11.556 17.8902 11.564 18.0022 11.58C18.0262 11.34 18.0382 11.124 18.0382 10.932C18.0382 10.492 17.9502 10.184 17.7742 10.008C17.5982 9.832 17.2782 9.744 16.8142 9.744C16.6782 9.744 16.5302 9.756 16.3702 9.78C16.2182 9.796 16.0582 9.824 15.8902 9.864C15.7302 9.896 15.5742 9.94 15.4222 9.996C15.2782 10.044 15.1502 10.1 15.0382 10.164L14.7382 9.444ZM16.4422 14.256C16.6662 14.256 16.8662 14.228 17.0422 14.172C17.2182 14.108 17.3702 14.032 17.4982 13.944C17.6262 13.848 17.7302 13.744 17.8102 13.632C17.8982 13.52 17.9622 13.412 18.0022 13.308V12.312C17.8902 12.304 17.7742 12.3 17.6542 12.3C17.5422 12.292 17.4302 12.288 17.3182 12.288C17.0702 12.288 16.8262 12.304 16.5862 12.336C16.3542 12.36 16.1462 12.412 15.9622 12.492C15.7862 12.564 15.6422 12.668 15.5302 12.804C15.4262 12.932 15.3742 13.096 15.3742 13.296C15.3742 13.576 15.4742 13.808 15.6742 13.992C15.8742 14.168 16.1302 14.256 16.4422 14.256ZM20.7873 9H21.4473L21.6273 9.72H21.6753C21.8593 9.44 22.0953 9.228 22.3833 9.084C22.6793 8.932 23.0153 8.856 23.3913 8.856C24.1913 8.856 24.7873 9.092 25.1793 9.564C25.5713 10.036 25.7673 10.808 25.7673 11.88C25.7673 12.384 25.6993 12.84 25.5633 13.248C25.4353 13.648 25.2513 13.988 25.0113 14.268C24.7713 14.548 24.4793 14.764 24.1353 14.916C23.7993 15.068 23.4233 15.144 23.0073 15.144C22.7113 15.144 22.4753 15.124 22.2993 15.084C22.1313 15.052 21.9473 14.992 21.7473 14.904V17.4H20.7873V9ZM23.2113 9.696C22.8033 9.696 22.4793 9.804 22.2393 10.02C22.0073 10.228 21.8433 10.548 21.7473 10.98V13.956C21.8913 14.068 22.0553 14.156 22.2393 14.22C22.4233 14.276 22.6673 14.304 22.9713 14.304C23.5233 14.304 23.9593 14.1 24.2793 13.692C24.6073 13.276 24.7713 12.668 24.7713 11.868C24.7713 11.54 24.7433 11.244 24.6873 10.98C24.6313 10.708 24.5393 10.48 24.4113 10.296C24.2913 10.104 24.1313 9.956 23.9313 9.852C23.7393 9.748 23.4993 9.696 23.2113 9.696ZM28.7915 12.3H28.2395V15H27.2795V9H28.2395V11.712L28.7555 11.544L30.6755 9H31.7195L29.8595 11.412L29.3555 11.808L29.9795 12.288L31.9835 15H30.7955L28.7915 12.3ZM38.0768 7.56C38.0768 7.744 38.0168 7.892 37.8968 8.004C37.7768 8.108 37.6248 8.16 37.4408 8.16C37.2248 8.16 37.0448 8.088 36.9008 7.944C36.7648 7.8 36.6968 7.588 36.6968 7.308C36.6968 7.044 36.7328 6.82 36.8048 6.636C36.8848 6.444 36.9768 6.284 37.0808 6.156C37.1928 6.02 37.3048 5.912 37.4168 5.832C37.5368 5.752 37.6408 5.696 37.7288 5.664L38.0288 6.084C37.8528 6.172 37.7088 6.292 37.5968 6.444C37.4928 6.588 37.4408 6.772 37.4408 6.996C37.4728 6.988 37.5168 6.984 37.5728 6.984C37.7328 6.984 37.8568 7.04 37.9448 7.152C38.0328 7.264 38.0768 7.4 38.0768 7.56ZM36.3248 7.56C36.3248 7.744 36.2648 7.892 36.1448 8.004C36.0248 8.108 35.8728 8.16 35.6888 8.16C35.4728 8.16 35.2928 8.088 35.1488 7.944C35.0128 7.8 34.9448 7.588 34.9448 7.308C34.9448 7.044 34.9808 6.82 35.0528 6.636C35.1328 6.444 35.2248 6.284 35.3288 6.156C35.4408 6.02 35.5528 5.912 35.6648 5.832C35.7848 5.752 35.8888 5.696 35.9768 5.664L36.2768 6.084C36.1008 6.172 35.9568 6.292 35.8448 6.444C35.7408 6.588 35.6888 6.772 35.6888 6.996C35.7208 6.988 35.7648 6.984 35.8208 6.984C35.9808 6.984 36.1048 7.04 36.1928 7.152C36.2808 7.264 36.3248 7.4 36.3248 7.56ZM46.019 9.36L46.139 8.1H46.079L45.623 9.252L43.439 13.044H43.139L40.823 9.24L40.391 8.1H40.331L40.499 9.348V15H39.563V6.6H40.307L42.935 10.896L43.331 11.832H43.355L43.727 10.872L46.235 6.6H47.015V15H46.019V9.36ZM49.9192 14.16C50.2152 14.208 50.4992 14.232 50.7712 14.232C51.2752 14.232 51.6272 14.136 51.8272 13.944C52.0272 13.744 52.1272 13.464 52.1272 13.104C52.1272 12.784 52.0272 12.52 51.8272 12.312C51.6352 12.104 51.2952 12 50.8072 12C50.6712 12 50.5232 12.004 50.3632 12.012C50.2032 12.02 50.0552 12.044 49.9192 12.084V14.16ZM49.9192 11.292C50.1112 11.26 50.2952 11.24 50.4712 11.232C50.6472 11.216 50.8152 11.208 50.9752 11.208C51.3832 11.208 51.7232 11.256 51.9952 11.352C52.2752 11.44 52.4992 11.564 52.6672 11.724C52.8352 11.884 52.9512 12.076 53.0152 12.3C53.0872 12.516 53.1232 12.748 53.1232 12.996C53.1232 13.724 52.9192 14.252 52.5112 14.58C52.1112 14.908 51.4592 15.072 50.5552 15.072C50.0432 15.072 49.5112 15.048 48.9592 15V9H49.9192V11.292ZM54.0712 9H55.0312V15H54.0712V9ZM60.553 12.348H57.841V15H56.881V9H57.841V11.508H60.553V9H61.513V15H60.553V12.348ZM65.3175 12.348L63.5535 15H62.4495L64.3455 12.252L64.7535 11.892L64.1415 11.436L62.5815 9H63.6015L65.2575 11.592H65.8815V9H66.8175V11.712L67.3815 11.544L69.0495 9H70.0575L68.4255 11.436L67.9575 11.82L68.5695 12.3L70.3455 15H69.2055L67.4415 12.3H66.8175V15H65.8815V12.18L65.3175 12.348ZM72.2317 14.16C72.5277 14.208 72.8117 14.232 73.0837 14.232C73.5877 14.232 73.9397 14.136 74.1397 13.944C74.3397 13.744 74.4397 13.464 74.4397 13.104C74.4397 12.784 74.3397 12.52 74.1397 12.312C73.9477 12.104 73.6077 12 73.1197 12C72.9837 12 72.8357 12.004 72.6757 12.012C72.5157 12.02 72.3677 12.044 72.2317 12.084V14.16ZM72.2317 11.292C72.4237 11.26 72.6077 11.24 72.7837 11.232C72.9597 11.216 73.1277 11.208 73.2877 11.208C73.6957 11.208 74.0357 11.256 74.3077 11.352C74.5877 11.44 74.8117 11.564 74.9797 11.724C75.1477 11.884 75.2637 12.076 75.3277 12.3C75.3997 12.516 75.4357 12.748 75.4357 12.996C75.4357 13.724 75.2317 14.252 74.8237 14.58C74.4237 14.908 73.7717 15.072 72.8677 15.072C72.3557 15.072 71.8237 15.048 71.2717 15V9H72.2317V11.292ZM76.3837 9H77.3437V15H76.3837V9ZM82.4215 9.84H80.6815C80.6575 10.176 80.6335 10.54 80.6095 10.932C80.5855 11.316 80.5495 11.704 80.5015 12.096C80.4535 12.48 80.3895 12.852 80.3095 13.212C80.2295 13.564 80.1255 13.876 79.9975 14.148C79.8775 14.42 79.7255 14.64 79.5415 14.808C79.3655 14.968 79.1535 15.048 78.9055 15.048C78.7535 15.048 78.6215 15.04 78.5095 15.024C78.3975 15.008 78.2975 14.98 78.2095 14.94L78.3535 14.136C78.4495 14.168 78.5535 14.184 78.6655 14.184C78.8255 14.184 78.9695 14.116 79.0975 13.98C79.2255 13.844 79.3375 13.588 79.4335 13.212C79.5295 12.828 79.6095 12.3 79.6735 11.628C79.7375 10.956 79.7815 10.08 79.8055 9H83.3815V15H82.4215V9.84ZM90.5327 16.524H89.8847L89.7047 15H85.1927L85.0127 16.524H84.3647V14.16H85.0727C85.1367 14.072 85.2207 13.916 85.3247 13.692C85.4287 13.46 85.5287 13.14 85.6247 12.732C85.7287 12.316 85.8167 11.804 85.8887 11.196C85.9687 10.58 86.0167 9.848 86.0327 9H89.6567V14.16H90.5327V16.524ZM88.6967 14.16V9.84H86.8967C86.8807 10.176 86.8527 10.544 86.8127 10.944C86.7727 11.336 86.7167 11.732 86.6447 12.132C86.5807 12.524 86.4967 12.896 86.3927 13.248C86.2887 13.6 86.1687 13.904 86.0327 14.16H88.6967ZM92.6809 14.16C92.9769 14.208 93.2609 14.232 93.5329 14.232C94.0369 14.232 94.3889 14.136 94.5889 13.944C94.7889 13.744 94.8889 13.464 94.8889 13.104C94.8889 12.784 94.7889 12.52 94.5889 12.312C94.3969 12.104 94.0569 12 93.5689 12C93.4329 12 93.2849 12.004 93.1249 12.012C92.9649 12.02 92.8169 12.044 92.6809 12.084V14.16ZM92.6809 11.292C92.8729 11.26 93.0569 11.24 93.2329 11.232C93.4089 11.216 93.5769 11.208 93.7369 11.208C94.1449 11.208 94.4849 11.256 94.7569 11.352C95.0369 11.44 95.2609 11.564 95.4289 11.724C95.5969 11.884 95.7129 12.076 95.7769 12.3C95.8489 12.516 95.8849 12.748 95.8849 12.996C95.8849 13.724 95.6809 14.252 95.2729 14.58C94.8729 14.908 94.2209 15.072 93.3169 15.072C92.8049 15.072 92.2729 15.048 91.7209 15V9H92.6809V11.292ZM96.8329 9H97.7929V15H96.8329V9ZM101.155 12.3H100.603V15H99.6428V9H100.603V11.712L101.119 11.544L103.039 9H104.083L102.223 11.412L101.719 11.808L102.343 12.288L104.347 15H103.159L101.155 12.3ZM106.681 7.092C106.681 6.908 106.737 6.764 106.849 6.66C106.969 6.556 107.121 6.504 107.305 6.504C107.529 6.504 107.709 6.576 107.845 6.72C107.989 6.856 108.061 7.064 108.061 7.344C108.061 7.608 108.021 7.836 107.941 8.028C107.869 8.22 107.777 8.384 107.665 8.52C107.561 8.648 107.449 8.752 107.329 8.832C107.209 8.912 107.105 8.968 107.017 9L106.717 8.592C106.901 8.496 107.045 8.376 107.149 8.232C107.253 8.088 107.305 7.9 107.305 7.668C107.273 7.676 107.229 7.68 107.173 7.68C107.021 7.68 106.901 7.628 106.813 7.524C106.725 7.412 106.681 7.268 106.681 7.092ZM104.929 7.092C104.929 6.908 104.985 6.764 105.097 6.66C105.217 6.556 105.369 6.504 105.553 6.504C105.777 6.504 105.957 6.576 106.093 6.72C106.237 6.856 106.309 7.064 106.309 7.344C106.309 7.608 106.269 7.836 106.189 8.028C106.117 8.22 106.025 8.384 105.913 8.52C105.809 8.648 105.697 8.752 105.577 8.832C105.457 8.912 105.353 8.968 105.265 9L104.965 8.592C105.149 8.496 105.293 8.376 105.397 8.232C105.501 8.088 105.553 7.9 105.553 7.668C105.521 7.676 105.477 7.68 105.421 7.68C105.269 7.68 105.149 7.628 105.061 7.524C104.973 7.412 104.929 7.268 104.929 7.092Z" fill="white"/>
</svg>
