<svg width="195" height="57" viewBox="0 0 195 57" fill="none" xmlns="http://www.w3.org/2000/svg">
<path fill-rule="evenodd" clip-rule="evenodd" d="M6 0C2.68629 0 0 2.68629 0 6V41C0 44.3137 2.68629 47 6 47H56.7318L62.1845 56.4445L67.6373 47H189C192.314 47 195 44.3137 195 41V6C195 2.68629 192.314 0 189 0H6Z" fill="#488A35"/>
<path d="M29.838 17.732H24.024V29H22.53V16.4H31.332V29H29.838V17.732ZM34.1072 20.666C34.5632 20.39 35.0912 20.186 35.6912 20.054C36.3032 19.922 36.9392 19.856 37.5992 19.856C38.2232 19.856 38.7212 19.94 39.0932 20.108C39.4772 20.276 39.7652 20.498 39.9572 20.774C40.1612 21.038 40.2932 21.332 40.3532 21.656C40.4252 21.98 40.4612 22.304 40.4612 22.628C40.4612 23.348 40.4432 24.05 40.4072 24.734C40.3712 25.418 40.3532 26.066 40.3532 26.678C40.3532 27.122 40.3712 27.542 40.4072 27.938C40.4432 28.334 40.5092 28.7 40.6052 29.036H39.5432L39.1652 27.776H39.0752C38.9672 27.944 38.8292 28.112 38.6612 28.28C38.5052 28.436 38.3132 28.58 38.0852 28.712C37.8572 28.832 37.5932 28.934 37.2932 29.018C36.9932 29.102 36.6512 29.144 36.2672 29.144C35.8832 29.144 35.5232 29.084 35.1872 28.964C34.8632 28.844 34.5812 28.676 34.3412 28.46C34.1012 28.232 33.9092 27.962 33.7652 27.65C33.6332 27.338 33.5672 26.984 33.5672 26.588C33.5672 26.06 33.6752 25.622 33.8912 25.274C34.1072 24.914 34.4072 24.632 34.7912 24.428C35.1872 24.212 35.6552 24.062 36.1952 23.978C36.7472 23.882 37.3532 23.834 38.0132 23.834C38.1812 23.834 38.3432 23.834 38.4992 23.834C38.6672 23.834 38.8352 23.846 39.0032 23.87C39.0392 23.51 39.0572 23.186 39.0572 22.898C39.0572 22.238 38.9252 21.776 38.6612 21.512C38.3972 21.248 37.9172 21.116 37.2212 21.116C37.0172 21.116 36.7952 21.134 36.5552 21.17C36.3272 21.194 36.0872 21.236 35.8352 21.296C35.5952 21.344 35.3612 21.41 35.1332 21.494C34.9172 21.566 34.7252 21.65 34.5572 21.746L34.1072 20.666ZM36.6632 27.884C36.9992 27.884 37.2992 27.842 37.5632 27.758C37.8272 27.662 38.0552 27.548 38.2472 27.416C38.4392 27.272 38.5952 27.116 38.7152 26.948C38.8472 26.78 38.9432 26.618 39.0032 26.462V24.968C38.8352 24.956 38.6612 24.95 38.4812 24.95C38.3132 24.938 38.1452 24.932 37.9772 24.932C37.6052 24.932 37.2392 24.956 36.8792 25.004C36.5312 25.04 36.2192 25.118 35.9432 25.238C35.6792 25.346 35.4632 25.502 35.2952 25.706C35.1392 25.898 35.0612 26.144 35.0612 26.444C35.0612 26.864 35.2112 27.212 35.5112 27.488C35.8112 27.752 36.1952 27.884 36.6632 27.884ZM43.1809 20H44.1709L44.4409 21.08H44.5129C44.7889 20.66 45.1429 20.342 45.5749 20.126C46.0189 19.898 46.5229 19.784 47.0869 19.784C48.2869 19.784 49.1809 20.138 49.7689 20.846C50.3569 21.554 50.6509 22.712 50.6509 24.32C50.6509 25.076 50.5489 25.76 50.3449 26.372C50.1529 26.972 49.8769 27.482 49.5169 27.902C49.1569 28.322 48.7189 28.646 48.2029 28.874C47.6989 29.102 47.1349 29.216 46.5109 29.216C46.0669 29.216 45.7129 29.186 45.4489 29.126C45.1969 29.078 44.9209 28.988 44.6209 28.856V32.6H43.1809V20ZM46.8169 21.044C46.2049 21.044 45.7189 21.206 45.3589 21.53C45.0109 21.842 44.7649 22.322 44.6209 22.97V27.434C44.8369 27.602 45.0829 27.734 45.3589 27.83C45.6349 27.914 46.0009 27.956 46.4569 27.956C47.2849 27.956 47.9389 27.65 48.4189 27.038C48.9109 26.414 49.1569 25.502 49.1569 24.302C49.1569 23.81 49.1149 23.366 49.0309 22.97C48.9469 22.562 48.8089 22.22 48.6169 21.944C48.4369 21.656 48.1969 21.434 47.8969 21.278C47.6089 21.122 47.2489 21.044 46.8169 21.044ZM55.1872 24.95H54.3592V29H52.9192V20H54.3592V24.068L55.1332 23.816L58.0132 20H59.5792L56.7892 23.618L56.0332 24.212L56.9692 24.932L59.9752 29H58.1932L55.1872 24.95ZM69.1153 17.84C69.1153 18.116 69.0253 18.338 68.8453 18.506C68.6653 18.662 68.4373 18.74 68.1613 18.74C67.8373 18.74 67.5673 18.632 67.3513 18.416C67.1473 18.2 67.0453 17.882 67.0453 17.462C67.0453 17.066 67.0993 16.73 67.2073 16.454C67.3273 16.166 67.4653 15.926 67.6213 15.734C67.7893 15.53 67.9573 15.368 68.1253 15.248C68.3053 15.128 68.4613 15.044 68.5933 14.996L69.0433 15.626C68.7793 15.758 68.5633 15.938 68.3953 16.166C68.2393 16.382 68.1613 16.658 68.1613 16.994C68.2093 16.982 68.2753 16.976 68.3593 16.976C68.5993 16.976 68.7853 17.06 68.9173 17.228C69.0493 17.396 69.1153 17.6 69.1153 17.84ZM66.4873 17.84C66.4873 18.116 66.3973 18.338 66.2173 18.506C66.0373 18.662 65.8093 18.74 65.5333 18.74C65.2093 18.74 64.9393 18.632 64.7233 18.416C64.5193 18.2 64.4173 17.882 64.4173 17.462C64.4173 17.066 64.4713 16.73 64.5793 16.454C64.6993 16.166 64.8373 15.926 64.9933 15.734C65.1613 15.53 65.3293 15.368 65.4973 15.248C65.6773 15.128 65.8333 15.044 65.9653 14.996L66.4153 15.626C66.1513 15.758 65.9353 15.938 65.7673 16.166C65.6113 16.382 65.5333 16.658 65.5333 16.994C65.5813 16.982 65.6473 16.976 65.7313 16.976C65.9713 16.976 66.1573 17.06 66.2893 17.228C66.4213 17.396 66.4873 17.6 66.4873 17.84ZM81.0285 20.54L81.2085 18.65H81.1185L80.4345 20.378L77.1585 26.066H76.7085L73.2345 20.36L72.5865 18.65H72.4965L72.7485 20.522V29H71.3445V16.4H72.4605L76.4025 22.844L76.9965 24.248H77.0325L77.5905 22.808L81.3525 16.4H82.5225V29H81.0285V20.54ZM86.8787 27.74C87.3227 27.812 87.7487 27.848 88.1567 27.848C88.9127 27.848 89.4407 27.704 89.7407 27.416C90.0407 27.116 90.1907 26.696 90.1907 26.156C90.1907 25.676 90.0407 25.28 89.7407 24.968C89.4527 24.656 88.9427 24.5 88.2107 24.5C88.0067 24.5 87.7847 24.506 87.5447 24.518C87.3047 24.53 87.0827 24.566 86.8787 24.626V27.74ZM86.8787 23.438C87.1667 23.39 87.4427 23.36 87.7067 23.348C87.9707 23.324 88.2227 23.312 88.4627 23.312C89.0747 23.312 89.5847 23.384 89.9927 23.528C90.4127 23.66 90.7487 23.846 91.0007 24.086C91.2527 24.326 91.4267 24.614 91.5227 24.95C91.6307 25.274 91.6847 25.622 91.6847 25.994C91.6847 27.086 91.3787 27.878 90.7667 28.37C90.1667 28.862 89.1887 29.108 87.8327 29.108C87.0647 29.108 86.2667 29.072 85.4387 29V20H86.8787V23.438ZM93.1067 20H94.5467V29H93.1067V20ZM102.83 25.022H98.7615V29H97.3215V20H98.7615V23.762H102.83V20H104.27V29H102.83V25.022ZM109.976 25.022L107.33 29H105.674L108.518 24.878L109.13 24.338L108.212 23.654L105.872 20H107.402L109.886 23.888H110.822V20H112.226V24.068L113.072 23.816L115.574 20H117.086L114.638 23.654L113.936 24.23L114.854 24.95L117.518 29H115.808L113.162 24.95H112.226V29H110.822V24.77L109.976 25.022ZM120.347 27.74C120.791 27.812 121.217 27.848 121.625 27.848C122.381 27.848 122.909 27.704 123.209 27.416C123.509 27.116 123.659 26.696 123.659 26.156C123.659 25.676 123.509 25.28 123.209 24.968C122.921 24.656 122.411 24.5 121.679 24.5C121.475 24.5 121.253 24.506 121.013 24.518C120.773 24.53 120.551 24.566 120.347 24.626V27.74ZM120.347 23.438C120.635 23.39 120.911 23.36 121.175 23.348C121.439 23.324 121.691 23.312 121.931 23.312C122.543 23.312 123.053 23.384 123.461 23.528C123.881 23.66 124.217 23.846 124.469 24.086C124.721 24.326 124.895 24.614 124.991 24.95C125.099 25.274 125.153 25.622 125.153 25.994C125.153 27.086 124.847 27.878 124.235 28.37C123.635 28.862 122.657 29.108 121.301 29.108C120.533 29.108 119.735 29.072 118.907 29V20H120.347V23.438ZM126.575 20H128.015V29H126.575V20ZM135.632 21.26H133.022C132.986 21.764 132.95 22.31 132.914 22.898C132.878 23.474 132.824 24.056 132.752 24.644C132.68 25.22 132.584 25.778 132.464 26.318C132.344 26.846 132.188 27.314 131.996 27.722C131.816 28.13 131.588 28.46 131.312 28.712C131.048 28.952 130.73 29.072 130.358 29.072C130.13 29.072 129.932 29.06 129.764 29.036C129.596 29.012 129.446 28.97 129.314 28.91L129.53 27.704C129.674 27.752 129.83 27.776 129.998 27.776C130.238 27.776 130.454 27.674 130.646 27.47C130.838 27.266 131.006 26.882 131.15 26.318C131.294 25.742 131.414 24.95 131.51 23.942C131.606 22.934 131.672 21.62 131.708 20H137.072V29H135.632V21.26ZM147.799 31.286H146.827L146.557 29H139.789L139.519 31.286H138.547V27.74H139.609C139.705 27.608 139.831 27.374 139.987 27.038C140.143 26.69 140.293 26.21 140.437 25.598C140.593 24.974 140.725 24.206 140.833 23.294C140.953 22.37 141.025 21.272 141.049 20H146.485V27.74H147.799V31.286ZM145.045 27.74V21.26H142.345C142.321 21.764 142.279 22.316 142.219 22.916C142.159 23.504 142.075 24.098 141.967 24.698C141.871 25.286 141.745 25.844 141.589 26.372C141.433 26.9 141.253 27.356 141.049 27.74H145.045ZM151.021 27.74C151.465 27.812 151.891 27.848 152.299 27.848C153.055 27.848 153.583 27.704 153.883 27.416C154.183 27.116 154.333 26.696 154.333 26.156C154.333 25.676 154.183 25.28 153.883 24.968C153.595 24.656 153.085 24.5 152.353 24.5C152.149 24.5 151.927 24.506 151.687 24.518C151.447 24.53 151.225 24.566 151.021 24.626V27.74ZM151.021 23.438C151.309 23.39 151.585 23.36 151.849 23.348C152.113 23.324 152.365 23.312 152.605 23.312C153.217 23.312 153.727 23.384 154.135 23.528C154.555 23.66 154.891 23.846 155.143 24.086C155.395 24.326 155.569 24.614 155.665 24.95C155.773 25.274 155.827 25.622 155.827 25.994C155.827 27.086 155.521 27.878 154.909 28.37C154.309 28.862 153.331 29.108 151.975 29.108C151.207 29.108 150.409 29.072 149.581 29V20H151.021V23.438ZM157.249 20H158.689V29H157.249V20ZM163.732 24.95H162.904V29H161.464V20H162.904V24.068L163.678 23.816L166.558 20H168.124L165.334 23.618L164.578 24.212L165.514 24.932L168.52 29H166.738L163.732 24.95ZM172.022 17.138C172.022 16.862 172.106 16.646 172.274 16.49C172.454 16.334 172.682 16.256 172.958 16.256C173.294 16.256 173.564 16.364 173.768 16.58C173.984 16.784 174.092 17.096 174.092 17.516C174.092 17.912 174.032 18.254 173.912 18.542C173.804 18.83 173.666 19.076 173.498 19.28C173.342 19.472 173.174 19.628 172.994 19.748C172.814 19.868 172.658 19.952 172.526 20L172.076 19.388C172.352 19.244 172.568 19.064 172.724 18.848C172.88 18.632 172.958 18.35 172.958 18.002C172.91 18.014 172.844 18.02 172.76 18.02C172.532 18.02 172.352 17.942 172.22 17.786C172.088 17.618 172.022 17.402 172.022 17.138ZM169.394 17.138C169.394 16.862 169.478 16.646 169.646 16.49C169.826 16.334 170.054 16.256 170.33 16.256C170.666 16.256 170.936 16.364 171.14 16.58C171.356 16.784 171.464 17.096 171.464 17.516C171.464 17.912 171.404 18.254 171.284 18.542C171.176 18.83 171.038 19.076 170.87 19.28C170.714 19.472 170.546 19.628 170.366 19.748C170.186 19.868 170.03 19.952 169.898 20L169.448 19.388C169.724 19.244 169.94 19.064 170.096 18.848C170.252 18.632 170.33 18.35 170.33 18.002C170.282 18.014 170.216 18.02 170.132 18.02C169.904 18.02 169.724 17.942 169.592 17.786C169.46 17.618 169.394 17.402 169.394 17.138Z" fill="white"/>
</svg>
