<svg width="94" height="57" viewBox="0 0 94 57" fill="none" xmlns="http://www.w3.org/2000/svg">
<path fill-rule="evenodd" clip-rule="evenodd" d="M6 0C2.68629 0 0 2.68629 0 6V41C0 44.3137 2.68629 47 6 47H21.7318L27.1845 56.4445L32.6373 47H88C91.3137 47 94 44.3137 94 41V6C94 2.68629 91.3137 0 88 0H6Z" fill="#FF4538"/>
<path d="M22.53 29V16.4H24.024V27.668H28.146V16.4H29.64V27.668H33.762V16.4H35.256V29H22.53ZM40.4392 24.95H39.6112V29H38.1712V20H39.6112V24.068L40.3852 23.816L43.2652 20H44.8312L42.0412 23.618L41.2852 24.212L42.2212 24.932L45.2272 29H43.4452L40.4392 24.95ZM46.0695 24.5C46.0695 22.976 46.4055 21.812 47.0775 21.008C47.7615 20.192 48.7395 19.784 50.0115 19.784C50.6835 19.784 51.2655 19.898 51.7575 20.126C52.2615 20.342 52.6755 20.66 52.9995 21.08C53.3235 21.488 53.5635 21.986 53.7195 22.574C53.8755 23.15 53.9535 23.792 53.9535 24.5C53.9535 26.024 53.6115 27.194 52.9275 28.01C52.2555 28.814 51.2835 29.216 50.0115 29.216C49.3395 29.216 48.7515 29.108 48.2475 28.892C47.7555 28.664 47.3475 28.346 47.0235 27.938C46.6995 27.518 46.4595 27.02 46.3035 26.444C46.1475 25.856 46.0695 25.208 46.0695 24.5ZM47.5635 24.5C47.5635 24.956 47.6055 25.394 47.6895 25.814C47.7855 26.234 47.9295 26.6 48.1215 26.912C48.3135 27.224 48.5655 27.476 48.8775 27.668C49.1895 27.86 49.5675 27.956 50.0115 27.956C51.6435 27.968 52.4595 26.816 52.4595 24.5C52.4595 24.032 52.4115 23.588 52.3155 23.168C52.2315 22.748 52.0935 22.382 51.9015 22.07C51.7095 21.758 51.4575 21.512 51.1455 21.332C50.8335 21.14 50.4555 21.044 50.0115 21.044C48.3795 21.032 47.5635 22.184 47.5635 24.5ZM60.9604 21.26H58.3504C58.3144 21.764 58.2784 22.31 58.2424 22.898C58.2064 23.474 58.1524 24.056 58.0804 24.644C58.0084 25.22 57.9124 25.778 57.7924 26.318C57.6724 26.846 57.5164 27.314 57.3244 27.722C57.1444 28.13 56.9164 28.46 56.6404 28.712C56.3764 28.952 56.0584 29.072 55.6864 29.072C55.4584 29.072 55.2604 29.06 55.0924 29.036C54.9244 29.012 54.7744 28.97 54.6424 28.91L54.8584 27.704C55.0024 27.752 55.1584 27.776 55.3264 27.776C55.5664 27.776 55.7824 27.674 55.9744 27.47C56.1664 27.266 56.3344 26.882 56.4784 26.318C56.6224 25.742 56.7424 24.95 56.8384 23.942C56.9344 22.934 57.0004 21.62 57.0364 20H62.4004V29H60.9604V21.26ZM65.0272 20.666C65.4832 20.39 66.0112 20.186 66.6112 20.054C67.2232 19.922 67.8592 19.856 68.5192 19.856C69.1432 19.856 69.6412 19.94 70.0132 20.108C70.3972 20.276 70.6852 20.498 70.8772 20.774C71.0812 21.038 71.2132 21.332 71.2732 21.656C71.3452 21.98 71.3812 22.304 71.3812 22.628C71.3812 23.348 71.3632 24.05 71.3272 24.734C71.2912 25.418 71.2732 26.066 71.2732 26.678C71.2732 27.122 71.2912 27.542 71.3272 27.938C71.3632 28.334 71.4292 28.7 71.5252 29.036H70.4632L70.0852 27.776H69.9952C69.8872 27.944 69.7492 28.112 69.5812 28.28C69.4252 28.436 69.2332 28.58 69.0052 28.712C68.7772 28.832 68.5132 28.934 68.2132 29.018C67.9132 29.102 67.5712 29.144 67.1872 29.144C66.8032 29.144 66.4432 29.084 66.1072 28.964C65.7832 28.844 65.5012 28.676 65.2612 28.46C65.0212 28.232 64.8292 27.962 64.6852 27.65C64.5532 27.338 64.4872 26.984 64.4872 26.588C64.4872 26.06 64.5952 25.622 64.8112 25.274C65.0272 24.914 65.3272 24.632 65.7112 24.428C66.1072 24.212 66.5752 24.062 67.1152 23.978C67.6672 23.882 68.2732 23.834 68.9332 23.834C69.1012 23.834 69.2632 23.834 69.4192 23.834C69.5872 23.834 69.7552 23.846 69.9232 23.87C69.9592 23.51 69.9772 23.186 69.9772 22.898C69.9772 22.238 69.8452 21.776 69.5812 21.512C69.3172 21.248 68.8372 21.116 68.1412 21.116C67.9372 21.116 67.7152 21.134 67.4752 21.17C67.2472 21.194 67.0072 21.236 66.7552 21.296C66.5152 21.344 66.2812 21.41 66.0532 21.494C65.8372 21.566 65.6452 21.65 65.4772 21.746L65.0272 20.666ZM67.5832 27.884C67.9192 27.884 68.2192 27.842 68.4832 27.758C68.7472 27.662 68.9752 27.548 69.1672 27.416C69.3592 27.272 69.5152 27.116 69.6352 26.948C69.7672 26.78 69.8632 26.618 69.9232 26.462V24.968C69.7552 24.956 69.5812 24.95 69.4012 24.95C69.2332 24.938 69.0652 24.932 68.8972 24.932C68.5252 24.932 68.1592 24.956 67.7992 25.004C67.4512 25.04 67.1392 25.118 66.8632 25.238C66.5992 25.346 66.3832 25.502 66.2152 25.706C66.0592 25.898 65.9812 26.144 65.9812 26.444C65.9812 26.864 66.1312 27.212 66.4312 27.488C66.7312 27.752 67.1152 27.884 67.5832 27.884Z" fill="white"/>
</svg>
