<svg width="51" height="27" viewBox="0 0 51 27" fill="none" xmlns="http://www.w3.org/2000/svg">
<path fill-rule="evenodd" clip-rule="evenodd" d="M4 0C1.79086 0 0 1.79086 0 4V18C0 20.2091 1.79086 22 4 22H40.4849L42.9267 26.2293L45.3684 22H47C49.2091 22 51 20.2091 51 18V4C51 1.79086 49.2091 0 47 0H4Z" fill="#FF4538"/>
<path d="M9.02 15V6.6H10.016V14.112H12.764V6.6H13.76V14.112H16.508V6.6H17.504V15H9.02ZM20.9594 12.3H20.4074V15H19.4474V9H20.4074V11.712L20.9234 11.544L22.8434 9H23.8874L22.0274 11.412L21.5234 11.808L22.1474 12.288L24.1514 15H22.9634L20.9594 12.3ZM24.713 12C24.713 10.984 24.937 10.208 25.385 9.672C25.841 9.128 26.493 8.856 27.341 8.856C27.789 8.856 28.177 8.932 28.505 9.084C28.841 9.228 29.117 9.44 29.333 9.72C29.549 9.992 29.709 10.324 29.813 10.716C29.917 11.1 29.969 11.528 29.969 12C29.969 13.016 29.741 13.796 29.285 14.34C28.837 14.876 28.189 15.144 27.341 15.144C26.893 15.144 26.501 15.072 26.165 14.928C25.837 14.776 25.565 14.564 25.349 14.292C25.133 14.012 24.973 13.68 24.869 13.296C24.765 12.904 24.713 12.472 24.713 12ZM25.709 12C25.709 12.304 25.737 12.596 25.793 12.876C25.857 13.156 25.953 13.4 26.081 13.608C26.209 13.816 26.377 13.984 26.585 14.112C26.793 14.24 27.045 14.304 27.341 14.304C28.429 14.312 28.973 13.544 28.973 12C28.973 11.688 28.941 11.392 28.877 11.112C28.821 10.832 28.729 10.588 28.601 10.38C28.473 10.172 28.305 10.008 28.097 9.888C27.889 9.76 27.637 9.696 27.341 9.696C26.253 9.688 25.709 10.456 25.709 12ZM34.6403 9.84H32.9003C32.8763 10.176 32.8523 10.54 32.8283 10.932C32.8043 11.316 32.7683 11.704 32.7203 12.096C32.6723 12.48 32.6083 12.852 32.5283 13.212C32.4483 13.564 32.3443 13.876 32.2163 14.148C32.0963 14.42 31.9443 14.64 31.7603 14.808C31.5843 14.968 31.3723 15.048 31.1243 15.048C30.9723 15.048 30.8403 15.04 30.7283 15.024C30.6163 15.008 30.5163 14.98 30.4283 14.94L30.5723 14.136C30.6683 14.168 30.7723 14.184 30.8843 14.184C31.0443 14.184 31.1883 14.116 31.3163 13.98C31.4443 13.844 31.5563 13.588 31.6523 13.212C31.7483 12.828 31.8283 12.3 31.8923 11.628C31.9563 10.956 32.0003 10.08 32.0243 9H35.6003V15H34.6403V9.84ZM37.3514 9.444C37.6554 9.26 38.0074 9.124 38.4074 9.036C38.8154 8.948 39.2394 8.904 39.6794 8.904C40.0954 8.904 40.4274 8.96 40.6754 9.072C40.9314 9.184 41.1234 9.332 41.2514 9.516C41.3874 9.692 41.4754 9.888 41.5154 10.104C41.5634 10.32 41.5874 10.536 41.5874 10.752C41.5874 11.232 41.5754 11.7 41.5514 12.156C41.5274 12.612 41.5154 13.044 41.5154 13.452C41.5154 13.748 41.5274 14.028 41.5514 14.292C41.5754 14.556 41.6194 14.8 41.6834 15.024H40.9754L40.7234 14.184H40.6634C40.5914 14.296 40.4994 14.408 40.3874 14.52C40.2834 14.624 40.1554 14.72 40.0034 14.808C39.8514 14.888 39.6754 14.956 39.4754 15.012C39.2754 15.068 39.0474 15.096 38.7914 15.096C38.5354 15.096 38.2954 15.056 38.0714 14.976C37.8554 14.896 37.6674 14.784 37.5074 14.64C37.3474 14.488 37.2194 14.308 37.1234 14.1C37.0354 13.892 36.9914 13.656 36.9914 13.392C36.9914 13.04 37.0634 12.748 37.2074 12.516C37.3514 12.276 37.5514 12.088 37.8074 11.952C38.0714 11.808 38.3834 11.708 38.7434 11.652C39.1114 11.588 39.5154 11.556 39.9554 11.556C40.0674 11.556 40.1754 11.556 40.2794 11.556C40.3914 11.556 40.5034 11.564 40.6154 11.58C40.6394 11.34 40.6514 11.124 40.6514 10.932C40.6514 10.492 40.5634 10.184 40.3874 10.008C40.2114 9.832 39.8914 9.744 39.4274 9.744C39.2914 9.744 39.1434 9.756 38.9834 9.78C38.8314 9.796 38.6714 9.824 38.5034 9.864C38.3434 9.896 38.1874 9.94 38.0354 9.996C37.8914 10.044 37.7634 10.1 37.6514 10.164L37.3514 9.444ZM39.0554 14.256C39.2794 14.256 39.4794 14.228 39.6554 14.172C39.8314 14.108 39.9834 14.032 40.1114 13.944C40.2394 13.848 40.3434 13.744 40.4234 13.632C40.5114 13.52 40.5754 13.412 40.6154 13.308V12.312C40.5034 12.304 40.3874 12.3 40.2674 12.3C40.1554 12.292 40.0434 12.288 39.9314 12.288C39.6834 12.288 39.4394 12.304 39.1994 12.336C38.9674 12.36 38.7594 12.412 38.5754 12.492C38.3994 12.564 38.2554 12.668 38.1434 12.804C38.0394 12.932 37.9874 13.096 37.9874 13.296C37.9874 13.576 38.0874 13.808 38.2874 13.992C38.4874 14.168 38.7434 14.256 39.0554 14.256Z" fill="white"/>
</svg>
