<svg width="195" height="57" viewBox="0 0 195 57" fill="none" xmlns="http://www.w3.org/2000/svg">
<path fill-rule="evenodd" clip-rule="evenodd" d="M6 0C2.68629 0 0 2.68629 0 6V41C0 44.3137 2.68629 47 6 47H56.7318L62.1845 56.4445L67.6373 47H189C192.314 47 195 44.3137 195 41V6C195 2.68629 192.314 0 189 0H6Z" fill="#2576AC"/>
<path d="M28.126 19.28C28.126 19.58 28.078 19.886 27.982 20.198C27.886 20.51 27.742 20.804 27.55 21.08C27.358 21.344 27.112 21.578 26.812 21.782C26.512 21.986 26.158 22.142 25.75 22.25V22.322C26.11 22.382 26.452 22.484 26.776 22.628C27.112 22.772 27.406 22.97 27.658 23.222C27.91 23.474 28.114 23.78 28.27 24.14C28.426 24.5 28.504 24.926 28.504 25.418C28.504 26.066 28.366 26.63 28.09 27.11C27.826 27.578 27.472 27.962 27.028 28.262C26.596 28.562 26.098 28.784 25.534 28.928C24.97 29.072 24.394 29.144 23.806 29.144C23.602 29.144 23.362 29.144 23.086 29.144C22.81 29.144 22.522 29.132 22.222 29.108C21.922 29.096 21.622 29.072 21.322 29.036C21.022 29.012 20.758 28.97 20.53 28.91V16.508C20.974 16.436 21.49 16.376 22.078 16.328C22.666 16.28 23.308 16.256 24.004 16.256C24.472 16.256 24.946 16.298 25.426 16.382C25.918 16.454 26.362 16.604 26.758 16.832C27.154 17.048 27.478 17.354 27.73 17.75C27.994 18.146 28.126 18.656 28.126 19.28ZM23.95 27.848C24.334 27.848 24.706 27.806 25.066 27.722C25.426 27.626 25.744 27.482 26.02 27.29C26.296 27.086 26.512 26.84 26.668 26.552C26.836 26.264 26.92 25.922 26.92 25.526C26.92 25.034 26.818 24.638 26.614 24.338C26.422 24.038 26.164 23.804 25.84 23.636C25.528 23.468 25.174 23.354 24.778 23.294C24.382 23.234 23.986 23.204 23.59 23.204H22.024V27.722C22.108 27.746 22.228 27.764 22.384 27.776C22.54 27.788 22.708 27.8 22.888 27.812C23.068 27.824 23.254 27.836 23.446 27.848C23.638 27.848 23.806 27.848 23.95 27.848ZM22.96 21.944C23.164 21.944 23.41 21.938 23.698 21.926C23.986 21.914 24.226 21.896 24.418 21.872C24.706 21.776 24.976 21.662 25.228 21.53C25.48 21.386 25.702 21.224 25.894 21.044C26.098 20.852 26.254 20.636 26.362 20.396C26.482 20.144 26.542 19.874 26.542 19.586C26.542 19.19 26.464 18.866 26.308 18.614C26.164 18.35 25.966 18.14 25.714 17.984C25.462 17.828 25.174 17.72 24.85 17.66C24.526 17.588 24.196 17.552 23.86 17.552C23.464 17.552 23.098 17.564 22.762 17.588C22.438 17.6 22.192 17.624 22.024 17.66V21.944H22.96ZM30.3937 24.5C30.3937 22.976 30.7297 21.812 31.4017 21.008C32.0857 20.192 33.0637 19.784 34.3357 19.784C35.0077 19.784 35.5897 19.898 36.0817 20.126C36.5857 20.342 36.9997 20.66 37.3237 21.08C37.6477 21.488 37.8877 21.986 38.0437 22.574C38.1997 23.15 38.2777 23.792 38.2777 24.5C38.2777 26.024 37.9357 27.194 37.2517 28.01C36.5797 28.814 35.6077 29.216 34.3357 29.216C33.6637 29.216 33.0757 29.108 32.5717 28.892C32.0797 28.664 31.6717 28.346 31.3477 27.938C31.0237 27.518 30.7837 27.02 30.6277 26.444C30.4717 25.856 30.3937 25.208 30.3937 24.5ZM31.8877 24.5C31.8877 24.956 31.9297 25.394 32.0137 25.814C32.1097 26.234 32.2537 26.6 32.4457 26.912C32.6377 27.224 32.8897 27.476 33.2017 27.668C33.5137 27.86 33.8917 27.956 34.3357 27.956C35.9677 27.968 36.7837 26.816 36.7837 24.5C36.7837 24.032 36.7357 23.588 36.6397 23.168C36.5557 22.748 36.4177 22.382 36.2257 22.07C36.0337 21.758 35.7817 21.512 35.4697 21.332C35.1577 21.14 34.7797 21.044 34.3357 21.044C32.7037 21.032 31.8877 22.184 31.8877 24.5ZM42.8161 24.95H41.9881V29H40.5481V20H41.9881V24.068L42.7621 23.816L45.6421 20H47.2081L44.4181 23.618L43.6621 24.212L44.5981 24.932L47.6041 29H45.8221L42.8161 24.95ZM50.0078 24.986V23.816H51.2678C51.4838 23.816 51.6938 23.78 51.8978 23.708C52.1138 23.636 52.3058 23.54 52.4738 23.42C52.6418 23.288 52.7738 23.138 52.8698 22.97C52.9778 22.79 53.0318 22.604 53.0318 22.412C53.0318 21.944 52.8698 21.614 52.5458 21.422C52.2218 21.23 51.7358 21.134 51.0878 21.134C50.6198 21.134 50.1878 21.206 49.7918 21.35C49.4078 21.494 49.1078 21.632 48.8918 21.764L48.4778 20.648C48.8378 20.444 49.2578 20.264 49.7378 20.108C50.2298 19.952 50.8118 19.874 51.4838 19.874C53.4758 19.874 54.4718 20.612 54.4718 22.088C54.4718 22.508 54.3338 22.922 54.0578 23.33C53.7938 23.726 53.4098 24.008 52.9058 24.176V24.248C53.6138 24.38 54.1058 24.632 54.3818 25.004C54.6698 25.376 54.8138 25.868 54.8138 26.48C54.8138 26.864 54.7358 27.218 54.5798 27.542C54.4238 27.866 54.1898 28.148 53.8778 28.388C53.5658 28.628 53.1698 28.82 52.6898 28.964C52.2218 29.096 51.6758 29.162 51.0518 29.162C50.4398 29.162 49.9298 29.108 49.5218 29C49.1258 28.892 48.7658 28.76 48.4418 28.604L48.8558 27.416C49.1318 27.572 49.4618 27.692 49.8458 27.776C50.2418 27.86 50.6678 27.902 51.1238 27.902C51.8558 27.902 52.4138 27.776 52.7978 27.524C53.1818 27.272 53.3738 26.888 53.3738 26.372C53.3738 25.94 53.1938 25.604 52.8338 25.364C52.4738 25.112 51.8798 24.986 51.0518 24.986H50.0078ZM56.9451 20.666C57.4011 20.39 57.9291 20.186 58.5291 20.054C59.1411 19.922 59.7771 19.856 60.4371 19.856C61.0611 19.856 61.5591 19.94 61.9311 20.108C62.3151 20.276 62.6031 20.498 62.7951 20.774C62.9991 21.038 63.1311 21.332 63.1911 21.656C63.2631 21.98 63.2991 22.304 63.2991 22.628C63.2991 23.348 63.2811 24.05 63.2451 24.734C63.2091 25.418 63.1911 26.066 63.1911 26.678C63.1911 27.122 63.2091 27.542 63.2451 27.938C63.2811 28.334 63.3471 28.7 63.4431 29.036H62.3811L62.0031 27.776H61.9131C61.8051 27.944 61.6671 28.112 61.4991 28.28C61.3431 28.436 61.1511 28.58 60.9231 28.712C60.6951 28.832 60.4311 28.934 60.1311 29.018C59.8311 29.102 59.4891 29.144 59.1051 29.144C58.7211 29.144 58.3611 29.084 58.0251 28.964C57.7011 28.844 57.4191 28.676 57.1791 28.46C56.9391 28.232 56.7471 27.962 56.6031 27.65C56.4711 27.338 56.4051 26.984 56.4051 26.588C56.4051 26.06 56.5131 25.622 56.7291 25.274C56.9451 24.914 57.2451 24.632 57.6291 24.428C58.0251 24.212 58.4931 24.062 59.0331 23.978C59.5851 23.882 60.1911 23.834 60.8511 23.834C61.0191 23.834 61.1811 23.834 61.3371 23.834C61.5051 23.834 61.6731 23.846 61.8411 23.87C61.8771 23.51 61.8951 23.186 61.8951 22.898C61.8951 22.238 61.7631 21.776 61.4991 21.512C61.2351 21.248 60.7551 21.116 60.0591 21.116C59.8551 21.116 59.6331 21.134 59.3931 21.17C59.1651 21.194 58.9251 21.236 58.6731 21.296C58.4331 21.344 58.1991 21.41 57.9711 21.494C57.7551 21.566 57.5631 21.65 57.3951 21.746L56.9451 20.666ZM59.5011 27.884C59.8371 27.884 60.1371 27.842 60.4011 27.758C60.6651 27.662 60.8931 27.548 61.0851 27.416C61.2771 27.272 61.4331 27.116 61.5531 26.948C61.6851 26.78 61.7811 26.618 61.8411 26.462V24.968C61.6731 24.956 61.4991 24.95 61.3191 24.95C61.1511 24.938 60.9831 24.932 60.8151 24.932C60.4431 24.932 60.0771 24.956 59.7171 25.004C59.3691 25.04 59.0571 25.118 58.7811 25.238C58.5171 25.346 58.3011 25.502 58.1331 25.706C57.9771 25.898 57.8991 26.144 57.8991 26.444C57.8991 26.864 58.0491 27.212 58.3491 27.488C58.6491 27.752 59.0331 27.884 59.5011 27.884ZM70.8608 21.26H68.2508C68.2148 21.764 68.1788 22.31 68.1428 22.898C68.1068 23.474 68.0528 24.056 67.9808 24.644C67.9088 25.22 67.8128 25.778 67.6928 26.318C67.5728 26.846 67.4168 27.314 67.2248 27.722C67.0448 28.13 66.8168 28.46 66.5408 28.712C66.2768 28.952 65.9588 29.072 65.5868 29.072C65.3588 29.072 65.1608 29.06 64.9928 29.036C64.8248 29.012 64.6748 28.97 64.5428 28.91L64.7588 27.704C64.9028 27.752 65.0588 27.776 65.2268 27.776C65.4668 27.776 65.6828 27.674 65.8748 27.47C66.0668 27.266 66.2348 26.882 66.3788 26.318C66.5228 25.742 66.6428 24.95 66.7388 23.942C66.8348 22.934 66.9008 21.62 66.9368 20H72.3008V29H70.8608V21.26ZM82.6719 17.84C82.6719 18.116 82.5819 18.338 82.4019 18.506C82.2219 18.662 81.9939 18.74 81.7179 18.74C81.3939 18.74 81.1239 18.632 80.9079 18.416C80.7039 18.2 80.6019 17.882 80.6019 17.462C80.6019 17.066 80.6559 16.73 80.7639 16.454C80.8839 16.166 81.0219 15.926 81.1779 15.734C81.3459 15.53 81.5139 15.368 81.6819 15.248C81.8619 15.128 82.0179 15.044 82.1499 14.996L82.5999 15.626C82.3359 15.758 82.1199 15.938 81.9519 16.166C81.7959 16.382 81.7179 16.658 81.7179 16.994C81.7659 16.982 81.8319 16.976 81.9159 16.976C82.1559 16.976 82.3419 17.06 82.4739 17.228C82.6059 17.396 82.6719 17.6 82.6719 17.84ZM80.0439 17.84C80.0439 18.116 79.9539 18.338 79.7739 18.506C79.5939 18.662 79.3659 18.74 79.0899 18.74C78.7659 18.74 78.4959 18.632 78.2799 18.416C78.0759 18.2 77.9739 17.882 77.9739 17.462C77.9739 17.066 78.0279 16.73 78.1359 16.454C78.2559 16.166 78.3939 15.926 78.5499 15.734C78.7179 15.53 78.8859 15.368 79.0539 15.248C79.2339 15.128 79.3899 15.044 79.5219 14.996L79.9719 15.626C79.7079 15.758 79.4919 15.938 79.3239 16.166C79.1679 16.382 79.0899 16.658 79.0899 16.994C79.1379 16.982 79.2039 16.976 79.2879 16.976C79.5279 16.976 79.7139 17.06 79.8459 17.228C79.9779 17.396 80.0439 17.6 80.0439 17.84ZM92.4431 23.222H86.3951V29H84.9011V16.4H86.3951V21.89H92.4431V16.4H93.9371V29H92.4431V23.222ZM99.4968 25.832L100.001 27.56H100.091L100.487 25.814L102.233 20H103.691L101.027 28.082C100.823 28.67 100.619 29.24 100.415 29.792C100.223 30.344 100.007 30.836 99.7668 31.268C99.5268 31.7 99.2568 32.042 98.9568 32.294C98.6568 32.558 98.3088 32.69 97.9128 32.69C97.4808 32.69 97.1268 32.63 96.8508 32.51L97.1028 31.268C97.2588 31.328 97.4088 31.358 97.5528 31.358C97.8888 31.358 98.2128 31.178 98.5248 30.818C98.8368 30.47 99.0948 29.864 99.2988 29L95.6808 20H97.3368L99.4968 25.832ZM105.236 20H106.226L106.496 21.08H106.568C106.844 20.66 107.198 20.342 107.63 20.126C108.074 19.898 108.578 19.784 109.142 19.784C110.342 19.784 111.236 20.138 111.824 20.846C112.412 21.554 112.706 22.712 112.706 24.32C112.706 25.076 112.604 25.76 112.4 26.372C112.208 26.972 111.932 27.482 111.572 27.902C111.212 28.322 110.774 28.646 110.258 28.874C109.754 29.102 109.19 29.216 108.566 29.216C108.122 29.216 107.768 29.186 107.504 29.126C107.252 29.078 106.976 28.988 106.676 28.856V32.6H105.236V20ZM108.872 21.044C108.26 21.044 107.774 21.206 107.414 21.53C107.066 21.842 106.82 22.322 106.676 22.97V27.434C106.892 27.602 107.138 27.734 107.414 27.83C107.69 27.914 108.056 27.956 108.512 27.956C109.34 27.956 109.994 27.65 110.474 27.038C110.966 26.414 111.212 25.502 111.212 24.302C111.212 23.81 111.17 23.366 111.086 22.97C111.002 22.562 110.864 22.22 110.672 21.944C110.492 21.656 110.252 21.434 109.952 21.278C109.664 21.122 109.304 21.044 108.872 21.044ZM119.71 21.26H117.1C117.064 21.764 117.028 22.31 116.992 22.898C116.956 23.474 116.902 24.056 116.83 24.644C116.758 25.22 116.662 25.778 116.542 26.318C116.422 26.846 116.266 27.314 116.074 27.722C115.894 28.13 115.666 28.46 115.39 28.712C115.126 28.952 114.808 29.072 114.436 29.072C114.208 29.072 114.01 29.06 113.842 29.036C113.674 29.012 113.524 28.97 113.392 28.91L113.608 27.704C113.752 27.752 113.908 27.776 114.076 27.776C114.316 27.776 114.532 27.674 114.724 27.47C114.916 27.266 115.084 26.882 115.228 26.318C115.372 25.742 115.492 24.95 115.588 23.942C115.684 22.934 115.75 21.62 115.786 20H121.15V29H119.71V21.26ZM125.361 27.74C125.805 27.812 126.231 27.848 126.639 27.848C127.395 27.848 127.923 27.704 128.223 27.416C128.523 27.116 128.673 26.696 128.673 26.156C128.673 25.676 128.523 25.28 128.223 24.968C127.935 24.656 127.425 24.5 126.693 24.5C126.489 24.5 126.267 24.506 126.027 24.518C125.787 24.53 125.565 24.566 125.361 24.626V27.74ZM125.361 23.438C125.649 23.39 125.925 23.36 126.189 23.348C126.453 23.324 126.705 23.312 126.945 23.312C127.557 23.312 128.067 23.384 128.475 23.528C128.895 23.66 129.231 23.846 129.483 24.086C129.735 24.326 129.909 24.614 130.005 24.95C130.113 25.274 130.167 25.622 130.167 25.994C130.167 27.086 129.861 27.878 129.249 28.37C128.649 28.862 127.671 29.108 126.315 29.108C125.547 29.108 124.749 29.072 123.921 29V20H125.361V23.438ZM131.589 20H133.029V29H131.589V20ZM143.537 25.022L140.891 29H139.235L142.079 24.878L142.691 24.338L141.773 23.654L139.433 20H140.963L143.447 23.888H144.383V20H145.787V24.068L146.633 23.816L149.135 20H150.647L148.199 23.654L147.497 24.23L148.415 24.95L151.079 29H149.369L146.723 24.95H145.787V29H144.383V24.77L143.537 25.022ZM151.841 24.5C151.841 22.976 152.177 21.812 152.849 21.008C153.533 20.192 154.511 19.784 155.783 19.784C156.455 19.784 157.037 19.898 157.529 20.126C158.033 20.342 158.447 20.66 158.771 21.08C159.095 21.488 159.335 21.986 159.491 22.574C159.647 23.15 159.725 23.792 159.725 24.5C159.725 26.024 159.383 27.194 158.699 28.01C158.027 28.814 157.055 29.216 155.783 29.216C155.111 29.216 154.523 29.108 154.019 28.892C153.527 28.664 153.119 28.346 152.795 27.938C152.471 27.518 152.231 27.02 152.075 26.444C151.919 25.856 151.841 25.208 151.841 24.5ZM153.335 24.5C153.335 24.956 153.377 25.394 153.461 25.814C153.557 26.234 153.701 26.6 153.893 26.912C154.085 27.224 154.337 27.476 154.649 27.668C154.961 27.86 155.339 27.956 155.783 27.956C157.415 27.968 158.231 26.816 158.231 24.5C158.231 24.032 158.183 23.588 158.087 23.168C158.003 22.748 157.865 22.382 157.673 22.07C157.481 21.758 157.229 21.512 156.917 21.332C156.605 21.14 156.227 21.044 155.783 21.044C154.151 21.032 153.335 22.184 153.335 24.5ZM166.732 21.26H164.122C164.086 21.764 164.05 22.31 164.014 22.898C163.978 23.474 163.924 24.056 163.852 24.644C163.78 25.22 163.684 25.778 163.564 26.318C163.444 26.846 163.288 27.314 163.096 27.722C162.916 28.13 162.688 28.46 162.412 28.712C162.148 28.952 161.83 29.072 161.458 29.072C161.23 29.072 161.032 29.06 160.864 29.036C160.696 29.012 160.546 28.97 160.414 28.91L160.63 27.704C160.774 27.752 160.93 27.776 161.098 27.776C161.338 27.776 161.554 27.674 161.746 27.47C161.938 27.266 162.106 26.882 162.25 26.318C162.394 25.742 162.514 24.95 162.61 23.942C162.706 22.934 162.772 21.62 162.808 20H168.172V29H166.732V21.26ZM172.905 17.138C172.905 16.862 172.989 16.646 173.157 16.49C173.337 16.334 173.565 16.256 173.841 16.256C174.177 16.256 174.447 16.364 174.651 16.58C174.867 16.784 174.975 17.096 174.975 17.516C174.975 17.912 174.915 18.254 174.795 18.542C174.687 18.83 174.549 19.076 174.381 19.28C174.225 19.472 174.057 19.628 173.877 19.748C173.697 19.868 173.541 19.952 173.409 20L172.959 19.388C173.235 19.244 173.451 19.064 173.607 18.848C173.763 18.632 173.841 18.35 173.841 18.002C173.793 18.014 173.727 18.02 173.643 18.02C173.415 18.02 173.235 17.942 173.103 17.786C172.971 17.618 172.905 17.402 172.905 17.138ZM170.277 17.138C170.277 16.862 170.361 16.646 170.529 16.49C170.709 16.334 170.937 16.256 171.213 16.256C171.549 16.256 171.819 16.364 172.023 16.58C172.239 16.784 172.347 17.096 172.347 17.516C172.347 17.912 172.287 18.254 172.167 18.542C172.059 18.83 171.921 19.076 171.753 19.28C171.597 19.472 171.429 19.628 171.249 19.748C171.069 19.868 170.913 19.952 170.781 20L170.331 19.388C170.607 19.244 170.823 19.064 170.979 18.848C171.135 18.632 171.213 18.35 171.213 18.002C171.165 18.014 171.099 18.02 171.015 18.02C170.787 18.02 170.607 17.942 170.475 17.786C170.343 17.618 170.277 17.402 170.277 17.138Z" fill="white"/>
</svg>
