<svg width="121" height="27" viewBox="0 0 121 27" fill="none" xmlns="http://www.w3.org/2000/svg">
<path fill-rule="evenodd" clip-rule="evenodd" d="M4 0C1.79086 0 0 1.79086 0 4V18C0 20.2091 1.79086 22 4 22H81.3514L84.2381 27L87.1248 22H117C119.209 22 121 20.2091 121 18V4C121 1.79086 119.209 0 117 0H4Z" fill="#2576AC"/>
<path d="M14.3594 8.52C14.3594 8.72 14.3274 8.924 14.2634 9.132C14.1994 9.34 14.1034 9.536 13.9754 9.72C13.8474 9.896 13.6834 10.052 13.4834 10.188C13.2834 10.324 13.0474 10.428 12.7754 10.5V10.548C13.0154 10.588 13.2434 10.656 13.4594 10.752C13.6834 10.848 13.8794 10.98 14.0474 11.148C14.2154 11.316 14.3514 11.52 14.4554 11.76C14.5594 12 14.6114 12.284 14.6114 12.612C14.6114 13.044 14.5194 13.42 14.3354 13.74C14.1594 14.052 13.9234 14.308 13.6274 14.508C13.3394 14.708 13.0074 14.856 12.6314 14.952C12.2554 15.048 11.8714 15.096 11.4794 15.096C11.3434 15.096 11.1834 15.096 10.9994 15.096C10.8154 15.096 10.6234 15.088 10.4234 15.072C10.2234 15.064 10.0234 15.048 9.82339 15.024C9.62339 15.008 9.44739 14.98 9.29539 14.94V6.672C9.59139 6.624 9.93539 6.584 10.3274 6.552C10.7194 6.52 11.1474 6.504 11.6114 6.504C11.9234 6.504 12.2394 6.532 12.5594 6.588C12.8874 6.636 13.1834 6.736 13.4474 6.888C13.7114 7.032 13.9274 7.236 14.0954 7.5C14.2714 7.764 14.3594 8.104 14.3594 8.52ZM11.5754 14.232C11.8314 14.232 12.0794 14.204 12.3194 14.148C12.5594 14.084 12.7714 13.988 12.9554 13.86C13.1394 13.724 13.2834 13.56 13.3874 13.368C13.4994 13.176 13.5554 12.948 13.5554 12.684C13.5554 12.356 13.4874 12.092 13.3514 11.892C13.2234 11.692 13.0514 11.536 12.8354 11.424C12.6274 11.312 12.3914 11.236 12.1274 11.196C11.8634 11.156 11.5994 11.136 11.3354 11.136H10.2914V14.148C10.3474 14.164 10.4274 14.176 10.5314 14.184C10.6354 14.192 10.7474 14.2 10.8674 14.208C10.9874 14.216 11.1114 14.224 11.2394 14.232C11.3674 14.232 11.4794 14.232 11.5754 14.232ZM10.9154 10.296C11.0514 10.296 11.2154 10.292 11.4074 10.284C11.5994 10.276 11.7594 10.264 11.8874 10.248C12.0794 10.184 12.2594 10.108 12.4274 10.02C12.5954 9.924 12.7434 9.816 12.8714 9.696C13.0074 9.568 13.1114 9.424 13.1834 9.264C13.2634 9.096 13.3034 8.916 13.3034 8.724C13.3034 8.46 13.2514 8.244 13.1474 8.076C13.0514 7.9 12.9194 7.76 12.7514 7.656C12.5834 7.552 12.3914 7.48 12.1754 7.44C11.9594 7.392 11.7394 7.368 11.5154 7.368C11.2514 7.368 11.0074 7.376 10.7834 7.392C10.5674 7.4 10.4034 7.416 10.2914 7.44V10.296H10.9154ZM15.8712 12C15.8712 10.984 16.0952 10.208 16.5432 9.672C16.9992 9.128 17.6512 8.856 18.4992 8.856C18.9472 8.856 19.3352 8.932 19.6632 9.084C19.9992 9.228 20.2752 9.44 20.4912 9.72C20.7072 9.992 20.8672 10.324 20.9712 10.716C21.0752 11.1 21.1272 11.528 21.1272 12C21.1272 13.016 20.8992 13.796 20.4432 14.34C19.9952 14.876 19.3472 15.144 18.4992 15.144C18.0512 15.144 17.6592 15.072 17.3232 14.928C16.9952 14.776 16.7232 14.564 16.5072 14.292C16.2912 14.012 16.1312 13.68 16.0272 13.296C15.9232 12.904 15.8712 12.472 15.8712 12ZM16.8672 12C16.8672 12.304 16.8952 12.596 16.9512 12.876C17.0152 13.156 17.1112 13.4 17.2392 13.608C17.3672 13.816 17.5352 13.984 17.7432 14.112C17.9512 14.24 18.2032 14.304 18.4992 14.304C19.5872 14.312 20.1312 13.544 20.1312 12C20.1312 11.688 20.0992 11.392 20.0352 11.112C19.9792 10.832 19.8872 10.588 19.7592 10.38C19.6312 10.172 19.4632 10.008 19.2552 9.888C19.0472 9.76 18.7952 9.696 18.4992 9.696C17.4112 9.688 16.8672 10.456 16.8672 12ZM24.1528 12.3H23.6008V15H22.6408V9H23.6008V11.712L24.1168 11.544L26.0368 9H27.0808L25.2208 11.412L24.7168 11.808L25.3408 12.288L27.3448 15H26.1568L24.1528 12.3ZM28.9473 12.324V11.544H29.7873C29.9313 11.544 30.0713 11.52 30.2073 11.472C30.3513 11.424 30.4793 11.36 30.5913 11.28C30.7033 11.192 30.7913 11.092 30.8553 10.98C30.9273 10.86 30.9633 10.736 30.9633 10.608C30.9633 10.296 30.8553 10.076 30.6393 9.948C30.4233 9.82 30.0993 9.756 29.6673 9.756C29.3553 9.756 29.0673 9.804 28.8033 9.9C28.5473 9.996 28.3473 10.088 28.2033 10.176L27.9273 9.432C28.1673 9.296 28.4473 9.176 28.7673 9.072C29.0953 8.968 29.4833 8.916 29.9313 8.916C31.2593 8.916 31.9233 9.408 31.9233 10.392C31.9233 10.672 31.8313 10.948 31.6473 11.22C31.4713 11.484 31.2153 11.672 30.8793 11.784V11.832C31.3513 11.92 31.6793 12.088 31.8633 12.336C32.0553 12.584 32.1513 12.912 32.1513 13.32C32.1513 13.576 32.0993 13.812 31.9953 14.028C31.8913 14.244 31.7353 14.432 31.5273 14.592C31.3193 14.752 31.0553 14.88 30.7353 14.976C30.4233 15.064 30.0593 15.108 29.6433 15.108C29.2353 15.108 28.8953 15.072 28.6233 15C28.3593 14.928 28.1193 14.84 27.9033 14.736L28.1793 13.944C28.3633 14.048 28.5833 14.128 28.8393 14.184C29.1033 14.24 29.3873 14.268 29.6913 14.268C30.1793 14.268 30.5513 14.184 30.8073 14.016C31.0633 13.848 31.1913 13.592 31.1913 13.248C31.1913 12.96 31.0713 12.736 30.8313 12.576C30.5913 12.408 30.1953 12.324 29.6433 12.324H28.9473ZM33.5721 9.444C33.8761 9.26 34.2281 9.124 34.6281 9.036C35.0361 8.948 35.4601 8.904 35.9001 8.904C36.3161 8.904 36.6481 8.96 36.8961 9.072C37.1521 9.184 37.3441 9.332 37.4721 9.516C37.6081 9.692 37.6961 9.888 37.7361 10.104C37.7841 10.32 37.8081 10.536 37.8081 10.752C37.8081 11.232 37.7961 11.7 37.7721 12.156C37.7481 12.612 37.7361 13.044 37.7361 13.452C37.7361 13.748 37.7481 14.028 37.7721 14.292C37.7961 14.556 37.8401 14.8 37.9041 15.024H37.1961L36.9441 14.184H36.8841C36.8121 14.296 36.7201 14.408 36.6081 14.52C36.5041 14.624 36.3761 14.72 36.2241 14.808C36.0721 14.888 35.8961 14.956 35.6961 15.012C35.4961 15.068 35.2681 15.096 35.0121 15.096C34.7561 15.096 34.5161 15.056 34.2921 14.976C34.0761 14.896 33.8881 14.784 33.7281 14.64C33.5681 14.488 33.4401 14.308 33.3441 14.1C33.2561 13.892 33.2121 13.656 33.2121 13.392C33.2121 13.04 33.2841 12.748 33.4281 12.516C33.5721 12.276 33.7721 12.088 34.0281 11.952C34.2921 11.808 34.6041 11.708 34.9641 11.652C35.3321 11.588 35.7361 11.556 36.1761 11.556C36.2881 11.556 36.3961 11.556 36.5001 11.556C36.6121 11.556 36.7241 11.564 36.8361 11.58C36.8601 11.34 36.8721 11.124 36.8721 10.932C36.8721 10.492 36.7841 10.184 36.6081 10.008C36.4321 9.832 36.1121 9.744 35.6481 9.744C35.5121 9.744 35.3641 9.756 35.2041 9.78C35.0521 9.796 34.8921 9.824 34.7241 9.864C34.5641 9.896 34.4081 9.94 34.2561 9.996C34.1121 10.044 33.9841 10.1 33.8721 10.164L33.5721 9.444ZM35.2761 14.256C35.5001 14.256 35.7001 14.228 35.8761 14.172C36.0521 14.108 36.2041 14.032 36.3321 13.944C36.4601 13.848 36.5641 13.744 36.6441 13.632C36.7321 13.52 36.7961 13.412 36.8361 13.308V12.312C36.7241 12.304 36.6081 12.3 36.4881 12.3C36.3761 12.292 36.2641 12.288 36.1521 12.288C35.9041 12.288 35.6601 12.304 35.4201 12.336C35.1881 12.36 34.9801 12.412 34.7961 12.492C34.6201 12.564 34.4761 12.668 34.3641 12.804C34.2601 12.932 34.2081 13.096 34.2081 13.296C34.2081 13.576 34.3081 13.808 34.5081 13.992C34.7081 14.168 34.9641 14.256 35.2761 14.256ZM42.8493 9.84H41.1093C41.0853 10.176 41.0613 10.54 41.0373 10.932C41.0133 11.316 40.9773 11.704 40.9293 12.096C40.8813 12.48 40.8173 12.852 40.7373 13.212C40.6573 13.564 40.5533 13.876 40.4253 14.148C40.3053 14.42 40.1533 14.64 39.9693 14.808C39.7933 14.968 39.5813 15.048 39.3333 15.048C39.1813 15.048 39.0493 15.04 38.9373 15.024C38.8253 15.008 38.7253 14.98 38.6373 14.94L38.7813 14.136C38.8773 14.168 38.9813 14.184 39.0933 14.184C39.2533 14.184 39.3973 14.116 39.5253 13.98C39.6533 13.844 39.7653 13.588 39.8613 13.212C39.9573 12.828 40.0373 12.3 40.1013 11.628C40.1653 10.956 40.2093 10.08 40.2333 9H43.8093V15H42.8493V9.84ZM50.7233 7.56C50.7233 7.744 50.6633 7.892 50.5433 8.004C50.4233 8.108 50.2713 8.16 50.0873 8.16C49.8713 8.16 49.6913 8.088 49.5473 7.944C49.4113 7.8 49.3433 7.588 49.3433 7.308C49.3433 7.044 49.3793 6.82 49.4513 6.636C49.5313 6.444 49.6233 6.284 49.7273 6.156C49.8393 6.02 49.9513 5.912 50.0633 5.832C50.1833 5.752 50.2873 5.696 50.3753 5.664L50.6753 6.084C50.4993 6.172 50.3553 6.292 50.2433 6.444C50.1393 6.588 50.0873 6.772 50.0873 6.996C50.1193 6.988 50.1633 6.984 50.2193 6.984C50.3793 6.984 50.5033 7.04 50.5913 7.152C50.6793 7.264 50.7233 7.4 50.7233 7.56ZM48.9713 7.56C48.9713 7.744 48.9113 7.892 48.7913 8.004C48.6713 8.108 48.5193 8.16 48.3353 8.16C48.1193 8.16 47.9393 8.088 47.7953 7.944C47.6593 7.8 47.5913 7.588 47.5913 7.308C47.5913 7.044 47.6273 6.82 47.6993 6.636C47.7793 6.444 47.8713 6.284 47.9753 6.156C48.0873 6.02 48.1993 5.912 48.3113 5.832C48.4313 5.752 48.5353 5.696 48.6233 5.664L48.9233 6.084C48.7473 6.172 48.6033 6.292 48.4913 6.444C48.3873 6.588 48.3353 6.772 48.3353 6.996C48.3673 6.988 48.4113 6.984 48.4673 6.984C48.6273 6.984 48.7513 7.04 48.8393 7.152C48.9273 7.264 48.9713 7.4 48.9713 7.56ZM57.2375 11.148H53.2055V15H52.2095V6.6H53.2055V10.26H57.2375V6.6H58.2335V15H57.2375V11.148ZM61.94 12.888L62.276 14.04H62.336L62.6 12.876L63.764 9H64.736L62.96 14.388C62.824 14.78 62.688 15.16 62.552 15.528C62.424 15.896 62.28 16.224 62.12 16.512C61.96 16.8 61.78 17.028 61.58 17.196C61.38 17.372 61.148 17.46 60.884 17.46C60.596 17.46 60.36 17.42 60.176 17.34L60.344 16.512C60.448 16.552 60.548 16.572 60.644 16.572C60.868 16.572 61.084 16.452 61.292 16.212C61.5 15.98 61.672 15.576 61.808 15L59.396 9H60.5L61.94 12.888ZM65.7658 9H66.4258L66.6058 9.72H66.6538C66.8378 9.44 67.0738 9.228 67.3618 9.084C67.6578 8.932 67.9938 8.856 68.3698 8.856C69.1698 8.856 69.7658 9.092 70.1578 9.564C70.5498 10.036 70.7458 10.808 70.7458 11.88C70.7458 12.384 70.6778 12.84 70.5418 13.248C70.4138 13.648 70.2298 13.988 69.9898 14.268C69.7498 14.548 69.4578 14.764 69.1138 14.916C68.7778 15.068 68.4018 15.144 67.9858 15.144C67.6898 15.144 67.4538 15.124 67.2778 15.084C67.1098 15.052 66.9258 14.992 66.7258 14.904V17.4H65.7658V9ZM68.1898 9.696C67.7818 9.696 67.4578 9.804 67.2178 10.02C66.9858 10.228 66.8218 10.548 66.7258 10.98V13.956C66.8698 14.068 67.0338 14.156 67.2178 14.22C67.4018 14.276 67.6458 14.304 67.9498 14.304C68.5018 14.304 68.9378 14.1 69.2578 13.692C69.5858 13.276 69.7498 12.668 69.7498 11.868C69.7498 11.54 69.7218 11.244 69.6658 10.98C69.6098 10.708 69.5178 10.48 69.3898 10.296C69.2698 10.104 69.1098 9.956 68.9098 9.852C68.7178 9.748 68.4778 9.696 68.1898 9.696ZM75.4157 9.84H73.6757C73.6517 10.176 73.6277 10.54 73.6037 10.932C73.5797 11.316 73.5437 11.704 73.4957 12.096C73.4477 12.48 73.3837 12.852 73.3037 13.212C73.2237 13.564 73.1197 13.876 72.9917 14.148C72.8717 14.42 72.7197 14.64 72.5357 14.808C72.3597 14.968 72.1477 15.048 71.8997 15.048C71.7477 15.048 71.6157 15.04 71.5037 15.024C71.3917 15.008 71.2917 14.98 71.2037 14.94L71.3477 14.136C71.4437 14.168 71.5477 14.184 71.6597 14.184C71.8197 14.184 71.9637 14.116 72.0917 13.98C72.2197 13.844 72.3317 13.588 72.4277 13.212C72.5237 12.828 72.6037 12.3 72.6677 11.628C72.7317 10.956 72.7757 10.08 72.7997 9H76.3757V15H75.4157V9.84ZM79.1828 14.16C79.4788 14.208 79.7628 14.232 80.0348 14.232C80.5388 14.232 80.8908 14.136 81.0908 13.944C81.2908 13.744 81.3908 13.464 81.3908 13.104C81.3908 12.784 81.2908 12.52 81.0908 12.312C80.8988 12.104 80.5588 12 80.0708 12C79.9348 12 79.7868 12.004 79.6268 12.012C79.4668 12.02 79.3188 12.044 79.1828 12.084V14.16ZM79.1828 11.292C79.3748 11.26 79.5588 11.24 79.7348 11.232C79.9108 11.216 80.0788 11.208 80.2388 11.208C80.6468 11.208 80.9868 11.256 81.2588 11.352C81.5388 11.44 81.7628 11.564 81.9308 11.724C82.0988 11.884 82.2148 12.076 82.2788 12.3C82.3508 12.516 82.3868 12.748 82.3868 12.996C82.3868 13.724 82.1828 14.252 81.7748 14.58C81.3748 14.908 80.7228 15.072 79.8188 15.072C79.3068 15.072 78.7748 15.048 78.2228 15V9H79.1828V11.292ZM83.3348 9H84.2948V15H83.3348V9ZM91.2999 12.348L89.5359 15H88.4319L90.3279 12.252L90.7359 11.892L90.1239 11.436L88.5639 9H89.5839L91.2399 11.592H91.8639V9H92.7999V11.712L93.3639 11.544L95.0319 9H96.0399L94.4079 11.436L93.9399 11.82L94.5519 12.3L96.3279 15H95.1879L93.4239 12.3H92.7999V15H91.8639V12.18L91.2999 12.348ZM96.836 12C96.836 10.984 97.06 10.208 97.508 9.672C97.964 9.128 98.616 8.856 99.464 8.856C99.912 8.856 100.3 8.932 100.628 9.084C100.964 9.228 101.24 9.44 101.456 9.72C101.672 9.992 101.832 10.324 101.936 10.716C102.04 11.1 102.092 11.528 102.092 12C102.092 13.016 101.864 13.796 101.408 14.34C100.96 14.876 100.312 15.144 99.464 15.144C99.016 15.144 98.624 15.072 98.288 14.928C97.96 14.776 97.688 14.564 97.472 14.292C97.256 14.012 97.096 13.68 96.992 13.296C96.888 12.904 96.836 12.472 96.836 12ZM97.832 12C97.832 12.304 97.86 12.596 97.916 12.876C97.98 13.156 98.076 13.4 98.204 13.608C98.332 13.816 98.5 13.984 98.708 14.112C98.916 14.24 99.168 14.304 99.464 14.304C100.552 14.312 101.096 13.544 101.096 12C101.096 11.688 101.064 11.392 101 11.112C100.944 10.832 100.852 10.588 100.724 10.38C100.596 10.172 100.428 10.008 100.22 9.888C100.012 9.76 99.76 9.696 99.464 9.696C98.376 9.688 97.832 10.456 97.832 12ZM106.763 9.84H105.023C104.999 10.176 104.975 10.54 104.951 10.932C104.927 11.316 104.891 11.704 104.843 12.096C104.795 12.48 104.731 12.852 104.651 13.212C104.571 13.564 104.467 13.876 104.339 14.148C104.219 14.42 104.067 14.64 103.883 14.808C103.707 14.968 103.495 15.048 103.247 15.048C103.095 15.048 102.963 15.04 102.851 15.024C102.739 15.008 102.639 14.98 102.551 14.94L102.695 14.136C102.791 14.168 102.895 14.184 103.007 14.184C103.167 14.184 103.311 14.116 103.439 13.98C103.567 13.844 103.679 13.588 103.775 13.212C103.871 12.828 103.951 12.3 104.015 11.628C104.079 10.956 104.123 10.08 104.147 9H107.723V15H106.763V9.84ZM110.878 7.092C110.878 6.908 110.934 6.764 111.046 6.66C111.166 6.556 111.318 6.504 111.502 6.504C111.726 6.504 111.906 6.576 112.042 6.72C112.186 6.856 112.258 7.064 112.258 7.344C112.258 7.608 112.218 7.836 112.138 8.028C112.066 8.22 111.974 8.384 111.862 8.52C111.758 8.648 111.646 8.752 111.526 8.832C111.406 8.912 111.302 8.968 111.214 9L110.914 8.592C111.098 8.496 111.242 8.376 111.346 8.232C111.45 8.088 111.502 7.9 111.502 7.668C111.47 7.676 111.426 7.68 111.37 7.68C111.218 7.68 111.098 7.628 111.01 7.524C110.922 7.412 110.878 7.268 110.878 7.092ZM109.126 7.092C109.126 6.908 109.182 6.764 109.294 6.66C109.414 6.556 109.566 6.504 109.75 6.504C109.974 6.504 110.154 6.576 110.29 6.72C110.434 6.856 110.506 7.064 110.506 7.344C110.506 7.608 110.466 7.836 110.386 8.028C110.314 8.22 110.222 8.384 110.11 8.52C110.006 8.648 109.894 8.752 109.774 8.832C109.654 8.912 109.55 8.968 109.462 9L109.162 8.592C109.346 8.496 109.49 8.376 109.594 8.232C109.698 8.088 109.75 7.9 109.75 7.668C109.718 7.676 109.674 7.68 109.618 7.68C109.466 7.68 109.346 7.628 109.258 7.524C109.17 7.412 109.126 7.268 109.126 7.092Z" fill="white"/>
</svg>
