<svg width="220" height="220" viewBox="0 0 220 220" fill="none" xmlns="http://www.w3.org/2000/svg"><path d="M109.341 118.682a9.34 9.34 0 009.341-9.341 9.34 9.34 0 00-9.341-9.341 9.34 9.34 0 00-9.341 9.341 9.34 9.34 0 009.341 9.341z" fill="#FF4538"/><path d="M202.241 114.012l.076-1.031-7.109-.522.134-1.821 15.358 1.128-.133 1.821-7.153-.525.234 1.01 6.467 5.658-.154 2.107-6.227-5.619-.657-.975-.96 1.055-7.565 5.091.169-2.304 7.52-5.073zm6.954 12.984l-1.821 8.182-1.589-.354 1.424-6.399-4.917-1.095-1.305 5.863-1.589-.354 1.305-5.862-5.348-1.19-1.448 6.506-1.589-.353 1.845-8.29 15.032 3.346zm-3.582 13.976c-.108.556-.266 1.18-.474 1.87a25.083 25.083 0 01-.649 1.896 8.082 8.082 0 01-.904 1.701 4.36 4.36 0 01-1.263 1.23 3.636 3.636 0 01-1.638.562c-.607.062-1.273-.05-1.996-.334-1.12-.439-1.907-1.103-2.362-1.99-.455-.888-.614-1.848-.477-2.881l-1.143.685-7.071 1.337.779-1.986 7.736-1.526 1.095-1.886-6.492-2.548.667-1.699 14.192 5.569zm-2.614 3.228l.217-.553c.075-.191.141-.378.197-.561l.16-.528c.045-.155.073-.286.083-.392l-5.284-2.074-.627 1.597c-.369.943-.443 1.812-.22 2.608.224.797.827 1.388 1.81 1.774.737.289 1.444.275 2.12-.043.676-.317 1.191-.927 1.544-1.828zm-3.978 12.331l-.876 1.602-13.512-7.389.876-1.602 13.512 7.389zm-15.104 13.774l1.71 1.569.066-.088-1.181-1.94-3.132-7.386.332-.439 8.123.817 2.145.628.067-.087-2.011-1.134-8.267-6.247 1.034-1.369 12.287 9.284-.823 1.089-9.188-.905-1.807-.456-.026.036.992 1.605 3.477 8.39-.862 1.141-12.287-9.285 1.101-1.457 8.25 6.234zM173.6 183.13a7.1 7.1 0 01-1.311-2.056 14.408 14.408 0 01-.841-2.552c-.227-.912-.4-1.852-.52-2.821a58.59 58.59 0 01-.257-2.796l.146-1.427-.06-.064-.867 1.136-3.512 3.265-1.109-1.192 6.413-5.962.434.467a80.748 80.748 0 000 1.712c.007.675.038 1.398.093 2.167.054.791.139 1.593.255 2.407a21.3 21.3 0 00.472 2.414c.19.786.433 1.511.731 2.175.297.665.656 1.223 1.075 1.674.49.526 1.044.821 1.665.885.63.075 1.251-.172 1.864-.741.408-.38.725-.835.952-1.367.237-.52.395-1.018.475-1.492l1.385.424a5.684 5.684 0 01-.633 2 6.735 6.735 0 01-1.405 1.817c-.462.43-.935.739-1.419.929-.474.201-.95.293-1.426.275a3.342 3.342 0 01-1.388-.362 4.1 4.1 0 01-1.212-.915zm-17.654 6.757l-4.68 2.537-.776-1.431 4.681-2.537.775 1.431zm-22.213 9.168l1.005-.244-1.681-6.927 1.775-.431 3.631 14.966-1.774.431-1.691-6.97-.89.533-3.405 7.889-2.053.498 3.441-7.649.727-.923-1.298-.591-7.164-5.642 2.245-.544 7.132 5.604zm-10.35 10.579l-8.349.743-.144-1.622 6.53-.58-.446-5.019-5.982.532-.145-1.621 5.983-.532-.485-5.457-6.64.591-.144-1.622 8.458-.752 1.364 15.339zm-14.667.814c-.563.066-1.205.105-1.926.116a25.26 25.26 0 01-2.004-.043 8.026 8.026 0 01-1.895-.345 4.352 4.352 0 01-1.555-.83 3.644 3.644 0 01-1.033-1.39c-.243-.56-.338-1.228-.287-2.003.078-1.201.472-2.152 1.179-2.855.708-.703 1.575-1.146 2.601-1.329l-1.001-.881-3.42-6.332 2.129.14 3.802 6.908 2.13.471.457-6.959 1.822.119-.999 15.213zm-3.87-1.51l.593.039c.205.013.403.019.594.016l.552-.007c.162-.004.295-.018.399-.04l.372-5.664-1.712-.113c-1.01-.066-1.86.128-2.552.582-.691.455-1.071 1.209-1.14 2.263-.052.79.176 1.459.684 2.007.507.548 1.244.853 2.21.917zm-12.786-.021l-1.794-.342 2.885-15.127 1.793.342-2.885 15.127zm-17.73-10.185l-.97 2.108.103.036 1.486-1.717 6.075-5.241.519.182 1.706 7.984.058 2.235.103.036.465-2.261 3.42-9.782 1.62.567-5.083 14.537-1.288-.451-1.948-9.025-.119-1.859-.041-.015-1.225 1.437-6.926 5.875-1.35-.472 5.084-14.537 1.724.603-3.413 9.76zm-15.365-5.968a7.11 7.11 0 011.564-1.87 14.365 14.365 0 012.18-1.572c.8-.491 1.644-.94 2.532-1.347.88-.395 1.743-.758 2.588-1.089l1.404-.292.044-.076-1.345-.483-4.173-2.363.802-1.417 7.62 4.314-.315.555c-.447.135-.991.307-1.633.517-.64.21-1.32.457-2.038.742-.737.29-1.476.614-2.217.969-.76.362-1.48.755-2.16 1.18-.69.417-1.308.868-1.852 1.352-.544.485-.968.995-1.271 1.531-.354.625-.468 1.243-.342 1.854.119.623.542 1.141 1.27 1.553.485.275 1.015.44 1.59.496.568.068 1.09.069 1.566.002l.014 1.449a5.69 5.69 0 01-2.099 0 6.752 6.752 0 01-2.156-.791c-.548-.311-.986-.668-1.314-1.073a3.31 3.31 0 01-.692-1.277 3.35 3.35 0 01-.074-1.432c.07-.482.24-.96.507-1.432zm-11.746-14.772l-3.832-3.695 1.13-1.172 3.832 3.696-1.13 1.171zm-15.407-18.27l.54.882 6.082-3.715.952 1.558-13.142 8.027-.952-1.558 6.12-3.739-.778-.684-8.553-.834-1.1-1.803 8.334.942 1.1.41.167-1.416 3.185-8.545 1.204 1.972-3.159 8.503zm-13.237-6.592l-3.265-7.72 1.5-.634 2.553 6.038 4.64-1.963-2.34-5.531 1.5-.635 2.34 5.532 5.045-2.134-2.597-6.139 1.5-.635 3.307 7.822-14.183 5.999zm-5.16-13.352a19.403 19.403 0 01-.7-1.798 25.363 25.363 0 01-.572-1.92 8.053 8.053 0 01-.252-1.91 4.35 4.35 0 01.313-1.734 3.642 3.642 0 011.008-1.41c.459-.402 1.065-.698 1.819-.887 1.167-.292 2.193-.209 3.079.249.886.458 1.573 1.148 2.06 2.069l.534-1.222 4.98-5.195.519 2.069-5.412 5.735.204 2.171 6.765-1.696.444 1.771-14.789 3.708zm.254-4.146l.144.576c.05.199.105.39.166.571l.176.523c.054.153.107.275.16.368l5.506-1.38-.417-1.665c-.246-.982-.691-1.732-1.335-2.251-.645-.519-1.479-.65-2.503-.393-.769.193-1.336.615-1.702 1.266-.366.651-.43 1.446-.195 2.385zm-3.93-12.353l-.218-1.813 15.29-1.836.218 1.813-15.29 1.836zm4.286-20.091l-2.303-.282-.003.11 2.089.893 6.841 4.19-.015.55-7.086 4.056-2.11.735-.004.11 2.296-.246 10.358.28-.046 1.715-15.395-.416.037-1.363 8.004-4.604 1.735-.679v-.044l-1.74-.729-7.705-4.808.038-1.43 15.395.416-.05 1.825-10.336-.279zm.953-16.491a7.107 7.107 0 012.259.916 14.42 14.42 0 012.165 1.593 23.928 23.928 0 012.058 1.997 58.593 58.593 0 011.829 2.13l.708 1.248.086.017.048-1.427.97-4.697 1.595.33-1.772 8.574-.625-.13a78.765 78.765 0 00-.992-1.395 35.348 35.348 0 00-1.33-1.712 33.263 33.263 0 00-1.603-1.814 21.25 21.25 0 00-1.784-1.694c-.61-.53-1.228-.98-1.855-1.35-.628-.369-1.243-.616-1.847-.74-.704-.146-1.327-.065-1.87.242-.557.305-.92.866-1.089 1.685a3.972 3.972 0 00.015 1.665 6.05 6.05 0 00.478 1.492l-1.375.457a5.694 5.694 0 01-.643-1.997 6.738 6.738 0 01.093-2.295c.127-.618.333-1.144.618-1.58.27-.438.605-.788 1.003-1.05a3.351 3.351 0 011.341-.51c.481-.08.987-.065 1.519.044zm10.507-15.828l2.362-4.772 1.46.723-2.363 4.771-1.459-.722zm12.623-20.097l-.679.78 5.376 4.68-1.199 1.378-11.615-10.112 1.2-1.378 5.409 4.71.417-.95-1.782-8.406 1.387-1.592 1.614 8.23-.059 1.174 1.4-.268 9.108.461-1.517 1.742-9.06-.449zm2.137-14.528l6.362-5.458 1.06 1.236-4.976 4.268 3.28 3.824 4.56-3.91 1.06 1.235-4.56 3.91 3.568 4.158 5.059-4.34 1.06 1.236-6.445 5.529-10.028-11.688zm11.235-9.099c.42-.381.919-.786 1.498-1.215a25.28 25.28 0 011.655-1.131 8.056 8.056 0 011.742-.823 4.35 4.35 0 011.747-.23 3.647 3.647 0 011.65.53c.523.314.99.8 1.4 1.461.634 1.022.868 2.025.702 3.008-.167.984-.614 1.848-1.342 2.594l1.326.135 6.467 3.158-1.813 1.125-7.112-3.405-2.005.857 3.678 5.925-1.551.963-8.042-12.952zm4.026-1.024l-.505.314a7.76 7.76 0 00-.493.332l-.444.327c-.13.098-.23.186-.302.265l2.994 4.822 1.458-.905c.86-.534 1.439-1.186 1.736-1.958.298-.772.168-1.607-.389-2.504-.418-.672-.992-1.084-1.724-1.234-.732-.15-1.51.03-2.332.541zm10.698-7.607l1.66-.761 6.419 13.998-1.66.761-6.42-13.998zm20.038-1.936l-.435-2.28-.105.031-.212 2.262-1.899 7.794-.528.154-6.028-5.507-1.345-1.785-.105.03.935 2.111 2.9 9.948-1.648.48-4.309-14.784 1.31-.382 6.83 6.213 1.176 1.445.043-.013.162-1.88 2.223-8.806 1.373-.4 4.308 14.785-1.753.51-2.893-9.926zm16.376-4.186c.08.773.017 1.583-.189 2.43-.193.832-.481 1.68-.862 2.546a24.06 24.06 0 01-1.28 2.567c-.489.832-.98 1.628-1.476 2.388l-.974 1.053.01.087 1.374-.387 4.77-.498.17 1.62-8.71.91-.065-.635c.285-.37.629-.826 1.029-1.369.4-.543.81-1.139 1.229-1.787.432-.665.846-1.357 1.243-2.076a21.19 21.19 0 001.074-2.214c.32-.741.562-1.467.723-2.177.162-.71.211-1.371.147-1.984-.075-.715-.341-1.284-.798-1.708-.459-.44-1.104-.615-1.935-.528a3.97 3.97 0 00-1.583.52 6.03 6.03 0 00-1.276.907l-.853-1.172a5.692 5.692 0 011.71-1.218 6.738 6.738 0 012.214-.608c.627-.065 1.191-.028 1.693.111a3.32 3.32 0 011.305.638c.37.3.668.675.891 1.123.223.434.362.921.419 1.46zm18.496 5.208l5.264.796-.244 1.61-5.264-.797.244-1.61zm16.562 3.618l-.976-.342-2.353 6.729-1.723-.603 5.083-14.537 1.724.603-2.367 6.77 1.036.036 7.146-4.773 1.993.697-7.045 4.552-1.112.38.769 1.201 2.948 8.63-2.18-.763-2.943-8.58zm14.682-3.227l7.413 3.913-.76 1.44-5.798-3.06-2.351 4.455 5.312 2.803-.76 1.44-5.312-2.803-2.557 4.845 5.895 3.111-.759 1.44-7.511-3.964 7.188-13.62zm12.677 7.189c.508.25 1.068.567 1.68.949.623.39 1.176.765 1.658 1.124.542.403 1.01.843 1.404 1.32.407.485.692.999.855 1.54.175.552.213 1.128.112 1.73-.1.601-.383 1.214-.847 1.838-.718.964-1.565 1.55-2.541 1.756-.976.206-1.944.107-2.905-.298l.361 1.284-.568 7.174-1.712-1.274.561-7.865-1.532-1.552-4.164 5.594-1.465-1.09 9.103-12.23zm2.428 3.37l-.477-.354a7.429 7.429 0 00-.489-.337c-.162-.103-.318-.2-.468-.294a2.188 2.188 0 00-.357-.183l-3.389 4.553 1.377 1.025c.812.604 1.631.903 2.458.897.828-.006 1.556-.432 2.187-1.28.473-.635.645-1.32.516-2.056s-.582-1.393-1.358-1.97zm10.408 6.628l1.323 1.258-10.609 11.163-1.323-1.258 10.609-11.163zm9.755 18.492l1.957-1.246-.067-.087-2.18.638-7.945 1.113-.338-.434 2.893-7.635 1.162-1.909-.068-.087-1.615 1.65-8.175 6.367-1.055-1.354 12.15-9.463.838 1.076-3.253 8.64-.908 1.628.027.035 1.808-.544 9.004-1.185.879 1.128-12.15 9.463-1.122-1.44 8.158-6.354zm9.719 13.285c-.687.363-1.462.606-2.326.73-.843.13-1.738.18-2.683.148a23.9 23.9 0 01-2.859-.233 58.387 58.387 0 01-2.766-.48l-1.34-.512-.078.041.871 1.132 2.239 4.242-1.44.76-4.087-7.744.564-.298c.449.128 1 .277 1.654.446.653.17 1.358.328 2.116.475.778.154 1.574.28 2.39.38a21.2 21.2 0 002.454.173c.808.022 1.571-.025 2.29-.139.719-.114 1.351-.315 1.896-.602.636-.336 1.065-.795 1.289-1.377.236-.59.159-1.253-.231-1.993a3.967 3.967 0 00-1.071-1.275 6.038 6.038 0 00-1.318-.847l.77-1.227a5.692 5.692 0 011.767 1.132 6.73 6.73 0 011.388 1.83c.295.557.471 1.094.528 1.611.07.51.035.994-.106 1.45a3.353 3.353 0 01-.711 1.245c-.32.368-.72.679-1.2.932zm1.957 18.865l1.216 5.183-1.585.371-1.216-5.183 1.585-.372z" fill="#1E1E1E" fill-opacity=".5"/></svg>