<svg width="26" height="26" viewBox="0 0 26 26" fill="none" xmlns="http://www.w3.org/2000/svg">
<path d="M18.962 0H7.03795C3.15716 0 0 3.15716 0 7.03795V18.9622C0 22.8428 3.15716 26 7.03795 26H18.9622C22.8428 26 26 22.8428 26 18.9622V7.03795C26 3.15716 22.8428 0 18.962 0V0ZM13 20.1091C9.07991 20.1091 5.89081 16.92 5.89081 13C5.89081 9.07991 9.07991 5.89081 13 5.89081C16.92 5.89081 20.1091 9.07991 20.1091 13C20.1091 16.92 16.92 20.1091 13 20.1091ZM20.2791 7.56738C19.1207 7.56738 18.1785 6.62515 18.1785 5.46671C18.1785 4.30827 19.1207 3.36584 20.2791 3.36584C21.4376 3.36584 22.38 4.30827 22.38 5.46671C22.38 6.62515 21.4376 7.56738 20.2791 7.56738Z" fill="#FF4538"/>
<path d="M12.999 7.41504C9.9196 7.41504 7.41406 9.92037 7.41406 13C7.41406 16.0794 9.9196 18.5849 12.999 18.5849C16.0786 18.5849 18.5839 16.0794 18.5839 13C18.5839 9.92037 16.0786 7.41504 12.999 7.41504Z" fill="#FF4538"/>
<path d="M20.2796 4.89027C19.9618 4.89027 19.7031 5.14894 19.7031 5.46672C19.7031 5.7845 19.9618 6.04316 20.2796 6.04316C20.5975 6.04316 20.8562 5.7847 20.8562 5.46672C20.8562 5.14874 20.5975 4.89027 20.2796 4.89027Z" fill="#FF4538"/>
</svg>
