<svg width="22" height="22" viewBox="0 0 22 22" fill="none" xmlns="http://www.w3.org/2000/svg">
<g clip-path="url(#clip0_15_36)">
<path d="M17.3866 13.6283C16.9362 13.1594 16.3929 12.9086 15.8171 12.9086C15.246 12.9086 14.6981 13.1547 14.2291 13.6237L12.7619 15.0863C12.6412 15.0213 12.5204 14.9609 12.4044 14.9006C12.2372 14.817 12.0793 14.7381 11.9447 14.6545C10.5703 13.7816 9.32123 12.644 8.12327 11.1721C7.54287 10.4384 7.15283 9.82087 6.8696 9.19403C7.25034 8.84578 7.60323 8.48361 7.94683 8.13537C8.07684 8.00536 8.20685 7.8707 8.33686 7.74069C9.31195 6.76561 9.31195 5.50265 8.33686 4.52756L7.06926 3.25996C6.92532 3.11601 6.77673 2.96743 6.63743 2.81885C6.35884 2.53096 6.06631 2.2338 5.7645 1.9552C5.31411 1.50945 4.77549 1.27264 4.20901 1.27264C3.64254 1.27264 3.09463 1.50945 2.63031 1.9552C2.62567 1.95985 2.62567 1.95985 2.62102 1.96449L1.04232 3.55712C0.447981 4.15146 0.109023 4.87581 0.0347313 5.71623C-0.0767067 7.07206 0.322613 8.33503 0.629067 9.16153C1.38127 11.1906 2.50494 13.0711 4.18115 15.0863C6.2149 17.5147 8.66189 19.4324 11.4571 20.7836C12.5251 21.2897 13.9506 21.8887 15.5432 21.9908C15.6407 21.9955 15.7428 22.0001 15.8357 22.0001C16.9083 22.0001 17.8091 21.6147 18.5149 20.8486C18.5195 20.8393 18.5288 20.8347 18.5334 20.8254C18.7749 20.5328 19.0535 20.2682 19.346 19.9849C19.5457 19.7946 19.75 19.5949 19.9496 19.386C20.4093 18.9077 20.6508 18.3505 20.6508 17.7794C20.6508 17.2036 20.4047 16.6511 19.9357 16.1868L17.3866 13.6283ZM19.0488 18.5177C19.0442 18.5177 19.0442 18.5223 19.0488 18.5177C18.8678 18.7127 18.682 18.8891 18.4824 19.0842C18.1806 19.372 17.8741 19.6738 17.5862 20.0128C17.1173 20.5143 16.5647 20.7511 15.8404 20.7511C15.7707 20.7511 15.6964 20.7511 15.6268 20.7464C14.2477 20.6582 12.9662 20.1196 12.005 19.6599C9.37695 18.3877 7.06926 16.5814 5.15159 14.2923C3.56825 12.3839 2.50958 10.6195 1.80845 8.72506C1.37663 7.56889 1.21876 6.6681 1.28841 5.81839C1.33484 5.27513 1.54379 4.82473 1.92918 4.43934L3.51253 2.85599C3.74005 2.6424 3.98149 2.52632 4.2183 2.52632C4.51083 2.52632 4.74763 2.70277 4.89621 2.85135C4.90086 2.85599 4.9055 2.86064 4.91014 2.86528C5.19338 3.12994 5.46269 3.4039 5.74593 3.69642C5.88987 3.845 6.03845 3.99359 6.18704 4.14682L7.45465 5.41442C7.94683 5.90661 7.94683 6.36165 7.45465 6.85383C7.31999 6.98849 7.18998 7.12314 7.05533 7.25315C6.66529 7.65247 6.29383 8.02393 5.88987 8.3861C5.88058 8.39539 5.8713 8.40003 5.86665 8.40932C5.46733 8.80864 5.54163 9.19867 5.62521 9.46334C5.62985 9.47727 5.63449 9.4912 5.63913 9.50513C5.96881 10.3038 6.43313 11.056 7.1389 11.9521L7.14355 11.9568C8.42509 13.5355 9.77627 14.7659 11.2668 15.7085C11.4571 15.8292 11.6521 15.9267 11.8379 16.0196C12.005 16.1032 12.1629 16.1821 12.2976 16.2657C12.3161 16.275 12.3347 16.2889 12.3533 16.2982C12.5111 16.3771 12.6597 16.4143 12.813 16.4143C13.1983 16.4143 13.4398 16.1728 13.5187 16.0939L15.1067 14.5059C15.2646 14.348 15.5153 14.1577 15.8079 14.1577C16.0957 14.1577 16.3325 14.3387 16.4765 14.4966C16.4811 14.5013 16.4811 14.5013 16.4858 14.5059L19.0442 17.0643C19.5225 17.538 19.5225 18.0255 19.0488 18.5177Z" fill="#FF4538"/>
<path d="M11.891 5.23317C13.1075 5.43747 14.2126 6.01323 15.0948 6.89545C15.977 7.77767 16.5482 8.88276 16.7571 10.0993C16.8082 10.4057 17.0728 10.6193 17.3747 10.6193C17.4118 10.6193 17.4443 10.6147 17.4814 10.61C17.825 10.5543 18.0526 10.2293 17.9968 9.8857C17.7461 8.41379 17.0496 7.07189 15.9863 6.00859C14.923 4.94528 13.5811 4.2488 12.1092 3.99806C11.7656 3.94234 11.4452 4.16986 11.3849 4.50882C11.3245 4.84778 11.5474 5.17745 11.891 5.23317Z" fill="#FF4538"/>
<path d="M21.974 9.70469C21.5607 7.28092 20.4185 5.07537 18.6633 3.32022C16.9082 1.56508 14.7026 0.422836 12.2789 0.00958701C11.9399 -0.0507752 11.6195 0.181387 11.5592 0.520345C11.5034 0.863945 11.731 1.18433 12.0746 1.24469C14.2383 1.61151 16.2117 2.63767 17.7811 4.20244C19.3505 5.77186 20.3721 7.74524 20.7389 9.909C20.7899 10.2155 21.0546 10.429 21.3564 10.429C21.3936 10.429 21.4261 10.4244 21.4632 10.4198C21.8022 10.3687 22.0343 10.0437 21.974 9.70469Z" fill="#FF4538"/>
</g>
<defs>
<clipPath id="clip0_15_36">
<rect width="22" height="22" fill="white"/>
</clipPath>
</defs>
</svg>
