<svg width="761" height="618" viewBox="0 0 761 618" fill="none" xmlns="http://www.w3.org/2000/svg">
<path d="M22.32 151H25.52V164.04L27.24 163.48L35.36 151H39.04L30.96 163.16L29.36 164.44L31.36 166.08L40.28 179H36.2L27.36 166.04H25.52V179H22.32V165.56L20.64 166.12L11.8 179H7.96L16.8 166.48L18.72 164.96L16.88 163.56L8.52 151H12.4L20.52 163.56H22.32V151ZM65.5466 160.04L65.7866 156.84H65.6266L63.9066 160.12L50.3866 179H48.4266V151H51.7466V170.2L51.4666 173.36H51.6266L53.3866 170.08L66.9066 151H68.8666V179H65.5466V160.04ZM95.2931 153.96H86.9331C86.6665 159.293 86.3065 163.733 85.8531 167.28C85.4265 170.8 84.7731 173.547 83.8931 175.52C83.3065 176.8 82.6131 177.733 81.8131 178.32C81.0131 178.907 80.1465 179.2 79.2131 179.2C78.7331 179.2 78.3198 179.16 77.9731 179.08C77.6265 179.027 77.2931 178.933 76.9731 178.8L77.4131 175.92C77.6798 176 77.9598 176.04 78.2531 176.04C78.7065 176.04 79.1465 175.893 79.5731 175.6C80.0265 175.307 80.4665 174.76 80.8931 173.96C81.2665 173.24 81.6131 172.28 81.9331 171.08C82.2798 169.88 82.5731 168.36 82.8131 166.52C83.0798 164.68 83.2931 162.493 83.4531 159.96C83.6131 157.4 83.7331 154.413 83.8131 151H98.6131V179H95.2931V153.96ZM109.054 165C109.054 160.333 110.041 156.76 112.014 154.28C113.987 151.773 116.801 150.52 120.454 150.52C122.427 150.52 124.134 150.867 125.574 151.56C127.014 152.253 128.201 153.24 129.134 154.52C130.094 155.773 130.801 157.293 131.254 159.08C131.707 160.84 131.934 162.813 131.934 165C131.934 169.667 130.934 173.253 128.934 175.76C126.961 178.24 124.134 179.48 120.454 179.48C118.507 179.48 116.814 179.133 115.374 178.44C113.961 177.747 112.774 176.773 111.814 175.52C110.881 174.24 110.187 172.72 109.734 170.96C109.281 169.173 109.054 167.187 109.054 165ZM112.574 165C112.574 166.547 112.721 168.013 113.014 169.4C113.334 170.787 113.814 172.013 114.454 173.08C115.094 174.12 115.907 174.96 116.894 175.6C117.907 176.213 119.094 176.52 120.454 176.52C122.934 176.52 124.881 175.587 126.294 173.72C127.707 171.827 128.414 168.92 128.414 165C128.414 163.48 128.254 162.027 127.934 160.64C127.641 159.227 127.161 158 126.494 156.96C125.854 155.893 125.027 155.053 124.014 154.44C123.027 153.8 121.841 153.48 120.454 153.48C118.001 153.48 116.067 154.427 114.654 156.32C113.267 158.187 112.574 161.08 112.574 165ZM159.478 160.04L159.718 156.84H159.558L157.838 160.12L144.318 179H142.358V151H145.678V170.2L145.398 173.36H145.558L147.318 170.08L160.838 151H162.798V179H159.478V160.04ZM149.278 144.2C149.384 145.187 149.758 145.947 150.398 146.48C151.038 147.013 151.891 147.28 152.958 147.28C154.024 147.28 154.864 147.013 155.478 146.48C156.118 145.947 156.504 145.2 156.638 144.24L159.478 144.92C159.184 146.36 158.504 147.507 157.438 148.36C156.398 149.187 154.891 149.6 152.918 149.6C151.024 149.6 149.464 149.24 148.238 148.52C147.038 147.773 146.331 146.6 146.118 145L149.278 144.2ZM195.048 166.04H193.168V179H189.848V151H193.168V164.04L194.968 163.48L204.368 151H208.208L198.848 163.04L197.168 164.36L199.208 165.96L209.448 179H205.248L195.048 166.04ZM217.121 165C217.121 160.333 218.108 156.76 220.081 154.28C222.055 151.773 224.868 150.52 228.521 150.52C230.495 150.52 232.201 150.867 233.641 151.56C235.081 152.253 236.268 153.24 237.201 154.52C238.161 155.773 238.868 157.293 239.321 159.08C239.775 160.84 240.001 162.813 240.001 165C240.001 169.667 239.001 173.253 237.001 175.76C235.028 178.24 232.201 179.48 228.521 179.48C226.575 179.48 224.881 179.133 223.441 178.44C222.028 177.747 220.841 176.773 219.881 175.52C218.948 174.24 218.255 172.72 217.801 170.96C217.348 169.173 217.121 167.187 217.121 165ZM220.641 165C220.641 166.547 220.788 168.013 221.081 169.4C221.401 170.787 221.881 172.013 222.521 173.08C223.161 174.12 223.975 174.96 224.961 175.6C225.975 176.213 227.161 176.52 228.521 176.52C231.001 176.52 232.948 175.587 234.361 173.72C235.775 171.827 236.481 168.92 236.481 165C236.481 163.48 236.321 162.027 236.001 160.64C235.708 159.227 235.228 158 234.561 156.96C233.921 155.893 233.095 155.053 232.081 154.44C231.095 153.8 229.908 153.48 228.521 153.48C226.068 153.48 224.135 154.427 222.721 156.32C221.335 158.187 220.641 161.08 220.641 165ZM271.945 160.2L272.345 156H272.145L270.625 159.84L263.345 172.48H262.345L254.625 159.8L253.185 156H252.985L253.545 160.16V179H250.425V151H252.905L261.665 165.32L262.985 168.44H263.065L264.305 165.24L272.665 151H275.265V179H271.945V160.2ZM303.106 153.96H290.186V179H286.866V151H306.426V179H303.106V153.96ZM332.873 153.96H324.513C324.246 159.293 323.886 163.733 323.433 167.28C323.006 170.8 322.353 173.547 321.473 175.52C320.886 176.8 320.193 177.733 319.393 178.32C318.593 178.907 317.726 179.2 316.793 179.2C316.313 179.2 315.899 179.16 315.553 179.08C315.206 179.027 314.873 178.933 314.553 178.8L314.993 175.92C315.259 176 315.539 176.04 315.833 176.04C316.286 176.04 316.726 175.893 317.153 175.6C317.606 175.307 318.046 174.76 318.473 173.96C318.846 173.24 319.193 172.28 319.513 171.08C319.859 169.88 320.153 168.36 320.393 166.52C320.659 164.68 320.873 162.493 321.033 159.96C321.193 157.4 321.313 154.413 321.393 151H336.193V179H332.873V153.96ZM347.794 151H363.034V153.96H351.114V163.12H362.034V166.08H351.114V176.04H363.234V179H347.794V151ZM379.239 166.04H377.359V179H374.039V151H377.359V164.04L379.159 163.48L388.559 151H392.399L383.039 163.04L381.359 164.36L383.399 165.96L393.639 179H389.439L379.239 166.04ZM420.392 177.84C419.592 178.453 418.579 178.88 417.352 179.12C416.125 179.36 414.819 179.48 413.432 179.48C411.752 179.48 410.179 179.2 408.712 178.64C407.245 178.053 405.965 177.173 404.872 176C403.779 174.827 402.912 173.333 402.272 171.52C401.632 169.68 401.312 167.507 401.312 165C401.312 162.387 401.659 160.173 402.352 158.36C403.072 156.52 404.005 155.027 405.152 153.88C406.325 152.707 407.632 151.853 409.072 151.32C410.512 150.787 411.979 150.52 413.472 150.52C415.072 150.52 416.379 150.613 417.392 150.8C418.405 150.96 419.272 151.187 419.992 151.48L419.192 154.4C417.912 153.787 416.085 153.48 413.712 153.48C412.619 153.48 411.539 153.68 410.472 154.08C409.405 154.48 408.445 155.133 407.592 156.04C406.765 156.947 406.099 158.133 405.592 159.6C405.085 161.067 404.832 162.867 404.832 165C404.832 166.92 405.072 168.6 405.552 170.04C406.032 171.48 406.685 172.68 407.512 173.64C408.365 174.6 409.352 175.32 410.472 175.8C411.619 176.28 412.859 176.52 414.192 176.52C415.392 176.52 416.432 176.4 417.312 176.16C418.219 175.92 418.979 175.613 419.592 175.24L420.392 177.84Z" fill="white"/>
<path d="M16.6 388.04H14.72V401H11.4V373H14.72V386.04L16.52 385.48L25.92 373H29.76L20.4 385.04L18.72 386.36L20.76 387.96L31 401H26.8L16.6 388.04ZM39.4728 387C39.4728 382.333 40.4595 378.76 42.4328 376.28C44.4061 373.773 47.2195 372.52 50.8728 372.52C52.8461 372.52 54.5528 372.867 55.9928 373.56C57.4328 374.253 58.6195 375.24 59.5528 376.52C60.5128 377.773 61.2195 379.293 61.6728 381.08C62.1261 382.84 62.3528 384.813 62.3528 387C62.3528 391.667 61.3528 395.253 59.3528 397.76C57.3795 400.24 54.5528 401.48 50.8728 401.48C48.9261 401.48 47.2328 401.133 45.7928 400.44C44.3795 399.747 43.1928 398.773 42.2328 397.52C41.2995 396.24 40.6061 394.72 40.1528 392.96C39.6995 391.173 39.4728 389.187 39.4728 387ZM42.9928 387C42.9928 388.547 43.1395 390.013 43.4328 391.4C43.7528 392.787 44.2328 394.013 44.8728 395.08C45.5128 396.12 46.3261 396.96 47.3128 397.6C48.3261 398.213 49.5128 398.52 50.8728 398.52C53.3528 398.52 55.2995 397.587 56.7128 395.72C58.1261 393.827 58.8328 390.92 58.8328 387C58.8328 385.48 58.6728 384.027 58.3528 382.64C58.0595 381.227 57.5795 380 56.9128 378.96C56.2728 377.893 55.4461 377.053 54.4328 376.44C53.4461 375.8 52.2595 375.48 50.8728 375.48C48.4195 375.48 46.4861 376.427 45.0728 378.32C43.6861 380.187 42.9928 383.08 42.9928 387ZM95.0966 382.2L95.4966 378H95.2966L93.7766 381.84L86.4966 394.48H85.4966L77.7766 381.8L76.3366 378H76.1366L76.6966 382.16V401H73.5766V373H76.0566L84.8166 387.32L86.1366 390.44H86.2166L87.4566 387.24L95.8166 373H98.4166V401H95.0966V382.2ZM121.377 397.88C120.924 397.96 120.391 398.013 119.777 398.04C119.191 398.067 118.631 398.08 118.097 398.08C116.844 398.08 115.657 397.867 114.537 397.44C113.444 397.013 112.484 396.347 111.657 395.44C110.857 394.533 110.217 393.387 109.737 392C109.284 390.587 109.057 388.92 109.057 387C109.057 385.187 109.284 383.573 109.737 382.16C110.217 380.72 110.884 379.507 111.737 378.52C112.617 377.533 113.657 376.787 114.857 376.28C116.057 375.747 117.391 375.48 118.857 375.48C119.204 375.48 119.631 375.493 120.137 375.52C120.671 375.547 121.084 375.587 121.377 375.64V372.2H124.657V375.76C125.137 375.627 125.697 375.547 126.337 375.52C127.004 375.493 127.551 375.48 127.977 375.48C129.257 375.48 130.444 375.72 131.537 376.2C132.631 376.653 133.577 377.347 134.377 378.28C135.204 379.187 135.844 380.347 136.297 381.76C136.751 383.147 136.977 384.76 136.977 386.6C136.977 388.493 136.711 390.16 136.177 391.6C135.671 393.04 134.977 394.24 134.097 395.2C133.217 396.16 132.191 396.88 131.017 397.36C129.844 397.84 128.591 398.08 127.257 398.08C126.964 398.08 126.524 398.067 125.937 398.04C125.377 397.987 124.951 397.907 124.657 397.8V401.8H121.377V397.88ZM127.497 378.28C127.124 378.28 126.644 378.293 126.057 378.32C125.471 378.347 124.991 378.427 124.617 378.56V395.16C124.884 395.213 125.231 395.253 125.657 395.28C126.111 395.28 126.551 395.28 126.977 395.28C127.884 395.28 128.724 395.107 129.497 394.76C130.297 394.413 130.991 393.88 131.577 393.16C132.191 392.44 132.671 391.533 133.017 390.44C133.364 389.347 133.537 388.067 133.537 386.6C133.537 385.373 133.391 384.253 133.097 383.24C132.831 382.2 132.431 381.307 131.897 380.56C131.391 379.813 130.764 379.253 130.017 378.88C129.271 378.48 128.431 378.28 127.497 378.28ZM118.697 395.28C118.831 395.28 119.004 395.28 119.217 395.28C119.457 395.28 119.711 395.28 119.977 395.28C120.244 395.253 120.497 395.227 120.737 395.2C121.004 395.147 121.231 395.093 121.417 395.04V378.44C121.097 378.387 120.697 378.347 120.217 378.32C119.764 378.293 119.351 378.28 118.977 378.28C118.071 378.28 117.217 378.467 116.417 378.84C115.644 379.187 114.964 379.733 114.377 380.48C113.791 381.2 113.324 382.107 112.977 383.2C112.657 384.293 112.497 385.56 112.497 387C112.497 388.28 112.644 389.44 112.937 390.48C113.231 391.493 113.644 392.36 114.177 393.08C114.737 393.8 115.391 394.347 116.137 394.72C116.911 395.093 117.764 395.28 118.697 395.28ZM146.468 387C146.468 382.333 147.455 378.76 149.428 376.28C151.401 373.773 154.215 372.52 157.868 372.52C159.841 372.52 161.548 372.867 162.988 373.56C164.428 374.253 165.615 375.24 166.548 376.52C167.508 377.773 168.215 379.293 168.668 381.08C169.121 382.84 169.348 384.813 169.348 387C169.348 391.667 168.348 395.253 166.348 397.76C164.375 400.24 161.548 401.48 157.868 401.48C155.921 401.48 154.228 401.133 152.788 400.44C151.375 399.747 150.188 398.773 149.228 397.52C148.295 396.24 147.601 394.72 147.148 392.96C146.695 391.173 146.468 389.187 146.468 387ZM149.988 387C149.988 388.547 150.135 390.013 150.428 391.4C150.748 392.787 151.228 394.013 151.868 395.08C152.508 396.12 153.321 396.96 154.308 397.6C155.321 398.213 156.508 398.52 157.868 398.52C160.348 398.52 162.295 397.587 163.708 395.72C165.121 393.827 165.828 390.92 165.828 387C165.828 385.48 165.668 384.027 165.348 382.64C165.055 381.227 164.575 380 163.908 378.96C163.268 377.893 162.441 377.053 161.428 376.44C160.441 375.8 159.255 375.48 157.868 375.48C155.415 375.48 153.481 376.427 152.068 378.32C150.681 380.187 149.988 383.08 149.988 387ZM180.572 373.28C181.585 373.04 182.679 372.88 183.852 372.8C185.025 372.72 186.185 372.68 187.332 372.68C188.559 372.68 189.799 372.8 191.052 373.04C192.332 373.28 193.492 373.72 194.532 374.36C195.572 375 196.412 375.88 197.052 377C197.719 378.12 198.052 379.547 198.052 381.28C198.052 382.987 197.745 384.427 197.132 385.6C196.519 386.773 195.705 387.733 194.692 388.48C193.679 389.2 192.519 389.72 191.212 390.04C189.905 390.36 188.559 390.52 187.172 390.52C187.039 390.52 186.812 390.52 186.492 390.52C186.199 390.52 185.879 390.52 185.532 390.52C185.212 390.493 184.892 390.467 184.572 390.44C184.252 390.413 184.025 390.387 183.892 390.36V401H180.572V373.28ZM187.412 375.56C186.719 375.56 186.052 375.573 185.412 375.6C184.772 375.627 184.265 375.693 183.892 375.8V387.4C184.025 387.453 184.239 387.493 184.532 387.52C184.825 387.52 185.132 387.533 185.452 387.56C185.772 387.56 186.079 387.56 186.372 387.56C186.665 387.56 186.879 387.56 187.012 387.56C187.919 387.56 188.812 387.48 189.692 387.32C190.599 387.133 191.412 386.813 192.132 386.36C192.852 385.907 193.425 385.267 193.852 384.44C194.305 383.613 194.532 382.56 194.532 381.28C194.532 380.187 194.319 379.28 193.892 378.56C193.492 377.813 192.945 377.227 192.252 376.8C191.585 376.347 190.825 376.027 189.972 375.84C189.119 375.653 188.265 375.56 187.412 375.56ZM225.971 375.96H217.251V401H213.931V375.96H205.211V373H225.971V375.96ZM255.541 388.04H253.661V401H250.341V373H253.661V386.04L255.461 385.48L264.861 373H268.701L259.341 385.04L257.661 386.36L259.701 387.96L269.941 401H265.741L255.541 388.04ZM296.406 375.96H288.046C287.779 381.293 287.419 385.733 286.966 389.28C286.539 392.8 285.886 395.547 285.006 397.52C284.419 398.8 283.726 399.733 282.926 400.32C282.126 400.907 281.259 401.2 280.326 401.2C279.846 401.2 279.432 401.16 279.086 401.08C278.739 401.027 278.406 400.933 278.086 400.8L278.526 397.92C278.792 398 279.072 398.04 279.366 398.04C279.819 398.04 280.259 397.893 280.686 397.6C281.139 397.307 281.579 396.76 282.006 395.96C282.379 395.24 282.726 394.28 283.046 393.08C283.392 391.88 283.686 390.36 283.926 388.52C284.192 386.68 284.406 384.493 284.566 381.96C284.726 379.4 284.846 376.413 284.926 373H299.726V401H296.406V375.96ZM325.447 393.24H315.127L312.327 401H309.047L319.647 372.56H321.167L331.807 401H328.327L325.447 393.24ZM316.207 390.36H324.447L321.327 381.84L320.327 377.6H320.287L319.287 381.92L316.207 390.36ZM358.029 399.84C357.229 400.453 356.216 400.88 354.989 401.12C353.763 401.36 352.456 401.48 351.069 401.48C349.389 401.48 347.816 401.2 346.349 400.64C344.883 400.053 343.603 399.173 342.509 398C341.416 396.827 340.549 395.333 339.909 393.52C339.269 391.68 338.949 389.507 338.949 387C338.949 384.387 339.296 382.173 339.989 380.36C340.709 378.52 341.643 377.027 342.789 375.88C343.963 374.707 345.269 373.853 346.709 373.32C348.149 372.787 349.616 372.52 351.109 372.52C352.709 372.52 354.016 372.613 355.029 372.8C356.043 372.96 356.909 373.187 357.629 373.48L356.829 376.4C355.549 375.787 353.723 375.48 351.349 375.48C350.256 375.48 349.176 375.68 348.109 376.08C347.043 376.48 346.083 377.133 345.229 378.04C344.403 378.947 343.736 380.133 343.229 381.6C342.723 383.067 342.469 384.867 342.469 387C342.469 388.92 342.709 390.6 343.189 392.04C343.669 393.48 344.323 394.68 345.149 395.64C346.003 396.6 346.989 397.32 348.109 397.8C349.256 398.28 350.496 398.52 351.829 398.52C353.029 398.52 354.069 398.4 354.949 398.16C355.856 397.92 356.616 397.613 357.229 397.24L358.029 399.84ZM385.426 399.84C384.626 400.453 383.613 400.88 382.386 401.12C381.16 401.36 379.853 401.48 378.466 401.48C376.786 401.48 375.213 401.2 373.746 400.64C372.28 400.053 371 399.173 369.906 398C368.813 396.827 367.946 395.333 367.306 393.52C366.666 391.68 366.346 389.507 366.346 387C366.346 384.387 366.693 382.173 367.386 380.36C368.106 378.52 369.04 377.027 370.186 375.88C371.36 374.707 372.666 373.853 374.106 373.32C375.546 372.787 377.013 372.52 378.506 372.52C380.106 372.52 381.413 372.613 382.426 372.8C383.44 372.96 384.306 373.187 385.026 373.48L384.226 376.4C382.946 375.787 381.12 375.48 378.746 375.48C377.653 375.48 376.573 375.68 375.506 376.08C374.44 376.48 373.48 377.133 372.626 378.04C371.8 378.947 371.133 380.133 370.626 381.6C370.12 383.067 369.866 384.867 369.866 387C369.866 388.92 370.106 390.6 370.586 392.04C371.066 393.48 371.72 394.68 372.546 395.64C373.4 396.6 374.386 397.32 375.506 397.8C376.653 398.28 377.893 398.52 379.226 398.52C380.426 398.52 381.466 398.4 382.346 398.16C383.253 397.92 384.013 397.613 384.626 397.24L385.426 399.84ZM408.145 393.24H397.825L395.025 401H391.745L402.345 372.56H403.865L414.505 401H411.025L408.145 393.24ZM398.905 390.36H407.145L404.025 381.84L403.025 377.6H402.985L401.985 381.92L398.905 390.36Z" fill="white"/>
<path d="M34.95 288.15H29.55V333H9V228H29.55V274.5L34.35 272.4L63.3 228H86.7L56.1 272.1L48 277.8L56.4 283.65L91.35 333H66L34.95 288.15ZM102.018 228H164.268V246.3H122.568V270.75H160.518V289.05H122.568V314.7H165.018V333H102.018V228ZM180.387 229.05C182.687 228.65 185.137 228.3 187.737 228C190.437 227.6 193.087 227.3 195.687 227.1C198.387 226.9 200.987 226.75 203.487 226.65C205.987 226.55 208.287 226.5 210.387 226.5C215.287 226.5 220.087 226.95 224.787 227.85C229.587 228.75 233.837 230.3 237.537 232.5C241.337 234.7 244.337 237.75 246.537 241.65C248.837 245.45 249.987 250.25 249.987 256.05C249.987 264.65 247.987 271.65 243.987 277.05C239.987 282.45 234.637 286.2 227.937 288.3L235.287 292.95L259.287 333H235.587L211.737 291.9L200.937 289.95V333H180.387V229.05ZM211.887 244.8C209.787 244.8 207.687 244.85 205.587 244.95C203.587 245.05 202.037 245.25 200.937 245.55V276H209.637C215.337 276 219.887 274.7 223.287 272.1C226.687 269.5 228.387 265.2 228.387 259.2C228.387 254.7 226.987 251.2 224.187 248.7C221.387 246.1 217.287 244.8 211.887 244.8ZM272.721 228H293.271V333H272.721V228ZM394.845 278.55L397.095 257.7H396.195L389.745 274.5L367.395 313.65H360.795L337.245 274.35L330.645 257.7H329.895L332.895 278.4V333H313.395V228H332.145L360.195 276L365.145 288H365.745L370.245 275.7L396.795 228H415.395V333H394.845V278.55Z" fill="white"/>
<path d="M550.699 274.262C583.746 259.965 600.27 240.512 600.27 215.902C600.27 181.098 581.812 163.695 544.898 163.695C507.984 163.695 489.527 181.098 489.527 215.902H463.16C463.16 163.52 490.406 137.328 544.898 137.328C599.391 137.328 626.637 163.52 626.637 215.902C626.637 252.465 604.254 280.355 559.488 299.574L525.914 314.164C501.656 324.125 489.527 344.281 489.527 374.633H626.637V401H463.16V374.633C463.16 332.68 481.148 304.027 517.125 288.676L550.699 274.262Z" fill="white"/>
</svg>
