<svg width="27" height="27" viewBox="0 0 27 27" fill="none" xmlns="http://www.w3.org/2000/svg"><path d="M16.474 13.5L26.569 3.404A1.47 1.47 0 0027 2.36c0-.396-.153-.767-.431-1.044L25.684.43A1.465 1.465 0 0024.639 0c-.395 0-.765.153-1.044.431L13.5 10.526 3.405.431A1.463 1.463 0 002.361 0c-.395 0-.766.153-1.044.431l-.885.885a1.478 1.478 0 000 2.088L10.527 13.5.432 23.596c-.278.278-.43.649-.43 1.044s.152.766.43 1.044l.885.885c.278.278.649.431 1.044.431s.766-.153 1.044-.431L13.5 16.473 23.595 26.57c.278.278.649.431 1.044.431.396 0 .767-.153 1.045-.431l.884-.885c.278-.277.431-.649.431-1.044s-.153-.766-.43-1.044L16.473 13.5z" fill="#fff"/></svg>