<svg width="58" height="58" viewBox="0 0 58 58" fill="none" xmlns="http://www.w3.org/2000/svg">
<circle cx="29" cy="29" r="28.5" stroke="#0096FA"/>
<g clip-path="url(#clip0_29_642)">
<path d="M40.2893 43.7205L38.9418 24.5246C38.9152 24.1459 38.6405 23.8542 38.3105 23.8542H34.6931V22.931C34.6931 19.9019 32.5805 17.4375 29.9491 17.4375H29.8655C27.2342 17.4375 25.0654 19.9019 25.0654 22.931V23.8542H21.5042C21.1742 23.8542 20.8995 24.1459 20.8729 24.5246L19.5216 43.7746C19.5073 43.9776 19.5675 44.1781 19.6874 44.3277C19.8073 44.4773 19.9762 44.5625 20.153 44.5625H39.6617C39.6622 44.5625 39.6629 44.5625 39.6634 44.5625C40.0133 44.5625 40.2968 44.2361 40.2968 43.8333C40.2968 43.7949 40.2943 43.7572 40.2893 43.7205ZM26.3322 22.931C26.3322 20.706 27.9327 18.8958 29.8655 18.8958H29.9491C31.8819 18.8958 33.4263 20.706 33.4263 22.931V23.8542H26.3322V22.931Z" fill="#0096FA"/>
</g>
<defs>
<clipPath id="clip0_29_642">
<rect width="23.5625" height="25.375" fill="white" transform="translate(18.125 16.3125)"/>
</clipPath>
</defs>
</svg>
