<svg width="58" height="58" viewBox="0 0 58 58" fill="none" xmlns="http://www.w3.org/2000/svg">
<circle cx="29" cy="29" r="28.5" stroke="#0096FA"/>
<path fill-rule="evenodd" clip-rule="evenodd" d="M28.4245 16.1922C28.3465 16.2785 28.339 16.5044 28.339 18.7744V21.262L25.4692 24.1334C22.8435 26.7605 22.5994 27.0189 22.5994 27.1699C22.5994 27.354 22.6991 27.577 22.8301 27.6861C22.8912 27.737 23.1092 27.7653 23.5761 27.7831L24.2357 27.8083L24.249 29.4572L24.2622 31.1061H23.7556C22.9771 31.1061 22.8511 31.2193 22.8511 31.9191V32.264H22.2721H21.6931L21.6928 31.9494C21.6925 31.5355 21.6187 31.2859 21.4674 31.1868C21.3227 31.0919 20.6392 31.0737 20.4772 31.1604C20.3225 31.2433 20.2331 31.5179 20.2331 31.91V32.264H19.6792H19.1254V31.9191C19.1254 31.2699 18.9883 31.1061 18.445 31.1061C18.008 31.1061 17.8369 31.1954 17.7654 31.461C17.7296 31.5938 17.7159 32.2467 17.7258 33.3476L17.7409 35.031L17.8803 35.1705C18.0156 35.3058 18.0388 35.3106 18.647 35.3267L19.2742 35.3434L19.2879 38.4904L19.3016 41.6374L19.4429 41.7589L19.5842 41.8804H22.6006H25.6171L25.6312 38.9728L25.6454 36.0653L25.8062 35.7259C26.0759 35.1565 26.5506 34.7598 27.1558 34.5981C27.5092 34.5037 29.9239 34.5037 30.2773 34.5981C31.015 34.7952 31.5474 35.3276 31.7445 36.0653C31.7967 36.2607 31.8119 36.939 31.8123 39.0987L31.8129 41.8804H34.755C36.5065 41.8804 37.7483 41.8609 37.8237 41.8322C38.1092 41.7237 38.1063 41.7575 38.1063 38.413V35.3434L38.7402 35.3268C39.3633 35.3104 39.376 35.3077 39.4954 35.1688L39.6168 35.0275V33.1694C39.6168 31.3229 39.616 31.3107 39.5065 31.2087C39.4182 31.1265 39.329 31.1061 39.0567 31.1061C38.8699 31.1061 38.6578 31.1286 38.5855 31.1561C38.4037 31.2252 38.3077 31.4858 38.3077 31.91V32.264H37.7841H37.2605L37.2428 31.8065C37.2264 31.3778 37.2163 31.3414 37.084 31.2276C36.9642 31.1245 36.8899 31.1061 36.5955 31.1061C35.9962 31.1061 35.8996 31.2045 35.879 31.8361L35.8659 32.2389L35.2794 32.253L34.6928 32.2672L34.6752 31.8081C34.6587 31.3777 34.6487 31.3414 34.5163 31.2276C34.3856 31.1151 34.3339 31.1061 33.824 31.1061H33.273V29.4446V27.7831H33.8748C34.2341 27.7831 34.5298 27.7589 34.6086 27.723C34.8682 27.6047 34.9686 27.1766 34.7957 26.9258C34.6558 26.7231 29.2357 21.4329 29.1084 21.3749C28.994 21.3227 28.9935 21.3181 28.9935 20.2481V19.1738H30.9619C32.6841 19.1738 32.9474 19.1636 33.068 19.0924C33.3296 18.9378 33.3473 18.8657 33.365 17.8807C33.3792 17.0975 33.3691 16.9389 33.2954 16.7834C33.1393 16.4546 33.1432 16.4551 30.9721 16.4539L29.0187 16.4529L28.9431 16.2903C28.8817 16.158 28.8344 16.125 28.6888 16.1127C28.5639 16.1022 28.4843 16.1262 28.4245 16.1922Z" fill="#0096FA"/>
</svg>
