<svg width="58" height="58" viewBox="0 0 58 58" fill="none" xmlns="http://www.w3.org/2000/svg">
<circle cx="29" cy="29" r="28.5" stroke="#0096FA"/>
<path fill-rule="evenodd" clip-rule="evenodd" d="M28.5693 16.2467C27.9325 16.6016 16.4689 23.6865 16.3455 23.8015C16.08 24.0487 16.0423 24.5055 16.2642 24.7877C16.5023 25.0903 15.5233 25.0687 28.9973 25.0687C42.4713 25.0687 41.4923 25.0903 41.7303 24.7877C41.9522 24.5055 41.9146 24.0492 41.6491 23.801C41.5144 23.675 29.7466 16.4078 29.3485 16.2046C29.0819 16.0686 28.8681 16.0802 28.5693 16.2467ZM29.8526 20.6509C30.3601 20.9193 30.3904 21.611 29.9087 21.9328C29.7503 22.0386 29.6832 22.0471 29.0024 22.0469C28.3576 22.0467 28.247 22.0344 28.1031 21.9466C27.6016 21.6408 27.6231 20.9253 28.142 20.6509C28.3344 20.5491 28.4299 20.5363 28.9973 20.5363C29.5647 20.5363 29.6602 20.5491 29.8526 20.6509ZM17.9282 27.1303C17.9445 27.6574 17.9514 27.6876 18.0896 27.8317C18.169 27.9145 18.2936 28.0069 18.3665 28.0369C18.4607 28.0757 21.564 28.0877 29.0845 28.0784L39.67 28.0652L39.8597 27.8756L40.0493 27.6861L40.0664 27.1328L40.0834 26.5795H28.9973H17.9111L17.9282 27.1303ZM18.9271 33.2264V36.8531H20.4379H21.9488L21.9359 33.2397L21.9229 29.6263L20.425 29.613L18.9271 29.5997V33.2264ZM24.6167 33.2271V36.8531H26.1273H27.6378V33.2271V29.6012H26.1273H24.6167V33.2271ZM30.3568 33.2271V36.8531H31.8673H33.3778V33.2271V29.6012H31.8673H30.3568V33.2271ZM36.08 29.6348C36.0615 29.6532 36.0464 31.2849 36.0464 33.2607V36.8531H37.557H39.0675V33.2271V29.6012H37.5905C36.7782 29.6012 36.0984 29.6163 36.08 29.6348ZM16.4897 38.4835C16.1321 38.7 16.1119 38.7868 16.1095 40.1159C16.1071 41.4584 16.1334 41.5705 16.4993 41.7762L16.7001 41.8891H28.9935C41.215 41.8891 41.2881 41.8885 41.4857 41.7877C41.6136 41.7225 41.7205 41.6155 41.7858 41.4875C41.8787 41.3053 41.8872 41.192 41.8872 40.1265C41.8872 39.061 41.8787 38.9477 41.7858 38.7655C41.7205 38.6375 41.6136 38.5305 41.4857 38.4653C41.2881 38.3645 41.2153 38.3639 28.9867 38.3641L16.6864 38.3644L16.4897 38.4835Z" fill="#0096FA"/>
</svg>
