<svg width="58" height="58" viewBox="0 0 58 58" fill="none" xmlns="http://www.w3.org/2000/svg">
<circle cx="29" cy="29" r="28.5" stroke="#0096FA"/>
<g clip-path="url(#clip0_29_638)">
<path d="M44.6413 29.8075C44.6413 29.6391 44.5496 29.4934 44.4144 29.4138C44.9686 28.9047 45.3126 28.3159 45.3126 27.4755C45.3126 24.9984 42.2929 24.5105 42.2929 23.3711C42.2929 24.5105 39.2733 24.9984 39.2733 27.4755C39.2733 28.3158 39.6172 28.9046 40.1715 29.4137C40.0363 29.4933 39.9446 29.6389 39.9446 29.8075C39.9446 30.052 40.1362 30.2499 40.3775 30.263V32.7105C40.1362 32.7235 39.9446 32.9214 39.9446 33.1659C39.9446 33.4105 40.1362 33.6086 40.3775 33.6216V34.8995H34.7168V33.0356H34.0671V31.7523H34.0132C35.1585 30.637 35.8601 29.3407 35.8601 27.531C35.8601 22.4227 30.2086 21.0374 29.165 18.8898C29.3483 18.9354 29.5371 18.96 29.7275 18.96C30.4389 18.96 31.1033 18.6433 31.5503 18.0911C31.7058 17.8986 31.8297 17.6843 31.9185 17.4539L31.9323 17.4181L31.9001 17.439C31.5241 17.6827 31.0873 17.8115 30.6371 17.8115C30.1091 17.8115 29.5915 17.6281 29.1797 17.295C28.3974 16.6615 28.1131 15.6044 28.4724 14.6646L28.4861 14.6289L28.454 14.6497C28.2473 14.7839 28.0634 14.9496 27.9075 15.1424C27.5137 15.6288 27.3327 16.2395 27.3983 16.862C27.4638 17.4845 27.768 18.0442 28.2546 18.438C28.4428 18.5903 28.6538 18.71 28.877 18.7972C27.9543 20.9985 22.1399 22.3497 22.1399 27.5309C22.1399 29.3405 22.8412 30.6369 23.9866 31.7522H23.9328V33.0355H23.2832V34.8994H17.6223V33.6158C17.8639 33.6028 18.0561 33.4048 18.0561 33.1604C18.0561 32.9159 17.8639 32.7179 17.6223 32.7049V30.2573C17.8639 30.2442 18.0561 30.0463 18.0561 29.8018C18.0561 29.6335 17.9641 29.4879 17.8286 29.4084C18.3826 28.8994 18.7268 28.3106 18.7268 27.4702C18.7268 24.9931 15.7068 24.5049 15.7068 23.3654C15.7068 24.5048 12.6875 24.9931 12.6875 27.4702C12.6875 28.3107 13.0317 28.8995 13.5859 29.4084C13.4505 29.488 13.3586 29.6335 13.3586 29.8018C13.3586 30.0462 13.5507 30.2442 13.7919 30.2573V32.7049C13.5507 32.718 13.3586 32.9159 13.3586 33.1604C13.3586 33.4047 13.5507 33.6027 13.7919 33.6158V34.8994H13.7892V43.3711H17.5508V40.105C17.5508 38.7492 19.4934 37.8609 19.4934 37.8609C19.4934 37.8609 21.4357 38.7491 21.4357 40.105V43.3711H26.2762V38.7084C26.2762 36.8074 29.0001 35.562 29.0001 35.562C29.0001 35.562 31.7238 36.8074 31.7238 38.7084V43.3711H36.5643V40.105C36.5643 38.7492 38.5066 37.8609 38.5066 37.8609C38.5066 37.8609 40.4492 38.7491 40.4492 40.105V43.3711H44.2108V34.8995H44.2083V33.6216C44.4495 33.6087 44.6414 33.4106 44.6414 33.1659C44.6414 32.9214 44.4495 32.7234 44.2083 32.7105V30.263C44.4494 30.25 44.6413 30.052 44.6413 29.8075Z" fill="#0096FA"/>
</g>
<defs>
<clipPath id="clip0_29_638">
<rect width="32.625" height="32.625" fill="white" transform="translate(12.6875 12.6875)"/>
</clipPath>
</defs>
</svg>
