<svg width="220" height="220" viewBox="0 0 220 220" fill="none" xmlns="http://www.w3.org/2000/svg">
<path d="M109.341 118.682C114.5 118.682 118.682 114.5 118.682 109.341C118.682 104.182 114.5 100 109.341 100C104.182 100 100 104.182 100 109.341C100 114.5 104.182 118.682 109.341 118.682Z" fill="#FF4538"/>
<path d="M202.241 114.012L202.317 112.981L195.208 112.459L195.342 110.638L210.7 111.766L210.567 113.587L203.414 113.062L203.648 114.072L210.115 119.73L209.961 121.837L203.734 116.218L203.077 115.243L202.117 116.298L194.552 121.389L194.721 119.085L202.241 114.012Z" fill="#1E1E1E" fill-opacity="0.5"/>
<path d="M209.195 126.996L207.374 135.178L205.785 134.824L207.209 128.425L202.292 127.33L200.987 133.193L199.398 132.839L200.703 126.977L195.355 125.787L193.907 132.293L192.318 131.94L194.163 123.65L209.195 126.996Z" fill="#1E1E1E" fill-opacity="0.5"/>
<path d="M205.613 140.972C205.505 141.528 205.347 142.152 205.139 142.842C204.926 143.546 204.71 144.178 204.49 144.738C204.243 145.366 203.942 145.933 203.586 146.439C203.224 146.959 202.803 147.369 202.323 147.669C201.838 147.983 201.292 148.17 200.685 148.231C200.078 148.293 199.412 148.181 198.689 147.897C197.569 147.458 196.782 146.794 196.327 145.907C195.872 145.019 195.713 144.059 195.85 143.026L194.707 143.711L187.636 145.048L188.415 143.062L196.151 141.536L197.246 139.65L190.754 137.102L191.421 135.403L205.613 140.972ZM202.999 144.2C203.069 144.023 203.141 143.838 203.216 143.647C203.291 143.456 203.357 143.269 203.413 143.086C203.469 142.903 203.522 142.727 203.573 142.558C203.618 142.403 203.646 142.272 203.656 142.166L198.372 140.092L197.745 141.689C197.376 142.632 197.302 143.501 197.525 144.297C197.749 145.094 198.352 145.685 199.335 146.071C200.072 146.36 200.779 146.346 201.455 146.028C202.131 145.711 202.646 145.101 202.999 144.2Z" fill="#1E1E1E" fill-opacity="0.5"/>
<path d="M199.021 156.531L198.145 158.133L184.633 150.744L185.509 149.142L199.021 156.531Z" fill="#1E1E1E" fill-opacity="0.5"/>
<path d="M183.917 170.305L185.627 171.874L185.693 171.786L184.512 169.846L181.38 162.46L181.712 162.021L189.835 162.838L191.98 163.466L192.047 163.379L190.036 162.245L181.769 155.998L182.803 154.629L195.09 163.913L194.267 165.002L185.079 164.097L183.272 163.641L183.246 163.677L184.238 165.282L187.715 173.672L186.853 174.813L174.566 165.528L175.667 164.071L183.917 170.305Z" fill="#1E1E1E" fill-opacity="0.5"/>
<path d="M173.6 183.13C173.07 182.56 172.633 181.875 172.289 181.074C171.944 180.293 171.663 179.443 171.448 178.522C171.221 177.61 171.048 176.67 170.928 175.701C170.817 174.742 170.732 173.81 170.671 172.905L170.817 171.478L170.757 171.414L169.89 172.55L166.378 175.815L165.269 174.623L171.682 168.661L172.116 169.128C172.11 169.595 172.11 170.166 172.116 170.84C172.123 171.515 172.154 172.238 172.209 173.007C172.263 173.798 172.348 174.6 172.464 175.414C172.579 176.248 172.736 177.053 172.936 177.828C173.126 178.614 173.369 179.339 173.667 180.003C173.964 180.668 174.323 181.226 174.742 181.677C175.232 182.203 175.786 182.498 176.407 182.562C177.037 182.637 177.658 182.39 178.271 181.821C178.679 181.441 178.996 180.986 179.223 180.454C179.46 179.934 179.618 179.436 179.698 178.962L181.083 179.386C181.007 180.057 180.796 180.724 180.45 181.386C180.104 182.048 179.636 182.654 179.045 183.203C178.583 183.633 178.11 183.942 177.626 184.132C177.152 184.333 176.676 184.425 176.2 184.407C175.723 184.39 175.26 184.269 174.812 184.045C174.373 183.832 173.969 183.527 173.6 183.13Z" fill="#1E1E1E" fill-opacity="0.5"/>
<path d="M155.946 189.887L151.266 192.424L150.49 190.993L155.171 188.456L155.946 189.887Z" fill="#1E1E1E" fill-opacity="0.5"/>
<path d="M133.733 199.055L134.738 198.811L133.057 191.884L134.832 191.453L138.463 206.419L136.689 206.85L134.998 199.88L134.108 200.413L130.703 208.302L128.65 208.8L132.091 201.151L132.818 200.228L131.52 199.637L124.356 193.995L126.601 193.451L133.733 199.055Z" fill="#1E1E1E" fill-opacity="0.5"/>
<path d="M123.383 209.634L115.034 210.377L114.89 208.755L121.42 208.175L120.974 203.156L114.992 203.688L114.847 202.067L120.83 201.535L120.345 196.078L113.705 196.669L113.561 195.047L122.019 194.295L123.383 209.634Z" fill="#1E1E1E" fill-opacity="0.5"/>
<path d="M108.716 210.448C108.153 210.514 107.511 210.553 106.79 210.564C106.054 210.575 105.386 210.56 104.786 210.521C104.113 210.477 103.481 210.362 102.891 210.176C102.286 209.989 101.768 209.713 101.336 209.346C100.89 208.979 100.545 208.515 100.303 207.956C100.06 207.396 99.9646 206.728 100.016 205.953C100.094 204.752 100.488 203.801 101.195 203.098C101.903 202.395 102.77 201.952 103.796 201.769L102.795 200.888L99.3751 194.556L101.504 194.696L105.306 201.604L107.436 202.075L107.893 195.116L109.715 195.235L108.716 210.448ZM104.846 208.938C105.037 208.95 105.234 208.963 105.439 208.977C105.644 208.99 105.842 208.996 106.033 208.993C106.224 208.991 106.408 208.989 106.585 208.986C106.747 208.982 106.88 208.968 106.984 208.946L107.356 203.282L105.644 203.169C104.634 203.103 103.784 203.297 103.092 203.751C102.401 204.206 102.021 204.96 101.952 206.014C101.9 206.804 102.128 207.473 102.636 208.021C103.143 208.569 103.88 208.874 104.846 208.938Z" fill="#1E1E1E" fill-opacity="0.5"/>
<path d="M92.0591 208.917L90.2655 208.575L93.1508 193.448L94.9444 193.79L92.0591 208.917Z" fill="#1E1E1E" fill-opacity="0.5"/>
<path d="M74.3295 198.732L73.3592 200.84L73.4631 200.876L74.9494 199.159L81.0239 193.918L81.543 194.1L83.2488 202.084L83.3065 204.319L83.4103 204.355L83.8749 202.094L87.2955 192.312L88.9153 192.879L83.8316 207.416L82.5441 206.965L80.5961 197.94L80.4773 196.081L80.4357 196.066L79.211 197.503L72.2853 203.378L70.9355 202.906L76.0192 188.369L77.7428 188.972L74.3295 198.732Z" fill="#1E1E1E" fill-opacity="0.5"/>
<path d="M58.9649 192.764C59.3478 192.088 59.8693 191.464 60.5292 190.894C61.1691 190.329 61.8956 189.805 62.7087 189.322C63.509 188.831 64.3531 188.382 65.2411 187.975C66.1218 187.58 66.9845 187.217 67.8291 186.886L69.2333 186.594L69.2766 186.518L67.9321 186.035L63.7586 183.672L64.5607 182.255L72.1803 186.569L71.8659 187.124C71.4189 187.259 70.8748 187.431 70.2334 187.641C69.5921 187.851 68.9127 188.098 68.1953 188.383C67.4578 188.673 66.7187 188.997 65.9779 189.352C65.2171 189.714 64.4973 190.107 63.8187 190.532C63.1272 190.949 62.5096 191.4 61.9657 191.884C61.4219 192.369 60.9983 192.879 60.6948 193.415C60.3407 194.04 60.2267 194.658 60.3529 195.269C60.4718 195.892 60.895 196.41 61.6225 196.822C62.1075 197.097 62.6375 197.262 63.2126 197.318C63.7805 197.386 64.3026 197.387 64.7789 197.32L64.7929 198.769C64.1294 198.899 63.4299 198.899 62.6945 198.769C61.959 198.639 61.2403 198.375 60.5383 197.978C59.9895 197.667 59.5515 197.31 59.2242 196.905C58.8897 196.514 58.6588 196.088 58.5315 195.628C58.4041 195.168 58.3795 194.691 58.4575 194.196C58.5284 193.714 58.6975 193.236 58.9649 192.764Z" fill="#1E1E1E" fill-opacity="0.5"/>
<path d="M47.219 177.992L43.3866 174.297L44.5167 173.125L48.3491 176.821L47.219 177.992Z" fill="#1E1E1E" fill-opacity="0.5"/>
<path d="M31.8123 159.722L32.3512 160.604L38.4343 156.889L39.3861 158.447L26.2436 166.474L25.2918 164.916L31.4125 161.177L30.6336 160.493L22.081 159.659L20.9801 157.856L29.3147 158.798L30.4159 159.208L30.5821 157.792L33.7672 149.247L34.9713 151.219L31.8123 159.722Z" fill="#1E1E1E" fill-opacity="0.5"/>
<path d="M18.575 153.13L15.3098 145.41L16.8092 144.776L19.3631 150.814L24.0031 148.851L21.6634 143.32L23.1628 142.685L25.5025 148.217L30.5477 146.083L27.951 139.944L29.4504 139.309L32.7585 147.131L18.575 153.13Z" fill="#1E1E1E" fill-opacity="0.5"/>
<path d="M13.4153 139.778C13.1802 139.262 12.9468 138.663 12.7151 137.98C12.4799 137.283 12.2892 136.643 12.1429 136.06C11.9788 135.405 11.8948 134.769 11.8909 134.15C11.8833 133.517 11.9879 132.939 12.2045 132.416C12.4176 131.878 12.7534 131.408 13.212 131.006C13.6706 130.604 14.2769 130.308 15.0309 130.119C16.1975 129.827 17.2238 129.91 18.1098 130.368C18.9959 130.826 19.6829 131.516 20.1708 132.437L20.7036 131.215L25.6837 126.02L26.2027 128.089L20.7907 133.824L20.9949 135.995L27.7596 134.299L28.2036 136.07L13.4153 139.778ZM13.6687 135.632C13.715 135.817 13.7632 136.009 13.8131 136.208C13.8631 136.407 13.9183 136.598 13.9789 136.779C14.0395 136.96 14.0983 137.135 14.1553 137.302C14.2088 137.455 14.2622 137.577 14.3157 137.67L19.8213 136.29L19.404 134.625C19.1578 133.643 18.7127 132.893 18.0685 132.374C17.4243 131.855 16.59 131.724 15.5657 131.981C14.7975 132.174 14.2304 132.596 13.8645 133.247C13.4985 133.898 13.4333 134.693 13.6687 135.632Z" fill="#1E1E1E" fill-opacity="0.5"/>
<path d="M9.73864 123.279L9.521 121.466L24.8112 119.63L25.0289 121.443L9.73864 123.279Z" fill="#1E1E1E" fill-opacity="0.5"/>
<path d="M14.0253 103.188L11.7221 102.906L11.7191 103.016L13.8077 103.909L20.649 108.099L20.6342 108.649L13.548 112.705L11.4374 113.44L11.4344 113.55L13.7299 113.304L24.0881 113.584L24.0418 115.299L8.64738 114.883L8.68423 113.52L16.6875 108.916L18.4225 108.237L18.4237 108.193L16.6828 107.464L8.97782 102.656L9.01645 101.226L24.4108 101.642L24.3615 103.467L14.0253 103.188Z" fill="#1E1E1E" fill-opacity="0.5"/>
<path d="M14.9777 86.6965C15.7389 86.8538 16.4921 87.1591 17.237 87.6126C17.9706 88.0487 18.6921 88.5797 19.4015 89.2055C20.1138 89.817 20.8 90.4829 21.4598 91.2033C22.1053 91.9208 22.7149 92.6308 23.2886 93.3335L23.9969 94.5806L24.0831 94.5984L24.131 93.1705L25.1015 88.4737L26.6958 88.8032L24.9241 97.378L24.2993 97.2489C24.0342 96.8647 23.7035 96.3995 23.3071 95.8533C22.9108 95.3072 22.4671 94.7362 21.9762 94.1406C21.4738 93.5276 20.9398 92.923 20.374 92.3269C19.7969 91.7134 19.2022 91.1487 18.5899 90.6328C17.9806 90.1026 17.3621 89.6528 16.7346 89.2835C16.107 88.9142 15.4915 88.6672 14.8883 88.5426C14.1845 88.3972 13.5612 88.4781 13.0185 88.7853C12.4614 89.0895 12.0983 89.651 11.9291 90.4697C11.8164 91.0155 11.8215 91.5707 11.9444 92.1352C12.053 92.6968 12.2124 93.194 12.4225 93.6268L11.0475 94.0841C10.7205 93.4923 10.5061 92.8265 10.4044 92.0866C10.3027 91.3467 10.3334 90.5818 10.4967 89.7918C10.6243 89.1742 10.8304 88.6477 11.1151 88.2123C11.3854 87.7739 11.7198 87.4236 12.1184 87.1615C12.517 86.8994 12.964 86.7297 13.4592 86.6523C13.9401 86.572 14.4462 86.5867 14.9777 86.6965Z" fill="#1E1E1E" fill-opacity="0.5"/>
<path d="M25.4853 70.8687L27.8474 66.0973L29.3064 66.8196L26.9443 71.591L25.4853 70.8687Z" fill="#1E1E1E" fill-opacity="0.5"/>
<path d="M38.1083 50.7721L37.4293 51.552L42.8053 56.2324L41.6063 57.6096L29.9915 47.4975L31.1905 46.1203L36.5997 50.8297L37.0175 49.8808L35.2353 41.4744L36.6221 39.8815L38.2362 48.1124L38.177 49.286L39.5775 49.0176L48.6848 49.4792L47.168 51.2215L38.1083 50.7721Z" fill="#1E1E1E" fill-opacity="0.5"/>
<path d="M40.2455 36.2437L46.6072 30.786L47.6672 32.0216L42.6914 36.2904L45.9718 40.1141L50.5302 36.2034L51.5902 37.439L47.0318 41.3497L50.5987 45.5073L55.658 41.1669L56.718 42.4025L50.2729 47.9319L40.2455 36.2437Z" fill="#1E1E1E" fill-opacity="0.5"/>
<path d="M51.4798 27.145C51.8991 26.7638 52.3986 26.3587 52.9782 25.9298C53.5703 25.4931 54.1217 25.1162 54.6326 24.799C55.2058 24.4431 55.7865 24.1688 56.3747 23.9762C56.9754 23.7759 57.5578 23.6991 58.122 23.7459C58.6987 23.7849 59.2485 23.9614 59.7715 24.2754C60.2945 24.5895 60.7611 25.0767 61.1711 25.7371C61.8055 26.7588 62.0396 27.7615 61.8735 28.7451C61.7073 29.7287 61.2601 30.5933 60.5319 31.339L61.8584 31.4735L68.3251 34.6315L66.5121 35.7571L59.4002 32.3524L57.3945 33.2093L61.0732 39.1342L59.5219 40.0974L51.4798 27.145ZM55.5055 26.1214C55.3435 26.222 55.1753 26.3265 55.0009 26.4348C54.8264 26.5431 54.6621 26.6538 54.5078 26.7668C54.3536 26.8798 54.2056 26.989 54.0638 27.0943C53.9345 27.1919 53.8339 27.2802 53.7622 27.3593L56.7562 32.1814L58.2141 31.2762C59.0738 30.7424 59.6525 30.0896 59.9502 29.3178C60.2479 28.546 60.1182 27.7115 59.5612 26.8144C59.1434 26.1415 58.5686 25.7302 57.8368 25.5803C57.105 25.4305 56.3279 25.6108 55.5055 26.1214Z" fill="#1E1E1E" fill-opacity="0.5"/>
<path d="M66.2037 18.5139L67.8634 17.7527L74.2828 31.751L72.623 32.5121L66.2037 18.5139Z" fill="#1E1E1E" fill-opacity="0.5"/>
<path d="M86.2423 16.5777L85.8072 14.2984L85.7016 14.3292L85.4899 16.5907L83.591 24.3854L83.063 24.5393L77.0353 19.0318L75.6901 17.2469L75.5845 17.2777L76.5204 19.3881L79.4197 29.3363L77.7722 29.8164L73.4633 15.0315L74.7728 14.6499L81.6021 20.8632L82.7792 22.3075L82.8215 22.2952L82.9838 20.4147L85.2067 11.609L86.5796 11.2089L90.8885 25.9938L89.1355 26.5047L86.2423 16.5777Z" fill="#1E1E1E" fill-opacity="0.5"/>
<path d="M102.618 12.3918C102.698 13.1649 102.635 13.9751 102.429 14.8225C102.236 15.6538 101.948 16.5022 101.567 17.3679C101.2 18.232 100.773 19.0876 100.287 19.9348C99.7985 20.7674 99.3066 21.5634 98.8108 22.3231L97.837 23.376L97.8461 23.4635L99.2213 23.0765L103.991 22.5782L104.161 24.1973L95.4519 25.1071L95.3856 24.4726C95.6715 24.1036 96.0146 23.6474 96.415 23.1042C96.8154 22.561 97.2251 21.9652 97.644 21.3169C98.0759 20.6524 98.4902 19.9603 98.8869 19.2405C99.2967 18.5046 99.6546 17.7667 99.9607 17.0269C100.281 16.2856 100.523 15.5599 100.684 14.8499C100.846 14.1399 100.895 13.4786 100.831 12.866C100.756 12.1512 100.49 11.5817 100.033 11.1576C99.5745 10.7189 98.9294 10.543 98.098 10.6298C97.5437 10.6878 97.0161 10.8608 96.5154 11.1491C96.0131 11.4228 95.5875 11.7253 95.2387 12.0567L94.3864 10.8849C94.8512 10.3939 95.4208 9.98788 96.0951 9.66674C96.7693 9.34561 97.5076 9.14314 98.3099 9.05932C98.9372 8.99379 99.5014 9.03069 100.003 9.17004C100.502 9.2948 100.937 9.5074 101.308 9.80786C101.678 10.1083 101.976 10.4828 102.199 10.9313C102.422 11.3652 102.561 11.852 102.618 12.3918Z" fill="#1E1E1E" fill-opacity="0.5"/>
<path d="M121.114 17.5994L126.378 18.396L126.134 20.0057L120.87 19.2091L121.114 17.5994Z" fill="#1E1E1E" fill-opacity="0.5"/>
<path d="M137.676 21.2175L136.7 20.8761L134.347 27.6046L132.624 27.0018L137.707 12.4651L139.431 13.0679L137.064 19.8378L138.1 19.8739L145.246 15.1013L147.239 15.7985L140.194 20.3499L139.082 20.7302L139.851 21.9312L142.799 30.5604L140.619 29.7978L137.676 21.2175Z" fill="#1E1E1E" fill-opacity="0.5"/>
<path d="M152.358 17.9915L159.771 21.9038L159.011 23.3436L153.213 20.2836L150.862 24.7391L156.174 27.5424L155.414 28.9822L150.102 26.1789L147.545 31.0236L153.44 34.135L152.681 35.5747L145.17 31.611L152.358 17.9915Z" fill="#1E1E1E" fill-opacity="0.5"/>
<path d="M165.035 25.1799C165.543 25.4303 166.103 25.7465 166.715 26.1286C167.338 26.5193 167.891 26.8943 168.373 27.2533C168.915 27.6561 169.383 28.0959 169.777 28.5726C170.184 29.058 170.469 29.5718 170.632 30.1139C170.807 30.6647 170.845 31.241 170.744 31.8427C170.644 32.4444 170.361 33.057 169.897 33.6806C169.179 34.6453 168.332 35.2307 167.356 35.4367C166.38 35.6426 165.412 35.5435 164.451 35.1393L164.812 36.4228L164.244 43.5969L162.532 42.3228L163.093 34.4579L161.561 32.9058L157.397 38.5003L155.932 37.41L165.035 25.1799ZM167.463 28.5502C167.31 28.4364 167.151 28.3182 166.986 28.1956C166.822 28.073 166.659 27.9606 166.497 27.8586C166.335 27.7565 166.179 27.6588 166.029 27.5655C165.891 27.4809 165.772 27.4197 165.672 27.382L162.283 31.9352L163.66 32.9598C164.472 33.564 165.291 33.8631 166.118 33.8572C166.946 33.8512 167.674 33.4247 168.305 32.5776C168.778 31.9423 168.95 31.2567 168.821 30.5209C168.692 29.7851 168.239 29.1282 167.463 28.5502Z" fill="#1E1E1E" fill-opacity="0.5"/>
<path d="M177.871 35.1779L179.194 36.4358L168.585 47.5987L167.262 46.3408L177.871 35.1779Z" fill="#1E1E1E" fill-opacity="0.5"/>
<path d="M187.626 53.6698L189.583 52.4239L189.516 52.3371L187.336 52.9754L179.391 54.0884L179.053 53.6545L181.946 46.0193L183.108 44.1102L183.04 44.0234L181.425 45.6723L173.25 52.0396L172.195 50.6858L184.345 41.2227L185.183 42.2988L181.93 50.9396L181.022 52.5668L181.049 52.6015L182.857 52.0581L191.861 50.8729L192.74 52.0011L180.59 61.4642L179.468 60.0236L187.626 53.6698Z" fill="#1E1E1E" fill-opacity="0.5"/>
<path d="M197.345 66.9549C196.658 67.3177 195.883 67.5611 195.019 67.6851C194.176 67.8151 193.281 67.8643 192.336 67.8326C191.397 67.8139 190.444 67.7364 189.477 67.6002C188.522 67.4571 187.6 67.297 186.711 67.1197L185.371 66.6079L185.293 66.649L186.164 67.7812L188.403 72.0228L186.963 72.7826L182.876 65.0389L183.44 64.7412C183.889 64.8691 184.44 65.0177 185.094 65.187C185.747 65.3564 186.452 65.5147 187.21 65.6621C187.988 65.8156 188.784 65.9424 189.6 66.0426C190.436 66.1489 191.254 66.2064 192.054 66.215C192.862 66.2366 193.625 66.1903 194.344 66.0761C195.063 65.9619 195.695 65.761 196.24 65.4735C196.876 65.1381 197.305 64.6792 197.529 64.097C197.765 63.5079 197.688 62.8436 197.298 62.1043C197.038 61.6114 196.681 61.1862 196.227 60.8288C195.786 60.4645 195.346 60.1822 194.909 59.9819L195.679 58.7545C196.308 59.0032 196.897 59.3806 197.446 59.8868C197.995 60.393 198.458 61.0029 198.834 61.7163C199.129 62.274 199.305 62.8114 199.362 63.3284C199.432 63.8386 199.397 64.3216 199.256 64.7774C199.115 65.2332 198.878 65.6484 198.545 66.0232C198.225 66.391 197.825 66.7016 197.345 66.9549Z" fill="#1E1E1E" fill-opacity="0.5"/>
<path d="M199.302 85.8193L200.518 91.0026L198.933 91.3744L197.717 86.1911L199.302 85.8193Z" fill="#1E1E1E" fill-opacity="0.5"/>
</svg>
