<svg width="208" height="57" viewBox="0 0 208 57" fill="none" xmlns="http://www.w3.org/2000/svg"><path fill-rule="evenodd" clip-rule="evenodd" d="M6 0a6 6 0 00-6 6v35a6 6 0 006 6h50.732l5.453 9.444L67.636 47H202a6 6 0 006-6V6a6 6 0 00-6-6H6z" fill="#9D8140"/><path d="M32.214 20.54l.18-1.89h-.09l-.684 1.728-3.276 5.688h-.45L24.42 20.36l-.648-1.71h-.09l.252 1.872V29H22.53V16.4h1.116l3.942 6.444.594 1.404h.036l.558-1.44 3.762-6.408h1.17V29h-1.494v-8.46zm3.906 3.96c0-1.524.336-2.688 1.008-3.492.684-.816 1.662-1.224 2.934-1.224.672 0 1.254.114 1.746.342.504.216.918.534 1.242.954.324.408.564.906.72 1.494.156.576.234 1.218.234 1.926 0 1.524-.342 2.694-1.026 3.51-.672.804-1.644 1.206-2.916 1.206-.672 0-1.26-.108-1.764-.324a3.319 3.319 0 01-1.224-.954 4.222 4.222 0 01-.72-1.494 7.573 7.573 0 01-.234-1.944zm1.494 0c0 .456.042.894.126 1.314.096.42.24.786.432 1.098.192.312.444.564.756.756.312.192.69.288 1.134.288 1.632.012 2.448-1.14 2.448-3.456 0-.468-.048-.912-.144-1.332a3.32 3.32 0 00-.414-1.098 2.12 2.12 0 00-.756-.738c-.312-.192-.69-.288-1.134-.288-1.632-.012-2.448 1.14-2.448 3.456zm14.799 3.906c-.36.264-.786.462-1.278.594a5.483 5.483 0 01-1.548.216c-.696 0-1.284-.108-1.764-.324a3.197 3.197 0 01-1.188-.954c-.3-.42-.522-.918-.666-1.494a8.883 8.883 0 01-.198-1.944c0-1.524.336-2.688 1.008-3.492.672-.816 1.638-1.224 2.898-1.224.576 0 1.062.048 1.458.144.408.084.774.21 1.098.378l-.414 1.242a3.66 3.66 0 00-.918-.36 3.915 3.915 0 00-1.08-.144c-1.704 0-2.556 1.152-2.556 3.456 0 .456.042.894.126 1.314.096.408.246.774.45 1.098.216.312.492.564.828.756.348.192.774.288 1.278.288.432 0 .816-.066 1.152-.198.348-.132.63-.282.846-.45l.468 1.098zm7.444-7.146H57.03V29h-1.44v-7.74h-2.827V20h7.092v1.26zm11.174 3.762h-4.068V29h-1.44v-9h1.44v3.762h4.068V20h1.44v9h-1.44v-3.978zm4.068-4.356a5.19 5.19 0 011.584-.612 9.026 9.026 0 011.908-.198c.624 0 1.122.084 1.494.252.384.168.672.39.864.666.204.264.336.558.396.882.072.324.108.648.108.972 0 .72-.018 1.422-.054 2.106a37.07 37.07 0 00-.054 1.944c0 .444.018.864.054 1.26.036.396.102.762.198 1.098h-1.062l-.378-1.26h-.09a3.061 3.061 0 01-.414.504c-.156.156-.348.3-.576.432a3.812 3.812 0 01-1.818.432c-.384 0-.744-.06-1.08-.18a2.6 2.6 0 01-.846-.504 2.618 2.618 0 01-.576-.81 2.703 2.703 0 01-.198-1.062c0-.528.108-.966.324-1.314.216-.36.516-.642.9-.846a4.293 4.293 0 011.404-.45 10.638 10.638 0 011.818-.144h.486c.168 0 .336.012.504.036.036-.36.054-.684.054-.972 0-.66-.132-1.122-.396-1.386-.264-.264-.744-.396-1.44-.396-.204 0-.426.018-.666.054a5.686 5.686 0 00-.72.126c-.24.048-.474.114-.702.198a3.198 3.198 0 00-.576.252l-.45-1.08zm2.556 7.218c.336 0 .636-.042.9-.126.264-.096.492-.21.684-.342.192-.144.348-.3.468-.468.132-.168.228-.33.288-.486v-1.494a7.33 7.33 0 00-.522-.018 8.3 8.3 0 00-1.602.054 3.15 3.15 0 00-.936.234c-.264.108-.48.264-.648.468-.156.192-.234.438-.234.738 0 .42.15.768.45 1.044.3.264.684.396 1.152.396zM94.39 21.26h-3.978V29h-1.44v-9h6.858v9h-1.44v-7.74zM98.605 20h.99l.27 1.08h.072c.276-.42.63-.738 1.062-.954a3.262 3.262 0 011.512-.342c1.2 0 2.094.354 2.682 1.062.588.708.882 1.866.882 3.474 0 .756-.102 1.44-.306 2.052a4.36 4.36 0 01-.828 1.53 3.65 3.65 0 01-1.314.972 4.06 4.06 0 01-1.692.342c-.444 0-.798-.03-1.062-.09a3.888 3.888 0 01-.828-.27V32.6h-1.44V20zm3.636 1.044c-.612 0-1.098.162-1.458.486-.348.312-.594.792-.738 1.44v4.464c.216.168.462.3.738.396.276.084.642.126 1.098.126.828 0 1.482-.306 1.962-.918.492-.624.738-1.536.738-2.736 0-.492-.042-.936-.126-1.332a2.748 2.748 0 00-.414-1.026c-.18-.288-.42-.51-.72-.666-.288-.156-.648-.234-1.08-.234zm5.387 7.128c0-.324.09-.576.27-.756.192-.192.444-.288.756-.288.324 0 .582.096.774.288.192.18.288.432.288.756 0 .312-.096.564-.288.756-.192.192-.45.288-.774.288-.312 0-.564-.096-.756-.288-.18-.192-.27-.444-.27-.756zm10.909-5.13l.468 1.602h.09l.36-1.656 2.412-6.588h1.53l-3.186 8.19a48.35 48.35 0 01-.864 2.142c-.24.564-.486 1.026-.738 1.386-.252.348-.522.6-.81.756-.288.144-.642.216-1.062.216-.396 0-.714-.03-.954-.09a2.666 2.666 0 01-.648-.306l.45-1.242c.24.132.462.216.666.252.204.036.39.054.558.054.336 0 .618-.168.846-.504.228-.348.426-.858.594-1.53l-4.662-9.324h1.728l3.222 6.642zm9.484-1.782h-2.61c-.036.504-.072 1.05-.108 1.638a29.51 29.51 0 01-.162 1.746 18.015 18.015 0 01-.288 1.674c-.12.528-.276.996-.468 1.404-.18.408-.408.738-.684.99-.264.24-.582.36-.954.36-.228 0-.426-.012-.594-.036a1.646 1.646 0 01-.45-.126l.216-1.206c.144.048.3.072.468.072.24 0 .456-.102.648-.306.192-.204.36-.588.504-1.152.144-.576.264-1.368.36-2.376.096-1.008.162-2.322.198-3.942h5.364v9h-1.44v-7.74zm5.651 6.48c.444.072.87.108 1.278.108.756 0 1.284-.144 1.584-.432.3-.3.45-.72.45-1.26 0-.48-.15-.876-.45-1.188-.288-.312-.798-.468-1.53-.468-.204 0-.426.006-.666.018-.24.012-.462.048-.666.108v3.114zm0-4.302c.288-.048.564-.078.828-.09.264-.024.516-.036.756-.036.612 0 1.122.072 1.53.216.42.132.756.318 1.008.558.252.24.426.528.522.864.108.324.162.672.162 1.044 0 1.092-.306 1.884-.918 2.376-.6.492-1.578.738-2.934.738-.768 0-1.566-.036-2.394-.108v-9h1.44v3.438zM139.9 20h1.44v9h-1.44v-9zm18.673 11.322h-1.026l-.27-2.322h-8.838l-.27 2.322h-1.044v-3.654h1.278c.096-.132.24-.438.432-.918.204-.492.402-1.188.594-2.088.204-.912.384-2.046.54-3.402.156-1.368.234-2.988.234-4.86h6.732v11.268h1.638v3.654zm-3.132-3.654v-9.936h-3.834a48.253 48.253 0 01-.216 3.564 34.079 34.079 0 01-.36 2.808c-.144.804-.306 1.5-.486 2.088-.18.588-.366 1.08-.558 1.476h5.454zm4.877-7.002a5.19 5.19 0 011.584-.612 9.026 9.026 0 011.908-.198c.624 0 1.122.084 1.494.252.384.168.672.39.864.666.204.264.336.558.396.882.072.324.108.648.108.972 0 .72-.018 1.422-.054 2.106a37.07 37.07 0 00-.054 1.944c0 .444.018.864.054 1.26.036.396.102.762.198 1.098h-1.062l-.378-1.26h-.09a3.061 3.061 0 01-.414.504c-.156.156-.348.3-.576.432a3.812 3.812 0 01-1.818.432c-.384 0-.744-.06-1.08-.18a2.6 2.6 0 01-.846-.504 2.618 2.618 0 01-.576-.81 2.703 2.703 0 01-.198-1.062c0-.528.108-.966.324-1.314.216-.36.516-.642.9-.846a4.293 4.293 0 011.404-.45 10.638 10.638 0 011.818-.144h.486c.168 0 .336.012.504.036.036-.36.054-.684.054-.972 0-.66-.132-1.122-.396-1.386-.264-.264-.744-.396-1.44-.396-.204 0-.426.018-.666.054a5.686 5.686 0 00-.72.126c-.24.048-.474.114-.702.198a3.198 3.198 0 00-.576.252l-.45-1.08zm2.556 7.218c.336 0 .636-.042.9-.126.264-.096.492-.21.684-.342.192-.144.348-.3.468-.468.132-.168.228-.33.288-.486v-1.494a7.33 7.33 0 00-.522-.018 8.3 8.3 0 00-1.602.054 3.15 3.15 0 00-.936.234c-.264.108-.48.264-.648.468-.156.192-.234.438-.234.738 0 .42.15.768.45 1.044.3.264.684.396 1.152.396zm11.36-6.624h-2.61c-.036.504-.072 1.05-.108 1.638a29.51 29.51 0 01-.162 1.746 18.015 18.015 0 01-.288 1.674c-.12.528-.276.996-.468 1.404-.18.408-.408.738-.684.99-.264.24-.582.36-.954.36-.228 0-.426-.012-.594-.036a1.646 1.646 0 01-.45-.126l.216-1.206c.144.048.3.072.468.072.24 0 .456-.102.648-.306.192-.204.36-.588.504-1.152.144-.576.264-1.368.36-2.376.096-1.008.162-2.322.198-3.942h5.364v9h-1.44v-7.74zm4.067-.594a5.19 5.19 0 011.584-.612 9.026 9.026 0 011.908-.198c.624 0 1.122.084 1.494.252.384.168.672.39.864.666.204.264.336.558.396.882.072.324.108.648.108.972 0 .72-.018 1.422-.054 2.106a37.07 37.07 0 00-.054 1.944c0 .444.018.864.054 1.26.036.396.102.762.198 1.098h-1.062l-.378-1.26h-.09a3.061 3.061 0 01-.414.504c-.156.156-.348.3-.576.432a3.812 3.812 0 01-1.818.432c-.384 0-.744-.06-1.08-.18a2.6 2.6 0 01-.846-.504 2.618 2.618 0 01-.576-.81 2.703 2.703 0 01-.198-1.062c0-.528.108-.966.324-1.314.216-.36.516-.642.9-.846a4.293 4.293 0 011.404-.45 10.638 10.638 0 011.818-.144h.486c.168 0 .336.012.504.036.036-.36.054-.684.054-.972 0-.66-.132-1.122-.396-1.386-.264-.264-.744-.396-1.44-.396-.204 0-.426.018-.666.054a5.686 5.686 0 00-.72.126c-.24.048-.474.114-.702.198a3.198 3.198 0 00-.576.252l-.45-1.08zm2.556 7.218c.336 0 .636-.042.9-.126.264-.096.492-.21.684-.342.192-.144.348-.3.468-.468.132-.168.228-.33.288-.486v-1.494a7.33 7.33 0 00-.522-.018 8.3 8.3 0 00-1.602.054 3.15 3.15 0 00-.936.234c-.264.108-.48.264-.648.468-.156.192-.234.438-.234.738 0 .42.15.768.45 1.044.3.264.684.396 1.152.396z" fill="#fff"/></svg>