<svg width="127" height="27" viewBox="0 0 127 27" fill="none" xmlns="http://www.w3.org/2000/svg"><path fill-rule="evenodd" clip-rule="evenodd" d="M4 0a4 4 0 00-4 4v14a4 4 0 004 4h2.351l2.887 5 2.887-5H123a4 4 0 004-4V4a4 4 0 00-4-4H4z" fill="#9D8140"/><path d="M16.476 9.36l.12-1.26h-.06l-.456 1.152-2.184 3.792h-.3L11.28 9.24l-.432-1.14h-.06l.168 1.248V15h-.936V6.6h.744l2.628 4.296.396.936h.024l.372-.96L16.692 6.6h.78V15h-.996V9.36zM19.08 12c0-1.016.224-1.792.672-2.328.456-.544 1.108-.816 1.956-.816.448 0 .836.076 1.164.228.336.144.612.356.828.636.216.272.376.604.48.996.104.384.156.812.156 1.284 0 1.016-.228 1.796-.684 2.34-.448.536-1.096.804-1.944.804-.448 0-.84-.072-1.176-.216a2.213 2.213 0 01-.816-.636 2.815 2.815 0 01-.48-.996A5.048 5.048 0 0119.08 12zm.996 0c0 .304.028.596.084.876.064.28.16.524.288.732.128.208.296.376.504.504.208.128.46.192.756.192 1.088.008 1.632-.76 1.632-2.304 0-.312-.032-.608-.096-.888a2.213 2.213 0 00-.276-.732 1.414 1.414 0 00-.504-.492 1.415 1.415 0 00-.756-.192c-1.088-.008-1.632.76-1.632 2.304zm9.866 2.604c-.24.176-.524.308-.852.396a3.655 3.655 0 01-1.032.144c-.464 0-.856-.072-1.176-.216a2.132 2.132 0 01-.792-.636c-.2-.28-.348-.612-.444-.996A5.922 5.922 0 0125.514 12c0-1.016.224-1.792.672-2.328.448-.544 1.092-.816 1.932-.816.384 0 .708.032.972.096.272.056.516.14.732.252l-.276.828a2.44 2.44 0 00-.612-.24 2.61 2.61 0 00-.72-.096c-1.136 0-1.704.768-1.704 2.304 0 .304.028.596.084.876.064.272.164.516.3.732.144.208.328.376.552.504.232.128.516.192.852.192.288 0 .544-.044.768-.132.232-.088.42-.188.564-.3l.312.732zm4.962-4.764H33.02V15h-.96V9.84h-1.884V9h4.728v.84zm7.45 2.508h-2.712V15h-.96V9h.96v2.508h2.712V9h.96v6h-.96v-2.652zm2.712-2.904a3.46 3.46 0 011.056-.408 6.017 6.017 0 011.272-.132c.416 0 .748.056.996.168.256.112.448.26.576.444.136.176.224.372.264.588.048.216.072.432.072.648 0 .48-.012.948-.036 1.404-.024.456-.036.888-.036 1.296 0 .296.012.576.036.84.024.264.068.508.132.732h-.708l-.252-.84h-.06a2.04 2.04 0 01-.276.336 1.85 1.85 0 01-.384.288 2.541 2.541 0 01-1.212.288c-.256 0-.496-.04-.72-.12a1.733 1.733 0 01-.564-.336 1.745 1.745 0 01-.384-.54 1.802 1.802 0 01-.132-.708c0-.352.072-.644.216-.876a1.51 1.51 0 01.6-.564c.264-.144.576-.244.936-.3a7.092 7.092 0 011.212-.096h.324c.112 0 .224.008.336.024.024-.24.036-.456.036-.648 0-.44-.088-.748-.264-.924-.176-.176-.496-.264-.96-.264-.136 0-.284.012-.444.036a3.79 3.79 0 00-.48.084c-.16.032-.316.076-.468.132a2.132 2.132 0 00-.384.168l-.3-.72zm1.704 4.812c.224 0 .424-.028.6-.084.176-.064.328-.14.456-.228.128-.096.232-.2.312-.312.088-.112.152-.22.192-.324v-.996a4.887 4.887 0 00-.348-.012 5.533 5.533 0 00-1.068.036 2.1 2.1 0 00-.624.156c-.176.072-.32.176-.432.312a.755.755 0 00-.156.492c0 .28.1.512.3.696.2.176.456.264.768.264zM57.927 9.84h-2.652V15h-.96V9h4.572v6h-.96V9.84zm2.81-.84h.66l.18.72h.047a1.8 1.8 0 01.709-.636 2.175 2.175 0 011.008-.228c.8 0 1.396.236 1.788.708.391.472.587 1.244.587 2.316 0 .504-.067.96-.203 1.368-.129.4-.313.74-.553 1.02a2.43 2.43 0 01-.875.648 2.706 2.706 0 01-1.128.228c-.297 0-.532-.02-.709-.06a2.592 2.592 0 01-.551-.18V17.4h-.96V9zm2.423.696c-.407 0-.731.108-.971.324-.233.208-.397.528-.492.96v2.976c.143.112.307.2.491.264.184.056.428.084.732.084.552 0 .988-.204 1.308-.612.329-.416.493-1.024.493-1.824a4.29 4.29 0 00-.085-.888 1.832 1.832 0 00-.275-.684 1.22 1.22 0 00-.48-.444c-.193-.104-.432-.156-.72-.156zm3.592 4.752c0-.216.06-.384.18-.504a.681.681 0 01.504-.192c.216 0 .388.064.516.192.128.12.192.288.192.504a.681.681 0 01-.192.504c-.128.128-.3.192-.516.192a.681.681 0 01-.504-.192.707.707 0 01-.18-.504zm7.273-3.42l.312 1.068h.06l.24-1.104L76.245 6.6h1.02l-2.124 5.46a32.234 32.234 0 01-.576 1.428c-.16.376-.324.684-.492.924-.168.232-.348.4-.54.504a1.573 1.573 0 01-.708.144c-.264 0-.476-.02-.636-.06a1.777 1.777 0 01-.432-.204l.3-.828c.16.088.308.144.444.168.136.024.26.036.372.036.224 0 .412-.112.564-.336.152-.232.284-.572.396-1.02L70.725 6.6h1.152l2.148 4.428zm6.322-1.188h-1.74c-.024.336-.048.7-.072 1.092-.024.384-.06.772-.108 1.164a12.01 12.01 0 01-.192 1.116c-.08.352-.184.664-.312.936-.12.272-.272.492-.456.66a.912.912 0 01-.636.24 2.84 2.84 0 01-.396-.024 1.097 1.097 0 01-.3-.084l.144-.804a.98.98 0 00.312.048c.16 0 .304-.068.432-.204.128-.136.24-.392.336-.768.096-.384.176-.912.24-1.584s.108-1.548.132-2.628h3.576v6h-.96V9.84zm3.768 4.32c.296.048.58.072.852.072.504 0 .856-.096 1.055-.288.2-.2.3-.48.3-.84 0-.32-.1-.584-.3-.792-.192-.208-.532-.312-1.02-.312-.135 0-.283.004-.444.012-.16.008-.308.032-.444.072v2.076zm0-2.868c.192-.032.376-.052.552-.06.175-.016.343-.024.504-.024.407 0 .747.048 1.02.144.28.088.504.212.671.372.169.16.285.352.349.576.072.216.108.448.108.696 0 .728-.204 1.256-.612 1.584-.4.328-1.052.492-1.956.492A18.46 18.46 0 0183.154 15V9h.96v2.292zM88.266 9h.96v6h-.96V9zm12.449 7.548h-.684L99.851 15H93.96l-.18 1.548h-.696v-2.436h.852c.064-.088.16-.292.288-.612.136-.328.268-.792.396-1.392a22.35 22.35 0 00.36-2.268c.104-.912.156-1.992.156-3.24h4.488v7.512h1.092v2.436zm-2.088-2.436V7.488h-2.556c-.024.88-.072 1.672-.144 2.376a22.72 22.72 0 01-.24 1.872c-.096.536-.204 1-.324 1.392-.12.392-.244.72-.372.984h3.636zm3.252-4.668a3.46 3.46 0 011.056-.408 6.017 6.017 0 011.272-.132c.416 0 .748.056.996.168.256.112.448.26.576.444.136.176.224.372.264.588.048.216.072.432.072.648 0 .48-.012.948-.036 1.404-.024.456-.036.888-.036 1.296 0 .296.012.576.036.84.024.264.068.508.132.732h-.708l-.252-.84h-.06a2.04 2.04 0 01-.276.336 1.85 1.85 0 01-.384.288 2.541 2.541 0 01-1.212.288c-.256 0-.496-.04-.72-.12a1.733 1.733 0 01-.564-.336 1.745 1.745 0 01-.384-.54 1.802 1.802 0 01-.132-.708c0-.352.072-.644.216-.876a1.51 1.51 0 01.6-.564c.264-.144.576-.244.936-.3a7.092 7.092 0 011.212-.096h.324c.112 0 .224.008.336.024.024-.24.036-.456.036-.648 0-.44-.088-.748-.264-.924-.176-.176-.496-.264-.96-.264-.136 0-.284.012-.444.036a3.79 3.79 0 00-.48.084c-.16.032-.316.076-.468.132a2.132 2.132 0 00-.384.168l-.3-.72zm1.704 4.812c.224 0 .424-.028.6-.084.176-.064.328-.14.456-.228.128-.096.232-.2.312-.312.088-.112.152-.22.192-.324v-.996a4.887 4.887 0 00-.348-.012 5.533 5.533 0 00-1.068.036 2.1 2.1 0 00-.624.156c-.176.072-.32.176-.432.312a.755.755 0 00-.156.492c0 .28.1.512.3.696.2.176.456.264.768.264zm7.573-4.416h-1.74c-.024.336-.048.7-.072 1.092-.024.384-.06.772-.108 1.164a12.01 12.01 0 01-.192 1.116c-.08.352-.184.664-.312.936-.12.272-.272.492-.456.66a.912.912 0 01-.636.24 2.84 2.84 0 01-.396-.024 1.097 1.097 0 01-.3-.084l.144-.804a.98.98 0 00.312.048c.16 0 .304-.068.432-.204.128-.136.24-.392.336-.768.096-.384.176-.912.24-1.584s.108-1.548.132-2.628h3.576v6h-.96V9.84zm2.711-.396a3.46 3.46 0 011.056-.408 6.017 6.017 0 011.272-.132c.416 0 .748.056.996.168.256.112.448.26.576.444.136.176.224.372.264.588.048.216.072.432.072.648 0 .48-.012.948-.036 1.404-.024.456-.036.888-.036 1.296 0 .296.012.576.036.84.024.264.068.508.132.732h-.708l-.252-.84h-.06a2.04 2.04 0 01-.276.336 1.85 1.85 0 01-.384.288 2.541 2.541 0 01-1.212.288c-.256 0-.496-.04-.72-.12a1.733 1.733 0 01-.564-.336 1.745 1.745 0 01-.384-.54 1.802 1.802 0 01-.132-.708c0-.352.072-.644.216-.876a1.51 1.51 0 01.6-.564c.264-.144.576-.244.936-.3a7.092 7.092 0 011.212-.096h.324c.112 0 .224.008.336.024.024-.24.036-.456.036-.648 0-.44-.088-.748-.264-.924-.176-.176-.496-.264-.96-.264-.136 0-.284.012-.444.036a3.79 3.79 0 00-.48.084c-.16.032-.316.076-.468.132a2.132 2.132 0 00-.384.168l-.3-.72zm1.704 4.812c.224 0 .424-.028.6-.084.176-.064.328-.14.456-.228.128-.096.232-.2.312-.312.088-.112.152-.22.192-.324v-.996a4.887 4.887 0 00-.348-.012 5.533 5.533 0 00-1.068.036 2.1 2.1 0 00-.624.156c-.176.072-.32.176-.432.312a.755.755 0 00-.156.492c0 .28.1.512.3.696.2.176.456.264.768.264z" fill="#fff"/></svg>