<svg width="214" height="57" viewBox="0 0 214 57" fill="none" xmlns="http://www.w3.org/2000/svg"><path fill-rule="evenodd" clip-rule="evenodd" d="M6 0a6 6 0 00-6 6v35a6 6 0 006 6h20.732l5.453 9.444L37.636 47H208a6 6 0 006-6V6a6 6 0 00-6-6H6z" fill="#00BFB2"/><path d="M24.87 23.168h-.846V29H22.53V16.4h1.494v5.868l.81-.252 4.23-5.616h1.728l-4.212 5.418-.756.594.918.72L31.35 29h-1.89l-4.59-5.832zm8.358-2.502a5.19 5.19 0 011.584-.612 9.026 9.026 0 011.908-.198c.624 0 1.122.084 1.494.252.384.168.672.39.864.666.204.264.336.558.396.882.072.324.108.648.108.972 0 .72-.018 1.422-.054 2.106a37.07 37.07 0 00-.054 1.944c0 .444.018.864.054 1.26.036.396.102.762.198 1.098h-1.062l-.378-1.26h-.09a3.061 3.061 0 01-.414.504c-.156.156-.348.3-.576.432a3.812 3.812 0 01-1.818.432c-.384 0-.744-.06-1.08-.18a2.6 2.6 0 01-.846-.504 2.618 2.618 0 01-.576-.81 2.703 2.703 0 01-.198-1.062c0-.528.108-.966.324-1.314.216-.36.516-.642.9-.846a4.293 4.293 0 011.404-.45 10.638 10.638 0 011.818-.144h.486c.168 0 .336.012.504.036.036-.36.054-.684.054-.972 0-.66-.132-1.122-.396-1.386-.264-.264-.744-.396-1.44-.396-.204 0-.426.018-.666.054a5.686 5.686 0 00-.72.126c-.24.048-.474.114-.702.198a3.198 3.198 0 00-.576.252l-.45-1.08zm2.556 7.218c.336 0 .636-.042.9-.126.264-.096.492-.21.684-.342.192-.144.348-.3.468-.468.132-.168.228-.33.288-.486v-1.494a7.33 7.33 0 00-.522-.018 8.3 8.3 0 00-1.602.054 3.15 3.15 0 00-.936.234c-.264.108-.48.264-.648.468-.156.192-.234.438-.234.738 0 .42.15.768.45 1.044.3.264.684.396 1.152.396zm7.382-2.898v-1.17h1.26c.216 0 .426-.036.63-.108.216-.072.408-.168.576-.288.168-.132.3-.282.396-.45a1.07 1.07 0 00.162-.558c0-.468-.162-.798-.486-.99-.324-.192-.81-.288-1.458-.288-.468 0-.9.072-1.296.216a5.449 5.449 0 00-.9.414l-.414-1.116c.36-.204.78-.384 1.26-.54.492-.156 1.074-.234 1.746-.234 1.992 0 2.988.738 2.988 2.214 0 .42-.138.834-.414 1.242-.264.396-.648.678-1.152.846v.072c.708.132 1.2.384 1.476.756.288.372.432.864.432 1.476 0 .384-.078.738-.234 1.062a2.35 2.35 0 01-.702.846c-.312.24-.708.432-1.188.576-.468.132-1.014.198-1.638.198-.612 0-1.122-.054-1.53-.162a6.32 6.32 0 01-1.08-.396l.414-1.188c.276.156.606.276.99.36.396.084.822.126 1.278.126.732 0 1.29-.126 1.674-.378.384-.252.576-.636.576-1.152 0-.432-.18-.768-.54-1.008-.36-.252-.954-.378-1.782-.378h-1.044zm6.937-4.32a5.19 5.19 0 011.584-.612 9.026 9.026 0 011.908-.198c.624 0 1.122.084 1.494.252.384.168.672.39.864.666.204.264.336.558.396.882.072.324.108.648.108.972 0 .72-.018 1.422-.054 2.106a37.07 37.07 0 00-.054 1.944c0 .444.018.864.054 1.26.036.396.102.762.198 1.098H55.54l-.378-1.26h-.09a3.061 3.061 0 01-.414.504c-.156.156-.348.3-.576.432a3.812 3.812 0 01-1.818.432c-.384 0-.744-.06-1.08-.18a2.6 2.6 0 01-.846-.504 2.618 2.618 0 01-.576-.81 2.703 2.703 0 01-.198-1.062c0-.528.108-.966.324-1.314.216-.36.516-.642.9-.846a4.293 4.293 0 011.404-.45 10.638 10.638 0 011.818-.144h.486c.168 0 .336.012.504.036.036-.36.054-.684.054-.972 0-.66-.132-1.122-.396-1.386-.264-.264-.744-.396-1.44-.396-.204 0-.426.018-.666.054a5.686 5.686 0 00-.72.126c-.24.048-.474.114-.702.198a3.198 3.198 0 00-.576.252l-.45-1.08zm2.556 7.218c.336 0 .636-.042.9-.126.264-.096.492-.21.684-.342.192-.144.348-.3.468-.468.132-.168.228-.33.288-.486v-1.494a7.33 7.33 0 00-.522-.018 8.3 8.3 0 00-1.602.054 3.15 3.15 0 00-.936.234c-.264.108-.48.264-.648.468-.156.192-.234.438-.234.738 0 .42.15.768.45 1.044.3.264.684.396 1.152.396zm8.876-3.492L58.511 20h1.764l1.71 2.484.504 1.026.522-1.026L64.757 20h1.62l-3.042 4.32L66.557 29h-1.71l-1.908-2.736-.54-1.08-.558 1.08L59.897 29h-1.602l3.24-4.608zm12.64 4.014a3.81 3.81 0 01-1.279.594 5.483 5.483 0 01-1.548.216c-.696 0-1.284-.108-1.764-.324a3.197 3.197 0 01-1.188-.954c-.3-.42-.522-.918-.666-1.494a8.883 8.883 0 01-.198-1.944c0-1.524.336-2.688 1.008-3.492.672-.816 1.638-1.224 2.898-1.224.576 0 1.062.048 1.458.144.408.084.774.21 1.098.378l-.414 1.242a3.66 3.66 0 00-.918-.36 3.915 3.915 0 00-1.08-.144c-1.704 0-2.556 1.152-2.556 3.456 0 .456.042.894.126 1.314.096.408.246.774.45 1.098.216.312.492.564.828.756.348.192.774.288 1.278.288.432 0 .816-.066 1.152-.198.348-.132.63-.282.846-.45l.468 1.098zm4.25-3.456h-.828V29h-1.44v-9h1.44v4.068l.775-.252L81.251 20h1.566l-2.79 3.618-.757.594.936.72L83.215 29h-1.782l-3.007-4.05zm11.944-1.278l.054-1.116h-.054l-.738 1.152L85.581 29h-.828v-9h1.44v5.49l-.054 1.062h.072l.702-1.116L90.963 20h.846v9h-1.44v-5.328zm9.826 0l.054-1.116h-.054l-.738 1.152L95.407 29h-.828v-9h1.44v5.49l-.054 1.062h.072l.702-1.116L100.79 20h.846v9h-1.44v-5.328zm-3.546-7.308c.12.552.324.936.612 1.152.3.216.642.324 1.026.324a1.65 1.65 0 001.026-.342c.3-.228.504-.6.612-1.116l1.08.342c-.108.696-.42 1.23-.936 1.602-.504.372-1.11.558-1.818.558a3.86 3.86 0 01-.972-.126 2.847 2.847 0 01-.846-.378 2.314 2.314 0 01-1.008-1.584l1.224-.432zm20.511 14.922h-.972l-.27-2.286h-6.768l-.27 2.286h-.972V27.74h1.062c.096-.132.222-.366.378-.702.156-.348.306-.828.45-1.44.156-.624.288-1.392.396-2.304.12-.924.192-2.022.216-3.294h5.436v7.74h1.314v3.546zm-2.754-3.546v-6.48h-2.7a32.074 32.074 0 01-.126 1.656c-.06.588-.144 1.182-.252 1.782a13.692 13.692 0 01-.378 1.674 7.386 7.386 0 01-.54 1.368h3.996zm4.537-7.74h.99l.27 1.08h.072c.276-.42.63-.738 1.062-.954a3.262 3.262 0 011.512-.342c1.2 0 2.094.354 2.682 1.062.588.708.882 1.866.882 3.474 0 .756-.102 1.44-.306 2.052a4.36 4.36 0 01-.828 1.53 3.65 3.65 0 01-1.314.972 4.06 4.06 0 01-1.692.342c-.444 0-.798-.03-1.062-.09a3.888 3.888 0 01-.828-.27V32.6h-1.44V20zm3.636 1.044c-.612 0-1.098.162-1.458.486-.348.312-.594.792-.738 1.44v4.464c.216.168.462.3.738.396.276.084.642.126 1.098.126.828 0 1.482-.306 1.962-.918.492-.624.738-1.536.738-2.736 0-.492-.042-.936-.126-1.332a2.748 2.748 0 00-.414-1.026c-.18-.288-.42-.51-.72-.666-.288-.156-.648-.234-1.08-.234zm5.958-.378a5.19 5.19 0 011.584-.612 9.026 9.026 0 011.908-.198c.624 0 1.122.084 1.494.252.384.168.672.39.864.666.204.264.336.558.396.882.072.324.108.648.108.972 0 .72-.018 1.422-.054 2.106a37.07 37.07 0 00-.054 1.944c0 .444.018.864.054 1.26.036.396.102.762.198 1.098h-1.062l-.378-1.26h-.09a3.061 3.061 0 01-.414.504c-.156.156-.348.3-.576.432a3.812 3.812 0 01-1.818.432c-.384 0-.744-.06-1.08-.18a2.6 2.6 0 01-.846-.504 2.618 2.618 0 01-.576-.81 2.703 2.703 0 01-.198-1.062c0-.528.108-.966.324-1.314.216-.36.516-.642.9-.846a4.293 4.293 0 011.404-.45 10.638 10.638 0 011.818-.144h.486c.168 0 .336.012.504.036.036-.36.054-.684.054-.972 0-.66-.132-1.122-.396-1.386-.264-.264-.744-.396-1.44-.396-.204 0-.426.018-.666.054a5.686 5.686 0 00-.72.126c-.24.048-.474.114-.702.198a3.198 3.198 0 00-.576.252l-.45-1.08zm2.556 7.218c.336 0 .636-.042.9-.126.264-.096.492-.21.684-.342.192-.144.348-.3.468-.468.132-.168.228-.33.288-.486v-1.494a7.33 7.33 0 00-.522-.018 8.3 8.3 0 00-1.602.054 3.15 3.15 0 00-.936.234c-.264.108-.48.264-.648.468-.156.192-.234.438-.234.738 0 .42.15.768.45 1.044.3.264.684.396 1.152.396zm13.952-4.23l.108-1.71h-.09l-.648 1.386-2.178 3.528h-.504l-2.268-3.528-.594-1.386h-.072l.144 1.692V29h-1.332v-9h1.422l2.52 4.032.522 1.044h.036l.54-1.08L145.009 20h1.44v9h-1.404v-5.346zm9.909-2.394h-2.826V29h-1.44v-7.74h-2.826V20h7.092v1.26zm7.719 7.02c-.36.288-.816.516-1.368.684a5.786 5.786 0 01-1.728.252c-.684 0-1.278-.108-1.782-.324a3.286 3.286 0 01-1.242-.954 4.222 4.222 0 01-.72-1.494 7.442 7.442 0 01-.234-1.944c0-1.536.342-2.706 1.026-3.51.684-.804 1.662-1.206 2.934-1.206.408 0 .816.048 1.224.144.408.084.774.252 1.098.504.324.252.588.612.792 1.08.204.456.306 1.062.306 1.818 0 .396-.036.834-.108 1.314h-5.778c0 .528.054.996.162 1.404.108.408.276.756.504 1.044.228.276.522.492.882.648.372.144.822.216 1.35.216.408 0 .816-.072 1.224-.216.408-.144.714-.312.918-.504l.54 1.044zm-3.096-7.236c-.708 0-1.278.186-1.71.558-.42.372-.672 1.008-.756 1.908h4.464c0-.912-.174-1.548-.522-1.908-.348-.372-.84-.558-1.476-.558zm5.522-.378a5.19 5.19 0 011.584-.612 9.026 9.026 0 011.908-.198c.624 0 1.122.084 1.494.252.384.168.672.39.864.666.204.264.336.558.396.882.072.324.108.648.108.972 0 .72-.018 1.422-.054 2.106a37.07 37.07 0 00-.054 1.944c0 .444.018.864.054 1.26.036.396.102.762.198 1.098h-1.062l-.378-1.26h-.09a3.061 3.061 0 01-.414.504c-.156.156-.348.3-.576.432a3.812 3.812 0 01-1.818.432c-.384 0-.744-.06-1.08-.18a2.6 2.6 0 01-.846-.504 2.618 2.618 0 01-.576-.81 2.703 2.703 0 01-.198-1.062c0-.528.108-.966.324-1.314.216-.36.516-.642.9-.846a4.293 4.293 0 011.404-.45 10.638 10.638 0 011.818-.144h.486c.168 0 .336.012.504.036.036-.36.054-.684.054-.972 0-.66-.132-1.122-.396-1.386-.264-.264-.744-.396-1.44-.396-.204 0-.426.018-.666.054a5.686 5.686 0 00-.72.126c-.24.048-.474.114-.702.198a3.198 3.198 0 00-.576.252l-.45-1.08zm2.556 7.218c.336 0 .636-.042.9-.126.264-.096.492-.21.684-.342.192-.144.348-.3.468-.468.132-.168.228-.33.288-.486v-1.494a7.33 7.33 0 00-.522-.018 8.3 8.3 0 00-1.602.054 3.15 3.15 0 00-.936.234c-.264.108-.48.264-.648.468-.156.192-.234.438-.234.738 0 .42.15.768.45 1.044.3.264.684.396 1.152.396zM174.173 20h.99l.27 1.08h.072c.276-.42.63-.738 1.062-.954a3.262 3.262 0 011.512-.342c1.2 0 2.094.354 2.682 1.062.588.708.882 1.866.882 3.474 0 .756-.102 1.44-.306 2.052a4.36 4.36 0 01-.828 1.53 3.65 3.65 0 01-1.314.972 4.06 4.06 0 01-1.692.342c-.444 0-.798-.03-1.062-.09a3.888 3.888 0 01-.828-.27V32.6h-1.44V20zm3.636 1.044c-.612 0-1.098.162-1.458.486-.348.312-.594.792-.738 1.44v4.464c.216.168.462.3.738.396.276.084.642.126 1.098.126.828 0 1.482-.306 1.962-.918.492-.624.738-1.536.738-2.736 0-.492-.042-.936-.126-1.332a2.748 2.748 0 00-.414-1.026c-.18-.288-.42-.51-.72-.666-.288-.156-.648-.234-1.08-.234zm11.563.216h-2.826V29h-1.44v-7.74h-2.826V20h7.092v1.26z" fill="#fff"/></svg>