<svg width="128" height="27" viewBox="0 0 128 27" fill="none" xmlns="http://www.w3.org/2000/svg"><path fill-rule="evenodd" clip-rule="evenodd" d="M4 0a4 4 0 00-4 4v14a4 4 0 004 4h5.656l2.887 5 2.887-5H124a4 4 0 004-4V4a4 4 0 00-4-4H4z" fill="#00BFB2"/><path d="M10.58 11.112h-.564V15H9.02V6.6h.996v3.912l.54-.168 2.82-3.744h1.152l-2.808 3.612-.504.396.612.48L14.9 15h-1.26l-3.06-3.888zm5.572-1.668a3.46 3.46 0 011.056-.408 6.017 6.017 0 011.272-.132c.416 0 .748.056.996.168.256.112.448.26.576.444.136.176.224.372.264.588.048.216.072.432.072.648 0 .48-.012.948-.036 1.404-.024.456-.036.888-.036 1.296 0 .296.012.576.036.84.024.264.068.508.132.732h-.708l-.252-.84h-.06a2.04 2.04 0 01-.276.336 1.85 1.85 0 01-.384.288 2.541 2.541 0 01-1.212.288c-.256 0-.496-.04-.72-.12a1.733 1.733 0 01-.564-.336 1.745 1.745 0 01-.384-.54 1.802 1.802 0 01-.132-.708c0-.352.072-.644.216-.876a1.51 1.51 0 01.6-.564c.264-.144.576-.244.936-.3a7.092 7.092 0 011.212-.096h.324c.112 0 .224.008.336.024.024-.24.036-.456.036-.648 0-.44-.088-.748-.264-.924-.176-.176-.496-.264-.96-.264-.136 0-.284.012-.444.036a3.79 3.79 0 00-.48.084c-.16.032-.316.076-.468.132a2.132 2.132 0 00-.384.168l-.3-.72zm1.704 4.812c.224 0 .424-.028.6-.084.176-.064.328-.14.456-.228.128-.096.232-.2.312-.312.088-.112.152-.22.192-.324v-.996a4.887 4.887 0 00-.348-.012 5.533 5.533 0 00-1.068.036 2.1 2.1 0 00-.624.156c-.176.072-.32.176-.432.312a.755.755 0 00-.156.492c0 .28.1.512.3.696.2.176.456.264.768.264zm4.921-1.932v-.78h.84c.144 0 .284-.024.42-.072.144-.048.272-.112.384-.192.112-.088.2-.188.264-.3a.714.714 0 00.108-.372c0-.312-.108-.532-.324-.66-.216-.128-.54-.192-.972-.192-.312 0-.6.048-.864.144a3.633 3.633 0 00-.6.276l-.276-.744c.24-.136.52-.256.84-.36a3.868 3.868 0 011.164-.156c1.328 0 1.992.492 1.992 1.476 0 .28-.092.556-.276.828a1.433 1.433 0 01-.768.564v.048c.472.088.8.256.984.504.192.248.288.576.288.984 0 .256-.052.492-.156.708-.104.216-.26.404-.468.564-.208.16-.472.288-.792.384a4.042 4.042 0 01-1.092.132c-.408 0-.748-.036-1.02-.108a4.214 4.214 0 01-.72-.264l.276-.792c.184.104.404.184.66.24.264.056.548.084.852.084.488 0 .86-.084 1.116-.252.256-.168.384-.424.384-.768a.763.763 0 00-.36-.672c-.24-.168-.636-.252-1.188-.252h-.696zm4.625-2.88a3.46 3.46 0 011.056-.408 6.017 6.017 0 011.272-.132c.416 0 .748.056.996.168.256.112.448.26.576.444.136.176.224.372.264.588.048.216.072.432.072.648 0 .48-.012.948-.036 1.404-.024.456-.036.888-.036 1.296 0 .296.012.576.036.84.024.264.068.508.132.732h-.708l-.252-.84h-.06a2.04 2.04 0 01-.276.336 1.85 1.85 0 01-.384.288 2.541 2.541 0 01-1.212.288c-.256 0-.496-.04-.72-.12a1.733 1.733 0 01-.564-.336 1.745 1.745 0 01-.384-.54 1.802 1.802 0 01-.132-.708c0-.352.072-.644.216-.876a1.51 1.51 0 01.6-.564c.264-.144.576-.244.936-.3a7.092 7.092 0 011.212-.096h.324c.112 0 .224.008.336.024.024-.24.036-.456.036-.648 0-.44-.088-.748-.264-.924-.176-.176-.496-.264-.96-.264-.136 0-.284.012-.444.036a3.79 3.79 0 00-.48.084c-.16.032-.316.076-.468.132a2.132 2.132 0 00-.384.168l-.3-.72zm1.704 4.812c.224 0 .424-.028.6-.084.176-.064.328-.14.456-.228.128-.096.232-.2.312-.312.088-.112.152-.22.192-.324v-.996a4.887 4.887 0 00-.348-.012 5.533 5.533 0 00-1.068.036 2.1 2.1 0 00-.624.156c-.176.072-.32.176-.432.312a.755.755 0 00-.156.492c0 .28.1.512.3.696.2.176.456.264.768.264zm5.917-2.328L33.007 9h1.176l1.14 1.656.336.684.348-.684L37.171 9h1.08l-2.028 2.88L38.371 15h-1.14l-1.272-1.824-.36-.72-.372.72L33.931 15h-1.068l2.16-3.072zm8.427 2.676c-.24.176-.524.308-.852.396a3.655 3.655 0 01-1.032.144c-.464 0-.856-.072-1.176-.216a2.132 2.132 0 01-.792-.636c-.2-.28-.348-.612-.444-.996A5.922 5.922 0 0139.022 12c0-1.016.224-1.792.672-2.328.448-.544 1.092-.816 1.932-.816.384 0 .708.032.972.096.272.056.516.14.732.252l-.276.828a2.44 2.44 0 00-.612-.24 2.61 2.61 0 00-.72-.096c-1.136 0-1.704.768-1.704 2.304 0 .304.028.596.084.876.064.272.164.516.3.732.144.208.328.376.552.504.232.128.516.192.852.192.288 0 .544-.044.768-.132.232-.088.42-.188.564-.3l.312.732zm2.834-2.304h-.552V15h-.96V9h.96v2.712l.516-.168L48.168 9h1.044l-1.86 2.412-.504.396.624.48L49.476 15h-1.188l-2.004-2.7zm7.962-.852l.036-.744h-.036l-.492.768-2.7 3.528h-.552V9h.96v3.66l-.036.708h.048l.468-.744L54.642 9h.564v6h-.96v-3.552zm6.55 0l.037-.744h-.036l-.492.768-2.7 3.528h-.552V9h.96v3.66l-.036.708h.048l.468-.744L61.193 9h.564v6h-.96v-3.552zm-2.363-4.872c.08.368.216.624.408.768.2.144.428.216.684.216a1.1 1.1 0 00.684-.228c.2-.152.336-.4.408-.744l.72.228c-.072.464-.28.82-.624 1.068-.336.248-.74.372-1.212.372-.216 0-.432-.028-.648-.084a1.898 1.898 0 01-.564-.252 1.542 1.542 0 01-.672-1.056l.816-.288zm13.674 9.948h-.648L71.279 15h-4.512l-.18 1.524h-.648V14.16h.708c.064-.088.148-.244.252-.468.104-.232.204-.552.3-.96.104-.416.192-.928.264-1.536.08-.616.128-1.348.144-2.196h3.624v5.16h.876v2.364zM70.27 14.16V9.84h-1.8c-.016.336-.044.704-.084 1.104-.04.392-.096.788-.168 1.188a9.128 9.128 0 01-.252 1.116 4.924 4.924 0 01-.36.912h2.664zM73.295 9h.66l.18.72h.048a1.8 1.8 0 01.708-.636 2.175 2.175 0 011.008-.228c.8 0 1.396.236 1.788.708.392.472.588 1.244.588 2.316 0 .504-.068.96-.204 1.368-.128.4-.312.74-.552 1.02-.24.28-.532.496-.876.648a2.706 2.706 0 01-1.128.228c-.296 0-.532-.02-.708-.06a2.592 2.592 0 01-.552-.18V17.4h-.96V9zm2.424.696c-.408 0-.732.108-.972.324-.232.208-.396.528-.492.96v2.976c.144.112.308.2.492.264.184.056.428.084.732.084.552 0 .988-.204 1.308-.612.328-.416.492-1.024.492-1.824 0-.328-.028-.624-.084-.888a1.832 1.832 0 00-.276-.684 1.22 1.22 0 00-.48-.444c-.192-.104-.432-.156-.72-.156zm3.972-.252a3.46 3.46 0 011.056-.408 6.017 6.017 0 011.272-.132c.416 0 .748.056.996.168.256.112.448.26.576.444.136.176.224.372.264.588.048.216.072.432.072.648 0 .48-.012.948-.036 1.404-.024.456-.036.888-.036 1.296 0 .296.012.576.036.84.024.264.068.508.132.732h-.708l-.252-.84h-.06a2.04 2.04 0 01-.276.336 1.85 1.85 0 01-.384.288 2.541 2.541 0 01-1.212.288c-.256 0-.496-.04-.72-.12a1.733 1.733 0 01-.564-.336 1.745 1.745 0 01-.384-.54 1.802 1.802 0 01-.132-.708c0-.352.072-.644.216-.876a1.51 1.51 0 01.6-.564c.264-.144.576-.244.936-.3a7.092 7.092 0 011.212-.096h.324c.112 0 .224.008.336.024.024-.24.036-.456.036-.648 0-.44-.088-.748-.264-.924-.176-.176-.496-.264-.96-.264-.136 0-.284.012-.444.036a3.79 3.79 0 00-.48.084c-.16.032-.316.076-.468.132a2.132 2.132 0 00-.384.168l-.3-.72zm1.704 4.812c.224 0 .424-.028.6-.084.176-.064.328-.14.456-.228.128-.096.232-.2.312-.312.088-.112.152-.22.192-.324v-.996a4.887 4.887 0 00-.348-.012 5.533 5.533 0 00-1.068.036 2.1 2.1 0 00-.624.156c-.176.072-.32.176-.432.312a.755.755 0 00-.156.492c0 .28.1.512.3.696.2.176.456.264.768.264zm9.301-2.82l.072-1.14h-.06l-.432.924-1.452 2.352h-.336l-1.512-2.352-.396-.924h-.048l.096 1.128V15h-.888V9h.948l1.68 2.688.348.696h.024l.36-.72L90.672 9h.96v6h-.936v-3.564zm6.607-1.596h-1.884V15h-.96V9.84h-1.884V9h4.728v.84zm5.146 4.68c-.24.192-.544.344-.912.456-.36.112-.744.168-1.152.168-.457 0-.853-.072-1.189-.216a2.19 2.19 0 01-.828-.636 2.815 2.815 0 01-.48-.996A4.961 4.961 0 0197.732 12c0-1.024.228-1.804.684-2.34.457-.536 1.109-.804 1.957-.804.272 0 .544.032.816.096.272.056.516.168.732.336.216.168.392.408.528.72.136.304.204.708.204 1.212 0 .264-.024.556-.072.876h-3.853c0 .352.037.664.109.936.072.272.183.504.335.696.153.184.349.328.588.432.249.096.549.144.901.144.272 0 .544-.048.816-.144.272-.096.476-.208.612-.336l.36.696zm-2.064-4.824c-.473 0-.853.124-1.14.372-.28.248-.449.672-.505 1.272h2.977c0-.608-.116-1.032-.348-1.272-.232-.248-.56-.372-.984-.372zm3.681-.252a3.46 3.46 0 011.056-.408 6.017 6.017 0 011.272-.132c.416 0 .748.056.996.168.256.112.448.26.576.444.136.176.224.372.264.588.048.216.072.432.072.648 0 .48-.012.948-.036 1.404-.024.456-.036.888-.036 1.296 0 .296.012.576.036.84.024.264.068.508.132.732h-.708l-.252-.84h-.06a2.04 2.04 0 01-.276.336 1.85 1.85 0 01-.384.288 2.541 2.541 0 01-1.212.288c-.256 0-.496-.04-.72-.12a1.733 1.733 0 01-.564-.336 1.745 1.745 0 01-.384-.54 1.802 1.802 0 01-.132-.708c0-.352.072-.644.216-.876a1.51 1.51 0 01.6-.564c.264-.144.576-.244.936-.3a7.092 7.092 0 011.212-.096h.324c.112 0 .224.008.336.024.024-.24.036-.456.036-.648 0-.44-.088-.748-.264-.924-.176-.176-.496-.264-.96-.264-.136 0-.284.012-.444.036a3.79 3.79 0 00-.48.084c-.16.032-.316.076-.468.132a2.132 2.132 0 00-.384.168l-.3-.72zm1.704 4.812c.224 0 .424-.028.6-.084.176-.064.328-.14.456-.228.128-.096.232-.2.312-.312.088-.112.152-.22.192-.324v-.996a4.887 4.887 0 00-.348-.012 5.533 5.533 0 00-1.068.036 2.1 2.1 0 00-.624.156c-.176.072-.32.176-.432.312a.755.755 0 00-.156.492c0 .28.1.512.3.696.2.176.456.264.768.264zM110.115 9h.66l.18.72h.048a1.8 1.8 0 01.708-.636 2.175 2.175 0 011.008-.228c.8 0 1.396.236 1.788.708.392.472.588 1.244.588 2.316 0 .504-.068.96-.204 1.368-.128.4-.312.74-.552 1.02-.24.28-.532.496-.876.648a2.706 2.706 0 01-1.128.228c-.296 0-.532-.02-.708-.06a2.592 2.592 0 01-.552-.18V17.4h-.96V9zm2.424.696c-.408 0-.732.108-.972.324-.232.208-.396.528-.492.96v2.976c.144.112.308.2.492.264.184.056.428.084.732.084.552 0 .988-.204 1.308-.612.328-.416.492-1.024.492-1.824 0-.328-.028-.624-.084-.888a1.832 1.832 0 00-.276-.684 1.22 1.22 0 00-.48-.444c-.192-.104-.432-.156-.72-.156zm7.709.144h-1.884V15h-.96V9.84h-1.884V9h4.728v.84z" fill="#fff"/></svg>