<svg width="51" height="26" viewBox="0 0 51 26" fill="none" xmlns="http://www.w3.org/2000/svg"><path fill-rule="evenodd" clip-rule="evenodd" d="M4 0a4 4 0 00-4 4v14a4 4 0 004 4h4.288l2.31 4 2.309-4H47a4 4 0 004-4V4a4 4 0 00-4-4H4z" fill="#EA0967"/><path d="M14.692 16.548h-.684L13.828 15H7.936l-.18 1.548H7.06v-2.436h.852c.064-.088.16-.292.288-.612.136-.328.268-.792.396-1.392a22.35 22.35 0 00.36-2.268c.104-.912.156-1.992.156-3.24H13.6v7.512h1.092v2.436zm-2.088-2.436V7.488h-2.556c-.024.88-.072 1.672-.144 2.376a22.72 22.72 0 01-.24 1.872c-.096.536-.204 1-.324 1.392-.12.392-.244.72-.372.984h3.636zm7.727.408c-.24.192-.544.344-.912.456-.36.112-.744.168-1.152.168-.456 0-.852-.072-1.188-.216a2.19 2.19 0 01-.828-.636 2.815 2.815 0 01-.48-.996A4.961 4.961 0 0115.615 12c0-1.024.228-1.804.684-2.34.456-.536 1.108-.804 1.956-.804.272 0 .544.032.816.096.272.056.516.168.732.336.216.168.392.408.528.72.136.304.204.708.204 1.212 0 .264-.024.556-.072.876h-3.852c0 .352.036.664.108.936.072.272.184.504.336.696.152.184.348.328.588.432.248.096.548.144.9.144.272 0 .544-.048.816-.144.272-.096.476-.208.612-.336l.36.696zm-2.064-4.824c-.472 0-.852.124-1.14.372-.28.248-.448.672-.504 1.272H19.6c0-.608-.116-1.032-.348-1.272-.232-.248-.56-.372-.984-.372zm7.606.144H23.99V15h-.96V9.84h-1.884V9h4.728v.84zm4.858 4.764c-.24.176-.524.308-.852.396a3.655 3.655 0 01-1.032.144c-.464 0-.856-.072-1.176-.216a2.132 2.132 0 01-.792-.636c-.2-.28-.348-.612-.444-.996A5.922 5.922 0 0126.303 12c0-1.016.224-1.792.672-2.328.448-.544 1.092-.816 1.932-.816.384 0 .708.032.972.096.272.056.516.14.732.252l-.276.828a2.44 2.44 0 00-.612-.24 2.61 2.61 0 00-.72-.096c-1.136 0-1.704.768-1.704 2.304 0 .304.028.596.084.876.064.272.164.516.3.732.144.208.328.376.552.504.232.128.516.192.852.192.288 0 .544-.044.768-.132.232-.088.42-.188.564-.3l.312.732zm1.226-5.16a3.46 3.46 0 011.056-.408 6.017 6.017 0 011.272-.132c.416 0 .748.056.996.168.256.112.448.26.576.444.136.176.224.372.264.588.048.216.072.432.072.648 0 .48-.012.948-.036 1.404-.024.456-.036.888-.036 1.296 0 .296.012.576.036.84.024.264.068.508.132.732h-.708l-.252-.84h-.06a2.04 2.04 0 01-.276.336 1.85 1.85 0 01-.384.288 2.541 2.541 0 01-1.212.288c-.256 0-.496-.04-.72-.12a1.733 1.733 0 01-.564-.336 1.745 1.745 0 01-.384-.54 1.802 1.802 0 01-.132-.708c0-.352.072-.644.216-.876a1.51 1.51 0 01.6-.564c.264-.144.576-.244.936-.3a7.092 7.092 0 011.212-.096h.324c.112 0 .224.008.336.024.024-.24.036-.456.036-.648 0-.44-.088-.748-.264-.924-.176-.176-.496-.264-.96-.264-.136 0-.284.012-.444.036a3.79 3.79 0 00-.48.084c-.16.032-.316.076-.468.132a2.132 2.132 0 00-.384.168l-.3-.72zm1.704 4.812c.224 0 .424-.028.6-.084.176-.064.328-.14.456-.228.128-.096.232-.2.312-.312.088-.112.152-.22.192-.324v-.996a4.887 4.887 0 00-.348-.012 5.533 5.533 0 00-1.068.036 2.1 2.1 0 00-.624.156c-.176.072-.32.176-.432.312a.755.755 0 00-.156.492c0 .28.1.512.3.696.2.176.456.264.768.264zm9.649 2.268h-.648L42.482 15H37.97l-.18 1.524h-.648V14.16h.708c.064-.088.148-.244.252-.468.104-.232.204-.552.3-.96.104-.416.192-.928.264-1.536.08-.616.128-1.348.144-2.196h3.624v5.16h.876v2.364zm-1.836-2.364V9.84h-1.8c-.016.336-.044.704-.084 1.104-.04.392-.096.788-.168 1.188a9.128 9.128 0 01-.252 1.116 4.924 4.924 0 01-.36.912h2.664z" fill="#fff"/></svg>