<svg width="94" height="57" viewBox="0 0 94 57" fill="none" xmlns="http://www.w3.org/2000/svg"><path fill-rule="evenodd" clip-rule="evenodd" d="M6 0a6 6 0 00-6 6v35a6 6 0 006 6h15.732l5.453 9.444L32.636 47H88a6 6 0 006-6V6a6 6 0 00-6-6H6z" fill="#EA0967"/><path d="M31.538 31.322h-1.026L30.242 29h-8.838l-.27 2.322H20.09v-3.654h1.278c.096-.132.24-.438.432-.918.204-.492.402-1.188.594-2.088.204-.912.384-2.046.54-3.402.156-1.368.234-2.988.234-4.86H29.9v11.268h1.638v3.654zm-3.132-3.654v-9.936h-3.834a48.253 48.253 0 01-.216 3.564 34.079 34.079 0 01-.36 2.808c-.144.804-.306 1.5-.486 2.088-.18.588-.366 1.08-.558 1.476h5.454zm11.591.612c-.36.288-.816.516-1.368.684a5.786 5.786 0 01-1.728.252c-.684 0-1.278-.108-1.782-.324a3.286 3.286 0 01-1.242-.954 4.222 4.222 0 01-.72-1.494 7.442 7.442 0 01-.234-1.944c0-1.536.342-2.706 1.026-3.51.684-.804 1.662-1.206 2.934-1.206.408 0 .816.048 1.224.144.408.084.774.252 1.098.504.324.252.588.612.792 1.08.204.456.306 1.062.306 1.818 0 .396-.036.834-.108 1.314h-5.778c0 .528.054.996.162 1.404.108.408.276.756.504 1.044.228.276.522.492.882.648.372.144.822.216 1.35.216.408 0 .816-.072 1.224-.216.408-.144.714-.312.918-.504l.54 1.044zm-3.096-7.236c-.708 0-1.278.186-1.71.558-.42.372-.672 1.008-.756 1.908h4.464c0-.912-.174-1.548-.522-1.908-.348-.372-.84-.558-1.476-.558zm11.409.216h-2.826V29h-1.44v-7.74h-2.826V20h7.092v1.26zm7.286 7.146c-.36.264-.786.462-1.278.594a5.483 5.483 0 01-1.548.216c-.696 0-1.284-.108-1.764-.324a3.197 3.197 0 01-1.188-.954c-.3-.42-.522-.918-.666-1.494a8.883 8.883 0 01-.198-1.944c0-1.524.336-2.688 1.008-3.492.672-.816 1.638-1.224 2.898-1.224.576 0 1.062.048 1.458.144.408.084.774.21 1.098.378l-.414 1.242a3.66 3.66 0 00-.918-.36 3.915 3.915 0 00-1.08-.144c-1.704 0-2.556 1.152-2.556 3.456 0 .456.042.894.126 1.314.096.408.246.774.45 1.098.216.312.492.564.828.756.348.192.774.288 1.278.288.432 0 .816-.066 1.152-.198.348-.132.63-.282.846-.45l.468 1.098zm1.84-7.74a5.19 5.19 0 011.583-.612 9.026 9.026 0 011.908-.198c.624 0 1.122.084 1.494.252.384.168.672.39.864.666.204.264.336.558.396.882.072.324.108.648.108.972 0 .72-.018 1.422-.054 2.106a37.07 37.07 0 00-.054 1.944c0 .444.018.864.054 1.26.036.396.102.762.198 1.098h-1.062l-.378-1.26h-.09a3.061 3.061 0 01-.414.504c-.156.156-.348.3-.576.432a3.812 3.812 0 01-1.818.432c-.384 0-.744-.06-1.08-.18a2.6 2.6 0 01-.846-.504 2.618 2.618 0 01-.576-.81 2.703 2.703 0 01-.198-1.062c0-.528.108-.966.324-1.314.216-.36.516-.642.9-.846a4.293 4.293 0 011.404-.45 10.638 10.638 0 011.818-.144h.486c.168 0 .336.012.504.036.036-.36.054-.684.054-.972 0-.66-.132-1.122-.396-1.386-.264-.264-.744-.396-1.44-.396-.204 0-.426.018-.666.054a5.686 5.686 0 00-.72.126c-.24.048-.474.114-.702.198a3.198 3.198 0 00-.576.252l-.45-1.08zm2.555 7.218c.336 0 .636-.042.9-.126.264-.096.492-.21.684-.342.192-.144.348-.3.468-.468.132-.168.228-.33.288-.486v-1.494a7.33 7.33 0 00-.522-.018 8.3 8.3 0 00-1.602.054 3.15 3.15 0 00-.936.234c-.264.108-.48.264-.648.468-.156.192-.234.438-.234.738 0 .42.15.768.45 1.044.3.264.684.396 1.152.396zm14.474 3.402h-.972L73.223 29h-6.768l-.27 2.286h-.972V27.74h1.062c.096-.132.222-.366.378-.702.156-.348.306-.828.45-1.44.156-.624.288-1.392.396-2.304.12-.924.192-2.022.216-3.294h5.436v7.74h1.314v3.546zm-2.754-3.546v-6.48h-2.7a32.074 32.074 0 01-.126 1.656c-.06.588-.144 1.182-.252 1.782a13.692 13.692 0 01-.378 1.674 7.386 7.386 0 01-.54 1.368h3.996z" fill="#fff"/></svg>