<svg width="114" height="27" viewBox="0 0 114 27" fill="none" xmlns="http://www.w3.org/2000/svg"><path fill-rule="evenodd" clip-rule="evenodd" d="M4 0a4 4 0 00-4 4v14a4 4 0 004 4h17.35l2.887 5 2.887-5H110a4 4 0 004-4V4a4 4 0 00-4-4H4z" fill="#488A35"/><path d="M11.892 7.488H8.016V15H7.02V6.6h5.868V15h-.996V7.488zm2.846 1.956a3.46 3.46 0 011.056-.408 6.017 6.017 0 011.272-.132c.416 0 .748.056.996.168.256.112.448.26.576.444.136.176.224.372.264.588.048.216.072.432.072.648 0 .48-.012.948-.036 1.404-.024.456-.036.888-.036 1.296 0 .296.012.576.036.84.024.264.068.508.132.732h-.708l-.252-.84h-.06a2.04 2.04 0 01-.276.336 1.85 1.85 0 01-.384.288 2.541 2.541 0 01-1.212.288c-.256 0-.496-.04-.72-.12a1.733 1.733 0 01-.564-.336 1.745 1.745 0 01-.384-.54 1.802 1.802 0 01-.132-.708c0-.352.072-.644.216-.876a1.51 1.51 0 01.6-.564c.264-.144.576-.244.936-.3a7.092 7.092 0 011.212-.096h.324c.112 0 .224.008.336.024.024-.24.036-.456.036-.648 0-.44-.088-.748-.264-.924-.176-.176-.496-.264-.96-.264-.136 0-.284.012-.444.036a3.79 3.79 0 00-.48.084c-.16.032-.316.076-.468.132a2.132 2.132 0 00-.384.168l-.3-.72zm1.704 4.812c.224 0 .424-.028.6-.084.176-.064.328-.14.456-.228.128-.096.232-.2.312-.312.088-.112.152-.22.192-.324v-.996a4.887 4.887 0 00-.348-.012 5.533 5.533 0 00-1.068.036 2.1 2.1 0 00-.624.156c-.176.072-.32.176-.432.312a.755.755 0 00-.156.492c0 .28.1.512.3.696.2.176.456.264.768.264zM20.787 9h.66l.18.72h.048a1.8 1.8 0 01.708-.636 2.175 2.175 0 011.008-.228c.8 0 1.396.236 1.788.708.392.472.588 1.244.588 2.316 0 .504-.068.96-.204 1.368-.128.4-.312.74-.552 1.02-.24.28-.532.496-.876.648a2.706 2.706 0 01-1.128.228c-.296 0-.532-.02-.708-.06a2.592 2.592 0 01-.552-.18V17.4h-.96V9zm2.424.696c-.408 0-.732.108-.972.324-.232.208-.396.528-.492.96v2.976c.144.112.308.2.492.264.184.056.428.084.732.084.552 0 .988-.204 1.308-.612.328-.416.492-1.024.492-1.824 0-.328-.028-.624-.084-.888a1.832 1.832 0 00-.276-.684 1.22 1.22 0 00-.48-.444c-.192-.104-.432-.156-.72-.156zm5.58 2.604h-.552V15h-.96V9h.96v2.712l.517-.168L30.675 9h1.044l-1.86 2.412-.505.396.625.48L31.983 15h-1.188l-2.004-2.7zm9.286-4.74c0 .184-.06.332-.18.444a.671.671 0 01-.456.156.733.733 0 01-.54-.216c-.136-.144-.204-.356-.204-.636 0-.264.036-.488.108-.672a1.802 1.802 0 01.612-.804c.12-.08.224-.136.312-.168l.3.42c-.176.088-.32.208-.432.36a.92.92 0 00-.156.552.57.57 0 01.132-.012c.16 0 .284.056.372.168a.64.64 0 01.132.408zm-1.752 0c0 .184-.06.332-.18.444a.671.671 0 01-.456.156.733.733 0 01-.54-.216c-.136-.144-.204-.356-.204-.636 0-.264.036-.488.108-.672a1.802 1.802 0 01.612-.804c.12-.08.224-.136.312-.168l.3.42c-.176.088-.32.208-.432.36a.92.92 0 00-.156.552.57.57 0 01.132-.012c.16 0 .284.056.372.168a.64.64 0 01.132.408zm9.694 1.8l.12-1.26h-.06l-.456 1.152-2.184 3.792h-.3L40.823 9.24l-.432-1.14h-.06l.168 1.248V15h-.936V6.6h.744l2.628 4.296.396.936h.024l.372-.96L46.235 6.6h.78V15h-.996V9.36zm3.9 4.8c.296.048.58.072.852.072.504 0 .856-.096 1.056-.288.2-.2.3-.48.3-.84 0-.32-.1-.584-.3-.792-.192-.208-.532-.312-1.02-.312-.136 0-.284.004-.444.012-.16.008-.308.032-.444.072v2.076zm0-2.868c.192-.032.376-.052.552-.06.176-.016.344-.024.504-.024.408 0 .748.048 1.02.144.28.088.504.212.672.372.168.16.284.352.348.576.072.216.108.448.108.696 0 .728-.204 1.256-.612 1.584-.4.328-1.052.492-1.956.492-.512 0-1.044-.024-1.596-.072V9h.96v2.292zM54.071 9h.96v6h-.96V9zm6.482 3.348h-2.712V15h-.96V9h.96v2.508h2.712V9h.96v6h-.96v-2.652zm4.764 0L63.554 15h-1.105l1.897-2.748.407-.36-.612-.456L62.581 9h1.02l1.656 2.592h.624V9h.936v2.712l.565-.168L69.049 9h1.008l-1.632 2.436-.468.384.613.48 1.776 2.7h-1.14l-1.764-2.7h-.624V15h-.936v-2.82l-.565.168zm6.915 1.812c.296.048.58.072.852.072.504 0 .856-.096 1.056-.288.2-.2.3-.48.3-.84 0-.32-.1-.584-.3-.792-.192-.208-.532-.312-1.02-.312-.136 0-.284.004-.444.012-.16.008-.308.032-.444.072v2.076zm0-2.868c.192-.032.376-.052.552-.06.176-.016.344-.024.504-.024.408 0 .748.048 1.02.144.28.088.504.212.672.372.168.16.284.352.348.576.072.216.108.448.108.696 0 .728-.204 1.256-.612 1.584-.4.328-1.052.492-1.956.492-.512 0-1.044-.024-1.596-.072V9h.96v2.292zM76.384 9h.96v6h-.96V9zm6.037.84h-1.74l-.072 1.092c-.023.384-.06.772-.108 1.164a12.01 12.01 0 01-.192 1.116c-.08.352-.183.664-.311.936-.12.272-.273.492-.457.66a.912.912 0 01-.635.24 2.84 2.84 0 01-.397-.024 1.097 1.097 0 01-.3-.084l.144-.804a.98.98 0 00.313.048.58.58 0 00.431-.204c.129-.136.24-.392.337-.768.096-.384.175-.912.24-1.584.063-.672.107-1.548.131-2.628h3.576v6h-.96V9.84zm8.112 6.684h-.648L89.705 15h-4.512l-.18 1.524h-.648V14.16h.708c.064-.088.148-.244.252-.468.104-.232.204-.552.3-.96.104-.416.192-.928.264-1.536.08-.616.128-1.348.144-2.196h3.624v5.16h.876v2.364zm-1.836-2.364V9.84h-1.8c-.016.336-.044.704-.084 1.104-.04.392-.096.788-.168 1.188a9.128 9.128 0 01-.252 1.116 4.924 4.924 0 01-.36.912h2.664zm3.984 0c.296.048.58.072.852.072.504 0 .856-.096 1.056-.288.2-.2.3-.48.3-.84 0-.32-.1-.584-.3-.792-.192-.208-.532-.312-1.02-.312-.136 0-.284.004-.444.012-.16.008-.308.032-.444.072v2.076zm0-2.868c.192-.032.376-.052.552-.06.176-.016.344-.024.504-.024.408 0 .748.048 1.02.144.28.088.504.212.672.372.168.16.284.352.348.576.072.216.108.448.108.696 0 .728-.204 1.256-.612 1.584-.4.328-1.052.492-1.956.492-.512 0-1.044-.024-1.596-.072V9h.96v2.292zM96.833 9h.96v6h-.96V9zm4.322 3.3h-.552V15h-.96V9h.96v2.712l.516-.168L103.039 9h1.044l-1.86 2.412-.504.396.624.48L104.347 15h-1.188l-2.004-2.7zm5.526-5.208a.56.56 0 01.168-.432.671.671 0 01.456-.156c.224 0 .404.072.54.216.144.136.216.344.216.624 0 .264-.04.492-.12.684a1.712 1.712 0 01-.276.492 1.528 1.528 0 01-.336.312c-.12.08-.224.136-.312.168l-.3-.408c.184-.096.328-.216.432-.36.104-.144.156-.332.156-.564a.57.57 0 01-.132.012.447.447 0 01-.36-.156.678.678 0 01-.132-.432zm-1.752 0a.56.56 0 01.168-.432.671.671 0 01.456-.156c.224 0 .404.072.54.216.144.136.216.344.216.624 0 .264-.04.492-.12.684a1.712 1.712 0 01-.276.492 1.528 1.528 0 01-.336.312c-.12.08-.224.136-.312.168l-.3-.408c.184-.096.328-.216.432-.36.104-.144.156-.332.156-.564a.57.57 0 01-.132.012.447.447 0 01-.36-.156.678.678 0 01-.132-.432z" fill="#fff"/></svg>