<svg width="195" height="57" viewBox="0 0 195 57" fill="none" xmlns="http://www.w3.org/2000/svg"><path fill-rule="evenodd" clip-rule="evenodd" d="M6 0a6 6 0 00-6 6v35a6 6 0 006 6h50.732l5.453 9.444L67.636 47H189a6 6 0 006-6V6a6 6 0 00-6-6H6z" fill="#488A35"/><path d="M29.838 17.732h-5.814V29H22.53V16.4h8.802V29h-1.494V17.732zm4.27 2.934a5.19 5.19 0 011.583-.612 9.026 9.026 0 011.908-.198c.624 0 1.122.084 1.494.252.384.168.672.39.864.666.204.264.336.558.396.882.072.324.108.648.108.972 0 .72-.018 1.422-.054 2.106a37.07 37.07 0 00-.054 1.944c0 .444.018.864.054 1.26.036.396.102.762.198 1.098h-1.062l-.378-1.26h-.09a3.061 3.061 0 01-.414.504c-.156.156-.348.3-.576.432a3.812 3.812 0 01-1.818.432c-.384 0-.744-.06-1.08-.18a2.6 2.6 0 01-.846-.504 2.618 2.618 0 01-.576-.81 2.703 2.703 0 01-.198-1.062c0-.528.108-.966.324-1.314.216-.36.516-.642.9-.846a4.293 4.293 0 011.404-.45 10.638 10.638 0 011.818-.144h.486c.168 0 .336.012.504.036.036-.36.054-.684.054-.972 0-.66-.132-1.122-.396-1.386-.264-.264-.744-.396-1.44-.396-.204 0-.426.018-.666.054a5.686 5.686 0 00-.72.126c-.24.048-.474.114-.702.198a3.198 3.198 0 00-.576.252l-.45-1.08zm2.555 7.218c.336 0 .636-.042.9-.126.264-.096.492-.21.684-.342.192-.144.348-.3.468-.468.132-.168.228-.33.288-.486v-1.494a7.33 7.33 0 00-.522-.018 8.3 8.3 0 00-1.602.054 3.15 3.15 0 00-.936.234c-.264.108-.48.264-.648.468-.156.192-.234.438-.234.738 0 .42.15.768.45 1.044.3.264.684.396 1.152.396zM43.181 20h.99l.27 1.08h.072c.276-.42.63-.738 1.062-.954a3.262 3.262 0 011.512-.342c1.2 0 2.094.354 2.682 1.062.588.708.882 1.866.882 3.474 0 .756-.102 1.44-.306 2.052a4.36 4.36 0 01-.828 1.53 3.65 3.65 0 01-1.314.972 4.06 4.06 0 01-1.692.342c-.444 0-.798-.03-1.062-.09a3.888 3.888 0 01-.828-.27V32.6h-1.44V20zm3.636 1.044c-.612 0-1.098.162-1.458.486-.348.312-.594.792-.738 1.44v4.464c.216.168.462.3.738.396.276.084.642.126 1.098.126.828 0 1.482-.306 1.962-.918.492-.624.738-1.536.738-2.736 0-.492-.042-.936-.126-1.332a2.748 2.748 0 00-.414-1.026c-.18-.288-.42-.51-.72-.666-.288-.156-.648-.234-1.08-.234zm8.37 3.906h-.828V29h-1.44v-9h1.44v4.068l.774-.252L58.013 20h1.566l-2.79 3.618-.756.594.936.72L59.975 29h-1.782l-3.006-4.05zm13.928-7.11c0 .276-.09.498-.27.666-.18.156-.408.234-.684.234-.324 0-.594-.108-.81-.324-.204-.216-.306-.534-.306-.954 0-.396.054-.732.162-1.008a2.703 2.703 0 01.918-1.206c.18-.12.336-.204.468-.252l.45.63a1.78 1.78 0 00-.648.54c-.156.216-.234.492-.234.828a.854.854 0 01.198-.018c.24 0 .426.084.558.252a.96.96 0 01.198.612zm-2.628 0c0 .276-.09.498-.27.666-.18.156-.408.234-.684.234-.324 0-.594-.108-.81-.324-.204-.216-.306-.534-.306-.954 0-.396.054-.732.162-1.008a2.703 2.703 0 01.918-1.206c.18-.12.336-.204.468-.252l.45.63a1.78 1.78 0 00-.648.54c-.156.216-.234.492-.234.828a.854.854 0 01.198-.018c.24 0 .426.084.558.252a.96.96 0 01.198.612zm14.541 2.7l.18-1.89h-.09l-.683 1.728-3.276 5.688h-.45l-3.475-5.706-.647-1.71h-.09l.252 1.872V29h-1.404V16.4h1.115l3.943 6.444.593 1.404h.037l.558-1.44 3.762-6.408h1.17V29h-1.495v-8.46zm5.85 7.2a8 8 0 001.279.108c.756 0 1.284-.144 1.584-.432.3-.3.45-.72.45-1.26 0-.48-.15-.876-.45-1.188-.288-.312-.798-.468-1.53-.468-.204 0-.426.006-.666.018-.24.012-.462.048-.666.108v3.114zm0-4.302c.289-.048.565-.078.829-.09.264-.024.516-.036.756-.036.612 0 1.122.072 1.53.216.42.132.756.318 1.008.558.252.24.426.528.522.864.108.324.162.672.162 1.044 0 1.092-.306 1.884-.918 2.376-.6.492-1.578.738-2.934.738-.768 0-1.566-.036-2.394-.108v-9h1.44v3.438zM93.108 20h1.44v9h-1.44v-9zm9.723 5.022h-4.069V29h-1.44v-9h1.44v3.762h4.069V20h1.44v9h-1.44v-3.978zm7.146 0L107.33 29h-1.656l2.844-4.122.612-.54-.918-.684-2.34-3.654h1.53l2.484 3.888h.936V20h1.404v4.068l.846-.252L115.574 20h1.512l-2.448 3.654-.702.576.918.72 2.664 4.05h-1.71l-2.646-4.05h-.936V29h-1.404v-4.23l-.846.252zm10.371 2.718c.444.072.87.108 1.278.108.756 0 1.284-.144 1.584-.432.3-.3.45-.72.45-1.26 0-.48-.15-.876-.45-1.188-.288-.312-.798-.468-1.53-.468-.204 0-.426.006-.666.018-.24.012-.462.048-.666.108v3.114zm0-4.302c.288-.048.564-.078.828-.09.264-.024.516-.036.756-.036.612 0 1.122.072 1.53.216.42.132.756.318 1.008.558.252.24.426.528.522.864.108.324.162.672.162 1.044 0 1.092-.306 1.884-.918 2.376-.6.492-1.578.738-2.934.738-.768 0-1.566-.036-2.394-.108v-9h1.44v3.438zM126.575 20h1.44v9h-1.44v-9zm9.057 1.26h-2.61c-.036.504-.072 1.05-.108 1.638a29.51 29.51 0 01-.162 1.746 18.015 18.015 0 01-.288 1.674c-.12.528-.276.996-.468 1.404-.18.408-.408.738-.684.99-.264.24-.582.36-.954.36-.228 0-.426-.012-.594-.036a1.646 1.646 0 01-.45-.126l.216-1.206c.144.048.3.072.468.072.24 0 .456-.102.648-.306.192-.204.36-.588.504-1.152.144-.576.264-1.368.36-2.376.096-1.008.162-2.322.198-3.942h5.364v9h-1.44v-7.74zm12.167 10.026h-.972l-.27-2.286h-6.768l-.27 2.286h-.972V27.74h1.062c.096-.132.222-.366.378-.702.156-.348.306-.828.45-1.44.156-.624.288-1.392.396-2.304.12-.924.192-2.022.216-3.294h5.436v7.74h1.314v3.546zm-2.754-3.546v-6.48h-2.7a32.074 32.074 0 01-.126 1.656c-.06.588-.144 1.182-.252 1.782a13.692 13.692 0 01-.378 1.674 7.386 7.386 0 01-.54 1.368h3.996zm5.976 0c.444.072.87.108 1.278.108.756 0 1.284-.144 1.584-.432.3-.3.45-.72.45-1.26 0-.48-.15-.876-.45-1.188-.288-.312-.798-.468-1.53-.468-.204 0-.426.006-.666.018-.24.012-.462.048-.666.108v3.114zm0-4.302c.288-.048.564-.078.828-.09.264-.024.516-.036.756-.036.612 0 1.122.072 1.53.216.42.132.756.318 1.008.558.252.24.426.528.522.864.108.324.162.672.162 1.044 0 1.092-.306 1.884-.918 2.376-.6.492-1.578.738-2.934.738-.768 0-1.566-.036-2.394-.108v-9h1.44v3.438zM157.249 20h1.44v9h-1.44v-9zm6.483 4.95h-.828V29h-1.44v-9h1.44v4.068l.774-.252 2.88-3.816h1.566l-2.79 3.618-.756.594.936.72L168.52 29h-1.782l-3.006-4.05zm8.29-7.812c0-.276.084-.492.252-.648.18-.156.408-.234.684-.234.336 0 .606.108.81.324.216.204.324.516.324.936 0 .396-.06.738-.18 1.026a2.568 2.568 0 01-.414.738 2.292 2.292 0 01-.504.468c-.18.12-.336.204-.468.252l-.45-.612c.276-.144.492-.324.648-.54.156-.216.234-.498.234-.846a.854.854 0 01-.198.018.67.67 0 01-.54-.234c-.132-.168-.198-.384-.198-.648zm-2.628 0c0-.276.084-.492.252-.648.18-.156.408-.234.684-.234.336 0 .606.108.81.324.216.204.324.516.324.936 0 .396-.06.738-.18 1.026a2.568 2.568 0 01-.414.738 2.292 2.292 0 01-.504.468c-.18.12-.336.204-.468.252l-.45-.612c.276-.144.492-.324.648-.54.156-.216.234-.498.234-.846a.854.854 0 01-.198.018.67.67 0 01-.54-.234c-.132-.168-.198-.384-.198-.648z" fill="#fff"/></svg>