<svg width="51" height="27" viewBox="0 0 51 27" fill="none" xmlns="http://www.w3.org/2000/svg"><path fill-rule="evenodd" clip-rule="evenodd" d="M4 0a4 4 0 00-4 4v14a4 4 0 004 4h36.485l2.442 4.23L45.368 22H47a4 4 0 004-4V4a4 4 0 00-4-4H4z" fill="#FF4538"/><path d="M9.02 15V6.6h.996v7.512h2.748V6.6h.996v7.512h2.748V6.6h.996V15H9.02zm11.94-2.7h-.553V15h-.96V9h.96v2.712l.516-.168L22.843 9h1.044l-1.86 2.412-.504.396.624.48L24.151 15h-1.188l-2.004-2.7zm3.753-.3c0-1.016.224-1.792.672-2.328.456-.544 1.108-.816 1.956-.816.448 0 .836.076 1.164.228.336.144.612.356.828.636.216.272.376.604.48.996.104.384.156.812.156 1.284 0 1.016-.228 1.796-.684 2.34-.448.536-1.096.804-1.944.804-.448 0-.84-.072-1.176-.216a2.213 2.213 0 01-.816-.636 2.815 2.815 0 01-.48-.996A5.048 5.048 0 0124.713 12zm.996 0c0 .304.028.596.084.876.064.28.16.524.288.732.128.208.296.376.504.504.208.128.46.192.756.192 1.088.008 1.632-.76 1.632-2.304 0-.312-.032-.608-.096-.888a2.213 2.213 0 00-.276-.732 1.414 1.414 0 00-.504-.492 1.415 1.415 0 00-.756-.192c-1.088-.008-1.632.76-1.632 2.304zm8.931-2.16H32.9c-.024.336-.048.7-.072 1.092-.024.384-.06.772-.108 1.164a12.01 12.01 0 01-.192 1.116c-.08.352-.184.664-.312.936-.12.272-.272.492-.456.66a.912.912 0 01-.636.24 2.84 2.84 0 01-.396-.024 1.097 1.097 0 01-.3-.084l.144-.804a.98.98 0 00.312.048c.16 0 .304-.068.432-.204.128-.136.24-.392.336-.768.096-.384.176-.912.24-1.584S32 10.08 32.024 9H35.6v6h-.96V9.84zm2.711-.396a3.46 3.46 0 011.056-.408 6.017 6.017 0 011.272-.132c.416 0 .748.056.996.168.256.112.448.26.576.444.136.176.224.372.264.588.048.216.072.432.072.648 0 .48-.012.948-.036 1.404-.024.456-.036.888-.036 1.296 0 .296.012.576.036.84.024.264.068.508.132.732h-.708l-.252-.84h-.06a2.04 2.04 0 01-.276.336 1.85 1.85 0 01-.384.288 2.541 2.541 0 01-1.212.288c-.256 0-.496-.04-.72-.12a1.733 1.733 0 01-.564-.336 1.745 1.745 0 01-.384-.54 1.802 1.802 0 01-.132-.708c0-.352.072-.644.216-.876a1.51 1.51 0 01.6-.564c.264-.144.576-.244.936-.3a7.092 7.092 0 011.212-.096h.324c.112 0 .224.008.336.024.024-.24.036-.456.036-.648 0-.44-.088-.748-.264-.924-.176-.176-.496-.264-.96-.264-.136 0-.284.012-.444.036a3.79 3.79 0 00-.48.084c-.16.032-.316.076-.468.132a2.132 2.132 0 00-.384.168l-.3-.72zm1.704 4.812c.224 0 .424-.028.6-.084.176-.064.328-.14.456-.228.128-.096.232-.2.312-.312.088-.112.152-.22.192-.324v-.996a4.887 4.887 0 00-.348-.012 5.533 5.533 0 00-1.068.036 2.1 2.1 0 00-.624.156c-.176.072-.32.176-.432.312a.755.755 0 00-.156.492c0 .28.1.512.3.696.2.176.456.264.768.264z" fill="#fff"/></svg>