<svg width="94" height="57" viewBox="0 0 94 57" fill="none" xmlns="http://www.w3.org/2000/svg"><path fill-rule="evenodd" clip-rule="evenodd" d="M6 0a6 6 0 00-6 6v35a6 6 0 006 6h15.732l5.453 9.444L32.636 47H88a6 6 0 006-6V6a6 6 0 00-6-6H6z" fill="#FF4538"/><path d="M22.53 29V16.4h1.494v11.268h4.122V16.4h1.494v11.268h4.122V16.4h1.494V29H22.53zm17.91-4.05h-.829V29h-1.44v-9h1.44v4.068l.774-.252L43.265 20h1.566l-2.79 3.618-.756.594.936.72L45.227 29h-1.782l-3.006-4.05zm5.63-.45c0-1.524.336-2.688 1.008-3.492.683-.816 1.661-1.224 2.933-1.224.672 0 1.255.114 1.746.342a3.05 3.05 0 011.242.954c.325.408.564.906.72 1.494.157.576.234 1.218.234 1.926 0 1.524-.342 2.694-1.026 3.51-.672.804-1.644 1.206-2.916 1.206-.672 0-1.26-.108-1.764-.324a3.319 3.319 0 01-1.224-.954 4.222 4.222 0 01-.72-1.494 7.573 7.573 0 01-.233-1.944zm1.493 0c0 .456.042.894.127 1.314.096.42.24.786.431 1.098.192.312.444.564.756.756.313.192.69.288 1.134.288 1.633.012 2.448-1.14 2.448-3.456 0-.468-.048-.912-.144-1.332a3.32 3.32 0 00-.413-1.098 2.12 2.12 0 00-.757-.738c-.312-.192-.69-.288-1.134-.288-1.632-.012-2.448 1.14-2.448 3.456zm13.397-3.24h-2.61c-.036.504-.072 1.05-.108 1.638a29.51 29.51 0 01-.162 1.746 18.015 18.015 0 01-.288 1.674c-.12.528-.276.996-.468 1.404-.18.408-.408.738-.684.99-.264.24-.582.36-.954.36-.228 0-.426-.012-.594-.036a1.646 1.646 0 01-.45-.126l.216-1.206c.144.048.3.072.468.072.24 0 .456-.102.648-.306.192-.204.36-.588.504-1.152.144-.576.264-1.368.36-2.376.096-1.008.162-2.322.198-3.942H62.4v9h-1.44v-7.74zm4.067-.594a5.19 5.19 0 011.584-.612 9.026 9.026 0 011.908-.198c.624 0 1.122.084 1.494.252.384.168.672.39.864.666.204.264.336.558.396.882.072.324.108.648.108.972 0 .72-.018 1.422-.054 2.106a37.07 37.07 0 00-.054 1.944c0 .444.018.864.054 1.26.036.396.102.762.198 1.098h-1.062l-.378-1.26h-.09a3.061 3.061 0 01-.414.504c-.156.156-.348.3-.576.432a3.812 3.812 0 01-1.818.432c-.384 0-.744-.06-1.08-.18a2.6 2.6 0 01-.846-.504 2.618 2.618 0 01-.576-.81 2.703 2.703 0 01-.198-1.062c0-.528.108-.966.324-1.314.216-.36.516-.642.9-.846a4.293 4.293 0 011.404-.45 10.638 10.638 0 011.818-.144h.486c.168 0 .336.012.504.036.036-.36.054-.684.054-.972 0-.66-.132-1.122-.396-1.386-.264-.264-.744-.396-1.44-.396-.204 0-.426.018-.666.054a5.686 5.686 0 00-.72.126c-.24.048-.474.114-.702.198a3.198 3.198 0 00-.576.252l-.45-1.08zm2.556 7.218c.336 0 .636-.042.9-.126.264-.096.492-.21.684-.342.192-.144.348-.3.468-.468.132-.168.228-.33.288-.486v-1.494a7.33 7.33 0 00-.522-.018 8.3 8.3 0 00-1.602.054 3.15 3.15 0 00-.936.234c-.264.108-.48.264-.648.468-.156.192-.234.438-.234.738 0 .42.15.768.45 1.044.3.264.684.396 1.152.396z" fill="#fff"/></svg>