<svg width="195" height="57" viewBox="0 0 195 57" fill="none" xmlns="http://www.w3.org/2000/svg"><path fill-rule="evenodd" clip-rule="evenodd" d="M6 0a6 6 0 00-6 6v35a6 6 0 006 6h50.732l5.453 9.444L67.636 47H189a6 6 0 006-6V6a6 6 0 00-6-6H6z" fill="#2576AC"/><path d="M28.126 19.28c0 .3-.048.606-.144.918a3.17 3.17 0 01-.432.882 2.953 2.953 0 01-.738.702c-.3.204-.654.36-1.062.468v.072c.36.06.702.162 1.026.306a2.787 2.787 0 011.494 1.512c.156.36.234.786.234 1.278 0 .648-.138 1.212-.414 1.692a3.37 3.37 0 01-1.062 1.152c-.432.3-.93.522-1.494.666a6.958 6.958 0 01-1.728.216h-.72c-.276 0-.564-.012-.864-.036-.3-.012-.6-.036-.9-.072a4.566 4.566 0 01-.792-.126V16.508c.444-.072.96-.132 1.548-.18a23.78 23.78 0 011.926-.072c.468 0 .942.042 1.422.126.492.072.936.222 1.332.45.396.216.72.522.972.918.264.396.396.906.396 1.53zm-4.176 8.568c.384 0 .756-.042 1.116-.126.36-.096.678-.24.954-.432.276-.204.492-.45.648-.738.168-.288.252-.63.252-1.026 0-.492-.102-.888-.306-1.188-.192-.3-.45-.534-.774-.702a3.249 3.249 0 00-1.062-.342 7.92 7.92 0 00-1.188-.09h-1.566v4.518c.084.024.204.042.36.054a49.708 49.708 0 001.062.072h.504zm-.99-5.904c.204 0 .45-.006.738-.018.288-.012.528-.03.72-.054a5.47 5.47 0 00.81-.342c.252-.144.474-.306.666-.486a2.03 2.03 0 00.468-.648c.12-.252.18-.522.18-.81 0-.396-.078-.72-.234-.972a1.666 1.666 0 00-.594-.63 2.484 2.484 0 00-.864-.324 4.55 4.55 0 00-.99-.108c-.396 0-.762.012-1.098.036a4.59 4.59 0 00-.738.072v4.284h.936zm7.434 2.556c0-1.524.336-2.688 1.008-3.492.684-.816 1.662-1.224 2.934-1.224.672 0 1.254.114 1.746.342.504.216.918.534 1.242.954.324.408.564.906.72 1.494.156.576.234 1.218.234 1.926 0 1.524-.342 2.694-1.026 3.51-.672.804-1.644 1.206-2.916 1.206-.672 0-1.26-.108-1.764-.324a3.319 3.319 0 01-1.224-.954 4.222 4.222 0 01-.72-1.494 7.573 7.573 0 01-.234-1.944zm1.494 0c0 .456.042.894.126 1.314.096.42.24.786.432 1.098.192.312.444.564.756.756.312.192.69.288 1.134.288 1.632.012 2.448-1.14 2.448-3.456 0-.468-.048-.912-.144-1.332a3.32 3.32 0 00-.414-1.098 2.12 2.12 0 00-.756-.738c-.312-.192-.69-.288-1.134-.288-1.632-.012-2.448 1.14-2.448 3.456zm10.928.45h-.828V29h-1.44v-9h1.44v4.068l.774-.252L45.642 20h1.566l-2.79 3.618-.756.594.936.72L47.604 29h-1.782l-3.006-4.05zm7.192.036v-1.17h1.26c.216 0 .426-.036.63-.108.216-.072.408-.168.576-.288.168-.132.3-.282.396-.45a1.07 1.07 0 00.162-.558c0-.468-.162-.798-.486-.99-.324-.192-.81-.288-1.458-.288-.468 0-.9.072-1.296.216a5.449 5.449 0 00-.9.414l-.414-1.116c.36-.204.78-.384 1.26-.54.492-.156 1.074-.234 1.746-.234 1.992 0 2.988.738 2.988 2.214 0 .42-.138.834-.414 1.242-.264.396-.648.678-1.152.846v.072c.708.132 1.2.384 1.476.756.288.372.432.864.432 1.476 0 .384-.078.738-.234 1.062a2.35 2.35 0 01-.702.846c-.312.24-.708.432-1.188.576-.468.132-1.014.198-1.638.198-.612 0-1.122-.054-1.53-.162a6.32 6.32 0 01-1.08-.396l.414-1.188c.276.156.606.276.99.36.396.084.822.126 1.278.126.732 0 1.29-.126 1.674-.378.384-.252.576-.636.576-1.152 0-.432-.18-.768-.54-1.008-.36-.252-.954-.378-1.782-.378h-1.044zm6.937-4.32a5.19 5.19 0 011.584-.612 9.026 9.026 0 011.908-.198c.624 0 1.122.084 1.494.252.384.168.672.39.864.666.204.264.336.558.396.882.072.324.108.648.108.972 0 .72-.018 1.422-.054 2.106a37.07 37.07 0 00-.054 1.944c0 .444.018.864.054 1.26.036.396.102.762.198 1.098h-1.062l-.378-1.26h-.09a3.061 3.061 0 01-.414.504c-.156.156-.348.3-.576.432a3.812 3.812 0 01-1.818.432c-.384 0-.744-.06-1.08-.18a2.6 2.6 0 01-.846-.504 2.618 2.618 0 01-.576-.81 2.703 2.703 0 01-.198-1.062c0-.528.108-.966.324-1.314.216-.36.516-.642.9-.846a4.293 4.293 0 011.404-.45 10.638 10.638 0 011.818-.144h.486c.168 0 .336.012.504.036.036-.36.054-.684.054-.972 0-.66-.132-1.122-.396-1.386-.264-.264-.744-.396-1.44-.396-.204 0-.426.018-.666.054a5.686 5.686 0 00-.72.126c-.24.048-.474.114-.702.198a3.198 3.198 0 00-.576.252l-.45-1.08zm2.556 7.218c.336 0 .636-.042.9-.126.264-.096.492-.21.684-.342.192-.144.348-.3.468-.468.132-.168.228-.33.288-.486v-1.494a7.33 7.33 0 00-.522-.018 8.3 8.3 0 00-1.602.054 3.15 3.15 0 00-.936.234c-.264.108-.48.264-.648.468-.156.192-.234.438-.234.738 0 .42.15.768.45 1.044.3.264.684.396 1.152.396zm11.36-6.624h-2.61c-.036.504-.072 1.05-.108 1.638a29.51 29.51 0 01-.162 1.746 18.015 18.015 0 01-.288 1.674c-.12.528-.276.996-.468 1.404-.18.408-.408.738-.684.99-.264.24-.582.36-.954.36-.228 0-.426-.012-.594-.036a1.646 1.646 0 01-.45-.126l.216-1.206c.144.048.3.072.468.072.24 0 .456-.102.648-.306.192-.204.36-.588.504-1.152.144-.576.264-1.368.36-2.376.096-1.008.162-2.322.198-3.942H72.3v9h-1.44v-7.74zm11.81-3.42c0 .276-.09.498-.27.666-.18.156-.407.234-.683.234-.324 0-.594-.108-.81-.324-.204-.216-.306-.534-.306-.954 0-.396.054-.732.162-1.008a2.703 2.703 0 01.918-1.206c.18-.12.336-.204.468-.252l.45.63a1.78 1.78 0 00-.648.54c-.156.216-.234.492-.234.828a.854.854 0 01.198-.018c.24 0 .426.084.558.252a.96.96 0 01.198.612zm-2.627 0c0 .276-.09.498-.27.666-.18.156-.408.234-.684.234-.324 0-.594-.108-.81-.324-.204-.216-.306-.534-.306-.954 0-.396.054-.732.162-1.008a2.703 2.703 0 01.918-1.206c.18-.12.336-.204.468-.252l.45.63a1.78 1.78 0 00-.648.54c-.156.216-.234.492-.234.828a.854.854 0 01.198-.018c.24 0 .426.084.558.252a.96.96 0 01.198.612zm12.4 5.382h-6.049V29h-1.494V16.4h1.494v5.49h6.048V16.4h1.494V29h-1.494v-5.778zm7.053 2.61L100 27.56h.09l.396-1.746L102.233 20h1.458l-2.664 8.082a90.626 90.626 0 01-.612 1.71 9.377 9.377 0 01-.648 1.476c-.24.432-.51.774-.81 1.026-.3.264-.648.396-1.044.396-.432 0-.786-.06-1.062-.18l.252-1.242c.156.06.306.09.45.09.336 0 .66-.18.972-.54.312-.348.57-.954.774-1.818l-3.618-9h1.656l2.16 5.832zM105.236 20h.99l.27 1.08h.072c.276-.42.63-.738 1.062-.954a3.262 3.262 0 011.512-.342c1.2 0 2.094.354 2.682 1.062.588.708.882 1.866.882 3.474 0 .756-.102 1.44-.306 2.052a4.36 4.36 0 01-.828 1.53 3.65 3.65 0 01-1.314.972 4.06 4.06 0 01-1.692.342c-.444 0-.798-.03-1.062-.09a3.888 3.888 0 01-.828-.27V32.6h-1.44V20zm3.636 1.044c-.612 0-1.098.162-1.458.486-.348.312-.594.792-.738 1.44v4.464c.216.168.462.3.738.396.276.084.642.126 1.098.126.828 0 1.482-.306 1.962-.918.492-.624.738-1.536.738-2.736 0-.492-.042-.936-.126-1.332a2.748 2.748 0 00-.414-1.026c-.18-.288-.42-.51-.72-.666-.288-.156-.648-.234-1.08-.234zm10.838.216h-2.61c-.036.504-.072 1.05-.108 1.638a29.51 29.51 0 01-.162 1.746 18.015 18.015 0 01-.288 1.674c-.12.528-.276.996-.468 1.404-.18.408-.408.738-.684.99-.264.24-.582.36-.954.36-.228 0-.426-.012-.594-.036a1.646 1.646 0 01-.45-.126l.216-1.206c.144.048.3.072.468.072.24 0 .456-.102.648-.306.192-.204.36-.588.504-1.152.144-.576.264-1.368.36-2.376.096-1.008.162-2.322.198-3.942h5.364v9h-1.44v-7.74zm5.651 6.48c.444.072.87.108 1.278.108.756 0 1.284-.144 1.584-.432.3-.3.45-.72.45-1.26 0-.48-.15-.876-.45-1.188-.288-.312-.798-.468-1.53-.468-.204 0-.426.006-.666.018-.24.012-.462.048-.666.108v3.114zm0-4.302c.288-.048.564-.078.828-.09.264-.024.516-.036.756-.036.612 0 1.122.072 1.53.216.42.132.756.318 1.008.558.252.24.426.528.522.864.108.324.162.672.162 1.044 0 1.092-.306 1.884-.918 2.376-.6.492-1.578.738-2.934.738-.768 0-1.566-.036-2.394-.108v-9h1.44v3.438zM131.589 20h1.44v9h-1.44v-9zm11.948 5.022L140.891 29h-1.656l2.844-4.122.612-.54-.918-.684-2.34-3.654h1.53l2.484 3.888h.936V20h1.404v4.068l.846-.252L149.135 20h1.512l-2.448 3.654-.702.576.918.72 2.664 4.05h-1.71l-2.646-4.05h-.936V29h-1.404v-4.23l-.846.252zm8.304-.522c0-1.524.336-2.688 1.008-3.492.684-.816 1.662-1.224 2.934-1.224.672 0 1.254.114 1.746.342.504.216.918.534 1.242.954.324.408.564.906.72 1.494.156.576.234 1.218.234 1.926 0 1.524-.342 2.694-1.026 3.51-.672.804-1.644 1.206-2.916 1.206-.672 0-1.26-.108-1.764-.324a3.319 3.319 0 01-1.224-.954 4.222 4.222 0 01-.72-1.494 7.573 7.573 0 01-.234-1.944zm1.494 0c0 .456.042.894.126 1.314.096.42.24.786.432 1.098.192.312.444.564.756.756.312.192.69.288 1.134.288 1.632.012 2.448-1.14 2.448-3.456 0-.468-.048-.912-.144-1.332a3.32 3.32 0 00-.414-1.098 2.12 2.12 0 00-.756-.738c-.312-.192-.69-.288-1.134-.288-1.632-.012-2.448 1.14-2.448 3.456zm13.397-3.24h-2.61c-.036.504-.072 1.05-.108 1.638a29.51 29.51 0 01-.162 1.746 18.015 18.015 0 01-.288 1.674c-.12.528-.276.996-.468 1.404-.18.408-.408.738-.684.99-.264.24-.582.36-.954.36-.228 0-.426-.012-.594-.036a1.646 1.646 0 01-.45-.126l.216-1.206c.144.048.3.072.468.072.24 0 .456-.102.648-.306.192-.204.36-.588.504-1.152.144-.576.264-1.368.36-2.376.096-1.008.162-2.322.198-3.942h5.364v9h-1.44v-7.74zm6.173-4.122c0-.276.084-.492.252-.648.18-.156.408-.234.684-.234.336 0 .606.108.81.324.216.204.324.516.324.936 0 .396-.06.738-.18 1.026a2.568 2.568 0 01-.414.738 2.292 2.292 0 01-.504.468c-.18.12-.336.204-.468.252l-.45-.612c.276-.144.492-.324.648-.54.156-.216.234-.498.234-.846a.854.854 0 01-.198.018.67.67 0 01-.54-.234c-.132-.168-.198-.384-.198-.648zm-2.628 0c0-.276.084-.492.252-.648.18-.156.408-.234.684-.234.336 0 .606.108.81.324.216.204.324.516.324.936 0 .396-.06.738-.18 1.026a2.568 2.568 0 01-.414.738 2.292 2.292 0 01-.504.468c-.18.12-.336.204-.468.252l-.45-.612c.276-.144.492-.324.648-.54.156-.216.234-.498.234-.846a.854.854 0 01-.198.018.67.67 0 01-.54-.234c-.132-.168-.198-.384-.198-.648z" fill="#fff"/></svg>