<svg width="121" height="27" viewBox="0 0 121 27" fill="none" xmlns="http://www.w3.org/2000/svg"><path fill-rule="evenodd" clip-rule="evenodd" d="M4 0a4 4 0 00-4 4v14a4 4 0 004 4h77.351l2.887 5 2.887-5H117a4 4 0 004-4V4a4 4 0 00-4-4H4z" fill="#2576AC"/><path d="M14.36 8.52c0 .2-.033.404-.097.612-.064.208-.16.404-.288.588a1.969 1.969 0 01-.492.468c-.2.136-.436.24-.708.312v.048c.24.04.468.108.684.204a1.858 1.858 0 01.996 1.008c.104.24.156.524.156.852 0 .432-.092.808-.276 1.128a2.247 2.247 0 01-.708.768c-.288.2-.62.348-.996.444-.376.096-.76.144-1.152.144H11a7.23 7.23 0 01-.576-.024c-.2-.008-.4-.024-.6-.048a3.044 3.044 0 01-.528-.084V6.672c.296-.048.64-.088 1.032-.12s.82-.048 1.284-.048c.312 0 .628.028.948.084.328.048.624.148.888.3.264.144.48.348.648.612.176.264.264.604.264 1.02zm-2.785 5.712c.256 0 .504-.028.744-.084.24-.064.452-.16.636-.288.184-.136.328-.3.432-.492.112-.192.168-.42.168-.684 0-.328-.068-.592-.204-.792-.128-.2-.3-.356-.516-.468a2.166 2.166 0 00-.708-.228 5.28 5.28 0 00-.792-.06h-1.044v3.012c.056.016.136.028.24.036a33.139 33.139 0 00.708.048h.336zm-.66-3.936c.136 0 .3-.004.492-.012s.352-.02.48-.036c.192-.064.372-.14.54-.228a2.35 2.35 0 00.444-.324 1.353 1.353 0 00.432-.972c0-.264-.052-.48-.156-.648a1.11 1.11 0 00-.396-.42 1.656 1.656 0 00-.576-.216 3.033 3.033 0 00-.66-.072c-.264 0-.508.008-.732.024a3.06 3.06 0 00-.492.048v2.856h.624zM15.871 12c0-1.016.224-1.792.672-2.328.456-.544 1.108-.816 1.956-.816.448 0 .836.076 1.164.228.336.144.612.356.828.636.216.272.376.604.48.996.104.384.156.812.156 1.284 0 1.016-.228 1.796-.684 2.34-.448.536-1.096.804-1.944.804-.448 0-.84-.072-1.176-.216a2.213 2.213 0 01-.816-.636 2.815 2.815 0 01-.48-.996A5.048 5.048 0 0115.871 12zm.996 0c0 .304.028.596.084.876.064.28.16.524.288.732.128.208.296.376.504.504.208.128.46.192.756.192 1.088.008 1.632-.76 1.632-2.304 0-.312-.032-.608-.096-.888a2.213 2.213 0 00-.276-.732 1.414 1.414 0 00-.504-.492 1.415 1.415 0 00-.756-.192c-1.088-.008-1.632.76-1.632 2.304zm7.286.3H23.6V15h-.96V9h.96v2.712l.516-.168L26.037 9h1.044l-1.86 2.412-.504.396.624.48L27.345 15h-1.188l-2.004-2.7zm4.794.024v-.78h.84c.144 0 .284-.024.42-.072.144-.048.272-.112.384-.192.112-.088.2-.188.264-.3a.714.714 0 00.108-.372c0-.312-.108-.532-.324-.66-.216-.128-.54-.192-.972-.192-.312 0-.6.048-.864.144a3.633 3.633 0 00-.6.276l-.276-.744c.24-.136.52-.256.84-.36a3.868 3.868 0 011.164-.156c1.328 0 1.992.492 1.992 1.476 0 .28-.092.556-.276.828a1.433 1.433 0 01-.768.564v.048c.472.088.8.256.984.504.192.248.288.576.288.984 0 .256-.052.492-.156.708-.104.216-.26.404-.468.564-.208.16-.472.288-.792.384a4.042 4.042 0 01-1.092.132c-.408 0-.748-.036-1.02-.108a4.214 4.214 0 01-.72-.264l.276-.792c.184.104.404.184.66.24.264.056.548.084.852.084.488 0 .86-.084 1.116-.252.256-.168.384-.424.384-.768a.763.763 0 00-.36-.672c-.24-.168-.636-.252-1.188-.252h-.696zm4.625-2.88a3.46 3.46 0 011.056-.408 6.017 6.017 0 011.272-.132c.416 0 .748.056.996.168.256.112.448.26.576.444.136.176.224.372.264.588.048.216.072.432.072.648 0 .48-.012.948-.036 1.404-.024.456-.036.888-.036 1.296 0 .296.012.576.036.84.024.264.068.508.132.732h-.708l-.252-.84h-.06a2.04 2.04 0 01-.276.336 1.85 1.85 0 01-.384.288 2.541 2.541 0 01-1.212.288c-.256 0-.496-.04-.72-.12a1.733 1.733 0 01-.564-.336 1.745 1.745 0 01-.384-.54 1.802 1.802 0 01-.132-.708c0-.352.072-.644.216-.876a1.51 1.51 0 01.6-.564c.264-.144.576-.244.936-.3a7.092 7.092 0 011.212-.096h.324c.112 0 .224.008.336.024.024-.24.036-.456.036-.648 0-.44-.088-.748-.264-.924-.176-.176-.496-.264-.96-.264-.136 0-.284.012-.444.036a3.79 3.79 0 00-.48.084c-.16.032-.316.076-.468.132a2.132 2.132 0 00-.384.168l-.3-.72zm1.704 4.812c.224 0 .424-.028.6-.084.176-.064.328-.14.456-.228.128-.096.232-.2.312-.312.088-.112.152-.22.192-.324v-.996a4.887 4.887 0 00-.348-.012 5.533 5.533 0 00-1.068.036 2.1 2.1 0 00-.624.156c-.176.072-.32.176-.432.312a.755.755 0 00-.156.492c0 .28.1.512.3.696.2.176.456.264.768.264zM42.85 9.84h-1.74c-.024.336-.048.7-.072 1.092-.024.384-.06.772-.108 1.164a12.01 12.01 0 01-.192 1.116c-.08.352-.184.664-.312.936-.12.272-.272.492-.456.66a.912.912 0 01-.636.24 2.84 2.84 0 01-.396-.024 1.097 1.097 0 01-.3-.084l.144-.804a.98.98 0 00.312.048c.16 0 .304-.068.432-.204.128-.136.24-.392.336-.768.096-.384.176-.912.24-1.584s.108-1.548.132-2.628h3.576v6h-.96V9.84zm7.874-2.28c0 .184-.06.332-.18.444a.671.671 0 01-.456.156.733.733 0 01-.54-.216c-.136-.144-.204-.356-.204-.636 0-.264.036-.488.108-.672a1.802 1.802 0 01.612-.804c.12-.08.224-.136.312-.168l.3.42c-.176.088-.32.208-.432.36a.92.92 0 00-.156.552.57.57 0 01.132-.012c.16 0 .284.056.372.168a.64.64 0 01.132.408zm-1.752 0c0 .184-.06.332-.18.444a.671.671 0 01-.456.156.733.733 0 01-.54-.216c-.136-.144-.204-.356-.204-.636 0-.264.036-.488.108-.672a1.802 1.802 0 01.612-.804c.12-.08.224-.136.312-.168l.3.42c-.176.088-.32.208-.432.36a.92.92 0 00-.156.552.57.57 0 01.132-.012c.16 0 .284.056.372.168a.64.64 0 01.132.408zm8.267 3.588h-4.032V15h-.997V6.6h.996v3.66h4.032V6.6h.996V15h-.995v-3.852zm4.702 1.74l.336 1.152h.06l.264-1.164L63.764 9h.972l-1.776 5.388c-.136.392-.272.772-.408 1.14a6.264 6.264 0 01-.432.984c-.16.288-.34.516-.54.684-.2.176-.432.264-.696.264-.288 0-.524-.04-.708-.12l.168-.828c.104.04.204.06.3.06.224 0 .44-.12.648-.36.208-.232.38-.636.516-1.212l-2.412-6H60.5l1.44 3.888zM65.766 9h.66l.18.72h.048a1.8 1.8 0 01.708-.636 2.175 2.175 0 011.008-.228c.8 0 1.396.236 1.788.708.392.472.588 1.244.588 2.316 0 .504-.068.96-.204 1.368-.128.4-.312.74-.552 1.02-.24.28-.532.496-.876.648a2.706 2.706 0 01-1.128.228c-.296 0-.532-.02-.708-.06a2.592 2.592 0 01-.552-.18V17.4h-.96V9zm2.424.696c-.408 0-.732.108-.972.324-.232.208-.396.528-.492.96v2.976c.144.112.308.2.492.264.184.056.428.084.732.084.552 0 .988-.204 1.308-.612.328-.416.492-1.024.492-1.824 0-.328-.028-.624-.084-.888a1.832 1.832 0 00-.276-.684 1.22 1.22 0 00-.48-.444c-.192-.104-.432-.156-.72-.156zm7.226.144h-1.74c-.024.336-.048.7-.072 1.092-.024.384-.06.772-.108 1.164a12.01 12.01 0 01-.192 1.116c-.08.352-.184.664-.312.936-.12.272-.272.492-.456.66a.912.912 0 01-.636.24 2.84 2.84 0 01-.396-.024 1.097 1.097 0 01-.3-.084l.144-.804a.98.98 0 00.312.048c.16 0 .304-.068.432-.204.128-.136.24-.392.336-.768.096-.384.176-.912.24-1.584S72.776 10.08 72.8 9h3.576v6h-.96V9.84zm3.767 4.32c.296.048.58.072.852.072.504 0 .856-.096 1.056-.288.2-.2.3-.48.3-.84 0-.32-.1-.584-.3-.792-.192-.208-.532-.312-1.02-.312-.136 0-.284.004-.444.012-.16.008-.308.032-.444.072v2.076zm0-2.868c.192-.032.376-.052.552-.06.176-.016.344-.024.504-.024.408 0 .748.048 1.02.144.28.088.504.212.672.372.168.16.284.352.348.576.072.216.108.448.108.696 0 .728-.204 1.256-.612 1.584-.4.328-1.052.492-1.956.492-.512 0-1.044-.024-1.596-.072V9h.96v2.292zM83.335 9h.96v6h-.96V9zm7.965 3.348L89.536 15h-1.104l1.896-2.748.408-.36-.612-.456L88.564 9h1.02l1.656 2.592h.624V9h.936v2.712l.564-.168L95.032 9h1.008l-1.632 2.436-.468.384.612.48 1.776 2.7h-1.14l-1.764-2.7H92.8V15h-.936v-2.82l-.564.168zM96.836 12c0-1.016.224-1.792.672-2.328.456-.544 1.108-.816 1.956-.816.448 0 .836.076 1.164.228.336.144.612.356.828.636.216.272.376.604.48.996.104.384.156.812.156 1.284 0 1.016-.228 1.796-.684 2.34-.448.536-1.096.804-1.944.804-.448 0-.84-.072-1.176-.216a2.213 2.213 0 01-.816-.636 2.815 2.815 0 01-.48-.996A5.048 5.048 0 0196.836 12zm.996 0c0 .304.028.596.084.876.064.28.16.524.288.732.128.208.296.376.504.504.208.128.46.192.756.192 1.088.008 1.632-.76 1.632-2.304 0-.312-.032-.608-.096-.888a2.213 2.213 0 00-.276-.732 1.414 1.414 0 00-.504-.492 1.415 1.415 0 00-.756-.192c-1.088-.008-1.632.76-1.632 2.304zm8.931-2.16h-1.74c-.024.336-.048.7-.072 1.092-.024.384-.06.772-.108 1.164a12.01 12.01 0 01-.192 1.116c-.08.352-.184.664-.312.936-.12.272-.272.492-.456.66a.912.912 0 01-.636.24 2.84 2.84 0 01-.396-.024 1.097 1.097 0 01-.3-.084l.144-.804a.98.98 0 00.312.048c.16 0 .304-.068.432-.204.128-.136.24-.392.336-.768.096-.384.176-.912.24-1.584s.108-1.548.132-2.628h3.576v6h-.96V9.84zm4.115-2.748a.56.56 0 01.168-.432.671.671 0 01.456-.156c.224 0 .404.072.54.216.144.136.216.344.216.624 0 .264-.04.492-.12.684a1.712 1.712 0 01-.276.492 1.528 1.528 0 01-.336.312c-.12.08-.224.136-.312.168l-.3-.408c.184-.096.328-.216.432-.36.104-.144.156-.332.156-.564a.57.57 0 01-.132.012.447.447 0 01-.36-.156.678.678 0 01-.132-.432zm-1.752 0a.56.56 0 01.168-.432.671.671 0 01.456-.156c.224 0 .404.072.54.216.144.136.216.344.216.624 0 .264-.04.492-.12.684a1.712 1.712 0 01-.276.492 1.528 1.528 0 01-.336.312c-.12.08-.224.136-.312.168l-.3-.408c.184-.096.328-.216.432-.36.104-.144.156-.332.156-.564a.57.57 0 01-.132.012.447.447 0 01-.36-.156.678.678 0 01-.132-.432z" fill="#fff"/></svg>